<mxfile host="Electron" agent="Mozilla/5.0 (Windows NT 10.0; Win64; x64) AppleWebKit/537.36 (KHTML, like Gecko) draw.io/26.0.16 Chrome/132.0.6834.196 Electron/34.2.0 Safari/537.36" version="26.0.16">
  <diagram name="Page-1" id="mQjoliwW6jR8Ad3OTXpo">
    <mxGraphModel dx="2284" dy="836" grid="1" gridSize="10" guides="1" tooltips="1" connect="1" arrows="1" fold="1" page="1" pageScale="1" pageWidth="850" pageHeight="1100" math="0" shadow="0">
      <root>
        <mxCell id="0" />
        <mxCell id="1" parent="0" />
        <mxCell id="2dmJKJk6RMaou3IX4uly-5" value="" style="ellipse;whiteSpace=wrap;html=1;" vertex="1" parent="1">
          <mxGeometry x="810" y="330" width="450" height="270" as="geometry" />
        </mxCell>
        <mxCell id="2dmJKJk6RMaou3IX4uly-3" value="" style="ellipse;whiteSpace=wrap;html=1;" vertex="1" parent="1">
          <mxGeometry x="-70" y="280" width="630" height="370" as="geometry" />
        </mxCell>
        <mxCell id="2dmJKJk6RMaou3IX4uly-2" value="" style="shape=image;verticalLabelPosition=bottom;labelBackgroundColor=default;verticalAlign=top;aspect=fixed;imageAspect=0;image=data:image/png,iVBORw0KGgoAAAANSUhEUgAABW0AAAIZCAYAAADdgx3qAAAAAXNSR0IArs4c6QAAAARnQU1BAACxjwv8YQUAAAAJcEhZcwAAFiUAABYlAUlSJPAAAP+lSURBVHhe7N13VBNZGwbwBxTFCtgQO1Z0EdS1d8HeXdG1rr2tfW3r2tfeP/vaXXtB14IdCyoWrCCroCLFjoWgrIR6vz8CIRmSECBg1Od3Ts5J5t4kU+5MJu/cea+JEEKAiIiIiIiIiIiIiIyCqXQCEREREREREREREX05DNoSERERERERERERGREGbYmIiIiIiIiIiIiMCIO2REREREREREREREaEQVsiIiIiIiIiIiIiI8KgLREREREREREREZERYdCWiIiIiIiIiIiIyIgwaEtERERERERERERkRBi0JSIiIiIiIiIiIjIiDNoSERERERERERERGREGbYmIiIiIiIiIiIiMCIO2REREREREREREREaEQVsiIiIiIiIiIiIiI8KgLREREREREREREZERYdCWiIiIiIiIiIiIyIgwaEtERERERERERERkRBi0JSIiIiIiIiIiIjIiJkIIIZ1IRJkjPiIcH2MFgOywtMwhLc5wEcHeuHbnDnyefFBOy5K/JOrWcULNivnU6iqE4uSasyjVvwcq5jCRFn7DoiCTRQIAcuS2RPas0nIiTZLajYm5BSzMM36fEfJwhMu/3DGFiIiIiIiIDCNVQVv5nU1o+/se6WS9FShTC40b1EW9Bk6oXDyntJjou3B1ZWN0HHMJb9V2vYnwiVuAyqaZEdQJxanN87F85V84+0iOnGVqoV0zJ9QonT+hxht4Hz6Mg28qYcmG1RjmVEz53sCDQ1GryytsenII7UtnUU7/FsnvrEWVtqPg/ypObfpij2iMb2imNo2Aq2s6YfqRj9LJAACLehOxe0YLZJcWpEo4Dk7uiXW3FUFQqQJt5mPv6JrSyZku9o07+jbuiF1+/6lNH7zNH+v7lFebZihf+phCREREREREhpeqoG3ce3/cDs2DfFGP8ODeaSyZshSXX8YAAMysW2DGshGoY6M5GBsnC8Zx11XYvece3gqBCm0nYdm8CWhdOTFQRPR9eOfvAZ+XcQi9sRaj/jiUEGjJnABL0Ok5+KX/n7j8MgaOLjMx94+BaFq5qMaeo+8DzuB/44fjcuE52LmyK2w+nsPgHztgS3BTHAn49oO2ce/94eHzAnGy+1g5eTLc/BXBQgZtNXvnfwMf8lrjo/9DeLmtwsxlp1SCiI2wz98dXctraGh6ig7YBedKfXAlOjGIbo12Y2bh1/bVUbFiLrx+VxC17L/874mQh+L2dV+ER4Zg79yx2OQpAzI4aKs8ptzejImT9uBZfOYdU4iIiIiIiChjpCpoK3V1ZTPUG+0OAHAYfhheqzuk2JMq9s1lLBzzK6bu9QVgjZ5LjmLzuJopvo+koiCTxfP2Vy1ErBzhEcLI108IVrapjdEnXmVCgCUcx2f1Qr9Zx/FW1MDvOzfhj56VkUdaLZlwuE3rgtF+zhhf5jh+XXgZQPtMDdoaw7Z8eXQMinZYAXzFQdtImQymmZbawRd/1mqMG/lr4cTJEwCAHn/5YdeQCtKKevNc1hRbfUth89bNAIAiTZfjypnRsDXJqH0m/cLOzUC+pn8CGRy0TRKOnYOroffGp5lwTCEiIiIiIqKMlK6ByAoXTrptOltuc70Cr1mtG2DKnlu4vWkgCpqEYtf4Wmg/9TQ+SSuSTjEv3NCzyEzcj09zzP2bJr+zFlX77cOLtF+TyAQl8EO9AtKJGSAEOwc3RtuZbngramCFuxvm6xWwBQALtJ29CZNz/50QsM18xrAtrQqXkE76yoRi16+OWHVVcWdExssLywLZUK9vf/TIo/hlOLp8D/zTuA2F/AoObq6M7l2Sgr7Zclsim1ot45PbzgGtc2RmgN8CNqVySScSERERERHRVyhdQVtV7/xfpSKokh3VBmzExT2DUNDEBGfmtkT3hTeklUiH2BfBOKE5tSMBeBV0XzrpOxWFc/MGo/fGewCA3qs3YpRzQWmlFJRA/1UbMKxUbmlBpuC2NIRneOoeJp2Ygd7i9c0IZCvcHN1HVwIARPjPwoEzEdKKepHduISAHt1QN3/m9O4mIiIiIiIi+tIMFrRNi0o/T8G8bsUBAMd/H4LVV9nfVl+Bj32kk0hF4MOb0knfJdnVpRgz/SwAoFjL5Zg5uLK0il5Mc9fH+IUu0smZgtsy/WKCg+AdIZdOzgTmcG7XCwUTUhj8c9YTUdIqKQrH8V1e6NnlR2kBERERERER0TfriwZtgRLo9fsk2GcxBeCN+TM2I1Dv3rrfs3Dc8fgyt6p/HXzheeK1dOJ3R8jvY8mk5fCNiwdgjcEjeqK0WdrzW9q2H4CxtvolVTAcbktDeOt9GSciMys1grocNZtjRI18AIA7S7fC42XiQGL6iXnhjoPPW6JeOfayJSIiIiIiou/HFw7aAuYObTGohTUA4KX7WOxK4+2z35PoADds2x4inUwJwjyOYvXND9LJ351XZzZj7pV3AAAz6z7o0Cx9+XNNzGvAqWdZ6eQMxW1pCCFw3XxAOjET2aPz8OYJz/fj4NkASbluj84dRNk+bVDUiAccIyIiIiIiIjK0Lx60BUqgeosflK927DiOd+xsq0M4jq5YiHNRsdICAgD4YvW0/+Htd99jOwSu6/crX9Uc2BoO2dIb9MqOeo3bSSdmIG5LQ3h1fA3mHHslnZyp7Nr0VA5I5rbzXCryn/vi0CZruLQqKi0gIiIiIiIi+qYZQdAWqPhDXeXzR7v24GpgyrfPilg5nty7iPMXDmPz1oM4f+EqHr/N2JG5Pr/zx9UL53H2n63YdsgdF68/QLhcEXyICD4Lj7sp9RKOwjv/Gzh/4TB27zmO8xfuICQsNfMcjuOzeuHX1b7SAr0JeThkMhlksiAEPf8sLVYTKZNBJpMh7PVr5XJqFpXwmTIEv1Yf7ChS9gYP/Z4iPELX+xUSt+m5k3ux959zuHj9AUL1eF+i+IhHWDOoF6ZffistSoPEbXUSu7buwqkL5+ETqHt9aaNY50G4c/0B3shkacjpmXrRAZdxwD1U+bpu1Ypq5WmVu6wDWudIOfhrTNsycb89uGd3wnb8kCnbwJCSjnea2mM4vA57arzY9frcXPw8ePkXD3xnyV8frbopAq8v3Vfg8E39LjrJfS7haq2WqJLXMD9Vievx2J512HbIHecv3MGzT+lfN5EyGV7434BP4Ae9jnUpiY8Ixq2Lmn9riIiIiIiI6PtgmH/C6ZSrVHnUz5aYr/Aobj38T1JDVTgurBmORiVLY/Qab3wSeWFbygrv/t2JAVUsYNduFq6+Sjnomxqhtzehi6M9Bi70wHtzazg06YSOTmWRS+aFqW2bYcSiaejboD12+7yUvjVBOO7um4LGDh0x78gjRCMvChc2RYjnEtQvkAtlm4zBP/ffS9+kFB1wFgsnDUat8tZoO9NNJQCzCA5ZTGFiYqL2GPL3I7X3y+8sRyFTRT3THJawsrKClZUt5p97rlYPAAIPDlV+Tk4rK1hZWSGfzRB4vIyX1AzFjv6lE+qaJ3ymFbquVgyQFhPshlFt2+K3pduxb3F/WOaxQa+lXhqDZSI2FCeW9oJ91b74+847mJgXQiHLT7izbRzs82ZBlS4LdW7T0BvbMXl4B1QqXwkjNnkrpwcd7odiCcut+lhySVduzyh4H16EdnZWaDr1FN5GZoNNKRvEvL6JKa0KoGDtoTq3largixswpE1FZC9VG2PnHsCFyyfxvyl9UKVcE8zYfR8ZOezei3uXcSU6cZ05orytlaRG2piVbIoFJ6ajbnHNhw5j2pZv/z2AkU0d0WvaETyLFLAqXDhhOxZDnsKNDbgNfLG4dXM0be6sfNQqb64ynx1w9Kl0mZO/p2lzZzSpU05tmURsCHb//hOqNBuGEw8iUKBULbTp1AaVi+TCg4OD8GO737FgdCfU6nQUr5THhRD8s3QSfqlXHjZNp+Lyy6TPm9AoW7J1aNtpWyp6vqaVBdr0HJAwIJk/jp69I62gQRTcDxxG2y5OUPTRTbu48EfYM7cfKlWshrm7HiHeugJKWJniffAB/Foj5WOwJomfaVckK2p0n4wNR67grOsCjGxRIcV2rk3c+5tYNrQVipbrg+0+75HFsiRKWEXgzrZxKJfTBt3nnsa7GMNsq/iI+1g2sCUqlquEoSs1H5uJiIiIiIjoCxLpELCvrwAgAIhSHbeK5/Hx0ip6iX7uKlrnMFN+VosF16VVhBBCxMq8xJRmpQVQU/zh+kjIJeUf/XaIzsXNBdBeHAmIlZSmzb97B4uCJu3F397vpEUJgsXGvhUFADF4m7+0UAghE8d+byYceq0TvqFx0kKVebYWI3dqer8Q8TGRIiwsLOHhJ1Z2KZawriYKj/cfVMoUD9kn9e0QHxMpHt+9IM4c+p9oWyGHcj1rmt9YWZDwPH9O7Fs1TPyY1TShrub1+d9bP+F5/oRYM9pJ+Zk1p1wU0UGuol+XBeJ2aJwQ4paYXMZCx+c8Eis7lRetJx0WoZ+Tt59X7nMS5qOmWOX5UVoshBAiPlKmsvxnxZj8uRLa5Drx+IP6ugkLCxOyyOTfI4QQ8THBYtNARwFYi55LPER4jHq92HeXxG/18wnAUSz20DwvQggR98lfrB7oKABoXK74mDfi+AIXUa3XNrF1hp1yW/rEaZ6vtHCfW1m5TTSv94xgPNvy1cXpokaRn8WeO8n327hP/mJVwj7r0GubXsetzzeWKtfnYo9oabH4HBYmHt89IuZ0s1dZ79ai25x9wvvpeyGPkb5DLvwvbBMD61kq67Ye+D9x9KqvcpniPt0UU+oXEM7jDou30ZrnMezG0oR1qt5+Pquso9ubflHO0wK30GTrMCzss9pnGsYtMblgHsm6ui9m1cyfMC+jxI3/kh8PVcXK3MWgFsvFU5Xto7od9P3NCb+3SbStkEOUaTxTXNVwDBZCJo5NbSYAiB4LbiT7XdHklfsc0aCImTCz7qqxjYX67hcD69UVi3etUf62aTreqnrtuUQ0KGImCtQaIk48ipCUysXtTQNFQRMTUdpF93In7fu6jymeK5qqtNUKYuPt5O2aiIiIiIiIvhyjCNoKcUsZnEFC4E8qMYABQLSb6aH1j/W/O/sIAMLScYa4pyFwlBrxkZfFWNs8ovqkU9IiNbHv3ESPPNk1/in/cHGuKGhSUwxfuF88/qApYKC6Hh21BrOSvBEbu5fQ60+5JonrJ+Ugglwc+z0xoJhS0C8pMFt90gqxqF1nZf3Edajtc3z/7i5yV+ggpqw/oyUwJRfucxODwu3F0WBd8yGUwaLUt8mk4LuuQF6Y51xhn8VU67xI26muram4IGCS5m2pnWobgQD6iDNvks+roRnLtkxsc059F4jjPskDakJyoajlzItajyeJUgraJoqPvCn+qJFPa3uX+nxjqShoYiIGrPZO1lZ8/+4ugPZifwqfcWWps872o3qc1jXvhqUpaJs4r4p5GbU3RK1M6sWR0aLPX35q01IbtE0MaptZd01hWwQr9xldvy9CZb9N6TNVjwVI4XibFHzXfkFDdR51tdm0BW0dGbQlIiIiIiIyMprvcf4Ccpgmzco7/0BJfsYoXFs7DXOvvIOZ9SiMH1lf6+2yFTsPxDCrnJB5z8KWo8lv/0+NqAc3sTMoAqZZzaVFarLkb4ruw22lkwEAD70v4K3wwppJXdFu7H6Nt2Pbth+AYVY5AXhj1dqMHYjNtpyDdJIW2ZEjj5l0ohbFUbqmBQDg1sLROOIwEu1LK9JdmJjXx6yTu7By0RLsOLdGOV0hHA9v3UKE/xHMHdIcvZZ5qZQlyo4GP/dPSJ9xFKt33JJWMIjAg/Pwx99+AFpgwuSeWkeqt6zbC4NaWGuZl3Ac+qM/5l55B0vHifhjVH3kkdRQVennkRhRI590cgawRuECGb2rG8+2jHrkg7Mh/+H8tt/RxmEczoYmv03drGhbDBtdBgBwauZaeLxMXictTMyrY/jU3gmvjuLcTW0pUxLERkHUnIfxgytL2koo7ly8DgBaj3WJanToh/rZpFONU40O/eCcPSsA4NQxzXl4FULgujkCPdqVlRboLT7iFmaPmIPbsfFoNvI3ybFHqgRcxoyGfRZTHJs5CqsuaTpSA3Kftfil1ya8FQJ9587W+Zmmuavj1wk9pZOTEfL7WDJuPm7HxqP2uD/Qp662o0YJdB7QFzBQm63dfz5mt60EoCR6LFiJn6vpe7wnIiIiIiKizJDRkZw0yVfGBgVUYmbRAa6YMd0dAFDRxQm18mmfbRPzynDqpRjw5uje1IxSnpyIFXgrBB64nsCNj9Kcrqqyo7R9LelEAICFZUHl8+j/5IjSMDsm5iVQtVl+AMCjXXdVclN+jazRsXnSwHIAkKdCO4ycMA69nIqpTQfMYW6RW/nqs1yuVpooWxk7VM+jCJw/uvUwXdtUEyG/glUTduOtECjStCXqVdQeiAFKoHqLHwAAZ6Yewv34pHkJ81ijHCSu1aCeqG2lvZ0qFEKRMrmkEzOADDIDDI6km3FsSwAwzWUB66yJ6z4MmmdFdZ/dD58nuvbv1LFp7oKxtorAm+smNx3LGIVzJw+g79iesDNLfpEgSh4H4CjcLgRIi9Qo1mny9xujbGXaou8vJQAAj3b9hfOPNQ9IFh1wGafyNUOdIrr2Rd2ub5mOZTfDADRC904/SouTsazZHF1+tALgjeWzd2rYbiHYMG0ubsfGAxiM3l1SDihbFVYsqy4P9s/H3CvvAADNmjTReaEnb/WG6GdhDmA/Dp7V3S5SYpq7OqYe+xdCBGHXpIY6v5eIiIiIiIgyX0pRpUwh5JGQxSb1GpL2bH3scQjnohR/7uvWqZpCzzML2BSzBAAEHb6Gp+kYGTxr0ZJoncMMEf6L0LLhr9h97YXWwVoqdl6BRZ3LSSejUo8FODhnKH4eugI7VvZWC0YnMYdJlsQCPwQ9N1wAKfPVQoVS+jar7Gg1/m+sGd4Vw2btw5ZRDaQVlBJ7Yr+4FoQPad+kGsk8z2J5oKJnXZn6VWGrpZdtIpuiih6awEV4+yW223Ac37U5YZA4RzjVqajyjsxWCLYVVEMwrxGmvUujgRjHtgSAbGV6Ys3heejXZRg2n1uDdiU0B/7MVQKlAc9eqZWlh4l5fXQeURMA8NJ9BQ7f1ByYjHvvjr3bG8KlleIik7pCsLUvBADYOLACus06isdvtR0XfsS8J7+jvKnudmscLODcwSXhuQe2/HNbUq5w88gu1O3WOh2BxNtwW3k14XktVCiruQ2os0e91oUBLdtN7uOGjcdfAwDs+jRBlbz6Hud0CcG5fRcTnrdHjcq6L+JksbBG4QKKX8DrNx9q/T0iIiIiIiKir58h/nWmW+z7NwiWJ41wXqWcjUppKK65J91GXaa4aplmNqUUPSHTG6xS3EKt+CyZ93r0rFsM5ial0LjLr5ixaCOOXfsX4XLF55uYW8Aid/KgiUnWEvhpyjrsXTcKdW2kgYMoyGQyyGRhiIxNDMjYoVQxo9gsaZS6+c9iURm/rt6HtdO7oqykZ6qIlSetn3jF+ilapxTyJV/N6XLnxj/K5xVLpdy+Chcvn/DMC68T2ldc+C2c3594K3wVlEzFOsgINmWrq7zyR6hMW8DPcIxhWyaq0HICtuxfi/7JencDkTKZYl4+Ja0TfY4rqZGUBsAfK1ce1JgGwO/4LoQN7o5aWoJ/DX4eo0wlsG9mB5QvlAUl7JtgyITF+Gu3G3wCPyvr5rC0TOFilvEo7NxO2RPZc+tJ+Et6tAr5FRz6pxZcnJJ6bqeW3OcGjgUpLsSU6lgRRfS8879w8QoJz/xx7MIdtbI7F/+Bb5yizZSpaJuOgHKSmBc3cfqCopetfsfOQspUNB9fhOFdst7ARERERERE9K1I6R9ipoh9EYwTkYlBW0fUqKyaH/YZnrqHKV9tnNgCTZs763wM3hQC52ZOcG5WGha5TRAXfhMblizF0sUpP84/Vs0TmB1tZh/BzvGtUVDZ+zIYHq7r8OekwWhf1x6WOUzRYuTfeBKWclBMxIbD59Q2TB7eFY0diiFX2UboMfZPbN64E5cCwqXVv0qlOtqmORAn5KG4tHcdxg5ogVrlzVGySisMnbwImzcew/2IjOpTFopA36R1f3LxkGTtSfpoN/V4QvvqhIIJgfqYYH/cjIhO+JTMyCGrW+nKNWGfJXEe/BHyKlJSI61CsHnQFFz6oLu9f5ltqdk7/zP4a8YodHSujEKmpdCs629YsGET9l16JK1qMOppAPbgaqA0/6gvDq4JR58u2m/bz1amJ3Z7rkPbCjmU0579exEblkzEsJ7t4Fg6F7IVbomV59KXuzuzqfZEjvCfhQNnItTKZTcuIaBtS40pI/T16rGPMsCaGjly51U+D34YqJKDPBwvnwQrXxUtbKV8nh7qv337MKxl02THG/VHd+x9VxbOzZzgUNYKeVO4K4CIiIiIiIi+YtKRyVJDdVRyfUby1ubfnX2Un2PpOEM8VBt5PmkEeaRx9HPVkeJTemj7/IjnN8TW2UNEo8pFk70HgM6RxONj3ojjS/qJCjZZBFBSuIxfL24+fa8y+vcb5ajgKY34nbq6yamOvq5rNHOhNgp5e63LppA0T2lpB7Eyf7FlUidR3NREmFnbiUELjwj/l/+p1EhqAyl/fmrqCsn6THmdaKO6XvXfLunblrrdF7Nq5lfOU80pF6UV0uiWGJO/o9b28GW3pbqgCyuFi0MxAUD80HKM2HX1iZBFJn2G6vFL236fSHX7plQ30YeLc0VBExMBQPT4yy9ZmWPfPeKtHosUHyMT3if/EkO7NhDFTRWfJ320m+mhcjxRl5rlNBzFttP2fZHea4R9FlMBQDgMP6wy7zKxY1AHsc8/Rq1+ItXtoKtNqC5ztXEnta4bKe2/aWk7TqR0vE3bcUO3pOO2YT6PiIiIiIiIvowv2x0QABCKq8cvKF816t5K0sMqO8xt0zc0umnuEujw53wsWbQkxUfVgpp7LuUqWhN9p/6Fiz7PEfdJhsd3T2H7qknKXnAxb/Zj9LgdyQaviQk+i8GNK6DN+K14X2IgDvncxoHFg1HdNl+G3c4cKZN9NbkOP3qvRcsfKqP/wn+Qs/UMXLzriw0T26O8TU5pVQOJgkym2us0OywTckSmh4m5uUrPVmNgj87DmytfPXC9kOw29LSICQ7Co8/lYashb/GX35aJQuA6tilKNRkFV58i+H2nD66dXI4edcrAwlzz/p0RrBq1x4ga+QAAR5fvUVn/4Ti+azdcurXRkuNanUlWCzi0HIJ1+y4hJC4SH1754dI/WzBpcAvlHQDHZg7GqktJ/UJTIz4iXJnmJbOYO7TFoDaK/LE+a3bD46WiJ3LMC3ccjekOp3KKtBCG8CHgdZrSCJhmBbIjcQMZ5jghZXzHDSIiIiIiIjIWX/zfYnTAWew9pMgFamY9BL/2Vs3FCQDFUamWIvABAB8/aQrS6JbFogYGjx+HcRNSfjhXTAoWRD3YiZHLvJIFQE1zW6BslRboPWIBjvm9gtvMtihoYoKgwwtw8m7S4DVCfh+zevXAJk8ZgPZYu3sNOlXOr/ZZhncbs8v3w+mn0tuxjU/MCzf0bzcO7i+iYek4Edu2T9OQ99ewYl64oWeRmbgfnxjEsUCRsiWV5R8i5MrnqWFWsgJq5E68uCCDLCL1QSJDq/jTrxhWSpEXVNNt6Gnx1vsynnatilKSQa+MY1sCQBQ8Fw1Bl/+dAwAM2rQD83tWNkj+0dRLCpyrrv/oADfsuOWSQs7WcBycNhqnQ6T7cXZYFa6ABh37YcH6Uwh4uB097XIB8MfmLcdVbufX34WVDTBx32Pp5AxWAs6dGyU834+/jz0BADw6dxAlW9bVK5itS5GyDsqAdnys/vv069dJqSYqVq+oMh+GOU5IGeNxg4iIiIiIiIzDFw7aRuHyzs04FxULwBqDF/6G5kWkgR4L1G3aWvnqYVCQWqkuQp6+P9bxEaHYtuEcgnT20rJAmxmbMa9bcQD+uHk/UFkSeHQZ5l5RDDLTes4f6FJaumy6xb5xx/jfjmgcxEi7grBtYrheahnp0t+zcPCZYhsNnDwCtSWDV6VEfmcTuq3wkk7WyaxoKZTPqR4Rqta4k7K326OHgcmC9NqIWLmybhaLyqjbulDCq3sIfp76fJqGZpq7PiYs6akMXq1bshmBOttySkLguvkEXDo5JwuCGsu2jHnhhnkzFQFbS8cZ+O2XcmrlKQuF64QJuJjQ8zO97Nr0RI88ih6aO3YcxzsB3DyyFTZDuqeQszUKYQGHce7me2mBmjwVemH133/CPosp/P6+iyC1ALZ+bEpWk07KFKrr5qLrebwQ93FokzVcWhWVVk0182oNMbC0Ij9tiFsgXiaNc6mDat5aazSuo75eqtZupdyXUnOc0CWLRXU4dS2S8Cp1xw15JveOJiIiIiIiosyVusiKgcm81mDSHA8AgEOvhfi9h+YAi01zF+Vo41cPeyZLQaCJkF/BuErdcSxZT7XUifA/jJsPU/qMQnDq6CSZFo47VzyVrxrXrqpWqk6Oz+HJowoiNhyBQTJEIeXlTfIWgRdiYZLuuG0I/vVMHNU8I/jC80higLs9atZIDFwkJ+SRkMUm3wYi9iMC36au53XMiyA8zmGuNk39Vu3z8P6sT+AkBKs6O2Dj1cTtVghtenZLCOp44eb9V5L6X4Zt54VYO8IeAPDSfSwWbE97j8pXx9dg+Zv+6Nm6gKTEeLblu3teyoGdyrasozMwGhnxUToJACB7EYyP6bveo5Qlf1N0H10JAPBo13Icv3keB1cXR492ZaVVNTp94VqKwUHLmo3QLl8u6WS9vQq+A9Os6usxM2TJXx+d+ioGa3vpvgI7Vh/DjYYdUSuvIX6WfkTbUXUTnh+B172kOyC0e4I7J0IBAMVa/o6f6qgfRHPUbI6R9RVt/6n73RQu5unLAm16DlAeN05eDpBW0CjMYx5+7P13Ki/oERERERER0dfEEP+O0yT09hp0+WkybsfGw6HXOhxc2RvFtARYTMzrY+TiHihoYoKX7iuw53LKt3m/OuOKS827oU7x1PVuTc4LW3d7phg4UbBGOVvbhOdRiIxIChSYaFk2AIh5cROnL+gbIFXNrZj8dlohj4QslyNKFdO8afXNoRgdcBlHz72VTjYo+fuk9aMrW2S4jxcu6x1FS8qB/PmtDNGSUiGXI6a2LWzURl0vgT4zxuPHrKYAVmLzAcWt2rrIfdzwd2h/NK2RFNixaTM8occ14LrpYIq9WuMjHuHOtQ/SyQZmgZ/muWJV34oAgA19u2JJGnKfxgQfxMhhlzBu2XCNgVBj2ZZyebjyue5AZCiuud+STswA2dG0y8CEfc4LC/uMwLWffkajZHcUaOazZoveqU5Ku1REvuSbBjlyJfYA15ReJgqRn7LgB1sbyXTDEDG69gELOHfumxCw9MfkUfvRqn1ioDX9avf/E7/VsALgjw3bT6R4DA/zOI1NTz8CqIlJ0wagdLJ2bo+RC8bAPospIvxnYdeJlPejp743pZOSsWo0EEsT9s+jy7fAO1LXOoMyJ3LHbs7pSiMRH3EfS3v/iEKmheEy91KK64eIiIiIiIgyV8rROx3kKn/I8xa1QgG1QJhmIjYUJ5b2QvWaI+H+wgrtxuzF8Q1DUDaF26ltOy/ElklNAfhj7qg5uPdJe2/ImOCDGDXxNaZPdEnXn9pE5+eOTmGQn3Bcdb8ES8ehaKvsnVUI1RrXVta4dveB8rm6KFzatAG2ffskvPZDYJBi2WJfBMMvi1AZDAcALFCxemLeXw/4+KkHdOQ+XrjZpirKS3KOJjJ3qIV2pRS9lu891tYbNApnNq1AdqfEnJNH4R+oK3CU1FNY//yR5VC3e+mE50dx87624GUIXP93FI0G/wQACDr8EB8Smt2roPvIbqZeGyiHas0VvfdCPa/h8Sv1dvL8tjvyN66arF1YVBuLDZu6oqCJCTb0nYCjOgJl8RG3MGf4bvRdOFASwCyBPvOXoXNxcz16tYZgy8jBWBeUeAHiDV6/096m08M0d3n8uuowVg90BOCNCY0a4I99j6TVtPrkvxPdGyxBheXbMaKuNDECjGpbFq3SAM7ZFftg0MW7WgPnsqubsN+irfL2/MeBiT2Fn+Gpl4ae6rFJIS3dgcjkVHtyP/TLhl5dnXUGttUdxdhJyQc4VCX3uYFjH/7DTy7OKKrhGJzfzkG5Tm7ceygp9cXVA7XhaK9fEFlfsquncezDfzh59oLOYKBlrYbolZB3uVjLoeiochEkJSkda0xzV8e01VPRoIgZfNbM0HkMj4+4haVTl+OtKITh23ZoaeeAZd1x+N+fzQAAq6bM1fk7JPNahj5D9itfB78OUytPUgg9Fv+F4fWsEOG/CBNTCKA+2DcRyyMnYFj7YtIihZikeZLr6GB8fctvGL/zDt6KNzg4dTB23El+twcRERERERF9QSIV4mMiRVhYmAgLey18LqwXnYubCwAJj/ZivefjhHL1x4dXfsLz/D9i7aRfRAWbLAKAKNO4r9h87pmQS79Ep2BxYHwbUdDERFg6DhGHfN5JK4igCytFO4cmYqXHW2lRqn2+sVQAEDnL2Iripu3F397Jv08Imbi9aaAoXLiRhu98JFZ2Kp+wfhzFIvdQSblMeK7oKtqO2CuCP1wSY23zCACi+ZRTQvbptdgxoqoYudNf8h4h4j7dFFPqFxAARGmXreJ5fHxCSbDY2L2RWOX5UfIOdU9dh4iCJiYCaC+OBMRKShXz9NNMD3FnZx/l9i3WcqZwu/NEhIWFKbfZ54Rte2J1/4TPUyznhPWXRPAHxbaXfUqct+Ri310Sw+tZKdvPfsm8xMcEi51jWoueS26Id092COfsWQUAMWiTv/jvrbeY3baBxmWNDnJVts3mUy4q5zfu003xW/3uGpY5kVx4ru4lipuaCKCFWOH+TFpBhPruFyOcHcQ4DdslUXTQGTGwnqUAHMXkvcnrxcr8xeqB1UXPJfvFYpeiynXcaOhf4ubT9yIs7LP0LQYiE3f2jhM/ZjUVAESFtjPFlZD/pJWUYmVB4tCSHqJUYc3rQpUxbcvb27op22PzKaeE9FPf3FotWjYZKk4+fS+OTa0qAAhLx4niauh/4qnrBFGt1zbxPD5eebx77ndaTO1YVm1fcH/wQrEvxEg+XIsXR0YnvHedyv6qyxuxsXsJAViL0mVthPO4w+JtdPL3xbw+K36rn09U77tNPNNQriAX7nNbKLeN6jr7d2cf0W6mRyqPw5rFfZKJ537Xxb5Vw0SDImbK9eXU93/i6FVf8Vrl2KHqylJnAUD0+ctPWiSEkCt/R6TbQd9jTfi9TaJthRwCcBSzDodIi0XsOy8xu2M5AZQUYzZ5J2svycmF54quoqCJiSjWcr7w/RAnrSACT80WTk2Giv1bZ6jMbwux/Ph98TosTMgik89rdNAZMcLZVgAQjYZuE48lnxsf80YcX9JTODSeKe5IyuI+yURY2GvhfXKRaFo0m/I7f555RPi//KDxmOK5oqnautx4O1pahYiIiIiIiL6gVAVtE4OYaXmYWdsJ52b9xOQVO8SlB+81/nnXV9CF9WJwazsBQBT/4WcxaeFisXD6SNG8ciXh1HeBzkBUany+sVSYWXcVRwJixUe/A2JkGzvh6DJGLF25Q7gd2pLwnWVE64H/0/GdMnHvn4XCxaGYACCc+k4W63btEusXTxRd6rQS03d5ifAYxR/4j347RE+7XAnrrKTo978bWgMIsTIfsXpIS1HQxEQUqNVXTF84VfziVFnPoIMQrz1XJcxTSdF9/Aqx9/jBZPMUsK9vsu2YFPRJDCpJy9UfNadclH61mviYN+LE6jGiWXlzAViLzmMWii27d4n/TR8pWtTpKNaqBPZfuc9RBoPMrBuJma6PJJ+WJDrojJj28w8CgKjQdoxYsmiCaOfQRCxwSx60kQr1PSKm96wmCpqYiJxlWohRUxeJJYsmiN517UW1tmPEwTuagvfqVJer+A8/i8krdgjX3WvF77+2F/Vb9RObzz3TsQ4nCp+45EEdQ4mV+Yvdc/oqL6AkLuPWg2fFufMnxPZVS8WY/g1FcdNSwmX838I3NHlQShNj2paq27BArb5i5oodYueWZWJ0jwai85ikZYr75C9WD3RUrntHl+XKIJw+x7vFHvoFuuIjL4thVjnF+L3a51mdom20m+khwmNk4tyS/sKubGMxdOoisfWgm3IblS7bQSw9eFN5DNFOJq5tG5GwzmuKoVMXiUmDW4jafdclCw6mlfvcysnWj/pD00UiIaKeuIq2FYaI0y+Sl0U/dxWtcyQFgKH8LXFK9ui65Ib07UqKCxD9RAWbLCr79FQxtGsDUdy0lOg0VNcxXLOkNlZSdBo6WWw9qDiG9q5bV/SetU88/hCntQ0N3pb8Yo7QsA/V6DZGLFm0RPz+a3tRyb62GL7wtAj9nHxbp7zukx9T4j75iMXd7IWZtZ0YskL7bw0RERERERF9GSZC6Ljv1sjFR4Tj6ZO7CAmLR4FSVVCyoBUscie/PTit4iOC8TisICoUz6kyLfE7s6GYXUVYW1nCwly/74yUyfAi6J5yfisUz4eEu5aT1Ys2t9Drc5PmJy/KVqmIElY5pFV0ipTJ8FkWDO/A98hd2A4VbG2U3/vfC2/8+7Egytsolt9Ez3lKq0jZGwT4PUBoZHYUs6uIkjZWGm4jj4JMFokcuS01rjupxM98B2tUsq+IQqloH0IejpfBfvB/+R9yF7ZDeRsrWFqmbv0CQKQsGP/eC8BHYSnZRlF4dvsuIotUQKEcivnKYWmpYZkzhoiVI8DXA9eu/Is7d0/j/rNYABb4oVYT1K1TF3UbVEPxPPqvL1XGsi2FPBwfXgfBO/A9sliWRJVypTUeI+IjwvExNluatq8+hPwKhld0RR/vZXoPtPU+wA9mJSsgb9bE+Y1C2OsgPHz4AjGWJeFoWyTV8yti5fjw3B/ege8VxyDbfBq2y7csaR3KgWTHvLSQHidUPy/uvT+uhGSFo21+AIBJVguN7U8T9eNGaVjn0W8/ISIiIiIiom/DVx20JSL6Gjzd3w+/+PTFlTmJeaKJiIiIiIiIiLTTr8sXERGlkS92LvVF9/Z1pQVERERERERERBoxaEtElE5x729iw5Kl2Hn+ubQIYR5Hsa/EcHSswXvbiYiIiIiIiEg/TI9ARJQuodjUowYG7QkB4IiNt29iYDWzhLIQrOzQFdHjzmJ8wzyS9xERERERERERacaetkRE6ZTdPEvCsyooUTjpsPpg31zsthmLvg0YsCUiIiIiIiIi/TFoS0SULoXQts9AFDdthFWeS9C8SBYA4bjz90h0/6sI1s3vggIm0vcQEREREREREWnH9AhERAbw5upGTF+4Buee5kCh3Fao230MJg1qhoI5GLElIiIiIiIiotRh0JaIiIiIiIiIiIjIiDA9AhEREREREREREZERYdCWiIiIiIiIiIiIyIgwaEtERERERERERERkRBi0JSIiIiIiIiIiIjIiDNoSERERERERERERGREGbYmIiIiIiIiIiIiMCIO2REREREREREREREaEQVsiIiIiIiIiIiIiI8KgLREREREREREREZERYdCWiIiIiIiIiIiIyIgwaEtERERERERERERkRBi0JSIiIiIiIiIiIjIiDNoSERERERERERERGREGbYmIiIiIiIiIiIiMCIO2REREREREREREREaEQVsiIiIiIiIiIiIiI8KgLREREREREREREZERYdCWiIiIiIiIiIiIyIgwaEtERERERERERERkRBi0JSIiIiIiIiIiIjIiDNoSERERERERERERGREGbYnouxb7xge3Aj9LJxMZrbj3/vC4+1I6mYiIiIiIiL4hDNoS0XdL5rUMzg3m4aXILi0iMlqmucxxf2VT9FzohShpIREREREREX0TTIQQQjrxWxcfEY6PsQJAdlha5pAWkxbxEcG4c+su7twKwCdlq7FA+fp10KhGJeTNaqL+BgDBFzfgtkUP/FQ1t7ToGxQFmSwSAGBibgEL8+Trg4yHzGsZOvTywjDXNejmkF9aTGTU4iNuYXqrVghsexxbJtUELzsQERERERF9W4wgaOuLxa1/w+nYOGlBuvSecwp9apolvArFgV9bouu6u2p1SnXciiuH+qCoCYNr2kUh+OLfmLd4OTac8ANQEo1cWqNRjTLIm7DanvsdxcFtIXCavx5LxjZDATNFQcwLN3Sv0wX5Z3tjfZ/y6h/7jYh9446+jTtil99/atMHb/NPcZkjZTKY5rZE9qzSEsPKrO/5msQEH0T3BqNRYfk1zO1cXFqMoOPTMHDFVelkvZVxbIk6deqiXoM6KFeQNzR8TYQ8HOHybF/FBT1FO+71TR9jiYiIiIiIvldGELQNx/2Ld/BWCPz3+iY2zJoFN39Fb0UAcHRZgFnDaiCPlrjq+2BvPH34ECdPnoDH/RfK6RNc32BR50IJr6Lw7PY1PP4YCb/jqzBz2Sm8FYJB2xTEvnHH770GY6l7IHKW6YDZi6aiV/MfUSh38vUVFx6Mo3+Nw5g9BbD+nzVoaRsB11EN0GXVfb0CmF8rIQ/F7eu+CI8Mwd65Y7HJUwakELQV8vuY074Tpp8NgJl1Vxzz2o0WJbJIq6VbZn3P18cXsxs64UTNjTizpAPySIsB/PfCGwHRhWD6xg++VzZh4qQ9eBavOFQWqNUXcyf2RFkrzcHY/177wG3n+oSLHIBT3/9h9rwRqGvDdW/sAo+MQaOfVuJZvED7Odexf0oto+/BGnhwKGp1uY55t25iYLXEC5VERERERET01RNG5rPnPAEg4dFe7A+IlVbRQi6CLiwRTYtmEwBE303+0goJ7otZNfMLAKJUx63ieXy8tAIJIV65zxENipgJAKL5iG3i8Yc4aRWNXrnPET9m7SCWb5gk7LOYCgBi8DZt2+Lb8sF9urLt6lpm1Xop1VX1OSxMyGOkU7VL6/d86zxXtBJm1kPE6Rf6Hltk4sDIcsr12H21t7SCRqG++8UIZ9uE99UUUw8/klYhoxIsVrS2UdlnJgqfuK/h9yFYrGhfRFg6zhd+/D0jIiIiIiL6ZmjuKvYFZS1aHq1zJPUW0r+XU3aUbDwOBw7Nx49ZTfEg8JW0QoJCKFIml3QiqXh4cDRqNp+Gyy9j0G7mKRxY/ovWXoVShZ2nYPtOa8wbsgi+cfHS4m9abjsHtbarTY6C1rDPkrg+rVHI0kpSQ5NQ7PrVEauuxkgLtErb93zbogN2YfrEs2g9th+aF9G356sFrAqbK19lN096rkvBH7pglftdHJvaDIAX5nQsj8GbH0mrkdGwQJEySbm3C9SyQrbkNxUYoRL4Zco4FPOdgllr70sLiYiIiIiI6CulXyQuM6Uz76ZlzeH4fURZvPMPxDshLaWUyLyWoXe31XgWL1Cs5XL874/mGgcY06XSzyuxZZKjdDIlMHcYgJ2uyzC0a38sPXgWEzsUlFbR4BmeuodJJ+qUtu/5loXj6IqFOBfVE7/2ri4t1Jv2C0KaWKDt7GNwn9sCALBxYAVMPBgqrURGwQKdZuzC2kmD8fPQFTjyzwRU+EpS51jWdMGgNoWxZ8QaXP74fV0sIyIiIiIi+lYZX9A23bLDuW03RLyS4RMYtU2N+IhbmD1iDm7HxgNogflLR6B0wqBiqZMdLUZM1avX6fcpOxw7jsa6fZvx20+VNeZUlYoJDoJ3hFw6OQWp/55vWXSAG/7a8BC1x3VDI7172RpCdjQZNQe/1VD0dF7sMgjHQgw78CIZRpb8NTBswXrsXTfqK8tBXAIuA7oA2IC/9jyWFhIREREREdFX6BsM2ipuU69+5xUiGLNNhShcWzsNy24qenPWHjcMHSqlvduzWdG2GDbOXjqZ0uit92WciNQ/NQIld/PIVpyLyo82zeqlIu2KYZjmro5xU39JeHUUUxe5IUpShyg9rBu1Qz8Lcxxdvgf+X3p8USIiIiIiIkq3bzJoa1a0FBxzP0JgEG8T1Vfce3esnXMh4ZU1Ordvnc6emdlRr6kLCn4ltxcbtxC4bj4gnUipIORXcHC1F4AOaFTny+S0tmnugmFWOQEAPmuW48ijWGkVojTLYlEdrX8pjgj/WThwJkJaTERERERERF+ZrzpoGx1wFmuOaroVtDhKN32GUBmDtvryO7IFuz8p+v6ZWfdB89pp72WbyLJWQ7hY5pBOplR6dXwN5hxLTR5VkpL7eGFnUATs+jRBlbxf5rBnYl4ZTr2KJrzywOYDtyU1iNLDApVq1QUAHLt8R1pIREREREREX5kvE70wkLj397Hd66V0MoBCGLj7FgZWM2xO1c/v/HH1wmFsXLUTpy6ch9fDD9/ILc4hOHfwmvJVmZZVYWuAYdNNzEugarP80slaROGd/w2c/Wcr/trthvMXruLx20hpJZ0iZTLIZDK88A/Ep2Rlb/Dg3gO8kckQLk/frcORMhle+N+AT+AHhKcxB4eIlUMmk0Eme4M377Qv5+tzc/Hz4OV4m8bbnfX9HikRK8eTexdxbM86bDvkjvMX7uDZp9TMQ1TC98oQ+OSVZD+JgkwWhLv3nkImkyEqEzqc3r1+Em+FQNUaldLZgzw9LFCxSmXlqzNTD+F+fGrWafrER4RDJpMh7LU/gt+pX9CKjwjHC/97ePQqDDKZ/u1EleL4eB4H9+zGqQvn4ROY+uOjkCvmUSYLQtDzz8nKwl77w9vvZYrzGCl7A9/rdxESJkuxrlTiceR90KtkxxFdIoK9cf7CeRzYthlHzp+Hx90Avdt24ro7+89WbDvkjovXHyiPUxHBZ+FxV7+es6UrOqKgiQkeuF5ligQiIiIiIqKv3FcdtH0VdF86KUMEX9yAIW0qombv/+HWq6woY18EZvJQnFvRA8VNS6HvojN4F6P+BznSaxlMTEy0PmpN9QAQik09SiYrS3zYdtqGF8o/3qFwndAWTZs7qz2cnSqj/lQPte9Ordg39+Hh8V75ukxFWwMFtkqg4/QdGNm8rLRAScSG4uSasWheoRIG/88DH7KXQHmbnPjvtRfmdKuEXGU7Yt3559K3KXkuqqlcXzmtrGBlZYVidn8hKF4ACMfdfVPQyqk7Zm3YgZNnT2LekHqwzGEK537r8W+Y/j2x48IfYc/cfrArkhU1uk/GhiNXcNZ1AUa2qIAqXRbi6it9BpbyxR9lLWFiYgJTsxywsrKClVVhTD/+TFIvBP8snYRf6pWHTdOpuPwyKZfthEbZUmgnSMX3JJe4nJUqVsPcXY8Qb10BJaxM8T74AH6tkQtlm4zBP/eT2oq6UOzoXzphvswTvtcKThNO450QELGhOLG0P5q1H4vlGw7i/NmtGN25KszNCqPr5CN4LtmHDCcE/3r6AwDKliolLcxURUqq5nm+CG+/xHaTfP9u7FBMbTsvuSTNaZz8PYnHhCF/PwIAyO8sRyFTU5iYmCBLHktYWVkhn40dDjxQfO/bfw9gVMdmGDBrA/YePYd//jcUDvlzoWDtfthz853k+zR7++8BjGzqiF7TjuBZpIBV4cKIeX0TU1oVQ57CjTFj932dwc/YN8fROXd2RXvNoZhHKytbzD+n2O9j31zGvF4t0HnsQmzZ4YbTe2ah/Q8WGo8Nicvz69ztOH35PPYsGAKH/LmQq2xHrL+kfXkCDw5NdhwpYPu/hOOIbm+ubkQfZ1vkq9UNO048QbYStsgZHozrexeiYaUyGn8fEoXe3oQujvYYuNAD782t4dCkEzo6lUUumRemtm2GEYumoW+D9tjto+niZHJmZRzQNm92RPh7wCdQ9/EtPuI+lg1siYrlKmHoSq9UB9iJiIiIiIgogwkjE/3cVbTOYSYACKC9OBIQK62SIFhs7F5C1JxyUVqQgjdiY/cSAoAo1XGreB4fL62gIlgcGN9GFDQpKcbt9BdyabEQ4qPfDtG5uLmwdBwiTj5Nmtf4mEjx4ZWfOLX1N/FjVtOE5YGo0HamcLvzRISFfRZCCPE5LEw8vntKLB3goKxToNYQ8ffxWyL4g6JOolDf02LNuFaioImJACBylukgVh28maxean2+sVT53QDE4G3+0ioZIjrojBjhbCtylukjDvtHSIuFEHJxe9NAUdDERDQaulfjtor7FCRuXjgn9szvrFwvwEThHRUkdgzqIP5wfSTZbnJx7PcqAoCwdJwo7n6MUyvV5JX7HNGgiJkws+4q9tx5Jy0Wob77xcB6dcXiXWuUbVfbOvwUdE+cO/+PmNqxrM71/TksTIQlPG5v+kVZd4FbqHJ60iP59tf3e1SF39sk2lbIIco0nimuhmpaLzJxbGozAUD0WHBD4/7w31s/4Xn+hFgz2kn5vaU6bhUhH73E1LadxXrPt5J3BIsV7YsIAKK0S0r7Y9rER14Ww6xyCqCR2PFvjLRYL+5zKyuXJ/XHnCTSfW2C65uksrAw8dzvoto+DkA0H/GXuPTghZBFJl83ob5H1Laxo8tMsff4LRHyUVE3PiZSPL57QZw5tFA0LZpNWW+xR7R44DpK/DRir3j2Wf1zP7hPT/h+R7HY46NamdSri9NFjSI/a9wv4j75i1V9KwoAwqHXNh3bVi7e+l0X7ie2ioH1LJXzOHibvwi7sVS07TJTeL5U/x2IDkr6nUhs14rl+Vs8/qDedsM85wr7LKY6lyc+UibuXzsvjmwdq3K8nih84rTNsxBCyMS5he1FQRMT4dBrnfDVsM/Ex8jE+f91EeVbzhcPJOv5372DRUGT9uJv7+TrTiFYbExYfyntu0nui1k18wsAYppbuLRQjeeKpiptsYLYeDtaWoWIiIiIiIi+oK8uaBsfEyme+50WSwc0FkhTAEXfoG3SH+Z2Mz00BqgSJQYFzKy7JptfIYTw3dxN+ed41N4QabEQCYGlsbZ59FgmRZBL23elRcC+vip/3tUDSRklOshVdC5uLoCaYpWn5kCKgly4z2wikGLgJ1hs6Fo8YRkGizl/thHDtQQ6op7sFPWzZREARI+//KTFahSBFZMU13fcp5tiSv0CynWYUpAl0ntNQiAp5bqq22exR+oCK/p+T9iNpeLHrNrbcBLFxZKU94tbYkz+XAKAKNXxdzG9T3Ox0kMasFX44D5duXyzT+lqC2mTtL37iDNvdC2bdoYK2qoGG7Vvk6RjlD7bPPGY6TzusHgbrW3/EOLfnX2Unzlm1mzRstc28Uxj/WCxorWNACCKNF2rdZ9LPGY59V0gjvtoDjyqHs9bzryoo70ofPacp5zHXlNni65OM8UdSRBWQS6O/W6XUHeUOHxuUbqXR0EmDowsl/C5uoK2cuE+t4VAwsWfaxrnUXFhalTXBqK4qYnasSZx3VWfdEqtvlTsOzfRI092Le1Ek6S247LaW1qoRj1o68igLRERERERkZEx8vQIR9GhTFa1W4RNzXKgmF0LjNt8UVrZoB7smo5B2x4C6IMRg+ohu7SCCsu6AzG6azHEvNmPsZN2SG5VB+w69EKPPIpPOHPSU+Otwibm9dF5RE0AwAPXCzryEVqgSMlc6LdwNtqXziItNIhCBa2kkwwsBH9P/g0Hn8lh12csutXRlYwhOxoOHI7WOczgs7Mv/tyuaeA5ACiB0o6WCc834K+rTfFbj3KSOgrZytiheh5zAMB192t4p2VVy33W4pdem/BWCPSdq3t9m+aujl8n9JRO1ipLfmuUyKb98wxFn++Jj7iF2SPm4HZsPJqN/E3ncgIl4DJmNOyzmOLYzFFYdUlTawaA4vihuSKfcdDhBThT4Ff0bVhAWgkAkLusA1rnUOSfPn7d8AMoxb1/gyvRcQCsUbjAFz7kScb38wnSNMBcIfT6fRLssyjm9WxKg0rFAib5+2Pib21RwEx7Lmrbcg7K5/+bcQU9J/dEMY31S+CHmvkAAC/dT+HOM8232Uc98sHZkP9wftvvaOMwDmdDk6cIMSvaFsNGlwEAnJq5Fh4vk9dRlbVkeWVb2DlnNex/+xVVrTRts+yoVLV2wvOV6Oh8Tvfy1FO0PV3Lo2ABq8KKY4MusqtLMWb6WQDAwMkjUFvjPAKnN43Gyv2X8SxeqB1roh7cxM6gCJhm1f1dWfI3RffhttLJOhSCrb0FACDkVZi0UE3t/vMxu20lACXRY8FK/GzgHPBERERERESUPpr/aRqN9tjj/Q5hYWHKx4dXfrj0zzr84pRxuSnj3rtj6ZQDAACH4Z3QqIiuIBYAFEKbnt0AAE9d+2HrGfVBY7Lkr49OfUsAAPz+/gfXtAQuLC0Vf7Yj/GfhgOQzEsWF38KJ7fXQuZkiEJIRPn5K3cA9qfXq+Br8sVeRX7VLl9YooCnOosKsaFP0G6jY3hv6roHXZ11BF4VufTujtMYAjkIOU0XTj48FoqApahuCDdPm4nZsPIDB6N1Fe17eRFaFFdv4a3N9y3QsuxkGoBG6d/pRWpyMZc3m6PKjFQBvLJ+9M9lFiuQc0atra+15klUCmfHStK0GkJj72tLRCgYYX8+gKhezkU4CAJg7tMWgNoUBAGem7tbZ5h95HIQY2g/NUzxOJbHr0xctK0oiyKrMkn4ahJbBtExzWcA6a2K9MMjlkgoAgOwobV8r4fl++DzRvhxSlo5D0aW55kA/ANiUShrULaXlsS2b2K6PIvi5/vOgWQi2L1wD3zjFsaF9q6LSCko2NqWVzytXr6g81olYgbdC4IHrCdz4qGt+VNdf6oT+G6hz3zTNXR1Tj/0LIYKwa1JD7fsnERERERERfRFGHrQFcua2hKVl0sOqcAU06DgUW48cwG81MqZHaPC5XdgSrBi5vFbVijp72SYqYF9T2UNsx47jkt6bFnDu0D3h+X4cv6xpUJkQnDt4Tfnqn7OeGgeGeeNxDLd7ddQjkKw/m2Ll1V6/efda7bVhheL4rr14KwSA9qhcMZe0ggYWqFSrbsLzldh17IWkXMoRFcopAl5pJfdxw8bjivVg16cJquQ1+l0ljW7DbeXVhOe1UKGsPu3KHvVaK9bvS/cVOHxTS1RPqQrKl/ry68/StjBySydmMiGX42NcUpDORGucsQRcBnRJeK6rzfvi4Jpw9OmScrBdVZmKtileLElJtjI9sebwPPTrMgybz61BuxKa2465ysWTgGeaehZrVqJ+VdjquPCiqmqNSnovjzyl5poC1WNDaZc6qJhHe9v+8ddd8Du5FesP3sT2cYo7KQAga9GSaJ3DDBH+i9Cy4a/Yfe2FxuM9AFTsvAKLOmu+a0CTpAA1ERERERERfc20/9s0cqa5q6P/0CbSyQYQjjtXPJWvypfT79bUrNbWKGmuCNo+2nUKd9+q96a1rNcMY20VfZmO7j2XrAeU3McNO6Mn4u/FimW6s3QvLiW73Tgc592OoUOrJnoFkvWVtWjSLckAEPxa92216REXfh9XT4QmvLKDnZ7BPJvCJZXPtaWYSFIShSz1+1xt7lz8J6EnnSLA9a32QpP73MCxIMXaLNWxIoroeYd04eIVEp7549iFFG7fN4a0BEYiKVWDQjlb7ccXm+YuymPGlhmbNaZMCfM4ikOVesOpnNbor0ZFCxvmgleFlhOwZf9a9HcqJi1CpEwGmUwG2aekIHWZ4pp7Fmtibmmp93EuT27daQYMSfXYUNQ+peC3BSq07IvBP1VH3qxJFRVpI34AAMi816Nn3WIwNymFxl1+xYxFG3Hs2r8Ilyu2t4m5BSxy6/wSIiIiIiIi+gZ91ZGUIiXtpZMM4BnuKIOK+jMxzwHLrIk9za4nuwXXxLwGnHoqbrEPOrwNno/VA7K33Q+hkksrdGnYFgVNTAD8DbcL6j1y495fwanT7dCmgWH7C5qVrIBalfMqX7969lprr6/UerBrFBYef6t8HRPgA7ePqf908zyK1BEA8Px6IF5qCGAZTjhePglWvjJUgMsYvXrsowxApUaO3EntJfhhYApBdEqUmKpBoQ8c7bQfglXzXEf4z8Kxy9IuouE4vms3XLq1SSFwmDne+Z/BXzNGoaNzZRQyLYVmXX/Dgg2bsO/SI2nVr5j6saFiKf2D0Oqyo83sI9g5vnXC8R4AguHhug5/ThqM9nXtYZnDFC1G/o0nYanfP4mIiIiIiOjrpz1i8BXIYVUcpaxySCenUxSgzDHYAiUKpyUa4g9ZspS02VGvqUvCH3QPHLkQoFJ2G8fX5sVPzcoiR83mGFFDMQiQ6yY3tR65wedcEdS7E2oZ/FZ9ezj/XEX5ymfNVTyKN0xQ9NWT83j6LqnnbmIuRwAo0dYW+dKweiP8ZYg2zOxpEQXZu9QHlr9GIi5pOfOVKYwCygCS/uThcnzM0CD6tyPw4U3lc7s+LVG1oOaUAolqdOgH5+yKXrR7jp5Tu5gSHeCGHbdc4OJk2Is4qRV8cRW6OBZHQbsWWO2VBV3nHMbjz4G4cmYLFkwcjyFt7KRv+YoZ7thgkrUEei4+jsBn17F19hA0qpw8N+6Z1X1RqWJ3HH0qveuCiIiIiIiIvnWGjv5lKvNqA7FPJU+g4Z1GyOu0BKOsYa7hbmWrRi0wsLSih+LR5YeUtzuHeZzGkart8aOtKQB7dB7SCADw0n2fSo/cELjteoju7RNzuxqWanAIOIJLt6S9+tIiBE8ffNR6C3iIWyA+pGH1mlkbOlAvlR2WBfS9MfvLi48IV95KnR4fAl7jXRqCr6ZZgexIfbD3+3Mb53Y8T3hujZ/a1Uuxh2y2Mm3R9xfFAHd3lm6Fh8oghjePbIXNkO6w0zPvq+GFwHVsU5RqMgquPkXw+04fXDu5HD3qlIGF+Zeap4xm+GNDrqI10XfqX7jo8xxxn2R4fPcUtq+ahLYVFMe5mDf7MXrcjmQpdbSRx+hXj4iIiIiIiIzbVx20zRjFUbFt0ojlQs8/wHHhMryOjkl41RIVympatT+iza/VAQAR/n/D/WYsgCh4ntqB1i7OKJrQy7Fco58SAqgeOHD2AQAgOuAyjj9rCeeqGqLBBpCtjAvGjE1MN+GPLfvVe/WlRdz7+7h40lntFnCzkhXwU65sytf6Dgoke/tG+bxMSzuUMs3IoJAFipRNyqH7IUKuVmpsLqxsgIn7Hksn66VIWQfl7dnxsfov5+vXicFHoGL1iikGH78kq/yKoGfQ4YdpukhgKGEep7Hp6UcAQIFaY9C7ffI8sMlZoE3PAQnbaD/+PvYEACDkV3BwdXH0aKdIuZL5ouC5aAi6/O8cAGDQph2Y37PyN5v7OYn6seHeY/0HVlMV9WAnRi7zSnaMNc1tgbJVWqD3iAU45vcKbjMV6XKCDi/Aybv6HSxfBStyTBeoYKP8TSEiIiIiIqKvj6bI4neuEOq1VPR0BYAHQUFqpdrEBPvjZkQ0AKC0S2NUKqh51f7Y9CfYZzEF4I/tR68i7r079qypjWYNiijrqPauu7TnPAKFwK3j25B/wE8Z2KsuO1qMmI3OxRUD+txZugAHHugXJNDG7/gu+PfogNqFkm4Bz2pdA63aF0545Y0gSe5fbQIDkga7atikWoYHh6rWbqUMZj56GJgsuGJMbEpWk07Sm3m1hsre3yFugXiZeN1BJ9W8ntZoXCft358ZclhZKrelvhcJDC8EB9evT0gNUhPTFw3Ue1+2atRemTLl6PI98BcCr8644tpPP6NREd3pFTJKzAs3zJupCNhaOs7Ab7+Uk1ZJQShcJ0zARZWew1+Lao07JRzDgaCLdxGoZw9YodL24iNCsW3DOQTpfK8F2szYjHndigPwx837gdIKGkQh8pNiJ7a2spQWEhERERER0VdEc2TxO1fSuSf6l8wJALh64Q7e6fpfneCl382EAZ2s0bdvG609nMwdGqLLj4qBrbzmHsLeEyfh+0tHSfDFAs4dXAAAoZ57cPn+XbjvEmjdpJJKHcMzK9oWq9aNUubdnTFjp9635ErFvXfHsulBGDq4jSTAWghtenZL+I7TuHJTfbA1zULx4LpiMCMz61HomQm9C3PUbI6R9RU9rp+6300huPJlvQq+A9OsimB76v2ItqMSU24cgdc9faKaT5SD9RVr+Tt+qpMxvb8NJWvR8miQ0wyAH17peZHA0B7sm4s/9j4DALSbuRh9Gyb15k+ZPToPbw4kDEi268RtuG6+jl5dnWHYG/X19+6eF05EKoKDZVvW0RmAjoxQ9C6Wkr0Ixkf9O3cbDXOHthjURnHhKdTzMG5KBpXURMhvYWrdn3AsJKluhP9h3HyY0nsLwamjk3SiDm/w6ul/AIBKZTWnpSEiIiIiIqKvA4O2GmTJ3xTj5nYBADza9RdOPUwpkBUCt11nAAAOvRaif2tdAZmknLXASvT6xRVd2jklC74Udm6HYVY5AXhh1+y5OJ7PBU0qZnyvOps2f+LURsXt2E9d+6H/tEtp6GUagq3jR+FtvwXoXc1MWgibNsMTeo8BrpsOpthTLTrgLPYeegnAGkOXDkfDfJnRbO0xcsEY2GcxTQiUfZJWSOapb9IgU4aUI1ch5fOPnyLVyhQ967LgB9u0jmIP1O7/J36rYQXAHxu2n0hxeyfd5l8Tk6YNQGkdATtjkNW6JBx/yAPgKB59gaDtwyMT8UuvTXgrBFpPOowtfzRIdU9xuzY90SOP4iixfNwv2BrdFx1rfLlguVwernyu+4JBKK6535JO/MqVQJ8Z4/FjVlMAHth84La0QjKvzuzEoUpdUae46jHcC1t3e6a4vylYa80Nru4tAi/IADiivK3i4qA28RH3sbT3jyhkWhguc9NynCciIiIiIqKMlBnRr1QRcjk+xiUGVl7jowEGWFInh4hTfKauHJ6Vev6JHYOq6NXj9MG+uZhz7BUK1JqBbSt7a+1lmygpZy1gZv0zmtXJJa0CE/MaaD1EkSLhjOshVOzYJMXPNYzsqDZgNU5tHY7ipiY4M7cxWgzbh+d65vaNj3iE1f1a4kDuGVj7R4NkwWiFEugzfw162uXCS/exWLBdVz7WEGyfMxfnomLRbuZ+zO1ZXlohQTjCXmvfntoEHdY+GJpl3XH435/NAACrpszFvU/aA34yr2XoM2S/8nXw6zC18mRUrgNEp3BNIL+dg7K93Lj3UFLqi6sHasPRXktAX4/vMc1dHdNWT0WDImbwWTMDqy5pD1DHR9zC0qnL8VYUwvBtOzCirrbwYyheBih6/KXGO/9AvXq2p045VHMqCAD497E+t5hrEJO07UvY6A6GJYoLf4Qt49ugUacluB1bHP3+54E9c9qjQBqC3FnyN0X30Yqe9hH+D9FUR29+bVTzQuvvKEJeJ2/3Ras0ULZJXSkCZFc3Yb9FW2XA+XFg4vp/hqdesTCRxJ3j3r9BSHRKvU8V5J+SAscp0dbbVyOVba0tnYZFtbHYvnMgCpqY4MzUIViiY5+JC7+MpXMeY8pEl2S5n8/PHa1zfwPCcdX9Eiwdh6KtHj3aY4KD4B0hB9ACjva661/f8hvG77yDt+INDk4djB139MqNQkRERERERJlFGIHPYWEiLCxMPPc7LaZ2LCsAKB/FWs4U7g9eiLCEOmFhn6Vv14viOwLFxa2/iR+zmiZ8vqOYsP6SCP6g7XODxYHxbURBExNR2mW5ePwhTlIuFw8OTxA/ZjUVZRpPEhdexErKtQkWK9oXEQBE7XEnhVxanOCD+/SE+WwvjgTo+9mGE+q7XwysZykACDPrFmKF+zOt8yqETPidXCHaVigqus05Jd5Gx0srJBMddEaMcLYVAMSA1d7io6Q8PjJI7BzjLABr0XHqYY2fGfdJJsLCAsX1PbNUtiuE87i9wv/lBxEWFqac589hYeLDKz9xYnV/UdDEJKFuBTFmk5d4rbVtyYXniq6ioImJKNZyvvBN1gaECDw1Wzg1GSr2b52h0nZbiOXH74vXYWFCFpk43/KEdn5RrBntpKxr6ThaHLzzRG1e1cmF+9wWGtvCvzv7iHYzPSTvS9v3hN/bJNpWyCEARzHrcIi0WMS+8xKzO5YTQEkxZlPy7SW0rmOIvks8ku1nn8PCxLvAe2LLlKYq662RWHjqkQgLCxOyT8m3d1q9dJsoAAiH4Yc1LrtUfKQs4XiTvG1ZOo4Wx9WOSUmPd4H3hPuJPWL+r+1FcVPF8ju6zBRud95JvyLVIr3XCPsspsLMepS4Hp68HWoSHxMpwsLCxOO7+8Vv9fNpXIbE9qlY5tfC58J60bm4ubJu7b7rxH3JviSEELe3dVNu4+ZTTiVrD29urRYtmwwVJ5++F8emVk343oniauh/4qnrBFGt1zbxPD5erb0u6WOn0hbai/Wej9XaQuLySH8rtC9PmHh0/W/lcQyAKO2yQNx8+l6xPDGKeU08jtz4Z6FoWjSbsm7fJaeF/8sPWtqiXNzeNiJhO7cQ6z3fSiskHEPrigVu6vvT5xtLBQCRs4ytKG7aXvztral9yMTtTQNF4cKNxEqP5J+tSWI7t+uzJ9n2kPJcobrfOYqNt6OlVYiIiIiIiOgLMoKg7S0xuWAelT+PEIC1cGjsJJybaXrMF37xmv5A6/JGbOxeQvId6o9SHbcmBBCSC7n+txjZxk4A1qJGtzFiyaIlYsHEQaJR5aKi+A8/i6UHb4rwGM3v1ebFkdECcBSrb2j/oxwfeVP8USOfsOuzR7xN3ccbkEzc+2ehcHEolrCuSopOQyeL5ZsPiHPnz4mju9eKBRMHiZrlsosfWo4RB1MZnIqPeSMubp0smpU3F2bWdqLv+EViyaIlYkz/5qKCTWFRo5vugJf73MrJtqX6IzHImb42EOp7REzvWU0UNFEs/9aDB8X6xRNF77p1Re9Z+8TjD3HKQIz0MXibvxBCiOjnrqJ1DrNk5UkPXcF5mbi2bYRoUMRMADXF0KmLxKTBLUTtvuuSXUxIz/fEyoLEoSX9RAWbLCJnmRZi1NRFYsmiqWJo1waiuGkp0Wno/8SVkP+kb0uQ8joGJgqfuHgt+736o+aUi9IvSLPYd26iR57sKt+vW8C+vsnmR99HzjK1RHOXYeLPzQeE91Nt6yotgsWK1jai9Zzr0gKttLVJ1Udi+0x5mZO3m6T9wkQUqNVXzFyxQ+zcskyM7tFAdB7zt/ANVbTNuE/+YvVAR+VnObosV14ASbm9JrUFwy4PxGIPxfE3peOIrrYY8/qSWDa8gyhuaiKK/9AyYZ+ZIHrXtRc1ui3QuL98vrFUmFl3FUcCYsVHvwNiZBs74egyRixduUO4HdoiFk4fKZpXLiNaD9S1vyXnPre6ACAmuL6RFiUT98lHLO5mL8ys7cSQFTdSDPISERERERFR5jIRQst9rZRMfEQ4nj65i5CweACWKFulIkpY5ZBW01M4nvp9Rmk73blIY9/4I9C0HMoV/PKZLCKCvXHh6lU8uHcXZ+8GAAAKlKmFxg3qom4dJzjYKgZvS6tIWTD+vReAjwLIYlkSVcqVhkXu1N0CntGEPBwvg/3g//I/5C5shwq2NrAwV8xj3Ht/XAnJCkfb/AAAk6wWBp9/ESvHh+f+8A58jwKlqqCCbT4tKSjSKwphr4Pw8OELyIFky/r1CcfOwdXQe6MZVt+4j+E1k+daNn4hWNlmOAov/wddy+u+9T2zCXk4PrwOgnfge537bnxEOD7GZoOlZVqPm8ZLdd/MXdgO5W2stC5nfEQwHocVRIXiScfMpN+XbChmVxHWVpap3N9u44+yzpgf0BFn3mxGs0JaUqYQERERERHRV4FBWyL6LoR5zEOFJlNRdfY1nJ5SS1ps9GRey9B6cX4c2P9LqvPZ0rdP7rMWNaqNRO4xx3FxScsMuphDREREREREmeXLd98kIsoEVo16YWo7G5yZuhten5MPrmXcwuG2aQ3quTgxYEsaRMH9wCb4xjXD8P5NGbAlIiIiIiL6BjBoS0TfiRLoPWogCpqswq5jL6SFX1x8xCPsX70MGw7dxydJWXSAG3bc6oKerYtKSoiAmBduWLfUF7XHDUOHSsaVOoOIiIiIiIjShkFbIvpuWDkPx9K+FbFlxmb4G1lmmAsre+LnkeMwpLMDFh15q1IShTOblqDU6P6okoeHbJKKwqW/1+Js3k6Y/Gtb5JEWExERERER0VeJEQAi+o4UQrcZf6LF54WYtfa+tPCLMs+amPbAEYVtLJXTZV5rMO/izxjbo5xyGlGi6ABXzP/zIQYvnI32pTn4GBERERER0beCA5ER0XdH5rUMTetdwiT/g+hiJIGu6IBd+KnxXNgtOIy5PcsjO4Cg03PQd0IAfju8iQE50iAEKzvUwXabZTi17mcUYLpjIiIiIiKibwaDtkT0XXqwbwhazbfEkcvzjSbtwCf/Y1i6aCl2XJLDuoApqrQag+HDXPBDQeOYPzImUTg3rwN+e9gRB1cORlkrthEiIiIiIqJvCYO2RPSdisLVlb+g38mq+Gf/RFQyksAtkT4e7BoCl01FsOvQNFRlwJaIiIiIiOibw396RPSdyo66o/bh8NAIbD/0RFpIZLSi/Xdixb16OMqALRERERER0TeLPW2JiIiIiIiIiIiIjAi76BAREREREREREREZEQZtiYiIiIiIiIiIiIwIg7ZERERERERERERERoRBWyIiIiIiIiIiIiIjwqAtERERERERERERkRFh0JaIiIiIiIiIiIjIiDBoS0RERERERERERGREGLQlIiIiIiIiIiIiMiIM2hIREREREREREREZEQZtiYiIiIiIiIiIiIwIg7ZERERERERERERERoRBWyIiIiIiIiIiIiIjwqAtERERERERERERkRFh0JaIiIiIiIiIiIjIiDBoS0RERERERERERGREGLQlIiIiIiIiIiIiMiIM2hIREREREREREREZERMhhJBOJCIiIiLSV3TAWaw65COdrIEFnAb2R1Ur9hswJn7HV+L4gxjp5GSy5K+FAf3rI4+0wMDiwm9i88ZL+KTHv5SqHcfAqVwW6WQio2Fs+xcREX09GLQlIiIionSJ9FqGnLXGSSdr0Aj7/N3RtXxWacE3I/aNDwJN7VGuYMYHpuPe++NhdDnY26Tvu87Nc0DTKfelk5Mp0nQtvM4MRVETE2mRQcW8OIiO5brjRGTKga7Zpz5iaotvJ8yVme2HVEXhyb0XsK5S2uBBU2Pbv4iI6OvBoC0RERERpUtS0LYFxi5sqiPokB21uw1DveLfZs9Iv+MTMXJ9fqzYNQGV8mR80C0+4ham/zQTpRbsxcBquaXFekupJ2CorysWbb+eaUGlpKBtJfT9vSfs82lfl7ZNh+CnqmlfdmOS2e2H1D3YNwSTrrTGXyvbG7SNG9v+RUREXw8GbYmIiIgoXZKCtqNw47/lqJnz+ws4PTw4Gh0XW2Hf2emokoqAW6RMhigAJlktYJE79cGamOCD6N5gCRrvPYMRdQ3dR1Dh6f5+KPPztkwLKiUFbet+8z2zE32p9kOqonBuXgf89rA7Tmz/JcPbeaLM3r+IiOjrof8ZARERERERJSPzWoY+o95g8e5pKQbc4t67Y1TLBiiRxRQmJibIaWUFKysrNF9wSVpVL2YlO2OTaxds7zIIR5/GSYtJDx+9D2Dy8K5o2tzZQI/+mLblMj5Jv0iLL9l+vmVCLkeUdKJO2eH8xwaMzLoQw/68nMr3EhERGZ7uswIiIiIiItIq5oUbBrosQ+1Ff6J96ZTTPmTJXwODfv8T29wPYemAxsrpzWtUUquXGpY1f8PW2SYY0GM27n2KlxZTCkwtLWFrWwutmrVGs6oF8OjcBZw7ex7nzp6H98cSqNe0NVo10/Woi3JWMSrv24rdJwMQpcf9jMbQfr5FMcFuGNzUBmN2hUiLUlAC/VdtQLFtPTFh1yNpIRERUaZi0JaIiIiIKE3CcWThH7jxw1RM6lFOWqiFBSo3bgKnJh3RvVPNhGntUaNyPkm91Pmh/xSMyrYWkxayh2Bq5S7ZDIPHj8O4CeMwaeFE9MqflCN39KyVmDVRUab9MRvr9l1C4Ac/rOpbEQBgWbIw8qR4l7vxtJ9vxed3PtgztwfKlG6PTZ4yabFeTHPXx7TVPbC39wT2Xicioi+KQVsiIiIiojQIO7cMv642xaRpPdOUh/KB93kAgKVjHVSwTe9puT0GTuqHu/MmYpNXhLSQ9BQd4IfL4Z8TXg1Gwxq5JDW0y2JRHsOWLEaPPNmRx8oK2aUVJIyr/XydQm9sx9LFE9G3RVPUKm8OS/ufccz7I57F69HNWQebNr0xsv41TJtxAO/S91FERERp9n3+uhMRERERpYsvVs9ah+wthqJTnaSemfoLwb+eLwAApZtWQak0BO2kbNr0xogaAVi22JWBpjR6ftsdV6IVvStLdayDMlap2y5Z8tdAk7bWqFjKRlokYXzt5+tVAq1GT8aqIy/x6fVDbB7vJK2QBvYYML4HfHYuwN5r+mYnJiIiMiwGbYmIiIiIUunV8R1YdeUdug/8KU29JGNe3MTpC+8AAK0b/Jhir0z92KPz8OZ46vo7tp5noCn1ovDg7nXlq8r1K6Vh22aHZYHsKFNcd9DWONvP16dQrV8wbsII/NzaGTUr5jPoerBp7oKxtk+xcPYuvBC8CkJERJmPQVsiIiIiolQJwYENO/FWjIRLqwLSQr1E+PngRGQMgEaoXNFKWpxm5Z07o3WOD9iy4zgYtk0tX1w98Er5qmGNqmql+jGHea5cyGEuna7KeNsPJTExr482Ayvg+am/cPJurLSYiIgowzFoS0RERESUCtEBl3H0dCjshzRBxZxpO52+c+MEAMDSsSUcy2WRFqeZWdEaaNGkAPz+PoXroRxEKTWiA/xw+VliPuDBqGmflu0SjtfB5VCisPZ2Yczth9RVq9UagDcOn70jLSIiIspwaTtLICIiIiL6Tj32OIRzUbGo36Aa8kgL9ZKR+UhLoHqLHwD8jUvXPkgLSYcX9y7rnc/2o/dpeD7TFBQPx4cXZVCqmPa/WcbdfkhV3uoN0c/CHJ57LsCfKRKIiCiTaT+bICIiIiL6IqLwzv8GPO4GIFxubIGSUFxzvwWgEZrUKCIt1ItqPtL6NX7QmoczPuINfK9fgE/gZ2mRTlWrKwZiOnH5NqKkhaRFFP695aF8pTufbRQu7Z2Ph2/jpQUAymHCufmobKrtvcbffihJFotyqNOiIGTep+D9WFOQnoiIKOMwaEtERERERiMm+CxGte2MaTsv4frOcbCzbYLF595Kq6mJj7iFOe2qou6gfXiXwTFeIX+EO6feAXDU2ZtSF9V8pPWqJh+wKu79Tczr1RjOgxbi9OU7OLm6B+r026f3YEhZi5ZH6xxmuL/zOoL0fA89Vslna43mdbTnsxXymzi/rwoc7DSnJTDJKp2S5GtoP6SqBEpXygvAA553k/IdExERZYa0nSkQERERERlYzAs39Op/Ff12HMW62RMwaek09Iu7gyk9p+HSB029GhUe7p+PaW73cG3TVTyN1F7PEKIe+eDyRzmKNLVD0RzaelPqlpiP1My6cbJ8pG+uLkX73odQd9E5XNizDL2dLHDL/TaubxuNf67pNxiSWclScMxtjpg3d/HoWcauj29FdIC3Sj7bDloDsgDwYPcanG3eOE35aL+G9kPqbCvWAAB4+T2VFhEREWWo1J9pEBEREREZXCj2TluDZov/QFUrxSmqkEdCFhuHmDfr4eOn7dbkxNvNgfI966B0jow9vQ17FgzfuHjkK2ODvFpvn9fFF55HAgEAlXvVVstH+vrcXAzZWADrj8xD4yJZIORXsKDLb3D1eQ7gDWSf5Cqfo0tB2DaxBHAUwc8ZtNWHaj7b0i51UCmhDaqKlAXjxNJeaDVoH+rWqZSmfLRfR/shVTbFygMAQn0DM7wnPxERkarkZyNERERERJlM7uOKjaIvfq5mppyW2CsRsNZ6y3lc+H1cPREKAKhQtTQKpCUOlgof3jwBAOS2sUpT0C7mhT9u3P8IAKhZtZIyH6nMaxn6bSuGNVt+QTEzxULER0VB9iEGAFCg1gy0rZtL+Tm6WcDK2hwA8G8gb+lOmXo+26eu/VDQ1AQmJuqPnFal0Gb8LjyLd0CNyrZqn6Cvr6P9kCqT3Bawz2KKp66BeMUUE0RElIkYtCUiIiKiLywK7gf+RrterdUCWbfdD8E3Lh5m1n1Qw17z7erR/t5w+xiVYh5Sqbf/7kSvirmx+Fy0tEin168fAwBKFy4sLdLLu3teynykiQNRffRei8Hr8mPjll/UBr/KYuGMxbdP4fgJT9w+OR1V8uh76m4Bq8KKoO3HiEhpISWjns924alQhIWFqT2e+13H0d0z0bRoNgAtUKuKlqsIKfg62g+pypLfGiWyZQEgQ6TRDYxIRETfMv5yExEREdEX9hhXDzdBozpJPQGF/AoOrvYCADQf+xNqaskfevf6SbwVAsDPqFlFc2AXACJlMjy5dxFn/9mKMT2r4YfKv2CX33+Iio2SVtUtRpFuIG/uHNISvTzwPg8k5COtWDYLXp+biz6rc2HZhqQekqryl2mE1q3qooSG2/X18fT1a+kkkpDms61dIz8sLS3VHkUr1EK77jPwvz/bwn5IHZQyTb6t9PKVtR9SFYQ3zI9ARESZiL/eRERERPSF2WPe/QVqgVnZjUvYGRQBwBEdm1VTq50kFA+uPwIAlHapqiOfbShOrpmPI2dv44UojgELlqNnvpzSSnoIRaD/J+nEVEjKR1qmZQ5cnvgTRl+sju0b+2gMuFHm0CefbSKT7HlQv0G1NKU2+Frbj7/7BixdvDSDHptw5y3zLhMREWliIgQT8xARERFR2kV6LUPOWuMAjMKN/5Zr7RWrvyi4Ta6Cdgv8YOk4H9fvTkIFDYM2xYWfw6CSbbE1XI4ef/lh15AK0ipa3MYfhZpg/ttPmH3qI6a20DcEF4pNPWpg0J4QDN0ZjHU9S0gr6BTz4iA6luuecHs7YGZth7adOqF9szao16AOyhVM73pLcm6eA5pOuY/aMy/i2oxG0uJUebq/H8r8vA1Fmq6F15mharfgZ4Sk9VQX+/zd0bV82lIR6CeprQFAuyU3cHRcTWmlBFFwm9wCr7ucxUCV3Mv6+3raT5JwuE5wRpclt6UFBmFm3QgbT7ijTzXDbeOk4xHStJ6lktZ7KxwNPoR2JbT36E+LzN6/vhfxEcG4fjMA6R9+zxo1mvyQxgs1RBkpHPcv3km42yg9zFGueh0Uz8NjjzHKiF92IiIiIqI0E/KbOLE+BADQoLeTxoAtJPls61QuLS3OANlhWSBx6KfUU81Hus8/BmH3DmNoIwsc/KMZyhcqgjaD1uPfMPY6zFzq+Wx150V+g9CYzmhQNa0Bxq+x/VjAZfEtCCEy5BH9+qJBA7ZEia5tGIB6Ts5o2X04lmx3w91bd9Ue+5Z0g7OTM5ydJuPA+duS8gvYt2R4QvkfuBii6IlPZExeHp0BhyZOcHbqjz/XusLjpnobP71tSkIb7oG1R28l2weObhqPbs5N4ez0E47cj5V+PBkJBm2JiIiIyKjIPM9iXdhnAI5o30R7EE3ffLaGkzTAV3xs6vtvqeYjdSyXBbkKV0DzbpNw5NY9rOqbDyc2DUXjVn/iYWR6e80kyZ5VMb+kmTSfrYOdrnZUAv2XjNR6ESFlX1/7IVXmyM748lfCF+f23UPrSYfxIvABTmxdhnETxqk8RqCdQ34AQGmXYZj653hJ+WysP/4Qt9b/DMAOpYoxbELGJhzn3Y7Bodc6+IY+xcUDazFromobHodfGikGqzSz7oPpCydI2vg4/G/XHXifnIqCJrVQojDbuLHiliEiIiIio/Lg9kkAgJl1R9Sqoi1KkpTPtnzPOjry2RqWeUIQ1CcosXemvpLykVbuVRulVAJ/prnLY/DUKaifLQve3ZiF3WfeqbwvLaIQ+UlxC33FUjbSQlKRmny2hvB1tB9SJeRyfIyLB2AHGwY2vgqRXmewr8QcrJ/dHgVzaLrI4qvsYV+xekWtKSkqO7dDs04VkU9zMdEXE/PCHftvd8H6lYPxg8bUOKG45n4LAFCmZVXYZtPciAs3ag4Xy4qwLaXpM8gYcMsQERERkREJxcN7bwAAtk3tYKPlz7SQP8KdU4rgVPUGVVFAWS0Um3oMwtnQjLmd1abUDwCA6E+RiJIW6hAT7I8b9z8CAOrX+AHSm+RNzM2RN4vi1PxdRKRaWXTALnSbdUltmm7heB38GQBQtICVtJCUovDvLQ/lqx9qV1JpRxnj62g/pCru/RtciY5DkaaFGbz7KkTh3LF96D6wp9YB+qID/BJ62FujcR1tA10C8f+FA+VttAZ1ib6UR+cOIt/gfqit5UKj6jlSwybaB8+Mj4pCfJNSPLYZMc1bmIiIiIjoi5Djc7iil2i+cjZag2hyHy+4yiKT5bONC78Prw8/opLGnifpZ1OqMgDgQ8BrvEvF4B/vfJPykdarmrz3a9ybENyUK3LKlSmuXv78tjvKVamoNk23ULwM+A9AI5S3zSEtJKXU5LM1jK+j/ZAq2VvFRaTCjrYowOCd0RPym7hw8Sd0aZ5bWqT0/LZ7Qg/7lnC00/5bIeRyFJDsT0RfXgjOHcyJnp3KSguUks6RHFGjsq20WCk+QobwIjY8thkx7UcoIiIiIqJMZ46cFmbSicncuXIiIZ9tI5RXua3v470beNesWob1jDIrWQE/5cqGoMMP8UH/mBse3DoOqOQjlRKxImF52qOC2m2KIXDblQUN6+RTmaZbXPgbBPn/B8CRuRh1SF0+W8P4GtoPqQsMuAMAsCtnm6yHMxmfSK9LeN+ro47c01F4cPc6AKC0S2OdF/heBd1H2VKlpJOJvqjogMu4Xr4LGhZK/luQ6KmvJ94KATPrFqhpry3NFBD7Ihgmdjy2GTPtRygiIiKDCEeA78tU3QZKhhH33h++rww9kjilXmbuA1F4cu8pPkknf1UKwda+EAAgXtHhNhmZ1zJMXvog4ZVqnskoeLpfRGsdg5elV1brknD8IQ8APwQG6bt/+cLzxGtAQz7SRCbm5rDPYgqgFKxVuhfLfdzgVqQtauv4cyYVE+yPmxHRKO1SNdNy/X6NknrbAaU61kEZq+TbxdC+hvbztZN/Clc+/yhJFZF64Xj5JDhZj376ciIjdF/tyNnwD2wdUEE6WYV++WwBoHTXrfizTV7pZL3FhQfD/5kiVU1Gi48IhveTD9LJBvPc+yg2LFmKpYuXYvuJx1/5eYZxS6mNZyvTE7vmt9ARaNUvny0A5Kj5G3YNcZBOToXMO8f9Xts4z+KIiCjDxEfcx5xOXbAt4D8dJxaUUUyyf8LePu2x6U5iTzLKbJm/D2RHtP9C9Bh5BC9Sceu1sWnY83d0Lm6Ou5sO4cZH9cDW2393YsjkT1h2ZT165MkOQK4siw5wxXr/nuhYNeWeumlnj3odbAEchc9j/f6Mq+Yjbd3gR41twdyhIbrWzQ/gNWSyxG0Xgp3LL2Lg2LZa89Fp8tLvJnzj4lG7aR2t6SW+R/ER4ZDJZJDJguB1eBGG/LZbWSYLvI5zJ+8gJEyWUEeGKEW2AQMz/vbzNRGxcuX2ksmCcPPUNkyfv0NZfmDGaCw7dAWPXoUp64XLU3NsfII7J0IB/IyaVb6fwLexkvusRccFKednNtHesVDvfLbp9dF7Ldp2WoAXsZr2WMMzzW2Cm3N7YtqRx9KidIl7fxnT2lVC2zkPUaZNd/Tv3QwfD3RA/d5/f9XnGcbKEG1c33y2iXR9li6ZfY77vbZxBm2JiChDxEfcwvSfuiLUZTVmdygnLdZK9Q9YZly1/ZaZ5q6OGRv74VTHZlh91ViuF38/0roPAEBkmoILCpV+XokxNuvQ+pftRnGymRZmJTtjy7HVaGG5ET07DMDK3W44+89WjOnZEMM2xWPe4emobtsOS/+ZhgZFdmDKuA04/s8KdOntjuELe2V4oLJavU4oaGKCM9cVt02nJO59Yr7RPjpuU7fH7zu2oKfdcSydvwknTu7FhI4DENxxLrqWT80/qnDcueIJoBE6NCkjLfyO+WJqlZKwsrKClVVtDFpxGqJSfTg3c4JzMyf8WOgxts7uhpL5rBLq2GHRaUWg1NCMu/18XeR31sLKygpFq7eES9cBmLxsBx6a2iq3a0OHGJz4awZ+7eOCTq1qwMrKCr8ffCb9GK3kPjdwLOgTqo1rBcec/Ov8pQXcuoaaNSql2BNRF33z2aaHzGsZ2nW5hGGbVsPJVv9gf/rOgUug/6rZEEtaYNSuR9LCNPnovRYtHZvickEX9K8Zi7Mrf8eoKXvwwboG4vb0x8hlN6VvoXQyRBvXN59teqT1HNdY27iX7Qj81jobPDZMxdDRK/DCogqi9/TDcGNo44KIiMjggsXGvhVFu5keQi4t0sDzr96iUeWiAoDKo704EhArrfrdi/sUKZ2UorAbS0WNIj9zfWaq1O0Dkd6bRAcne1HQxERtPxi8zV9aVU+p+/70+nxjacI8jxI3/ouTFqfLp6B74tz5c+Lc+dsi5GO8tFjER8rE/WvnxYVr/4rwmOTlmt0SkwvmEQDE7FMfpYV6uCUml7EQlo7zhV+8ft/57N4Fcf9lyusmPiZSPL57QZw77ykehaZcXyo+8rIYZpVTFGu5TjzXc95SErCvrwAgijRda7DP1CX6uatoncNMAI3EPv8YafE3wHjbD6nz3fyTAKzFIve0HCf0k9n719fruuhZtLSYe3i5aD7lorRQT3Jx7Hc7AUCUdtmaIes7OshVdC5eW6zy1K/NGPocOLXfr010kKvoXNRcZLG0EuWbuogmFUqJFoOminGdywi7jgNF/fxZhWnunuKKgX/zv2+GaOOJxy0IM+uJwjvK8G08teeYRt3Gi5uL7MXKiWKl6onmNUoJ+w5TxPI/u4lChRqIOoXNhGmOtuLkF27jGXNpiYiIvmNR8Fw0BJMfdsWfv9XX63YZh5YjMH3FdhzdPRNNi2YDAFg61kEFW/5MqQq9vQYt7Cyw+qqWRJ9aWNb8DVtnm2BAj9m490nfHIqUdqnfB7KVboqJU1dgz/HdGN8hsXdkenpIlED/VRtQbFtPTDBQb4QvJXdJRzg1cYJTk2oonid5F1oTcwvY126CxrUrIW/W5OUZ40e0+bU6ZN57cfmufvfQF3NsDHublI9pJlnNUbZKYzg1qYtyOgbI0UbmeRbrwj6j+8CfdOZqpC/JeNsPqQrBuYPXYOk4Bu2dcksLKZPFBHviRnhtlP54BzVrVJIW60n/fLZpIeT3MavXUEQPWIhBdVO6KV3B0OfAZiU7Y+PW5pjbeSCOPlXk7E6t+IhbmNp5EA6+kKN0tXrIefEK7MYewZENszFv4SwUPbkNry1NEB+xB/OX6d9znXQzTBvXP59t2qT+HNdY2/jMHkNw8FkcspoXgbX8BrI6/YWrh+dgzLSFmFI7AF7yWMRHumH6uCvSt2eqtK0lIiIiLeQ+mzF6yj2MnjUOVfLo9zOTu2RNODVxQrvundGgqOIkt3zbOjpG/v2+RARfwrKhrWBfYyTcX0RLi/XyQ/8pGJVtLSYtvJyG25EoNdKyD5jmLom6TZzg3KobOjklBmpboFaVtN/WbJq7Pqat7oG9vSek+aSWtKvdZyx65PHDlv3njWifCsfxfTthZj0RLq0KSAvJiBhn+yFVch83bDz9Bh1H/sTzESPw2u0iYuvWR7zXO1SuaCUt1ktG57O9tmESFj3ugSlj9QtmIYPOga2cf8OqLg8xdtKONKRJioLbpD5YdDsMWQtURRaP44jvthx/DnZAdgDZyjRAe+eCePo6FkA8Lu1an4bvIE0M0cZTm882tdJyjmuMbfzE3IGYd/U9gAIoKbuC4JJTsGRG84T1VQLOHWohLiE//O1dW+D1+ct1etFvLRMREeklBBumzUVYx/kY2jz1pwkxL5IGW2me5ivMXz+/4yuxaMYodGruDLsiWWHtPA83X77H21SflKiyx8BJ/XB33kRs8uLAZBknffsAEIoH1xU9Y+2H1EEp07Sf0AKATZveGFn/GqbNOIB36Wk+lEyW/G0wfI4Tri1cizMhxhEUjw5ww7btIRiwdDhqMv+mUTPG9kOqouC+ZyOe20/DmB7652ukjHP+oi8qNrLBreO14FhO/zyxqjIyn210wC5Mn3gWA5aOQ628qf9sw54DW6DtwKGwOjwZi/Y/lxbqFHZuEgatewggJ6zjvBFQoAsWze2ikiveHDktzBD/n+Kk4pPfWVx6zGOYIRiijWdsPtv0neMaSxuXXV2E0Yt8AAD5bULx4N2PmLlyPCrmSDrnzpE76e6K+E9Hcf7af8rXmS31RxMiIiItXh1fgznH4jB0aOc0DQQU4eeDE5ExABql+Qqz4YVi58jWWHj8rbQgQ2XJ7YC+v0/Bfs+P+O/JKczt9YO0SqrZtOmNETUCsGyxKwN4GSS9+4BqDwmHqhUN0EPCHgPG94DPzgXYe42D0SWKfROMYLmi17qv38M093Ss3f9P/FbjMtZuvZLmzzCccBxdsRDeVWZjTI/i0kIyQsbVfkiV3GczZi55jRGzhsNR5Y88fSk3cPaaQK1ygfD5qTZKpamHXhQe3L0OACjt0hiVDJo+RHH8vWT5G/p1KiYt1Iuhz4HNHXpiTL+c2D5/M7wj9T3pu4vfBm5EqBAwzROJF2Hx6DHrT7QooRpAtEDhkjlVXt/C3YdhKq+Nm5Dfx9zuXbDXR7/UNJnHEG0ceOrribdCwMy6BWrap/1uLU3Se45rHG3cF8uGL8fTeAGTrNnx/lUcao+bhYE11VPgWOUvrPIqDJfvPVR5nbkMeaQiIqLvmi82LdyKGIe05367c+MEAMDSsWWarzAb3jM82HcFQbJIaUGGsWszCuMmDEQHJyc42KqeGKeXPToPb46nrr9j63kG8Awv/fuAag+JJjVKS4vTxKa5C8baPsXC2bvScAvZt+PcPAeYmJjAxMQEZoU7Y/cnRZhs35haME+YbmLSGPsf6f9HzjR3dUz733g8nz0fR1Lxvowgu7oGs9bmxPy149J1yyFlHmNqP6QqBDsXLAQGrMPEDgWlhfQFxAR74oasJsrI7+KHGpX0Tj2gLuPy2cp9dmHBun/RfOxPab7LwfDnwBZo03MAzHz+xP92P5YWavR46WTsDPoMwBTxnwTMrEdhWHdpT3M55P+p96wNef1B7bUxi33/CFePHMG7COM6HzJMG8/IfLbpP8c1hjb+8tByLL2nuMhgFhsFoAXGDm6abH3L5Z/VXr9+9eGLXVxN2xGFiIhIIszjKFZdeYfWwzqlMWAQgn89XwAASjetkuYrzKRbeefOaJ3jA7bsOA6GbQ0r/ftAUg8JoBEc7AxxQguYmNdHm4EV8PzUXzip56BH3yLnP3wghEjhcRFdy6euZ4pl3XH435/A8F+WwP8LBcXjI25h9pgNaPL3dgysZiYtJiNmDO2H1D3YNR2Tn/bDpsXtDXC3AxnCa7eLiK3XGKZe71Cvqo20WC9ynxs4FvQpA/LZRsH9wCbcjm2AXzr9KC3UU8acA1s1aoGBpfPi8KpDehxf3DFh0QXEAoCJIn9n87E9NKR6iELYG7nalODXr9VeU+oZoo3Hhd/H1ROhQAbks03/Oa4xtPEQLP/zEBLDsdEA7Pr0RSsN532Rspdqr2XBr/EppY/PINI9kIiIKA2i4OnuirfCIc29A2Ne3MTpC4rbwls3+DHZFU8yDLOiNdCiSQH4/X0K10OZg8xw0r8PqPaQsB/SBBXT2FtHk2q1WgPwxuGzd6RFlG7Z4fzHBsyvuB0T/vwSA/2FYMvIX/C4zXYs7lleWkhG70u3H1Il81qGvhPl2Lx7mt6D7FDGiZTJ8OTeRWw8eBP5bF7hxGEHVLRN2wXNl3434RsXb/B8tkJ+E+d3PUlX78GMOwe2R90uNpB578XlFC7aPluzEsdDEwa7FQDQQksQWo7Pb9I2KC4lZ8g2Hu3vDbePURmQzzb957jG0MY/X1qBLT4ylSnW6N+7jcbgdsRTRfDbGBjuaEVERN8tIb+JE2v8YWbdMc2j3Rs6zxFpUwLVW/wA4G9cuvb13M5m7AyxDxg+n22SvNUbop+FOTz3XNCjJwKlXgkM3HoKXV+MR8+5lzIx8BaFc/MG4x/r5dg1o6EB/wRR5vpS7YdUxQQfxMBfvDDu7Ga0L522oAmlX9x7H+xdMgYtHMqifu/J2HHmH5y+mw0VLR/iqs099P+hLH4atgLnH+t/DhP33geH/nEHABSqZ4diBgzIyzzPYnngJ1TuVCeNPRAz8hw4O36s3x6AN45euCstVPEEC9dcVPSyTVCsZUfU0xCEFvIQ3L0XLp1MqZARbVzIQ3HinyMJd2tVQclihmvjhjjH/fJtPAq7lh/EB5VTYDPrPmhUJ5dqpQRRuOMdIp34xRhuSxIR0Vfhnf8NeNwNQLhce+AmUvYGvtcvwOvhS531EiXm4azcqzbKp3G0+8Q8R2bWjXX0VIjC+yBvXLz+QK/5Is2qVncCAJy4fPu7DA7890LRhkJ15DNL7PngcTcA4TrqJTLEPpCUz9Yadatq78kQKQvGrYtX8fit/nmWs1iUQ50WBSHzPgVvjvKcQUqg14az+M3yMA4/0N3bw1BkV7fjUqnFOLSghUGD/PQlZH77IVUh2LkxEH9c3o2fK2n6E08ZLT7iEbaMbwObgu1xKr41tl+6hTOrhqJ6/nCEROeDyee3KNugBzafPIch5T3RrUI19F/hpeU8xhd/Vi+gzGOetYAjJuxVjDAf6jkZlXKaKsuaLbwhfXOqJJ6/Nq+d9pQLGXkOXMC+JlrnMMPtU7e15rWX39qE/X4RatMadmyiMe9v1CMfXE7ICZ+odGHVQZtIG8O28XAc+LWysh2b5rCGy4JLCWV/o7l1VmVZxb5705USzRDnuF+6jQv5Qew8q0jPkKhyryZw1HhX22N43lIPmFuWLIw8aVv0dNM0h0RE9E0Kwc7BThi16RKu7xwHO9sm+POIatL2cNzdNwUt69bFmLnbcfryHVzYNhaVc5VGlwlHtP4IQiUPp1052zT29ErKc1S5l6YRU6MS5q0T/tx8Brcv78GoNs2w+mp6TkG+X1mLlkfrHGa4v/M6gnRs129PFM4v6oJeM/fB6+QKtLYqnexkOPjiKnStWw89Jy/CkbO3cePwIrSrUBQ1u6/Ag0+KHG+apH8fUM1n+zNq2Cc/of3k74pRbRug5+T18Lh5DZt/7wgXvXvllUDpSnkBeMDzrmIgFsoIFqg7fBl+rpS2niipZVl3EGb1qJzmNkfGJnPbD6kqgX5zxqNaQf49/hI++e/ELzWqYdJla0xeNwrZL46GQ0VHVKvljIHTDuNjvqwI8AjCy0Pj0ax5awxdch12DfNi65i2mLDrkfTjANhj+q13GvKWJ3+cnVRL+uZUSDx/bYTytjmkhXrK2HNgs5KlUD5nNrx0v4h/X2k6j4nCmb8OJ5x/JLJHLbv8kMlkyR5+9zzwNF793LGApSEHzf02Gb6NW6DL2vvJ2rOmx8Nt3dJ1YTf957hfuo0Db7cfxJX/1C+IOlUri0gNbfzdo/O4+ly9Y0QeK6s0LrsBCCIi+i54rugoRu70T3gVLFa0thFATbHxdrSI++QvVg/pIKbv8hEfJe/z3dxNABDt51wXckmZgkwcGFlOABCzT0nfrZ/o566idQ4zAUCM2huiVhYfEyw2DWwixmzyFh8TXu+a1EkUNzURpV22irfxatUzwC0xuWAeMXRnsLQgUwXs6ysSsoyJVZ7R0uJUUiwT0F4cDY6VFn6zXrpNFD/N9Ehox3Jx7Hc7AViLqYdDhRAy4Tazsxi08LR4G63eqD64TxcFTUyEQ689Wtpb+vcBId6Ijd1LCACifM/k3/Pv3pHCqe9f4vGHOCGEEA8OTxHNypunahsmtqHaMy9Ki9Lt842lCe1zlLjxn2Ie6duR2HaKNF0rnsdr3AkMKuk3oZHY5x8jLSb6pmT2/mVsXnsuET9mNRU5y9QVjtZZhU35ssLSpITos/C0CP0cKda3KyU6LToohlefL/zi48Wb66tF06LZRMnKtiI7IIA6YvcXOk7EytxFPwvzdP32Zfw5cNL5habzx/jIy6JHIXPlOWbqH9Zi9Y3kn2usEte3pnWRUb7mNm6Ic9wv3caFkItlLYtqaLv6P6TznZl4KZGI6DsQ994dW/fXwvAe5RKmmCOnhRkALxw++w+2jp2K7IN3YlaPysmuxJap3gD2WUxxdOoW3Pig6erlMzy48QGAIwoXNJcW6uXdPS9lniPVEVPjIx5h7bCR+Nx7P5YPcEAeAA92/46eC//Bs3gBuSwSURBqn0X6KAjbJpYAjiL4uaZtmlrheHzjAs5fOJ+hD18tV8/144tNC99i6LB6CVfKsyNHHjMAb3D45AkcmjsM16vMx4aJzVHATL0HQN7qDdE2b3b47FyAw3dj1MoU0r8PqI74W71BVRRQzkIU7mwegdlPXHB46xCUtTJFdMAujPx5Ic4+kgMIR6Set5DZFFMMUhXqG4h3+r2FiIgow8i8lqFNo4m4HWuOzwGvEJUFiLFyxp6Ap9g2sTkK5riJ054CjsUf4XYjxYjzhWoNx3GPLSj76BlyFckC4BrmzDwq/ehMERPsj5sR0bB0tIFFDmnvQf1k/DlwIdhWUJzd/xuY/E4buY8H3N7K1abZ9d2MR0FBCEr2OI/h5aX/FDqgctnkdweRwtfexg1xjvul2zhwGVe83qpNKVBrOjwCAzW08SDs6F1BrS7giMrlvlwKEAZtiYi+A6HXz+Jz704qAySE4mXAfwCA47+PQlDbNRhYLbfaexJlyW+NEtmyADiC+0+S58IUchleP44EUBLWBdL2s/LA+zyQkOeoovLELwRbRo6G6LcTIxsWUNYNlyX+6Fqjc19njfm2KCUWsLJWnHhpPrlJnagHruhevymcnZwz9NF91tE05+SS+1yCR82f0bBQYvsKR9hrxZ8U3/V9sdN8DGZ3SLyooS6LhSUKZzMD4I37j19Liw2yDySN+GuNOpWT8tk+2DcKc593xbYpDZUXVOL/C8ebWEUA26FXP40DhWhiktsC9llM8dQ1EK++q7QYRERkbOIjbmHx2Hm4HRsPIC+KmgThXfEpOHNyLVraKn7Xoh5ehJdpY5T/dANNVUacz1bGBWMmVMaHl4rz0gd7pmPTo8zPBR359g184+KRr1xh5Efazkcz4xw4h5UiUHbvSaC0CHevn8FHySmB37YBKF+qFEolezhhzSP1M7FSHeugjJV+8/G9+RbauCHOcb90G5f7eOBKmHqni3c3/kQjW1sNbbwUeu/wV6sLtFAbgC0u/CY2LFmKpYvT9th9TTHosL7SttaJiOgrEg7P09fQpEZSICjmhT9u3P8IAPhxyF+Y2KGgSn11sS+CE66Oahb7/g2C5TEASsE6qXtgKvjC84jiBzYpwX0IXMdORGS/HRhRV/2Kfp1fd8Hr5AmcuXMHK3sqeg5SalnAqrAiaPsxQv/BrLTJXmkAvMI+ICwsLEMft/7qmKwnuL7uXPwHdRpUU8lH9QR3Enq2Fqg1H/N/q6FSW13MiyB4R6j3QlGV/n0AuHv9pDKfbc0qihNav+MTscC/J7bNaKiWR8vc4VecvH0Cx0/cwrktv+h9Qpt0AUamd+9cIiKijHBt3QTMu/oeAJAbr/FCtMPm3dNQ1SopRBFy4hJMq1WF/JpcMuJ8dtRr3E7l9b848M9tldeZI+y9YoT5tA9SlDnnwIULFwMARH+KlOTBD8WTa8FqU4BG2OcfkywvqhACL90GSOoCletX0vs85HvzLbTx9J/jfuk2Drzw8kaopLPC7FMfk7VvIQRiZRtQLat6mNR+SB2UUhmAzTR7SVSrXhUOZfMh2HMdxk8cj/ETx+NMSG78UL0qqqo9KqFQDhM8u7cLCydNwPiJ4/HPnZdqn58SEyHY1YKI6Nvmiz8qH0R37+monPCDE3ZuBvI1/RNAI+z41x29dAx68u+WzrAfcAhAV5x+sRvNi6j36osJPoiOFbvjRORk+MTNVH6HvmJeHETHct1xIjIGQ3cGY00HOdaNn4j4HpvUrrx+ObfxR6EmCFvui3U9S0gLM83T/f1Q5udtAIBVntEYUddMWiVVzs1zQNMp91F75kVcm9FIWvyNCcWO/iNgOXMP2pVQtN/ogF1wrtQHV6LjMM0tHH+2ySt9k1LS/mKN1TeeYXhN9XWf3n0ACMWmHjUwaE8ISrtsxY393RCyfQIWP++CDSo9bNMraV9rhaPBh5TrwhAivZYhZ61xAEbhxn/LUVPjaLyavXyZupNXSr8iRYpIJ+mUePwp0nQtvM4MzfA/6ElttS72+buja3ntv1GasE3Rl2Ts+5cxEPIL6FGiFfa+jYJpDhPERwr0+csP24ao3pYchQ3t7XCqwVIU2f8II70mqdwxpvjtbVz+Z1yNVvRE/BLr78Guvvih199pPpfKrHPgxDamOMfoq5KCSXGOO/9tUu9ZS8f5uH5XfV0rROHooB/QYVOAyjRHbLx9EwOrpe+cNDMlrvNW7v+l+1xal2+ljaf3HPfLt3Hg7Bg7NF+h2nt2MDzer0PDfMnPVd9u6oxCgw6pTZt6OBSztXRwSjr/VQSCp7bQftYeE3wQ3Rv0QmDXf3B1SUu9BzZj0JaI6Dt0bl4NNJ1yC2bWM3D75QwdP8DhcB1VA11WPdZ6opD0YzU9TT/mr45PQpG2iwDUxMw1XXFnpy96bFqNnyvlklY1iPiIR3Dd5oZnkfr+/IXg5LS1iOoyHh0d9D+5KFy7D3o20L9+Shi0Nayk9dk+xQDm1ZXNUG+0u9aAZHr3gbjwcxhUsi22hsvRetIK1A0+iHdNV2HBAAe9T+j0YaxB2wMHDqBr167SyZRB1qxZg19//VU6WafMDiqlN2ibLVs2xMRov0OEKKP89ddfGDJkiHSyThm9f8VH3MfOv87grb6nPamUt0J7/NK+XKp+rz7t6YV8PXYh8WZvM+uJuPJ0vuS34zI65+8NhzVDcepWFVyUBDmiA1bjh/Kj8CQ+ccHS9hucHuk9l8qsc2BtAS3VgFqiauNOagko3caAwg2w5U3SHVraA7yZJ+79TWzeegmf9GzfcTIf7Fi4E+UGzUe90vqeB2VHxbb90Lqi/tslo9u43/GVOP4grb9z5dFtfFu9jjXpPcf90m0cCMWGVlUx5FTSxVxdx9q1bYtj+PHnKlO0B3iRyqAtALw8OgY1VlXQ+v2aMGhLRPTdCcHKNrUx+sQrHSdmCkJ+BcOLtMC6sM9oNOc6Lk6pJa2S7h/zxAByovK1+qJzD2c0aeCEhlWLaJ23tIoOOIjObXrDzT/9aQG0s0ajcetxbEkHg/WSZNDWkKLgNrkK2i3w03nippC0v5TvuQeeO7qpXb2HAfaBSK9lKFl7fEJ6BCBnmVro1akHnJrUg1OTaiiYxsFNpIw5aPv06VPp5K/O13JKnTdv3m8+aLtw4ULpJEqnr6V9f2lWVlZGF7SNerAZzZoNw+WXaQ3w6FZ7+GGcWZ2a850obOtih36uQcopbRZch9sk9XPMqIezUbZhABbNC8eDQhuS9XT75PoL8nbZoXxtZj0D91/NyNQAYnrPpTLrHFhbQEvusxY1qo2Eb1zSQK+Dt/ljfZ/kt6XLfWbCtsqfeK1yLOi7yR9bBySvm5lkV5ehtstE+L9KPu6G4ZREn7+OYtsQB2mBFhnfxt/5e8Dn5Wc8v30UKydvwO3YeJhZt8CCteNRRSX9AgDEyYJx995duO/dmDCI7WBcCl+HBnlTPldL7znul27jgC/+dGiIGffDlHVrTrmIG3M07a9H0MKqC87Iko6VdSadwoUFLbTOZ2qDtor/1u4Y9k5XpykJQURE35Xo566idQ4zAUAM3RksLVYT6b1G2GcxFQDE7FMfpcVCqNWZLnzi4qXFKbgvZtXMLwCIauNOishImXh894hYOqSlKGhiInKW6SCWH38kfVMmuyUmF8yT4rrKaAH7+goAAoBY5RktLU4197mVBQBRe+ZFadF34JaYXMZCABANUlj+WJm76GdhLgCIHn/5SYuFSPc+IITniqYJ23aUuB7+WbwLvCf2rRomGhQxE0BJ0XvWkf+zd99hTV1vHMC/KFTwpwVcuAVUFIsiDtwbt+LWOlr3nlWrbd1727q1zrp33RPcOHAjDlwMRQUHQamEeX5/hJFcAiQhQMDv53nyPHDPyU1y77nJzZv3vke8itR+vVKJx76rOOIfLW1Ok683liS8hhv/xUibKYuLf/8p6rJavI5N+1hMTeJYbSD2+ERJm4mylYw+vjLfLTGqWJ6EcxrASu15zdPFLqJks7/Epr4t1L4P7PqxjNI6IBwG/yvUn6mmn/jPb93OpTLuHDh+jNl23izeKw2xxM/uxNuii0n3hRBCnB3hKOnbW5wJ0u+5REaI/3xRN+b0JyPHeJBY372kgEbvITLhNqe5Vp+taTvHzfwxHv89Tnk7Dtrio9whQfCmLsJYZYw7ivW3k+43ZcrHUHLflVX5i7+79tfq2Ek9tE5ERNlK2BOvuMugGqBR9ZTrrr184Bn363tXOFfMLW0GVCY3Sn6ipuQoT4hWt/oPMDU1R5nKrhi79iS8zs6Cvf9R/NK6HkbveSW9K+lJLmPFhGTfksgXT3D5VRgAoFnNKtJmFZEPPbE5VA7ACrWdEifzU5aWYwAIxqPrTwEAdj1roXReM+S3dkTXEatx3ssdY+t+wbZp7dC63x58ENL76soUubRLXCQiItKLqEA/PPyg/HnZAHbW0rBEBM5ffI6qLiVw+0EDOJZVvTIk5uNurDqemMUIAC2b1tYi21c/4ic/itUhiTkzzoGNc6V2zucKu+LSfQEAbli557HKktbzh6JpoeSu2ImAz6ktWLJoCbaeeIbEirmAiA6G56HNWLJoCZYsWol9556rtGcHhjvGzdHkj8WY4eyNp76aXXGYlnNcwxzjQFkbG+kiAAFY+NfZhHIWAFC+92/opvd6zSVhW+EVgrQ4qZeOHCIiyubu3DgBADCxagj7MsmdbAFAKB7duAoAKOrSED8UUf+RYWRsCtMcRgCewO914uVVmvhwzzMhgFzHqYhKW+Em4zF9vB2AIGydtwM+vDRTjyIQ/kXxDcPeWnW76yIq8CxGd2sGl2ZN0vU2erVnkhlhdfH6thuuRMYAcIWjvfofI+LdvXUu7q9uqO6g/nhJyzEQE/oAV08EAwCq1XNSKb2QM389TJ4+AgDgtX0+Dt3V4VuhEiGX43NMLIDyKFJY/fFMRESU3nKpXBas7jPJE6c9BBxLPMXtBpVhrVLyIBQHRk3FlS/RABSfyyZWE9C5pf7mEdCUUU7FRdMffHy1/mE1I8+Bw8MUgbN8ZYskKfEkZaTmR92AZX/i6PtIIO4icROrwfi1b3VptwQPNw3CMv8K6PlTJVwfXgWNhhzCFwDv3Oegjes8PP3eGb0G9ke3ZubY06ciKnfZgsA0vkZDY7hj3AGdBjdA4IfEcgEpScs5rqGOcVM1Y/zTqTlY7SUDEra4M8aN6pTGILl6TaadTnEScCnpyCEiomwtAA89AgEAFXvVhF2KtXSew2Onomh72YZVkq2xZmxVGOVy5wIQinC5dh+4j24dB+ICyNJfmIFcMMur+HVTdj8ckSqrjsCxKX1wNCA961dlZ6F45/8VAFCsgKW0UWs5TE1hrn54GKAIPLp7HQBQ1KUFqpRI6VQoAA89FLPN2vWsBVsz9X3Tcgyklslrmtc87q/7kEuSHEIuzsWoHQGqC1MQ8zEIVyJjUNSlMPJlmf1FRETZSWIQKF7Sc7mIxxfgmaMh7L7cgEu9qkr1JCNwZ+NoDNr1DABgZhYLwApDl43Qqpa6vhQuoajnKpeFIwLaff5n5Dnwu3eK7WVbuLDKcmOrUmhlppxJWB7WSTJt3TBqrhtiAeQyiwQA9JjxCxoUkvZTiPl4HH9eaYWZg5xRuLAjqtTKh9vr5mHV6rkY5+aAfw4vRa/GP8DKwgLFHX/C2PF18XJ/X+y6rJzjmLUZ+hi3LV8N/u/eSRerlZZzXEMY40BB2DSyUPrfFSWTBNC9MWvcbnwFYGSi2Fs1x83AT3rPstWN9NkSEVE2FhV4E6fPfwAAODtVSLaoOgDIvW7ATaa4dMalWgVps5ISsHWxBHARAe+0+TD3hscJxQlDxV41Jb8wA0Aw3jxXXMJu3d5GEmTyxvUL9rBLMeBGyQvGmxf/KS7XsjGTNmotZ/56mLn7DNzOuKfrbdkw5xTHrGa8cXXfWwBA6boVkv0xAgBiQp/h2un3gJosWFW6HgOpZ/K+e6UonaDuJPOOxyVUstc8U1r2PggAUNjRBgVSeN1ERETpxdiqFBx/UOSvfQcAOI27gaoZfAEnLiFHFSfIr8lR0T7+x+VQXF3+M5oP3IevAsiR2xTh4QKVev2FKV1LqNw/oxgXUwQ937j54ZNWH/8ZeQ4cipB3il997a1Vy6IZW1mhlKlyYOq+JJsyAscHjsXh4EjkyF0cEeECxVuswZxByU8+FuRxFvlaN4o7Z4o/3/TErmvFsGCmKwqYSF+rwjNfX+miLMvQx7hxMTuY+73V8Oo1Xc9xDWOMA1YoYvs/pf+PIOCd6hh3nz4Ufz36DMAUplGAidUo/DW1mR6+c+iHpluBiIiygcR6to6omkqwR5N6tgqFYF/ZCtDyhCvKX7XOkboPxgi54hfWwpVtVIJrIRdPw7tNwwydITg7iQkNgp/PfwAc1WRUZG/K9WwbVE7px4jUs2AT6XYMaJLJK2LiT6krw0apHpqQX8GJk41Qz0nzy6t8X9wBAJQva6P2eCNdhOKF9xsNv/ikVQSe33uZ7Wr/UcpiQv3h80pxZQRlrJiPPvB+q93lwKQJB/Qa1xYAkNfaGMAt/NZlHh6GxG/rpLU+39/fh5EuTmiy+CmK5I9A7PelkCdcjkq9tuDE1m5qf1SN+eiFbSuXYumK7bgt2Y8fX1zEtpVLsWTREvy1ab/O+9mkWDk4Fs0N4Al8/TRfR8aeA7/Coxuf1P5Qb2RaEY17FQMAlM+bA8Anlc+zRzv6otuGBwBs4fS/dzCx6opVqwam8IN3KK66vUNdp/yASk1TV8ya0QvFkwRsI/Dp7WsAgFUBaYZkVpYxY1xXJqU6YdeKdmrHXVK6neMayhgHcqFqXVcAQM64ywIV+eIKj3aMQueZNwEApUpEIxzOWHpwNmp8n/ScPLMYzjMhIqJ0l1jPtj1qVE4p2KNZPdt4tj80AgDce6bIYNTEB+/k6xwp5IJFAcVHvOqlLqE4vsMNbZqmPIFUdhNfqwkAZF+0nwxAWZS/D26GRcK2s5PaQGF2plzP1tkpn7RZRWpZsMp0OQY0yeQ1+18hAEhS0uDtmf3wbd9IixPaULx57g/ACrUqphSAJk3Fhj3A7A5dsOXFf2q/jOhfLkT6LECPkYezXe0/Uu/z/dVo02E+AqMzZoSRKqNcX7C7tys23FH80Ef6Y9t1Btb3scdHv1L4oUBOfArci9b2pdFx6ELsObEWOy6EIU/IIRwyvooRjiXQ6LdzsHb9ETVjHyHYoiTyfJGjwehDOLH1Z7UBxNiwKxjTbReKte6Dmt8dQ7WitbDhThRiw55i1cBGGHcgGI6t+6D/wE4o4fs3KhatgsWXdPlJrASqtCoE4AiealHvMyPPgeN/qFc/l4U5aru0AgDYupQFcAfzfluPEyd3Y1qvKmg25RL+Qz7UqReB2++rYOnBDXC1la5DmTk6Ld2d0Cc+WaR87+5opPZ+z+KufnJFNXvlbMisL73HeEbS5RzXcMY4UKhmffTImwuW5RwBAOvmLI0b41XRbulDWBpFomglO/i/yo+R27dhRO30qGSru2/rmxoR0TctsZ5tufaVYa2HerbxClR2RiszE7y+8UjjYEJ8nSMLxxZq6hwBgDnqNO+AgkZGCPygKAwPADLPjdhnPtFg6gylByEPhUwmg0wmQ8g7H1w+tAy/LTyZ0L5s2q/YeuI2AkIUfWQyGSK0KAX25slNeMfEoqZLLbWBwuwrsZ6thWOtVC67Sj0LVpkux0BiJq8jGlVXH0gtVLMp+pXKjfcPghAfNogNu4XVK3Ng4sBqkt4peY47J4IBdINzZXXHG2kjNuwWpnbsiuDOKzGrXVlpc7JEtDzxmJU2aqBCt+UYU2QNWv28VeNxRlmTzHMp2na5hKEbVqKxjebHbOLnh2Yzg1PycuSphmnr++JU+6ZYeVWXgB4lryT6rdiDWe1zwEeUQSn5I5hWG4BxQ5rC4t09PIypDuvIl3DpNhV7Th7H2B8CMG/MegSafo8vohLmud3CkT/bJXt+eu3v5Sg/dyYa2+SDk5MzAE8s+3s1/hqzCPlH7seWCV1QySYfLCys0X78RPQ198GqPw/o8L5qjip16wAA7j5+KW1MVkaeA0f63MexzxHJzmVR1HUslrkWxfPcXdG/lCnyFoqFqWkhOFarhEi/HGjXpQw8n5bB8ovHNQpmKU9kFp8sUr9RFbUTOkW+uI/Lr8Jg4VgL5WxSPs/KetJ3jGckXc5xDWmM58zfGn/81QEfPG0xoGl+RBiHIda0EFyHjIXj+9swrlML8gcRGLf9Epb3TL70R2bJbkcGEREl6z3e3QwDYIX2LeuoPXmKp3k9WwWTYtXRvGlBvHE7hTuvNMk0CMabuImw6nRPPluwSOuZ2D2/LXxWTsPSg27Yu3IYusyOwrypTTMosy1z+B4ZA0tLS1Sq2wFdfh6GGauPILxkLTRp2hhNmjaG4/fPsPWvCejXrRPa13eApaUl1ntGSVeTjFDcueIBoAHaNSotbczmEidga/RT42THHTTMglWm/TEAvHvrDwCwcPwx2TIHOfO7YMneWaiZ829Mn7sPZ/9di77tpsF6/kytLt2Se93AUb8vqDKuJRz1NJFF5gnAyVW/oU9zF7g0a6KX249D/8C5Z5pOeBGATSN/hleddVikwcn91XU/o2Gl4jAyMkIOEzNYWlrC0rI3Tr/U9PGU5UKTP/7GSOMFGDrzsk6BXzJ8Uf4HMKDzPnTZsj6VrDYACMWB39ughp2pYoyZWcSNsel4EKvZl+tvSXiYdtvEpFQnbNjfBVu7DMQRnY5ZSk6OPBUx+d+buLWhHyoVLoTPT7eiY8OW+P3PM4gqmhPebi9x/59OKF3JFTN2Xkf+Rp0xYfl5vH3yL4Y2Li5dnRJvnD9fFS7VFZ+r8fXcvdfthMnP8/BjJcWl+1J+hx5rWZdWoXhVFzTJZYzrbtfwQaP7Z+w58N3rJ/FeCHRoWieZ+5XE0OVb0OzdXryq2x7hB2Zi1Ni+GLMhAJXqfAc/0REX7rpjZP0C0jumwhseh30BOKJ6RRtpIwAg8N5lXImMwQ9taiW7HbKy9BvjGUv7c1xDG+PAD/0WYN/4CFz6Ug+l/bdg0uQ/0L7bXASVKIEcOatjw/3bWKzBOV2mEERE9M348Py6uHAnULo4iRd7+ggAAhgkLn6MkTarFX+fX/cHSZvUipb5iavXnovP0gY1/nv/RHiccxcX7gQKubQx3d0SvxfMK4Zs95c2ZEmx4ZfFUMvconiLNeJ1bKy0OduLendfnNdg3H29sUQUNDISgKNYfztS2qyWtseAEDLx9PpV4f8p9WMsNlwmHlw7J9zP3RbBX7Xfb94bOwrASix0S+2V6+brjSVx7xmjxI3/Un89aSMT13etEYsXLhaLF04WPze2jntsCMBKdBqzIK4t+dv8CQNFg4rFlO4HscJDk/0sF1cWtBAFakwTdz9r9jq/+N0Q7ufcxZGd04VLse8EAGHhOE88ScPxF/PlshhqXVyM3O4jbUoX8WO7qMvqDHnfiHy9X7QyMxFAA7HHJ0ranK3FhnuJSXULiLbTL2r8eRfsfUG4n3MXe1YMFVWNcwgAwmHwv6m+z31bZMJjWVdR0Giq8IrRfgx7b/xRq+NeGxl9fBmqryF+4qbbITGsan7h0Ka3qFmws1h2+IS4cOe5kIVrvl3C768SrSddSPjfbU41AUA0m3RB7TEV8Xy7qPtdTlHU5U/xUqftHyTWdy8pgN7iTFC0tFGtjDsH9hfLWhURJlYTNPhslotX984L97NHxIGDJ4T7OQ/xNPirtJPG4t/HTawmiPsR6rarXBz9rbyW501pF/+8NPvM1y99jXFV8eMvfd9DtD3HNcwxLkTY63vC/dwpsXf3DnHqrLu4//I/aRetJJ7/Qsw6pcmr1R6DtkREJCET+0aW1frDP/rDMdEjby5RvvcujT6gs47sFbT95DZVq5Oub5XHMpe4kzDNg5CGewwoTmjTGihMScYGbVUl/sik3XuWEEL4npoVF+TSLDgYfn+VqGpcWMcT8wdihnN+AUA4KwUUdPXm2ARR0MhVHH6hWZAgLTI6qPQtB209lrUUJlajxPVQ7Y+jaJmb6GtuKgCIQVsyJqBv6GKjwoXP+XVKP+7oFrQV4oGYWa9gsoG/tMjo48uwXRc9i1mL6XuXiibjTum8rWMT3jYUn38p/QD7cv9gAUDUScP7cuDh0QZ5bhUfkG49/7q0Kd29OTZBAEjhnOiW+L20uQAy5nMsXmYGbRX0M8YTZUzQ1lDPcTNzjIsMCtpm9evjiIhI7+JrXwJVW1TVuJZSzvytMWx6XTz5ZwtOPtWiwKrBywVocRm6YQvF8T3bYWI1AZ1banuZ27ckGI+uPwUAOAxuBHsNywkY6jEg9zqG9aeD0H5kx2QvUcu6EusUQ8v3LACwbj4ZyxY0AmAFizyp3S8Af0+Zg5D28zCkWUoFZtRLnEUbaFY99bIzqSnS+ieMrHsNU6bt0/CSXDJ0kS92YOqEs+i/ZJxW5U/ixdf1S+ly5OwvAP8uWYrfh3dFk8YVYfVdbnRccB7vQhTlbnTngAET++Lu3AnY4MmJydJLlL8HPCMboJz8LmrVq5Lspc6pia+rGhV4E6fPf4CJVXM4O6grQxSBh7cuAgBqO9lLGzVW1HUAZjjnx64NBzWu+ZkRbh7ejCuRLvi5Q1VpU7p7dF8xmWvy9WyfZEo9WyNjU5iqqXuaUfQ1xjOaoZ7jZuYYzygZd3QQEVGWEF/7EgCcHbQ7ga3Z+zf0K3UZm3d5ZKNaiw6Yfc8ff3UrKW3IciJfHMOWrQHov2Q4nDUMRH6LYkIf4GrcDxeVnOzVftlIjuEdAxFw27Uerx2mYEwPzSfMyjq842aeVqhf3UmlVRNV6rYCUB5FCqd8TLw9vgqzj8ZgyJBOqdY4Vid+Fm2gASraW0qbdeCA/uN7wGv7fOy+xkmSsr5QHFm2AJcsxqJvB91qGb709sB7IQA0QKXyqdXCzd6sqnbFpCn/4HZoDLxPLkOX8urrmGqjSOufMKL6CyxdtJ8/lKSTd8cuIMqpBmI9P+jlffLDPcUM9qVbOMHmO3Vv3M/iPkNcUdcpLWPEAQOn9kfE6bX495phBPVjw65gx4obaDH9d7SzUxewTk+p17N9fdstU+rZGlu1xvbXQRhYW/OJrvRJ32M8IxnaOW7mjvGMk/LZKRERfXPePLkJ75hYAINQv/r/pM0pypnfBePmdMGp6UtxJiD7TNiRI485cmX5cwFFQOB+5VkY06OEtJGUKGerNapuK21OkaEdA3KvjZi++B1GzBgOR7OM+1KUUeIzdRQGwdlB+0CVkakpara3Qb4UN483NizYjKhKY+DaOI+0USPxs2gnP5Oy9oo064xfbF5iwawdBpXdRdqTe+3A/DUP0eyXjjr+qBaMa263AC2vEMh+SqLDuLEY068zGjeqghJ5UzywteSATsOb4eX+37D5HH8oSQ/nzj1E1ZbWuH2jvl7eJ1PP9ryvt2zPIq2HY+6PIfjzzwMGEdS/vmkuNoT3xG9D62V4NmdsWBD8fP5DgRo/om5FdSfQiVfJpCXDWVdmFhYZvk3i6XuMZyRDO8fNzDEe7+UTr4S/vZ+8VGnTl7S9MxERUTYTijtXPAAARV0qo7Sl9l92KvScifXd72Hu8rMG8SssKciursKM1bkxb/W4DM1oyIriZ6HVNVvNcI6BAGyfvwDovwYT2hWUNmYL8Zk6AGDdvpZO71k5/mcOizymyIXk7xty8QhWXPmAVkM76Hj8BOChRyAAwNalMqx1WkdSRqZ10XpAObw+tRYn7xrO5YqkrQi47duA29H1dL7EU8if4s6pD4AOVwiQ5uyadEIrs0/YtO04GLbVt7s462mEisWe4H59Jz28T2Z0tmdJ9J63FOWP/4G1ZzJ3dET5H8Cc3+5h4rpZaFAo40M+OfI0wSq/t3juNhHlTdRt1/irZFxRPU0ZzlmNvsd4xjOUc9zMHONRgQfQOvd3MDIygkPvfxKW7xlTGUZGRjAyMkKxpmv09mN6xr46IiIycLrVs1WlOGkttncAZh9Oaw050ofYsFuYNeZvNPpnKwZUyZzLwbIO3erZqjKMY+DRjqn4/WVfbFjkmk0DOKr1bCvWraDTe1bMxyDIyhRJoeRBBDzc9uO9qKR15nW8+LqKANCqXlW9ZoRUqdEKwH0cOntH2kRZhJDfxLkdz9OUhS338sR+WbhOVwiQ5kyKVUfzRgXw5J9TuB6c+Zlm2Unki0eQtVmCFp+v6KXWZ3wd8ZTq2eo729OkVCcs2twWq/r8iovBsdLmDBKAf34fi5wTd2NyJv5ga2ZhAfNkasUr17OtlMYM56xE32M8cxjCOW7mjnGTYp1w/GskhBDJ3gLPDtXpnFSdb+cIISKiVEUHvYPPO8WXPtdG2teGjGdSqhM27B+L08NG4shLfqnJXAHYNPJnPGu9FYt62kkbKYlgvPQMBQC0bFpb52BnZh8DMs+l6DNBjo07p6By3ux6uhdfi1Ah5Xq2wXA7elttVki4LBiVrItIFycQ8ps4scoHJlbtUaOyui/+qdN/PdtE31erj77mpvDYdR4+esrqoIwl8ziLP32/oGIH3bP9WM82o5REteY/APgHl659kjZSGoS9eICC1WzxyjtWL++TqdezTcz2TFs9W1UVui3H9pF+GDVum94y7TQXAfe5g7Ai50ysmZp5l4ynJj7DuUwLJ53f87IifY9xAIgJ9cHj54rM7jdu9/AiJP3HXOae42aNMa5P2fUsnoiIdGBs1RrLPE7jwp0Tac7ItHAeizP/OmNp+wE45ZvRH+ikoDix+dfqT+yYVv+bOLFJOweMO30a5689x5ROhaSNWsmsYyDK/wAG/OyJcWc3wtU2+wZv4msRKqRczzbyxVn8deI1IqUNAPI1m491vZP/QSM+g7Fir5qw03HG6fh6tiZWDVPIpIzAR7/7uHD9EULlmn/pymleFrWaF4Ts/incf5Zx4yyrCfNXbNvgMM23bUaJHx/NalaRNmkosZ6tXc9asDVT/xVPRMsR6HMDF+++QASraejMqVpjAMCJy+p/CCLd5Gs2H5v7V0TnP/9FVz1MKvTG/yEAK3RsW0ftD7DK2Z5prWerKhea/HEYf1Y8iM799mZo4PbRnlGY8Lg9Dq7+WW9ZfvqXmOHcKMUfW7MffY5x97mVYGRkBGOL+lh6MyRu6d9okD9nwiX6s0+nX5mOzDrHzRpjXL/0+e5ERETZQHHHhmjgVFS6WCcWzmNx9mgnXNjnzi82mUB2dSsuWS/CwfnN1X5hIfXyl66BhjVL62WbZfwxEIDt633xx+Wd6FZBu4kEs5rAe5cT6tnadq6FCpbJn9Y+8zgO88rlddqn8RmM5cva6PjDR2I924q9aqqpYReBu3smoUXtDpi58QxuX96FUa2bYuVVTb9slYRthe8BXITH3cTMY1KIDXuAxd0bYNDKM/A8uQytLG0x7p+nqRyPAdg+tAacWs7H4/D0DrjEj48GsLMxkzZqRLmebbV6TmpKfYTi3JL+qFOvL1YcvoxbbuvgWqVvhn7Rzk6Mi9mhlZkJHmy/Dr8MDMiRdqoM2o+QkCeY2kn95Kvpm+2ZC40nHMam9g9w5Gz8j4vpK8r/APb498SFbUNQWq8T8Onbt1rPVr+a/OGV5JJ86W1yc13OejSX0ee4WWeM61fyZ7dERER6YFKqDeZPaKZjsIPSwqL2QMzoUZHbPpNl7DFQEn1nj0eVgtn9FC8CD29dTPjvh5oV1ASqFGLDrmDVNB8d63yG4vG9BwAAe2vdfsxSrmdbt/oPKuNARAdg48CW2BrWDfuunsBf07qhyMeHOH/hnFYzkNvYVwcAeKbTzMVZlZA/wNSO82A35xx2LvoVE2bMwpAusVja5yfs8Uo+1TTEfSN+WuuJe6dO4cGr9A1sxoQ+wz2PEACOsC6u23GbWM/WCrWdVMd5TOhNTGnbEzfLT8fVa7swZ3BzwMsdd73/wdytV1T6kmZMSlnDMY8pooLu4umrzKpbSqkxMjaFhYVFMp+9GZPtad9uNoY2S9/AWTyTUp0wY0J9nX6czEgxoTIERUehUq+OqK3XDGfKDBl5jptVxri+8SghIiIioixGuZ6tFZrVSvqlW8hD8fr+Poxu/zPW+LnoWI/2FR7d+ATAEYULmkobNRJfVxFogDpOibVzY8OeYvXQkfj601782b8S8gJ4tPM39FzwL17FCshl4YiAZlHbIsUV5R2CvX01DvRmfxG4unwKjIYvUyoTIsfX0CgAnrj24I2kfyLNylnoR5S/D26GRcLCsQjMzZL55SEVd6+fjKtn2w3VlcqExHy8jN96rkX1ZYcxsXUJABE4ubg3xm+/g/dC4L8v4RmSHZX9FIRNIwsAR+D/mkHbrInZnpklp3kTbHjyBp6be38zl7cTpQWDtkRERESUpajWsw3CyDrfJdRwi7/lMLNAicpdsdLdFw6Da8Fah3q0Qi7Du2fhAErBqoBup82P7p8D4gKA9mXiA2oB2DRyNETf7RhZv0BC31BZ/EzMVujUp4nGX2iN8pjDIWcOvNzvi7e8XBsAEPPRDWv31kQv18TtG/PxAW5cVkwe9Z1xctvWGx6HfQEA5dpXRlEN94Guwt8HwTsmFvnKFkZ+6PJYwXh0/SkAwLazU0I929iwW5jWfQ3qLf9bJWgtD40/bpzRt2OdDMmOyn7MYWml+BHnoS9LkmRFyvVsKzHbM8MZmZojly6/oxJ9g/gORURERERZimo92zV49ikEISHKN1/cPP8vlvRvCACoXauCTpfTRX8Mgr88CoA1rJKrv5CixABg4kRmAdj/ywSE992GEbVVn1WtYTvgefIEzty5g+U9k58cTSpnfiuU/C4nABnCtZjELDt7cnwHjId2VKlVGeRxFju/RABorpL1rCwq0Ac3HnwGANStV0XjcRMd5IbxTW3Rd6MigKqpkI8BAACLUoWhS4m+mNAHuHoiGABQ06UWChgp6vjOG7gWzmu3SSYjNEeHWWfhduI4PJ+eTDL+SFPmsCysCNp+DguXNlIWkL71bImI9IdBWyIiIiLKQqT1bKugjKUFLCyUb9ao1rA9flk5C0MtnVC9oo3KGjSWUPbUAmam2n+xVw4AOjtVgEnYU6waMgpvO6xUybCNZ2RcCNVbtERTnSeD9EMQ6yMACMadC1/Rsp5yfdcA7N+4DwBQvncftExm5m7lchaNqie/H2LDQhHocwPuJ3dj/vB2sC3aDEvcfBEZrd32l0cp+n+X10ynrNdIn/s49jkCgBVqVbRFzMfLmNjrL1Scs04SsFXIaV4KTVq2QvWy+aRNpIOX795JF1EWEPLhPQBn9HatLW0iIjIoDNoSERERURaSej3beEamZjC1aKdjPVsgOsg/LoCnm8QAoDMKh+5Dh2bzUGDUDrUBW9KnQvhp0yF0VQrMRr64jCOnFRmpbds2TjaDVn05i6Ru7JmJvw9fwbOQPGg8Yjp+7VZc2kUjb/3vSBdpJbGebQtEP5wC159OoOP69WoDtvoSG/YAWxcvwZJF6XNbf+QZa+1Suqo67Bi+hlxgtjkRGTwGbYmIiIgoy1CtZ9sOlconH5yKfPEET5tX1qmerT7EBwABT0wfPh5PYoH7bv/i7N03DEplsGcXD8I9IhrAILRplFzQXF05C/Vq9V+CGRPGYUiPNnC2LwYznerRplViPVvgH/wyaAve5ZTB7ehBeD5W1O5ND1EBntjw5+8YP2F8utw2nXmESOmDEumZmYWZdBERkcFh0JaIiIiIsgzVera1UMEy+dPZmI8y1GhTO9msytQYmZrCIWfy609ZYgCwyriTCA+X4fjaDijwaAd6Vi2OfGXa468Tz6R3onQRAPcD1wAADoNbwimf+n0qLWehS7kCbZnlsZIu0phyPdsea58g5st9bBnXEFFnpqNGhfwo06gvdt38IL1bmuWq0B+XAiMhhEiX27WV7XQ+ZomIiLIT9WcsREREREQGR1rPtgJSmh/MzHk4prQuKF2sscQJvuTSplSpTGhV/QeYmpqjTGVXjF17El5nZ8He/yh+aV0Po/e8kt41DUw5I7cakS8uY5+bIrjZvmWdZAOCmtaz1afChRVlFWJ1qMKhXM+2tpMtcuSxQsWG3TBz923c3jAAny/+gx7OrbHKMz4znfQtl7FiQjIiIqL0wKAtEREREWURmtez1QcjY1OY5jAC8AR+r2OlzSlSDgDWcSqi0la4yXhMH28HIAhb5+2Aj9Bu8iopIZfjc0wsgPIoUpin91KJ2dmucHZKfgIu5Xq2jmWTL7uhT0Y5Ffm8H3x8oe0ccon1bLuhuoPy882FKv2nYHLLwgA8sXaTG74otVJaRSD8iyLKbm+temwTERHpE8/qiIiIiChL0KaerT4YWxVGudy5AIQiXK5dRO3RreNAsgHAXDDLawIAkN0PR6TKqiNwbEofHA1QlIDQRMzHIFyJjEFRl8LIl0Lm8bfqpc9VAICJlRPsSiT39ScADz0Cgbh6ttZGiRvSfW59rPfUIRVWA4VL2AEA5LJwRECbMRaAhx4+AAC7nrVgayZ9XabIba4YY18/yhChsuoALG83Ew9itXk8ShSKd/5fAQDFClhKG4mIiPRG+ulORERERGSQtKlnqx8lYOtiCeAiAt5pE+DyhseJd4CaAKBCMN48VwSfrdvbSAKt3rh+wT6F4GJSsvdBAIDCjjYokOSxvnWJWZEl6lkjfzIThkUF3sTp84r6r6r1bL3hcbgqHFUyWfXHuFgptDIzwRs3P3zSYojFhD7DtdPvAQDV6jmpKRMSjJeeoQCAAuVsVNqjAm/ialHHTJugL+sLxpsX/wFoADsbTmZFRETpR/OzQSIiIiKiTKNdPVv9KAT7yoqJop75KiYV00SUv2o9W3UTWkXIFcHnwpVtUEwp0Bpy8TS82zREOS2Cr74v7gAAype1UftY37bErOaUvL99Oa6chRUcyiZe8h754j7uVWkI+9zp87XJpFg5OBbNDeAJfP00L8ER+dATm0PlCfVsk4oAPivWV8XeRqXlqfsBlHSplWxtX0pZTGgQ/Hz+A+AI6+LpMy6IiIjAoC0RERERZQ3eSvVsgfrV07eebTzbHxoBAO49S3zs1HzwTr6erUIuWBRQhFdtCxdWWh6K4zvc0KZpFaVlqQnFm+f+AKxQq6K64B3ZlKkKAIiNhtoSBFH+BzBqwgEUNDICUAMlleoCP/M4jjLpGuAsgSqtCgE4gqda1E2+e0tRfzdpPdt4uWBq8x2Q5BJ+bxzcYIHW9QooLcvu5PgaGl/eQqZ1qROpKH8f3AyLhG1nJzVlKYiIiPSHnzJEREREZIAiIJPJIJPJEOhzEavHTMC8F4rLvQHg1vl/4fn4TUIfmSxc5d76UqCyM1qZmeD1jUcI1HDCsPh6thaOLdTUswUAc9Rp3gEFjYwQ+EGWsFTmuRH7zCfipyqpZ4Ymeo47J4IBdINzZXWPRdathmNS3QLwO7QbHs9UawVHB7nh9wEH8POJoxhRXTFJmYhWtMWGXcGav8uhZ6uCKvfRL3NUqVsHAHD38UtpYzIS69k6DG6UTBawA1x6OgMA3ssSx9ijPSsQ0HM0GhRSd5/sITzhPUGGQJ8b2L34dyw+pShXAizHlInrcfbuC53fO948uQnvmFjUdKmVAdn+RET0Lcu+n9ZERERElGX5HhgNS0tLWFpawq71RBx8BDRp2jjh9sFjHX5uUjKhj32HdfDVMKiqDZNi1dG8aUG8cTuFO680yYQMxpu4SYrqdG+UbJmDIq1nYvf8tvBZOQ1LD7ph78ph6DI7CvOmNtWqxIHc6waO+n1BlXEt4ag2eEc58lTDtO07MaLJU/Rt1RlTNu2H+8ndmD+8HVxG3EaPndvhalsZv2z9Cz3Lu2PqxMU4dHIzxvw4H+UXjoWjmfp9qC/Fq7qgSS5jXHe7hg8aDeHP8L2tKL/RsmntZLOAa49ai20DK2Pnn3Ow9cQJbJ7cEROvtML0QYrJz7KnYOwY5ghLy/Jo0KETeo/8AxvOvINdk0YJ7x0xPnuxYOIgdO7aCTUrFICl5XwtJmULxZ0rHgAaoF2j0tJGIiIivTISIh3ObomIiIjomxHuuRS5a4wDMAo3/vsTztksePhyb1+U7rYFv+4PwsJOhaTNScSE+sPzcTQcapZONqAW7+sHH9x7EIgoi/Ko6VRUq4AtADzc1AkO/T2w0O0Zfm2S2qPpJv71F3VZDc8zQ1Rq8KaHqMADaF+2O06E18YeHzd0tTOWdtFZ/PaWwxQlHJxQtqDqRFIiWo4X3tcREPI9KtZ0QkGNArbB2NCjOgbuCkCPtU+wY3A5aYdUxN+/Ec4EbUTTQqlnTEcHecHjTQE0cCoqbUoizP8+PF9+RJ7CleFsr8gmJt0I+RUML9ocR2sswfUTg/VyLGT08UVERFlH9jqjJiIiIiLSs1JNOqNH3lw4evQcvkgb1chpXgq1NAjYAkDuAuVQu1FjNNAhYAsEwP3ANVg4joFr4zzSRlIjfns3blQ7ScAWAIyMTVGmckM0blRFw4CtPhRCqx87APgHZy9/lDaqZWxVSaOALQDkKeWIxo0aM2CrBzKPs1gT8hXdB3RkcJWIiNIdg7ZERERERCnImb81hk2viyf/bMHJp3EFTw2A3OsY1p8OQvuRHZMtw0BZQ1HXAZjhnB+7NhzUuHYyZbRQHN+zHSZWE9C55bc0kRsREWUWBm2JiIiIiFJRs/dv6FfqMjbv8kCEtDFTRMBt13q8dpiCMT3KShspy3HAwKn9EXF6Lf69FiZtJAMQ+eIYtmwNQP8lw7NdCRgiIjJM/LQhIiIiIkpFzvwuGDenC05NX4ozATHS5gwn99qI6YvfYcSM4ek+URalLCbUH+9kilC+94N7+BytW6ZskdbDMffHEPz55wENJySjjBOKI8sW4H7lWRjTo4S0kYiIKF0waEtEREREpIEKPWdiffd7mLv8bCZn2wZg+/wFQP81mNCuoLSRMsDLvX1hZGQEIyMjGFs4Y8rJIACA16ofYW6SI6Ft9mlNqiDHK4ne85ai/PE/sPaMNvej9Ca7ugozVufGvNXjWIqEiIgyDIO2REREREQaUQTViu0dgNmH30sbM8yjHVPx+8u+2LDIVaPJzkj/bLtuhhAi1dvk5trtIZNSnbBoc1us6vMrLgbHSpspE8SG3cKsMX+j0T9bMaCKibSZiIgo3TBoS0RERESkIZNSnbBh/1icHjYSR15mfJkEmedS9Jkgx8adU1A5L0/ls6MK3ZZj+0g/jBq3jZOSZboAbBr5M5613opFPe2kjUREROnKSAieCRARERGR7sI9lyJ3jXEAHNHnt55wyJdcMNEcjQf0g5Nlcu1Zh8xzKdoPeIDfDm9AC5uc0uZ0EeV/AN2b70OXgxvRrcL/pM06e3J8OY4/ipIuThDsvR8Lt15HUZfV8DwzBMXS+fLwqMADaF+2O06ER6HDkAWoY5v89nVqPwaNyybfnnVF4NzCrpj0uAf2b+qa7tuc1ImA+9x2WPr5F+ye31znrHZDO76IiCjrYNCWiIiIiNIkMWibmgbY4+OGrnbG0oYsKcr/GKbs+Q4zJjRDLmmj3gVg8+S9cBw9FlUK6jfo7T63ElwmPZAuTiKjgkrKQdvUzDr1WesSBFnJ48OTccFsIoY2y76v0VDJrq7Hn3418UePimk6vg3t+CIioqyDQVsiIiIiSpPIF2ex4qCXdLEauVDzx6GoUyI7ZkZmXallAsYzMq2En0c0RYF0jinFhN7ExvWX8EWDbyk2LoPR0SmPdDGRwTC044uIiLIOBm2JiIiIiIiIiIiIDIh+r60iIiIiIiIiIiIiojRh0JaIiIiIiIiIiIjIgDBoS0RERERERERERGRAGLQlIiIiIiIiIiIiMiAM2hIREREREREREREZEAZtiYiIiIiIiIiIiAwIg7ZEREREREREREREBoRBWyIiIiIiIiIiIiIDwqAtERERERERERERkQFh0JaIiIiIiIiIiIjIgDBoS0RERERERERERGRAGLQlIiIiIiIiIiIiMiAM2hIREREREREREREZEAZtiYiIiIiIiIiIiAwIg7ZEREREREREREREBoRBWyIiIiIiIiIiIiIDwqAtERERERERERERkQFh0JaIiIiIiIiIiIjIgDBoS0RERERERERERGRAjIQQQrqQiIhSFuZ/H9fu3IHX808Jy3LmL4XatRrD2T6fSl+FYJxcdRbW/XrA3sxI2pjtCHkoQuWKjxczCwvkknYgIiIiIiIiomQxaEup8MaiVmNxOjpG2qDWT7NPobeziXQxaSQCMlk4A1wGTMiDcWrjPPy5fC3OPpUjd+kaaNu0Marb5o/rEYT7hw7hQFAFLP57JYY2Lp5wX98DQ1Cjy1tseH4QrrY5E5ZnJ37Hx6C+63K8ilX+WHHF4RepveaMGvsZ9ThEREREREREacOgLaUiFN7XA5G/cBQe+/ri/PJfMfvQ84TW3KXbYcHCEXC2r4B8EU8hitVH2YKsuqGtqMBj6OvyI3Y8+Q8FakzDpfPTvolszKzE7/Rs/NxvJi6/iYJj5+mY88cAuFQshlzG0p7Axxdn8Nf44bhceDa2L++KIp/dMahqO2zyd9EggJl1/Rd4HzeefkSY/zHMHLgMt6NjUw3aZtTYz6jHISIiIiIiItIHBm1JK1H+B9DevjtOhEcBAKYcC8XM1t9Lu5GWHm7qBIf+BxP+X3QxEuPrM2PZMITi+Ixe6DvjON6L6vht+wb80bMi8kq7JRGKY1O6YPSTJhhf+jiGLbicagAz+4jAsd8ro+38J6m+Zt3GfgRkslhYWJhJG5Kl2+MQERERERERZQ6mRJJWTEpZwzGPacL/3+fVPGhCyctnVUbpP2dY5FH6lzJRALYPaog204/hvaiOZW7HME+jgC0AmKPNrA34Pc8/cQHbb0kuVHCqKV2oli5jPyrwGHoWnY4HKmUYUqbL4xARERERERFlFgZtiQxAkdZ/4MLm39G3y1BsdD+AAVWYAZj5IuA+dxB+Wn8PAPDTyvUY1aSgtFMqSqLfir8x1JoRwuToMvajA/1xIly6NGW6PA4RERERERFRZmHQlsggmKNBn7nYtHc1+ilNXkWZR3Z1CcZMPQsAKN7iT0wfVFHaRSM58tTF+AWdpYspgfZj3/eZl3SRBrR/HCIiIiIiIqLMwqAtEZGEkD/A4ol/wjsmFoAVBo3oCVsT3SetsnHtj19sNCuqQKkJxZ2L31q5CSIiIiIiIvrWMGhLRCTx9sxGzLnyAQBgYtUb7ZoWkHbRipFpdTTuqVxTlXQV+eIYtmwNkC4mIiIiIiIiylYYtCUiUhGA/ev2JvznPKAVKn2ne5atQi7UadhWupC0FoojyxbAPSJa2kBERERERESUrTBoS+lOyEMhk8kgk/nB7/XXJG0f/e7Dy/cTZDItZxbSqwh88LmBc+cPYeeu4zh3/g4CQrR9PhFxr1MG/3chKi3hsiA8fvISoWHJz3avvJ2CPsRKm9US0XI8v3cB7id3Y/e/7rhw/RGCU3gM9RKft+/zt4hI0uaHu/deQiaTQddYWfzzPHf+EDZuPoBz58/By1d1LKQm6Tqu4tl7bfdR6iJfXMY+t+CE/2s72au06ypPmUpoZaZZ8Df+tR7dtQZbDrrh3Pk7ePVFm/2a/vsUcc9TJguC9/W7CAjRfV2ajf1QHJ/RC8NWeksbNKbZ4yQVG+aPWxdOYtvKDTh87hwu3n2h5WtNv/3x9YMPrp4/h7P/bsaWg264cP0RQuWKsRLmfxYX74ZJ70JERERERERZAIO2lC6ig46jU55cMDIyQg4zC1haWsLS0gbz3F/HtV/G3F7N0emXBdiyzw2ntvwO1x/M8V3hFlhw/Jl0dQBu449C38PIyCiZWzsceRkjuY83FrVqBpdmTVRujWqVxeJLUXF9QnF3zyQ0rNQecw8/RSS+R+HCORDgsRh1C/wPZRqNwb8PPkrWqywY2/rZxj0H07jXaYmuKxUTJUX5H8OoNm0wdslW7FnUDxZ5i6DXEs+EoE1y22nbI+lrUSWig3FiSS84OPXBP3c+wMi0EApZfMGdLePg8H1OVO6yAFffprQO9c+78a+n8UGIuPX3Q1PXX/Dn3wdw7uxmjO7kBFOTwuj6+2G8jtI0gBiK86uGo0Gp79G411qc942GjbUlPvrfx+bZLVG6bHusOacYE8mLX4ctRq+6jy/ie9hYW+LDw+3oX9kc5dvOSOW1aifw3mVciYxfnyPsbCwlPXRjUsoF809MRe0Syb/txoQ+xa45fVHBvgrm7HiKWKtyKGmZAx/992FY9dTGY0btU+D9wyOY1qsqrL4rj36/L8Ppy+ewa/4E1K9QGn0WnsEHDdal6diPfHEWCyYOQg07K7SZfgzvRfy6F6JSzhxJ3gsG//NU5f6aPo468a/TrtZEHH75H4r9YIu8Rp/xaM8klM1VGK6/bMXzkOSCv+m7P4Jvb0AXRwcMWHARH02tUKlRB7RvXAb/k3licpumGLFwCvrUc8VOrzfSuwIAYsMeYOmAFrAvWwFDlie+JxEREREREZGBEERauSV+L5hXABAAxKKLkdIOceTi/ZPrwu3EZjGgjkVC/0FbfETIjSWiTZf54nZwjMo9Ip5vF01yGSf0k/oaEiKe3T0llvSvlLA+wEr8OHuPuP/yo5BHSe8hFz7nt6g8fuM+f4kjV72FLDxWCCETR39rKir1WiO8Jc9FCCE+P9kmOpUwFYCVGLk96fOJ99/7J8Lj3AmxanTjhMdxnnRBRPrtF30TXuct8Xtp87h2V3H4RXTcvdVvp+S3qxBCPBXLO9iJVhMPieCvsdJG8dZttqhqnEMAzmKFx2dpcwJ1z9u6/WYR8NlTTG7TSazzeC+5h79Y5lpUABC2nTeL17FJH1tZtMxTTGpqKwArMXTtDREalbR/9AdPMat9WdFz8Q0hlzaqrMNZ/LH/aZI+iftIeZumjducikrjS3/rTU3ovQ2iTTkzUbrhdHFVzXgUQiaOTm4qAIge89Vvr/Tep0LIxLHpbURBI6NkjhuZuLN7nKhVc5rYuqZnKttQs7EfGxUuQkJC4m5PxPIuxeP6ThAXP35SalPcZF+kr0Gzx1ElFx4re4kSOaxEp9mnkhm7l8TYuvkE0Fysv/1F2ixEOu6Ph7sHiYJGruKf+x+kTXH8xfo+9gLJvJcKIYTHMhelcV5OrL+d0vYgIiIiIiKijMagLWlJ06Btoq8ecxP695o8S3RtPF3c+SQN9gghhFwc/a18XN9R4sZ/6voIIcQDMcM5f1y/3uJMkLqAUKKvN5aIgkZGou30i0I5hPnpwhxR0MhZDF+wVzxT+3yEeLGnT9zjOKYYAFVIDMxWm7hMLGzbKSFYFRt+WfxiE7/d1Aex3hyboNF29f6nu8hTrp2YtO6MeB+pLqgjF25z4oNEruKIf9LHUnVLjMn/PwFAWLf/TUzt3UwsvygNJil8cpua8BxnnUp+e8R8uSkm1S0gAIhmk06pbHdlj49NFq61ygqggdjjoxp1V15H2+kX1QYphRDi4fbeAoCwcJwm7qkJYmsnSKzvXjLhNWoyvvQh5MYSUdU4hzCx6qp2bCTyT3h+KW2T9NinyoHASr22iFdqx55C/OuJH4MpvybNx77q/pkgvGKSfw7qaPY4cuE2p3nC60wucCqEEJF++0UrM5NUfyDR5/6Ify+pNvGUtElF9IdjokfeXBoGbR0ZtCUiIiIiIjIwyV+nS6QnxqXs0MrMBACwffZKOIwdBidLdUMvF2wdasT9vRye95K7fNkBAyb1ivv7Hxw7r/7y3wTREYiq9Ctmjq2LvEqLH98/j/fCE6smdkXbX/bii1JbPBvX/hhqmRvAfaxYfRwfhLSHshKwdTYHANxaMBqHK42Eq21OAICRaV3MOLkDyxcuxjb3VQnLlVkUtJIuUiMUj2/dQpjPYcwZ3Ay9lnpKOwDIhXrd+qHudzkBHMHKbbekHSRK4Idm+QEAfofm40yBYehTv4C0E5BQl1WxL49fvyNtjhOB80smYM6VDwB6Y9wwF5XtHk9Ee2Bd7z9x5NozABdx/qbyfozAtdVTMOfKB5hYjcL4kXWRS6lVmX2nARhqmRuy+zOw6UhqpRa0ZYXCBdSNVf2JDbuFWSNm43Z0LJqOHKt2bCQqic5jRsMhZw4cnT4KKy6pG7VIh30KXF0+BAO3PAbgiskzeqG4SfL1eS2c+2NMX2vp4mRpNvbTTpPHkV1dgjFTzwJwxKCRPVDMKPnXaVKqDcZOrgfAE1OGzca9L8mVStDf/oh4dBPb/cKQw9hU2qQiZ34XdB9uI12coGa/eZjVpgKAUugxfzm6VVE8JhERERERERmG9I1GEElYOA5Bl2bqgxUAYKoUCJKnMCGPVZ2m6JFXEcbbv+EYAhPqXEpFwP3kPrQb2g+V86oOd3OLggl/R/4nR4SaVRiZloRTU0Ww5emOu3ib7ONIWaF9s9oqS/KWa4uRv45Dr8bFVZZrxxSm5nkS/vsql6u0xvuudHlUy6sI6jy99TiF7SPliF5dW6kNsgIAjBP/jI0vCywR+WI/5s27DACoNLwDGhRVH4Q0Mi6EIj/8L+4/Z1S1L5LQFvliP6ZNdQMA2HdujBr5kn+rMjKtiMa9igEAjux21+K1akIGmdYTu2nn+qapWHozBEADdO9QVdqchIVzM3SpagngPv6ctV2D16uPfboDUyecBQBUGt4vlcAyAJijiHX8vs1KvLHit7/gHROLoi590Kq60sZRKxfqtOkEh5w5ILu/EIt2qqvHLZW2/SGiBd4LgUf7T+DG5+SCxJD8CJZUjjzVMPnoQwjhhx0T6yf/fIiIiIiIiChTJB8JIUoHhSuXR7EUMvQ0lTO/C7qPrgAAeOO2DIduqo/wxnx0w65ljujRtoy0CRV6zMeB2UPQbcgybFv+EwqofVqmMMoZ3/AEfq9TCpIoq4Fy1ulxeOVCy/H/YNXwrhg6Yw82jaon7ZDALIfi8QOv+eFTanG9BJVhl8bnffPwZrhHKPZH7VpOyWbIAmUx7ognDm9ehWN3TmCAUqbfs4sHNVwHFAHC4hYAAL9D1/Dyi8YvVo1CsCmnHL56h5CU06vT6DaOLb8a93cNlCuTWjAUABxQp1VhIJWxn0i/+7R5o1qp7I+sK9zzDFZc+QAAKFrVHjYpZNnGM61UAy4WZgCAI3/ugk+qQfS07Q/jYqXQyswEYT4L0aL+MOy8FpjsJGL2nZZhYaey0sVERERERESUBej+zZFIB98XL6KnjK5ccOkyAA45cwDwwaa97moDF0+O78DLQd3UZnsaGZdEx0lrsHvNKNQuIm2PgEwmg0wWgvDo+EBteVgX1/SQ0aavdnKaV8SwlXuwempXlJGUmRDR8sTnHat43sVqWSNf6rGnOGktB+AN9z334v62wg82idmz6uQ0LwXXPsPQ2kmRzawQjGtuiSUdSpdIeR0AUMT6h7i/0h5kLVKmmtJ/PgiWaRqo157c6waO+ilKHFi3t0dRDa9QL1yiXNxfPjh6Pukl9Kr0uU8dYWdjKWnPPu5eP4n3cUHXKvbJlxZQVRA2Nb4HAIT57Mblu6kF0dO2P0yKtcHQ0YrxLru/Dj1rF4epkTUadhmGaQvX4+i1hwiVK16Dkak5zPNofPATERERERGRAdH9myNRJjOt1AYDWysyDu8s2YyLb6Q1cL1xYNUz9OraJNXMQBEdCq9TW/D78K5oWKk4/lemAXr8MhMb12/HpReh0u6psm5vo0WgVHdCHoxLu9fgl/7NUcPOFKUqt8SQ3xdi4/qjeBCmLoydvmJCg+Dn81/cfzVQsrAubzGv8NItJOG/9ROaw6VZkxRvgzYEoEnTxmjS1DbNQSrbis5xPwYAgA8C3oZLeugqABsHTsKlT4lB4LfPvOAdo31Q2CyPIkgIAP6PfdXWY9YX1X1aCoUsdNmnWUEwXtx7IV2oAVPkNo+PtvvgqW/i2E0fudB61mFsH98KBRMygf1xcf8azJw4CK61HWBhlgPNR/6D5yHajy0iIiIiIiIyDNn12zd9E0qic/8ucX/vxT9Hn6u0yr0u4Xi+/mifQl1KER2ME0v6wb5kfji2nI7nuV2w+LAXPj2/jhObl2LcryPRvJwumYUpTxKUVjGhT7H5t44o9b/CcBmzHP+VG45tFz8hwPs8dq+Zi3G//gzn7xWXbGek2DAZgiKlwfO0GbjwNNzOuGt4+xMNCqXtbc20Uv24mrEKp6/dVWnX3Xt4//sIMlliJrCISQys5ytdGAU0uBxfSh4qx+dUL8nXXXrsU0MVIU98nSUKp57hrU5omEy6SO+MjEui56Lj8H11HZtnDUaDioqazsrOrOyDCvbdceTlt7HviIiIiIiIspu0RTeIMlmRZp3xi42i4IJqPckIuO3bgPp9Wic7+3uU/1kMalgOrcdvxseSA3DQ6zb2LRqEajb5Us3MzUyf769Gix8qot+Cf5G71TRcuOuNvye4wq5IbmnXDJcjjwWsvpOWmtBWLpjafCddmIEc0Gl4s4T/Hu0/r0Gd0tRF+fvh6Vc72CRTz/TTi3f4oMPj5DAGckH9GNcH/ezTjBMuk6ktlaKtV+/eShdpJIdx+v5go+x/xZzRZ/JaXPB6jZgvMjy7ewpbV0xEm3KKH2yigvZi9LhtGkxWR0RERERERIZGffSAKIswMq2LTiOcgbh6km5xkzLFfHTD7q310bll0gw0ABDyB5jRqwc2eMgAuGL1zlXoUFG5rqphigo8hn5tx8EtMBIWjhOwZesUNfV4M09OcytYl/tf3H9H8FTjiduUlUCFGvkS/vv8RV/lCTRn33EYhlrnAQCE+czAvjNh0i5ae3//Ml52dYJ1jsQAa9EylRIucY+Nliv1Ttm7d68T/ravZp/MJHr6obpP3+FzXL1Uw3Qbs+z64rRO2aWFYF/ZKuG/yNRK0yYIxpsX8eUjHFHVXrcMXU1FPNqOkUs9kwSmc+QxR5nKzfHTiPk4+uQtjk1vg4JGRvA7NB8nU62zS0RERERERIaGQVvK8qq364smuYxVJiR7cnwH/H7qgBrfqx/ivkeWYk7cLPGtZv+BLrbaBT6jg9wwfuxhpHHOK61d+mcGDrxSBPcG/D4CNSUTkaVGfmcDflzmKV2sRw5o0q1ywn83HjxWaU2JSIgrmaO2S6uE5Y/9/BL+To2Qax74TEmOPHXx6+KeCQHVNYs3wjdN2YoB2L/xBDp3aKIyEZ9plfoYYKuoTxtwzBdvopQakxWKN8/94/62QsNaVSTt+uaAOu3iJ+XyxFPfr5J2Q1IQNo2SL4eSmioNf0zY597PfKXNainX/DWxag5nB90fXxOxYcHY8rc7/FIcj+ZoPW0j5v5YAoAPbj7Q7LUQERERERGR4dAu4kNkgL4r3RQ/diwKxE1IdiHgHg6seoburrWlXeOE4s4Vj4T/GtZ0UmlVJcfX0KSRNBEdCl8/GSKQUuBE37zhcTg++OIK5+qK16yOkIdDFp0021BEf4bv+/TNXE0MogNXD3lodGm2zHMp6nT/JyEIrlz2QtN1CPkVjKvQHUcDkr5uXdh0WoDVIxwAAG/cfsH8rc+kXTT29vgq/BnUDz1bFZC0VEWbUfHj9DA872mSEfkcd04EAwCKt/gNHWulb5AQAOq06YuqxoqPixv3NA/EZ7z38D0fDSMdN4mZczOMrKvYR08OXdOoLEakz30c+6zIe/1xSk9U+i4d057jhPkcws3HqY3zQmjcvrF0IREREREREWURDNpSNlAIrX7sEPf3XiwaMgk7UpyALALhYYnBMSOT5IMsUYE3cfq8IiPXEMg/Jj7vlOruhnp54vJn/WSdauu70p0xY6YLAOCN2zIciitZkbxQHNuwCnU6N064zN/ItC5GLuqBgkZGeOO2DLsup16e4O2Z/bjU7EfUKqFd1nTyzNFx7n6s6GMPAPi7T1csvvRF2ilVUf4HMHLoJYxbOhzl1Yy1mv1mYmx1SwA++HvriSSXvUuFXDyNDS8/A3DGxCn9YatmnfpmWqk/FkxuAAA4M3kTLn9OrexFAB7e+ChdqAe5YFEgfuTLIAtTDaoKeThk/3OEdXFdP9ocMHL+GDjkzIEwnxnYcSK1/R0B96Pb8V4IFKgxDWN/VgT5058nNu/0SHWsKFihrE18pnSi2LAHWPJTVRTKURid51zScF1ERERERESUUXT9ZkvfqKhAP9wPSwwGalJvNOZjEAJ0mH3+xSvNJwJSzsx0P3kCDX9snOwEZEAhVGlYM+G/a3cfqbQmisClDX/Dpk/vuP+fwNdPEayKDvTHk5xCMgFUYlauNvVJE0Qnhk1ElLoMv7Ko3d027u8juPngk6Q9XgD2/3UEDQZ1BAD4HXqMT3Gre+v3ALlMVHur1uTU3Acf32TKQ+RCnQnrsL6PPQAfTB40Gfe+JB/ke3dxJVa8GomhHYurLLfptACbJroA8MGcUbNTXEeU/wGMmvAOUyd01mt91xx57DBsxSGsHOAI4D5+bVAPf+x5Ku2WrC8+29G93mKU+3MrRtRWLoyQKEeeapiycjLqFTWB16ppWJFCYDg27BaWTP4T70UhDN+yLdl1psc+bTRuISbVLQDgb8xeeDmFIF8E3OcOwugjb+L+90GwLPl9B2gy9uOZw75atbi/L8Lrier7itzLEzdbO8FOqW6wCg0ex6L2OCybq6gHu2LSnBTHncxzFabPvw8Tq67YuHMKKudN7iNV3/sDODdndIpjBQjFVbdLsHAcgjZqsrGvbxqL8dvv4L0IwoHJg7DtTtIrCoiIiIiIiCgTCaJUfA0JESEhIeKD7w2xanRjASDhZuE4Why481yExPWRR8XfSy5CQkLE6ycXxOLe5ZXu4yrWeTwTISEhQvYlVgghRGxUuAgJCRHP7u4VY+vmS+hbuOFEceXlR8l6k3dlSZO4+/YWpwOjpc0ST8XyDnZx/R3FQrdgSbtMeCzrKtqM2C38P10Sv9jkFQBEs0mnhOzLO7FthJMYud1HiLjt8+ntE3FiZT9R0MgoYZ2/rrsk/D8ptkv8a5VKfO2HxeT2ZRJeu23n+eLSo0AREvJVpX/0h0tieB3LhG2594Xq64yN8hfbx7QSPRffEB+ebxNNchkLAGLgBh/x3/v7YlabemKFx2chkn3eEH0WX4x73omP/TUkRHzwvSc2TXJR2pcNxIJTT5N9fTFffMTKAY4CgCjeYp64HRwj6SETd3aPE7VqThTnk91f/mLf+NaioJGRsHAcLA56fZB2EH7nl4u2lRqJ5RffS5v0SPFcqxrnEABEuTbTxZWA/6SdEkTL/MTBxT2EdeHmYpnbK2mzWqH3Nog25cwE4ChmHAqQNovoD55iVvuyAiglxmy4LxR7UVX671OvuOcA0WP+jSTPITYqSByY1ka0GbFbrPkj/viCKN5iunB7FKg4lhP6ajf248V8uSkm1S0Q13ezeB0b/zz9xfruDRLGdzzdHkcuPFb2EiVyGAkLx9Fqx2fQ9ZXCpdh3Infp3mLX/aTjUqTT/vh6Y4kAIHKXthElcriKf9Q+tkzc3jBAFC7cINnjwmOZ8uM4ivW3I6VdiIiIiIiIKBMxaEupuCV+L6gIWCrf7Go0Ek2aNk5y+/uG4ot/5Ov9opWZSZL7Kd+cJ10QQikIkdJt0cXUAwoRz7eLJrmMRbNJFxICQymTiXv/LhCdKxUXAETjPr+LNTt2iHWLJogutVqKqTs8RWiUIlDy+ck20bP8/+KeTynR96/4gFWQWN+9ZJLnK73Fv1ap1F/7BOEVoxo8i40KEidWjhFN7UwFYCU6jVkgNu3cIf6aOlI0r9VerHZ/lfD637rNFvWKKvaDiVUDMX3/07gWTZ53/GOrHwPKt+RenxBC+J1fJwa1Ki8AK1GlzRAxdcFiMX/CQFHDoYIYuOC0CP6aNDgolbgOiBI/dBMTFywSC6aOFM0qVhCN+8xPMYCqT9EyH7Fzdh9RrkhOAUDkLt1cjJq8UGw+cFa4nzshtq5YIsb0qy9K5LAWncf/I7yTBKpTpgj29hXliuRMWPfihZPFkK71RIkc1qLDkL9SeK0ZtU8TjxvFc1wnDhzcJOZPGChq1WwvlhzwEp+FEG5zKiZZJ+AqDsf90KDL2I8XLfMSKwe3EAWNjESBGn3E1AWTxc+NK6oNZqflcT48Py3m9KwiChoZiR9aKMbugqkjhWutsiJ36eZi3LKUxm/67I+vN5YIE6uu4vCLaPH5yT4xsnV54dh5jFiyfJs4dnBT3HFRWrQakNJYUQTgF/3oIEysyovBy5IG4ImIiIiIiChzGQmhwUwrRFnE+4f3YGTniAJa1vkMl8kQ6HcPASGxKGBdGeVK5EPcXFpJ+kWamsPcVLv1p5dwWRBePHmE4PBcKF7eHqWKWKqpdRsBmSwcZnks1L6mjBIbFoqXz+8iIOQ7FC9vDytLC623Y+I6FPupVEFLmOfRbh36IKLleOF9EdeuPMSdu6fx4FU0AHP8UKMRateqjdr1qqBE3rQ8rwiEvPPD48eBkAPIU7g8ytkU0Xp7pbeUxt8Hn4t4811FlLRUlAxIj/GXOB6+R5nK9ihpaSbtohdCHoo3/k/g8+Y/AKZJXmtGig3zx7OQgihXIrfSsrQfW0RERERERGRYGLQlIiIiIiIiIiIiMiDJzZpCRERERERERERERJmAQVsiIiIiIiIiIiIiA8KgLREREREREREREZEBYdCWiIiIiIiIiIiIyIAwaEtERERERERERERkQBi0JSIiIiIiIiIiIjIgDNoSERERERERERERGRAGbYmIiIiIiIiIiIgMCIO2RERERERERERERAaEQVsiIiIiIiIiIiIiA8KgLREREREREREREZEBYdCWiIiIiIiIiIiIyIAwaEtERERERERERERkQBi0JSIiIiIiIiIiIjIgDNoSERERERERERERGRAGbYmIiIiIiIiIiIgMCIO2RERERERERERERAaEQVsiIiIiIiIiIiIiA8KgLREREREREREREZEBYdCWiIiIiIiIiIiIyIAwaEtERERERERERERkQBi0JSIiIiIiIiIiIjIgDNoSERERERERERERGRAGbYmIiIiIiIiIiIgMCIO2RERERERERERERAaEQVsiIiIiIiIiIiIiA8KgLREREREREREREZEBYdCWiIiIiIiIiIiIyIAwaEtERESUrkLxwvsNIqSLKd3Fhvnj/vNP0sWUhcWE+sPn1Vfp4nTB8UNERESZiUFbIiIionQSG/YAszt0wZYX/yGXtJHSXY48Rrg5pyemHH4mbaIs6PP91WjTYT4CozPmaOL4ISIiosxkJIQQ0oVERERElDaxYbcwteNP+Nz7MJb3tJM2pyhcJkMEACNTc5ibGkmbSQuxYbcwtWVXfB5ySuv9QIZD5rkU7Xp5YtypHXC1zSltTpaIliM0TA4AMLOw0PrHE44fIiIiyizMtCUiIsr2IiCTyRAaxt9pM04ANo38GV511mGRBoEeuddGtG9SEYVy5ICRkRFyW1rC0tISE/Yww08qNi4Ap6kceaph2vZFePN7b6y8+kXaTFlAlP8BDOi8D122rNcoYHt13c9oWKk4jIyMkMPEDJaWlrC07I3TL2OkXVPF8UNERESZhUFbIiKibOrVja0Y1b4yylRsgc5dO6FTx7ooXbYmhs3ci+chsdLupDcR8Fg4GL8/7oqZY+tqlNn3na0LJkxehl3Hd2J8u9JxSx1RvaKNpOe3Lfj2KjQvb46VV6OkTSkyKdUJ6zc3w5xOA3BEh8AdZR4hf4AZvYYgsv8CDKydV9qsVqUWIzB12VYc2TkdLsW+AwBYONZCORvdvvpw/BAREVFm0O3MhYiIiAxYAPb/4oLS7XaizMhjeP7gPNzOuMPtjAee3tqKap/WoYJ9Yyw8/V56RwMToQg8t7FHwZrz4ZNFKjrJvTZi9KR7GD1jHCrn1exUK0eeUqjdqDGatPwRHRrHB2qbo0ZlY0nPb1OY/yUsHdISDtVHwi0wUtqsEcsmY7Giy2P8MnEbArPIWAKA/wI9sea3DiiZswY23NEuWJ0dXPt7IhY+64FJv2j2AwgA5CnljMaNGqNt906oV0wR6LVrUwvljHQvNZJVxw8RERFlXZp9kyAiIqIsIhjb+rVEl7++YOnBfRjVpLhKa05zO/T7azNWtwzGxBZtDPRy31D4nFqOLo5lULJmb6y9BXTq0RjWaQi4ZJwA/D1lDkLaz8OQZpplBaoKxqPrTwEADoNrwTpHVnjN+vfk+HIsnDYKHZo1QfmixrBqMhc333zE+zQFy8zRZsAQWB76HQv3vpY2GpyPL85gbq+qsClRE8MWXEPhrj1Qu2zqpQGyk8gXOzB1wln0XzIONb7X/mtLVKAPbjz4DABoVr2CtFlLWWv8EBERUdan/dkPERERGSzfA1MxbstjVBr+RwqXEpdE79mz0MrsLsZ2/BUXgw2jVIKIDoXnoYVoW74IyrccjRP//YBxy04j0PcR1o5y1jjLLjO9Pb4Ks4/GYMiQTiigQ7xVyJ/izqkPAIBKTvZIbg9mrGBsH9kKC45nbGZ2zjyV0Oe3Sdjr8Rn/PT+FOb1+kHbRmmmlnhjTNze2ztuI++FpCQCnn/f3j2Dqjw4oUKY5Ju34iLqD/8SVgJfw3DUaFTTM3M4eQnFk2QJcshiLvh1Uf3zSVNgTL5wIjwLQABXtLaXNWssK44eIiIiyj2/pzI+IiChbE/Jb2LBgH94LgS5tG6cY5DQp5oLuvUogKmgdlm27JW3OUEIejJOrhqNBqYKo0WEizkU3w5IDN/H2yUksHtUMBc10iH5mCm9sWLAZUZXGwLVxHmmjRuRentgvCwfgiEbVbaXNmeQVHu25Aj9ZuLQh3ZRvPQrjfh2Ado0bo5JNbmlzGpijdc/+MPGaib92GtIkbxHwv/A3ejexQaHK7TBrTxh+mrEH3sEvcXDNaNQpoc9tkDXIvXZg/pqHaPZLRzjn1u0ry50bJwAAFo4t4KiXLGVDHT9ERESUHel2BkREREQG5537Psy9+QmAKxztUwvymMOpZmUAwLFFJ/AgNuOzxmJC/fHvkn6wty2KViNWw8+yI1Ydf4p3zw9hbMdq+N44qwRrFUIuHsGKKx/QamgHnWtnvvT2iCsB0ACVyusjyERSlg2aY4Dt9zi04qAB1ElOLAVi3Wgwdj00xcAFh+H/6SW2Tu2KHwp+q6fqEXDbtwG3o+vh5w5VpY0aCsBDj0AAgK1LZb2VVzGs8UNERETZ2bd6JkhERJTNROD2lSNxf1eGdfHUP+LzWZUBAEQFrcXF69HS5nQTHXQTW2b3gE0+G3QcvxnGjiOx4+prPPPejWGtyhpISQBtRcDDbT/ei0ppyJANxjU3Rdazw+BGsNcxu5BS44DaXYpAdn83Lt/NuHGvTEQH49LuBSqlQCZvvIRA30f4e4IrSlp+2/teyG/i3I7nacqQjQq8idPnFaVGWtWrmuKVB9rJ/PFDRERE34Zv+4yQiIgo23iGq/veAgAsHM3wnQZJZRYFreL+CsK1By8lrfr3X+AlLB3SEkWL1EDfKbuQr+M0HLvzAd4n/0SPWsX0GFTJeEJ+EydW+cDEqj1qVDaWNmvEMOvZZke5ULWuK4D7OHL+rrQxXSWWAimOBt1/UykFMqtfvSxUCiR9yTzO4k/fL6jYoZbOWev6rmebKPPGDxEREX1bGLQlIiLKBqICfXD/zVcAQL6yhZEf2gU6njzzRYR0oZ588DmDub2qwqZEQ4xbdxfW3ebB/elH3Ns3Da2d8ku7p7v/Au/jwvVHCA5L/tLmcJkMz+9dwMW7LxCaQr948bVoK/aqCbsc2m37eIn1bK1Q2yn5bN1wmT9uXbiKZ+8zrsZsdlPAwRmtzExw+9RtBGbAJe4xH30MrhRImH/qx0Fmia9F26xmFWmTxuLXYWLVMIVs3Qh89FNsh1C55tsho8cPERERfZsYtCUiIsoGYoICcFOu3aW6xsVKoZWZCQDg04t3+KDn4MOrG1sxqo09CpZvjkk7PqLBuLW49eYNPHdNROOy+aTdM0AEzi3sgl7T98Dz5DK0srRFv2WeKsFq/wsr0LV2HfT8fSEOn72NG4cWom25YnDuvgyPvsQq9VQVX4u2fFkbnTOGE+vZdkN1h6RBpi8++zGqTT30/H0dLt68ho2/tUfnOZfSLdienZmUsoZd7u/wxu0CHr5Nfr+mVXTQTaz5rQNsCtmrlAIJyMRSILFhD7C4ewMMWnkm4TgY98/TVMZRALYPrQGnlvPxOFy/7xNJxdeibQA7GzNpo4YS69lW7FVTTT3bCNzdMwktanfAzI1ncPvyLoxq3RQrr36R9FMvo8YPERERfdsYtCUiIsoGRLSIC/jpxu+QLz7pfnclEfC/8Dd6N7FByZq9seJ4OH6asQfewS+xb9EgVC2Seaceb49Pxarwkdi9fi4mzFiO6eNNsXmMK2Yffg8gFMdndMYcz3JYffEKDq6Zi3G/jsOEGetweOtA+O35Bd2H7cUHtdsoFI/vPQAA2FsXlTZqKLGerV3PWrA1U91Oj/aMQvv5HzFq20UcXDMXrexCcOfKJRyYvARnAmJU+pImSuCHZvkB7MVTP/0H3ZRLgQxbcChJKZDMIuQPMLXjPNjNOYedi37FhBmzMKRLLJb2+Ql7vJL/0SfEfSN+WuuJe6dO4cGr9B1vMaHPcM8jBICjRrW51VGuZ1u3+g8qP6SI6ABsHNgSW8O6Yd/VE/hrWjcU+fgQ5y+cw59/HkjmGJdK3/FDREREBAZtiYiIsoe3foqgYeaJwP1DC9G2vCWsGw3GroelMHLZaQR/9cXWqV3xQ8HMPuXwxoYF7zFkaJ24AE4umOU1ARCEQydP4OCcobheeR7+ntAMBUxUs/K+r1Yfbb7PBa/t83HobpRKm8IrPLrxCYAjChc0lTZqJCb0Aa6eCAYAVKvnhAIJTyECdzaOwKznnXFo82CUscyByBc7MLLbApx9KgcQinAtLuumeIVgU06R5/rQV1ELWh+++BzF1B8dkKd4A4xbdxfV+/+JKwH/ZVopEFURuLp8CoyGL4OrbXwmtxxfQ6MAeOLagzeS/ok0KzWgH1H+PrgZFgkLxyIw17HG74d7ngn1bOs4FUlYHhv2FKuHjsTXn/biz/6VkBfAo52/oeeCf/EqVkAuC0cENDme0mf8EBERESnL7G9QRERElA1EB7lhZq8pOOYTjjzleuPw5eNYPqqZwUysJPe6hIvO3VC/UHzAKRQh7+QAAO91fbDddAxmtSurcp94Oc0tUPg7EwD38eDZO2kzhFyGd8/CAZSCVQHdTq0ife7j2OcIAFaoVTGxnu2jPaMw53VXbJlUP+FS+tj/QhEUrcjuq9SrL+qkcxAtuzKzVATz7j33lTbpKBiHFozGrD0PAZTD+N2XcHD9aNQpkVvaMVPEfHTD2r010cu1gNKyB7hx+RMA4Ltk6+p6w+OwYhuVa18ZRZOUGtCv8PdB8I6J1ak2d7xH988BcUFm+zLxx0cANo0cDdF3O0bWT9wGobL3cX9ZoVOfJiim4evT//ghIiIiUqXbNwsiIiIiJcZWrbHV5yyWDG4Bs6db0cquNJy7L8C5Z4qAUGa7c+Ff1KpXReky6ee4E5fZWqDGPMwbW12pt6qoQD/cD1MEeNWJ/hgEf3kUAGtYJabIauXu9ZMJ9WydKyuCTE+OT8B8n57YMq2+yuXdppWG4eTtEzh+4hbcN/2scZCJVBUuXBwAEPklPJV6rpoqhF6rr+PEymGoV/QlFv9YDmUdfsTqE8+gWaXU9PXk+A4YD+2IckrjJcjjLHZ+iQDQXCUjVVlUoA9uPPgMAKhbr4rGdXijg9wwvqkt+m58Km1KUcjHAACARanCyKvT0E4MMidODBiA/b9MQHjfbRhRW/UV1Bq2A54nT+DMnTtY3tNOpS0l+h8/RERERKoYtCUiIiK9+F+x+hi79iTevL2B1RNr4d3e39HELj8qd5mBA9cUkwJljmC8uGcJZ6fEyc8iXzzB5VdhAIChU4apBLKkwp54xV1qbQU7m8LSZiChFKgFzEyTX0/ygvHouiKwZdvZCbZmkbjzz0jMuNcGq6YmZtgqK+7YHK1aVk1SyoG0J/N/hy+aXBGvASPTQmg5fBUu+r/Ghc2/o3zUYQxvbYfCZdpj8c4r+BClpwfSWjDuXPiKlvUSs7iBAOzfuA8AUL53H7S0M1ZqS6RcaqBR9eRrNseGhSLQ5wbcT+7G/OHtYFu0GZa4+SIyWrvXLI/bRt/lNdNpUj/lILOzUwWYhD3FqiGj8LbDSpUM23hGxoVQvUVLNHVK/rWlRJ/jh4iIiEgZg7ZERETZgFFOXcIb6cPYqjqGzv8Xvp98cXBxX8g9ZqFz7eIo06gvNp17nQlZaYXw06a9aFsysYzA69tuuBIZA8AV1Sv+T6W31OOHV+P+6obqDklLEUQH+ccFtXSjXM+2fOnPWNejObZFD1QpiaBPsWFPsXflUixZtETD21Z4fg6H96k1atqSv+24rJgI6ltkZFwIDfrMxRmfd3hychla/e82fu1ZD0VLNMKo5WfwPjyjo3yF8NOmQ+iqFJiNfHEZR04rxl3bto2THWvqSw0kdWPPTPx9+AqeheRB4xHT8Ws3RSaqtt7635Eu0kpikNkZhUP3oUOzeSgwaofagC0RERGRQRNERESU5X29sUQAEACEbefN4n2stEdSka/3i1ZmJnH3myq8YjS4kw5iw4PEiZXDRL2iiscq8UM3ser4AxEalT6Plzq5OPpbeQFAFHVZLV7HpvQ8/MWyVkUEAGHXc5fa7Zq47XXbhl9vLBEFjYwS9l/u0jXEoPHLxO7jt0TwV+3Xl5qI5/tFm3JmCY+XPjcr0WDcIfFZ+uBp8GJPn4T1r/CIlDZrLX59mh4vaSMXfufXiZ8bWwsAwsSqvBi44LB4Ghwj7ZhhvDd2jNueg8TFj8k9jwdihnN+AUBUGXdSyKXNyQoS67uXFABEj7VPpI0pcptTUQAQNadfkDZpxG1ONZWxaFejj/h92TZx5k6gFs8/dRk7foiIiOhbxExbIiKibMDI1BQOObX7WI8JCsBNueLaftvONiiSQomAtEi8ZPw9bvy7AI7RRzC8dUUUKd8SUzZdzoRLxr1xdZ9ixvfSdSukWBM2JvQZ7nmEAACq1XOCupK1umx7ZYn1bEfheuhXBLitQ5NST7BqYC0Uym2Dn2cewWs9bqPvSnfC0SdfIYTQ8HYLvxfMiyHb/dW0JXd7hwuL2yWbvfntyYVSDQfhH3dfBN87jN8a5sT6ie1gV8gWXX79G7ffKiaWyzgBcD9wDQDgMLglnPKpH7/SUgMZkc9vlsdKukgLifVsq4w7ifBwGY6v7YACj3agZ9XiyFemPf468Ux6JyIiIiKDpP4MjYiIiLIUY6tSsDNVXPr86dk7fETqQT4RLeKChWmZ9EdzRsbmcG4/AUefvI27ZPwhZvevH3fJ+FEEhGRM4Eq5nm2zmlWkzSoiH3pic6gcgBVqOynXA02UM78VSn6XE0Dyk5UlL7GerV3PWiid1wz5rR3RdcRqnPdyx9i6X7BtWju07rcHH1LfpaQD41ym0kXpqqCjK2bu9saH56cxp2d+XFwyBNWKFkXrgcsybOK+yBeXsc9NURqhfcs6yQbXNa1nq0/xE3zF6lBxRGXStOo/wNTUHGUqu2Ls2pPwOjsL9v5H8Uvrehi955X0rjrL6PFDRERE3w4GbYmIiLIBY6tScPxBEXqR3Q9HpAYBPtn7oIS/q1W0zZAsOgVzlGsxCvvuv0LA9X8wpFoQVox2Ral8tvh55l48fJ++wVvleraO9rmlzSru3lLU80yuni0AGBmbwjSHEYAn8Hut3XNXrmcrzeTNmb8eJk8fAQDw2j4fh+7qEMWiZIWHKYJ7+coWUZtBnd7yl26GP7bfTpi478GmXxIm7jt+96O0u14F3ruccAwoT9AnpVzP1rGs+vGvb/H1uT/4+Gr9Q4VykLmOUxGVtsJNxmP6eDsAQdg6bwd84n6w0lVmjx8iIiLK/hi0JSIiyhYcUKedTdzf7xAiSz0gESKLD9o6onrF+PtmrBI1fsbyY48RfO8wpvbMj1PTf4RD/CXjr75Ku+tBBB7dvQ4AKOrSAlVKpHQqFICHHj5AXBasrZn6vsZWhVEudy4AoQiXp77dlaWWyWua1zzur/uQSxJ5Qy7OxagdAaoLSWPv3ikuk7ctXFjalKESJu4Lvoeds/tA7jELbaoUgEPLX7DzWmC6TNz30kcxuZ6JlRPskj0GAvDQIxAAULFXTVgrlRFxn1sf6z3T50eEwiXsAAByWTgiNLhiQNmjW8eBZIPMuWCW1wRQ+8NWBI5N6YOjATHKC1NkKOOHiIiIsq/kztKIiIgoi6nt0h0FjYwA3MBTv9SCDxF46X0DAGDh+CPqOSXOKp8ZCjq6Ysb22/B9dQFLBtsrLhkvaQvn7gv0fMm4dvVsr51+D6jJglVVArYulgAuIuCddkGm1DJ5371SlE4AXFGysOpp2x2PS6hkr5pNSJoKRcg7RRTc3jpjLvtPTc78ldB90mY8fvkGJ1YOQz6vVehZuzjKOvyI1See4Yv0DjqLQPgXRcC1RD1r5If6gR0VeBOnz38AktSz9YbH4apwVDNe9cG4WCm0MjPBGzc/fNLqcPKGx4l3gJogs0Iw3jxXlEWxbm+DfCrN3rh+wT6FALaU4Y0fIiIiyn40PTMhIiIiA2fm3BmT2xYBcB/nb76UNks8w51zioDkj7/2QLkkAY7M8b9i9TF27Um8eXsDm2c1xru9v6OJXX5U77sbgWm8nBmSerYNKleQNqtILQs2USHYV1ZMnvTMVzEJkmZSz+QVMfF5lpVhY53YLuRXcOJko0wPtmddr/DoxicADWBnYyZtzFSJE/e9xsVd8+Mm7rND4TJ9cMo3tR9jNJGYcZqS97cvx5UasIJD2cQfByJf3Me9Kg1hnzvpeNUHk2Ll4Fg0N4An8PXTvNxIlL9qPVt15V4i5IrtV7iyjcoPNiEXT8O7TUMt3gcNd/wQERFR9pE+Z1tERESUCUqi97TxqGqcAyfW7ML98OSDnCHu+7Dy5icUqDEPY3qUkDZnOmOr6ugzeSd8P/ni4OIhsDI1Qq5kMgK1oVzPNqVantAgC1aZ7Q+NAAD3nimyeDWhSSav2f8KAQCKuhRWyQx8e2Y/fNs30iLIlPXF1xAFANkXXSZ9SxQTGgQ/n/9gYtUQ9mVS3reZxci4EOr/ODFh4r4upXPDSE9P1aZMVQBAbDTUliCI8j+AURMOxGXu11DJ8n7mcRxlXGolO3lZ2pVAlVaFABzBUy1qRH/wTr6erUIuWBRQhHJVSxqE4vgON7RpmvKkhMqywvghIiKirI9BWyIiomzEvMov2Lp9AEy8ZmLKwstq62HGfHTDlN+WQ1aoCzbu/NWgA385zUuhw7g1OLamm9qgpnYS69laONZK5VLo1LNglRWo7IxWZiZ4feORxhnBiZm8jmhUXX0mb6GaTdGvVG68fxAERX4wEBt2C6tX5sDEgdUkvbMPIQ+FTCaDTCZDyDsfXD60DL8tPJnQvmzar9h64jYCQhR9ZDIZIqJVVpGiSJ/7OPY5AhV71YRdjjQPrHSmmLhvy+nVaF5SPwFC61bDMaluAfgd2g2PZ6rZu9FBbvh9wAH8fOIoRlRX/LAh4rZtbNgVrPm7HHq2KqhyH/0yR5W6dQAAdx+ndsVAovh6thaOLdTUswUAc9Rp3gEFjYwQ+EGWsFTmuRH7zCfipyqpZx/Hy1rjh4iIiLKqlL+BEBERUZZTods6XPz3D8j+doHryHW45auY0EtEy/H0wgq0r+OKU3kG4+KDXXC1VRfcyK5C8c5fsS0a/dQ4xWC1JlmwykyKVUfzpgXxxu0U7rzSLDvw3Vt/IJWawjnzu2DJ3lmomfNvTJ+7D2f/XYu+7abBev5M1Pg++57G+R4ZA0tLS1Sq2wFdfh6GGauPILxkLTRp2hhNmjaG4/fPsPWvCejXrRPa13eApaWlVhNj3b1+Eu+FQIemddReRp/d5chTDdO278SIJk/Rt1VnTNm0H+4nd2P+8HZwGXEbPXZuh6ttZfyy9S/0LO+OqRMX49DJzRjz43yUXzgWjmapHBBpVLyqC5rkMsZ1t2v4oNFvIMF4E3ds1+mefAZ6kdYzsXt+W/isnIalB92wd+UwdJkdhXlTm2o1Dr718UNEREQZw0gIDdNBiIiIKEsR8mBcPrQTu/49jmchikBiacd2aNaxE9rUKvZNBhuig7xwxfd/qFqzdIqXd4d7LkWpmuPxXlTC+ts3MUCDLLyXe/uidLct+HV/EBZ2UpQ1SFkont14hFx2NVDSMuUArJCH4uG9OwgON0fFmk4omM5BM1W38UehRgj50xtrepaUNmZBAVjeuibG3/4JV17Og3M61WbNKr5+8MG9B4GQwxQlHJxQtqBqjVYRLccL7+sICPlei7EXjA09qmPgrgD0WPsEOwaXk3ZIRfz9G+FM0EY0LZT6j0sxof7wfBwNh1SObSi95iiL8qjpVFTL90KOHyIiIsoYDNoSERERSVxd3hR1RrsBGIUb//2pUWAm5uNx/GzTCXc6boHnlh9TDRxlHdkraBv5YgeaVOgN85keODaxhrSZ9CKtQVvgzZExKNZumRY/gmQMjh8iIiLKKKl/AyEiIiL6pgTj0fWnAACHwY1gr0HAFgBy5m+NYdPr4sk/W3DyqRYFVg1eLiAblWK4eXgzrkS64OcOism4yDAVdR2AGc75sWvDQY3rRGcEjh8iIiLKKMy0JSIiIr2IDQvF5+j0Oa0wMjWHuakml2WnXUyoOwaWaoPNoXKtswRjPrphUNV2eNP3BA5Na6DlZdeGKzYsFFGm5silvvRulhEbdgUjKraEb59j6bJ/RLQcoWFy6WI9yQULC9XSBYYr7Zm2APD2+EQ4tj2NqVcuY0TtzM9dT+/xQ0RERKSMQVsiIiJKs+ig4+hWuiMO/hcpbdILE6sJGVY/Upd6tsoe7eiDH3qF4Ij/QbQtmXotTso4V5e3QsO5JXHWazUaFNL3WArGtn418fNmX2mDnlhhodsz/Nok84OXqYkJvYl53dtiyskgVBq+G5f/6orvjXX50SUAG3rUw7yoGbixt0+qEwKmt/QdP0RERESqGLQlIiIivXh9/wKeflJMeKZveYtXRvWy+aSL04Uu9WxVKQJNG4uuw4XFLZiNZyCi/A+gvf1IVNl1H7PaFZQ260V0kBcuPfogXawXOcxKpTqBXmaKn4gvNbNOfcbk5pq/ivj9VutfH63up28ZMX6IiIiIlDFoS0RERJQg8bJuh8H/4ura9joFyaL8D6B7vdGwX3GXAR6DoAikHym3Dfum1WcgPYt5tGcwmowxwu77mZXhyvFDREREGS8zznqIiIiIDFQwXnqGAgBaNq2tU8AWAExKdcKG/WNxethIHHkZI22mDBUB97mDsCLnTKyZWo8BtyyoQrfl2D7SD6PGbcuESck4foiIiChzMNOWiIiISMnHFzfw4H0BvVyKLvNcivYDHuC3wxvQwob1bTPDoz2D8dMxJ+xdPRil82ZyUVRKgwicW9gVkx73wP5NXVHMKGP2JccPERERZRYGbYmIiIjSUZT/MUzZ8x1mTGjGLL0MFuV/ALP3FMT4CfXTHIAnw/D48GRcMJuIoc3Sf49y/BAREVFmYtCWiIiIiIiIiIiIyICwpi0RERERERERERGRAWHQloiIiIiIiIiIiMiAMGhLREREREREREREZEAYtCUiIiIiIiIiIiIyIAzaEhERERERERERERkQBm2JiIiIiIiIiIiIDAiDtkREREREREREREQGhEFbIiIiIiIiIiIiIgPCoC0RERERERERERGRAWHQloiIiIiIiIiIiMiAMGhLREREREREREREZEAYtCUiIiIiIiIiIiIyIAzaEhERERERERERERkQBm2JiIiIiIiIiIiIDAiDtkREREREREREREQGhEFbIiIiIiIiIiIiIgPCoC0RERERERERERGRAWHQloiIiIiIiIiIiMiAGAkhhHQhERERUfYQgVe3r+HZ51iVpQXL1ETFErlVlhFlJx98LsLrTYzKMpPClVHPPp/KMiIiIiIyTAzaEhERUTYWjA09qmPgrgCVpUO2+2NNz5Iqy4iyE/e5leAy6YHKsprTL+DatAYqy4iIiIjIMLE8AhEREWV71SYeQkhISMJtfqcS0i5E2UqjUZeVxvwTLO9SXNqFiIiIiAwYM22JiIiyjAhc37EGHpJLnvUlZ/4a6N+vLvJKG7I0RabtxnJbU80w9HH7G8fufpEu1gsjUzt0HdAGxc2MpE0kwf2QHjQ/DoiIiIjIMDBoS0RElEVEvtiBJhV640qkImhb4oeGsCtqiR9q1ELJ7xMvnon+4IlVi/fhVaziIz536eYY0L2JSh8gCA/c7uD6gwvweatYX1GX1fA8MwTFjLJTQEuzYJWQX8Hwos2xJuQrACB36RqoZfs/lHZsAbtCidstJuwpjm3YjMtvogAAJlbl0fOnfnBQ6gPI8PzWddy5exmezyLilo3Cjf/+hHNuXuSUEu6H9KLZcUBEREREhoNBWyIioizi4aZOcOh/EM1GrMXcCT+hajITaakGvhyx/vZNDKhiIu0WJxR3No5Hi4EbUWLsCVxd3AK5pF2yNM2CVSHu05DPZSbKtZmOVQtHoIl9fmmXOAFY3romRp94CwD4dX8QFnYqJO2UwO/0bHRuMw1vG67MhgFx/eN+SC+aHQdEREREZDi+tTQDIiKiLCoA7geuodmkU9i/YnCyAVsAiHh0E/tl4QAAE6v2qFHZWNpFiTmq9B+CAbbfo1iRfNksYKupCHi47YVt5zVwOzg1hUAhEB30ABcvfoz7zxX1qiffFwCsmw/CkC7Fka90EXz/zQUKtcX9QEREREQUj0FbIiKiLEDudQwb73bBzAlNU605++LeFbyPu5CmXPvKsM6RWpCqBGydzeFYxkba8E2ICb2Cg2usMW/OABQ3SXlbffH2xMH/IgEAFo61YFcitVOpQrBxMIdN2aKp7rdvHfcDEREREVGi1M5wiYiIyADcufAvqswajhoqdWnVCcadK3cT/qtbr4qGQapiKFXCQrowXcSGhUImk6V4i4iW3iv9BF85gydDxqCdXUoZyQqPbp9M+Ltih1oop2HW5rcaENcG9wMRERERUaLUvvkRERFRpvOG244S6NG2tLQhCSF/imuHguL+c0RV+yKSHurI8TXUBiULp89pgYgOhuehtRjarT5K5syBnHktYGlpmeKt+YIb0tWkk1B4nL6Gfl0ba1AaIgC3L75O+K9B5QoqrepFIBvg3gwAAC/aSURBVPxLThQukjEB8ayL+4GIiIiISFn6fDsjIiIivZF7XcKlet1Qv1BOaVMS2tWzjfcefo/tUKqIvk8LQnF3zyQ0KFUcNToMxcaL71Ft0G9Ys+Mo3M+5p3DzwNZh1aUrSxcxobdw5mkPtHRKfTtJ66g6O+WT9FAnCG9f/oCyxfW9bbMX7gciIiIiIlU8cyUiIjJwdy4cQ/OWtTXIQNSlni0QFeiHV3XLIz9S76upmNAHmN2hOqr8OBdv7IZhx9XX+PLuMQ6umYshPdqgcaPGKdxqo6RlxpyiBF85g6gujVFMg8vrta+jCgDv4Xu7bDoExLMX7gciIiIiIlU8cyUiIjJwNfvtwqgmmlSm1a2erUmxNtiwuisKpB4v00jMx8uY0KYhphyKRN+/buDu+b/Qo1YxjYLOGa1wkz+wtreddLFautVRrYoptyZo2Pfbxf1ARERERKSKQVsiIiIDlyOPuUYBT93q2QJALpjn0U8wS8gfYFr7jlh6pQwmHzqLTaOdNQocZxYjU3PkSv2KfB3rqCqYWZhJF5EE9wMRERERkSoGbYmIiLIJ3erZ6lMEri6fgDlXPqD32q2Y1a6stEOWpVsdVdI37gciIiIi+lYwaEtERJRN6FLPVp+iAo9h7nR3FKgxD78P0uxS96xCtzqqpG/cD0RERET0reCZLhERUbagWz1bfbp5YC1OhEeh76/9sl3tUN3qqJK+cT8QERER0beCQVsiIqJsQPd6tvoSgFunHwIYhc4tC0gbszjd66hmpij/sxjpYgvHn3bjgyIBO4vLmvuBiIiIiEgXDNoSERFlA5ldzzYm9BnueYTAtrMTbM2y1+lFVq2j6rlnEla6+yLggR8+IutHbbPqfiAiIiIi0oWREHHF74iIiCjLeripExz6HwQAOAz+F1fXts/Q8ghRgQfQvmx3eDXojzGNy0ibtWbjMhgdnfJIF+sgGBt6VMfGcltxbVoDaaNGQtynIZ/LTACAheM8XL87MUtclh/lfwlr9z5FlR97oE6J3NLmLCer7gfDkPbjgIiIiIgyFoO2REREWV4wtvWriZ83+wIAhmz3x5qeJaWd0lV80PZEeJS0SQdW6L7yDHYOryRt0EHag1UeC51Rd+JNAEC96RdwScf1UNpwP6RF2o8DIiIiIspY2ev6RSIiom9Q5tezTeQw+F98FgIiTbd3egrY6gPrqBoG7gciIiIi+rYwaEtERJTFyb08M7WeLQCYFCsHx6K54XPoHt5ko4t4ogJv4vT5D3H/sY5qZuF+ICIiIqJvDYO2REREWdxLbw+8jwuUlmtfGdY5MqPOZ1nU7m6LqKBDuHw3WtqYZYU98Uoo+WDhWAt2JbQ/dQq+vQ8rFi3B2p1X8CFKOaAdiqcX9mDFoiVYsmgJthy8JWkH/gu8j31b/sSSRUuwdMV23H71VaVdSkQH49LuNViyaAm2n0vMTJWK+eiFbSuXKtb5Nlal7eOLi9i2cimWLFqCvzbth7ekPTNktf2gTESH4kHc+tVt75TEfPTBkbjHlT6vVzf26rROIiIiIsoatD/jJSIiIgMSjGtutxL+q1uvSoZOQJYoF+q4dEZBIy9s3OmOCGlzFnXnxomEvyt2qKX1xFch7tMw9Nj36DqwKb7s7gr7egvgIwS++OzH4Nb9cOZTabQb0B/9fqqH15vbomz133DvSyyAUByf0RmjN3rBpkFv9B/YC7VyX0TLUrYYveeV9GEAALFhtzC1y+94WbIpfm5mji2tbNBjlZe0G2LDrmBMt39RulNf1PzuGKoVrYUNd6IQG/YUqwY2wrgDwXBs3Qf9B3ZCCd+/UbFoFSy+9EW6mgyVlfaDMr/Ts9GglBOWeJqhea9+6N3WDhd+b4wFx90xuV5BFGu6BoHJZKY/2jMKncafwv9qdEP/gZ2Q9+4fcc8rHOcWdsFkd3O0G9AfP9UXmN+0GlZezdx9RERERER6JoiIiCjLig2/LIZa5hYABOAo1t+OlHbJQEFiffeSAnAWKzw+SxszieI51Zx+QdqgAX+xrFWRuG0LMflQsLRDKh6IWe1niMeRsUIIIdzmVBQAxLhlK0T/vlvEq6+K5fHeHJsgAIiBG86IbQPbiWVu0se7Jcbk/58ApgqvGNX7CiEXR39rnbD/48dFnnJzxZNY1b5XlnQRK28o+n29sUQAEA6D/xJL+g8Qu+5/UOkbLXMTfc1NhXX7zeK1ZD3J+RryVboojbLSfognF7c3DBAFjazE8C0+Ki0xXy6LodZ5BABh23mzeK9mFS/3DxYdp18UykdRpN9+0crMRJhYFRYdp18UciGEEA/EzHoFBQDRYPZ1pd5SaTkOiIiIiCgzMNOWiIgoCzOEeraJCqH3vKVoZXYXE38eiVO+MdIOWUpa66jKvS7hcc0WKG9iBCAUIe/kAIB/dn7A8CU/obiZaraohaUFAGD9gJ9wvc5CjGpSUKUdAMxy5ABwD75+qpfDR77Yj53RI/FTFRNAaVwUqlgE+aH8ON44f74qXKorxonsvWICO+91O2Hy8zz8WCm/Ut9Efoce45P6hNAEMR8vY3xTW+S2zI3ybefj0Rf9XLKflfZDPN8Do9Fi4EaUHrsO83rbqbTlyFMXnfqUAgDUaFgFBSRJwzEf3bBgpz0W/VFPNWs+7tCOCmqOwQPrIJdSk4lVA/RqWUVpCRERERFldQzaEhERZWF3rpwwgHq2iUxKdcKSfWNg778NP3UfnqUDt+9vX05THdU7F47BqZZT3H/PcedEMABHTFw4Dk6WSdf18omizEXVwcsw/WfVQB8AxITK8C4yCkB5FCmuev9bx3egStvGcYG8CLgf3Y73QqBj5yYqQUG51yVcd6yZUF7g0f1zAIBmkxZiUP0CiR3jxHx4h2fhUSjqUgR5UhlaTw7/hSVuvgAAn2O/Y9He59IuOslK+wFxQdfZ47bhvWiGXwa1VlOuJAAvH30GYIUqFe2ljQi4sB95u3aErYnqBo8O9MdNeTSs29fED0XiH9cBk88F4L3feQyIC9gTERERUfaQ9EyTiIiIDI6Qh0ImkyXcnt+7gL0rh2H0xPMJfV5fP4V/T3jg6dsQpb6KLNyMVL71Qmw/NA6lbq+Ha60mmLbzJj5Hp5KmmYlEtFxl2wb63MDRXTPQe9iahD6y+xdw/F93ePl+0njb1hp2AuPrKwJpkS+e4PKrMBR16YNO9fJIuwIIxeN7DwAArdq2TJJ9CQCfb13C5lA5bDvbw0YS0FN+rJjQKzi44jGA3mhar6hKP9NKw3B0eoO4/wLw0CMQgCO6dKytkrkZ7/VtN1yJjIFNDSfYpFZH1lh1DZdOXcUHLXZ7dtgPAHD9n/nY5P8Vtp1/RJ2yOaXNiAl9hmun3wNohxqVk7bbdFqLRd1KSBcnTDj4Q00nFFPaF0bGpjA3Tfo8iIiIiChrY9CWiIgoC7i6vCksLS0TbmWdGqHbyDW4HZ14ebbs/jr0bl0X5YrmS+zXYi18k5noKD2Vb70Q154fxmCHAMzs6YwCxRthxMJtOHv3RapBtozmd3iMyrYtXr4mXHtMh1tgpFKv0xjXqSkcbfMn9CtU/hdc+qT+8ngAMFKqVJFa8FPIH+Dc9kAAvVGv+v+kzYDSZFwubWonCSYqP1bQxaPYHCpHzXE/okHRpEHB+L7xZQdMrJrD2UFdWY1QXHW7BABonJCpmjz7jtOxcnB1FDSyQtsxM9H6iz/eajH2ssN+ALzhvuceEFf6QDm4Gi/yoWdc0LcW7PNqeiqeOOFgg2qp7wsiIiIiyvo0PVMkIiKiTFRngieEEFrf3l//RW1wKiOYlGqDFW6P4Xd+HfpWDcKqiT+jWZUysLTMDSMjoxRvnZbdl64u3dh0Wptku2lyi3y3FvXzaXIqFYo7VzwAALWdkl4ODwARj25ivywcRV0qo0xBdeu8DfdNzwA0R5NattJGJQHYv3EfACt0cm2iNns23od7njgRHoXSLZxg813SMRLz8QpO7g4EMAhN1WalqsqRxw7D13oiOPYdjvzZAQVCpD1Slh32Q1SgD248UJQ+SO4x7t5SlKRQV882OUL+FHdOfQDQG5UrJg3EExEREVH2o+5slIiIiEhPcqFUw0FYd/wxYr68w4Nr53Bk52osXrg4hdsK9G9WRrqiLCy+jqor6jqpn+jrxb0reC8EStdVnwEacvE0Nrz8rHLJfcxHHzx49VWln9zrGNYffwcLxyFoU0uRYhob5g8vX9V+UKpnW79RFTV1V4Egj7PY+SUCNcd1gPP3ilPGmI8+ePY++azWRBEIs7FGETWvJfOk/36ICQrCg4hoAC1Qroy60+wA3Dr9UBLUDcUj70+SfqpSDiZH4IX3G0RIlhIRERFR1iY96yMiIiJKFznyWMGhZiO07T4U434dl8JtBFrZq780PSuSe93AUb8vsHCshXI26k69EuuoNlR76XsEPNz2J0wsFn/J/ZPD03H4kepEb7fdDsI7JhbthnZH+bh6q34npmP7nTCVfoA3PA77AnBE9Yo2kjYkk7EbgZN//YEbGgRt5V438Ka6vcaZpBkhI/ZDTisrVMxlDMAKhQskfYyY0Ge45xECoB0cHRRBX7nXDkzYrXhcAIgOuomD/3rgQ1RiaYmUgsmRL/ZjwrqbKsuIiIiIKOtLejZJRERERHrz5slNeMfE4oc2tVBOTfZm6nVUvXF13XMAvdGskWJiMSG/hd3/2qNzY+WyBfH1VJujVaPSccsCcHx/PnRqWkCpX+Jl/MnVs40OeoCL7h9gYtUbzWoq2mM+uuGgjysa2ad+ef5ttwto2Ehd4DPzZMR+MClWDjUqfg8AkEer3BlABC6sWoTNoXJYt3eCbV7Fc3hx6zIaNqsNAIgJdcfgGg3RqWNdTNn7Ku5+AXA/fB0AYG9dJGFtChE4s2EXWvZtlWIpDCIiIiLKehi0JSIiIko3GtRRfeqFy5/lyVz6DgC5YGrznVL2ZgTOLV2A78cMTcimVfgeFoVzAXCEfRlFYPXRjsXwbzcYNeLKG8RLrZ6tkakpzI1zoFgte+Q3AYAAbB6/ErV/66F2ci1lsWFXsNejMVo6JQ0GZ56M2g8OGDi1PwoaHcaFy4nZzSI6GAen98Ah06bokTcXAFMAQGzYLWy9WBMdE0pZyPAuOAq5S/dGu9rFAACP9syBd51f0K9Ubvi9Vi4UHIqrywfgfPmlGFDFRGk5EREREWUH6s5IiYiIiEgvgvHyfihMrAbDpZb6Oqpvn3nBOyYWNVrUTnLpu4IDBi38BfWKnsHSSYsxultTnCw1B6OaFJT0K4mfJ41DvaJHMW/iYvw22BXLP/bCtJ52kn7AG39FXdWObeuorWeb07wJft04CDFHdmPJoqkY3G4YvvbaqkFwMALnl/wFu4m9Ug3uZqyM2w9FWi/AxX874+jPTTF0yiIsnDYKrZqNRlD9ZVgxdhwmbx6MmCN/YfIfi/FL/xko3r8nbOOCvibF2mDc9Jao4GSJh/v/UuzDoP5YMmE8/jy8HN9t64TOvyzEkkUT0K1JD5wtNhVzeyfdv0RERESU9RkJIRILZhERERFlK8HY0KM6NpbbimvTGkgbM0RsWCg+R38HCwszaVOcCMhk4TCzsEjxEnchD0WoXMDI2BzmedQFFRXi+wG5kn1MES1HaJg81cdUPHcBI1NzmJsm/5jxHu0ZjKnP+2HHpBoprjczZPh+iNvGAJKsM7V1xG/3pPtQ8RwBwCyPBXJpnMyc+ccBEREREWmHmbZERERE6ShHHvMUAoWIC8ylHCgEACNTc1hYWKgN8imL75fSYxoZm2r0mIrnbqFRwBYIxifzUQYZsEVm7Ie4baxunamtI367J32+iudoYaFNwJaIiIiIsiJm2hIREVE2psgwHO1ZBLVsEyeXqj98C6a2K6HSkyg7ubqqA6Ye/pzw/2vvi7Ac7M5MWyIiIqIsgpm2RERElK1ZFKuoErAl+hYVd2iAUkkyd4mIiIjIUDHTloiIiIiIiIiIiMiAMNOWiIiIiIiIiIiIyIAwaEtERERERERERERkQBi0JSIiIiIiIiIiIjIgDNoSERERERERERERGRAGbYmIiIiIiIiIiIgMCIO2RERERERERERERAaEQVsiIiIiIiIiIiIiA8KgLREREREREREREZEBYdCWiIiIiIiIiIiIyIAwaEtERERERERERERkQBi0JSIiIiIiIiIiIjIgDNoSERERERERERERGRAGbYmIiIiIiIiIiIgMCIO2RERERERERERERAaEQVsiIiIiIiIiIiIiA8KgLREREREREREREZEBYdCWiIiIiIiIiIiIyIAwaEtERERERERERERkQBi0JSIiIiIiIiIiIjIgDNoSERERERERERERGRAGbYmIiIiIiIiIiIgMCIO2RERERERERERERAbESAghpAuJiIjIkAXg5KrV2HPkFl7r6WO8QOkaGDR2FhqXzSltyua4LYmIiIiIyPAwaEtERJTlhOLG7l248uo/ADJ4ndqOref84tqs0GnMWNQqmnLAMPqDD06ePIGLDwITlq3wiMSI2iYq/bI/bksiIiIiIjI8DNoSERFlcS/39kXpblsAAEVdVsPzzBAUMzKSdlPL7/RsdG4zDbej62GPjxu62hlLu2gkJtQdgxz74EGtAZg2YQRaO+WXdskSDGFbEhERERERsaYtERFRlhaBR3evJ/xXtUVVjYOMAGDdfDKWLWgEwAoWeTS/n1RO87Jo1b063u2dgTZVCsCh5S/YeS0x8zRrMIxtSURERERExKAtERFRluaNq/veJvxXv7qTSqsmqtRtBaA8ihROy2lBSXSadxC+wY9xcHFfRN9fgZ61i6NMo77YdO41IqTdDZKhbEsiIiIiIvrW8RsFERFRFhb54gkuvwqL+28QnB1Srr+qjpGpKWq2t0E+PSSH5sxfDh3GbcLjl29wYuUwFH26A/2blEC+Mu2x9OAtfI423KpMhrYtiYiIiIjo28WgLRERURb2+rYbrkTGAACs29dCaUvto4U5/mcOizymyAXt75scI9NCaDl8FS76v8eNfxegsfEZjOtUHUXKt8SUTZfxIcrwgreGui2JiIiIiOjbw6AtERFRlqVag7Vi3Qpa1WD9f3v3Ht9j3cdx/D22HAobZozJ1oY5zVYbc8ipnGJDDrcSIclNEYVKiLtEqZsScqsoN+UUDR1MTnMmYw7DuI3R5rQfy8773X+Mbb9rm6IdfpvX8/H4PXrs+n6u33X59seu673v9bluS70SrVj3aqp897v+KRvbCvLrNlY/HL+o4xtmqfODR/SvwY/L2aWeXpyxVpHX0oy7FBLrn0sAAAAA9w9CWwAAiqyTd9GDNUYbf9ifY2/Z+NgYNapVzbg5j1VQnY6vaHnoKUXuWqSXHpMWjAvUwxXd1H/KdzpyqbDD26I0lwAAAACKO0JbAACKqKSI0L/cgzUp4hf9e/15JRkHJFVs/77mD6ht3JxPSsmlSX/NDjqmmINr9Hafh/T1pD5qUMVNPYbNUsi5m8YdCkTRnEsAAAAAxRWhLQAARVTUwW0ZPVjdevqrnkPuv9ZPhqxThcZ1Vc44UIgcvQI0ZVmY4s5v0cyhnto+/1W1qOkmv77TtenkVWN5virqcwkAAACgeMn9jgQAAFixRB3ZtyXjp/pN6+XaRzUtbrvmTApXG18345BVeLD64xo9b4MuXNytz8b56/fv3lC72pXUuNc7WvfbFWN5Pig+cwkAAACgeCC0BQCgSMrag9VJ7f2z92A1J5h0PnS5Rnbrr7n/e0JNGtsaS6yKrZOvhr2/WmdijmnVhwOVEDJVXXwqy73NQH257bKxPA8Vv7kEAAAAULTZmM1ms3EjAACwbkkRS9Su3oCMR/r/TIOhq7VjXrci9Uh/zO45eqbVKAUnpsjOaay2n54mv7J5//fm+2EuAQAAABQteX/nAwAA8p1lD9a5Onn1mq5dy/o5o72/rtbMwa0lSc386xWRkDFRZzd/rgHtXOXUdISCE6vruXcWa+dv+RPYqhjN5fXQhepat6wC392tROMgAAAAgCIlf+5+AABAPjL2YPWRu4O97O2zfmrpsdbd9OqnUzXMwVu+DV0tvsH6mBT+42z18nJXrTZDtfRIaQ2ZvkZnr57W4onP6dFq+XXJUlzmMkZrZr2roPB4nTh5RknGYQAAAABFSn7dAQEAgHzz5z1Yb7MpXUal7QOttgerOSVGW5dNV9e61VS300it/6O+JizcqqgzR/X52ADVdMjvS5XiMpdVFDhyumbOXq4VH/S2ypXAAAAAAP66/L4TAgAAeSwpIlTbzsXd+ilQjeqWNFRkSoo4rhMdGqtWCRvjUKEyJ8Row5zhavVwDbXqO16bUtpr5sq9unh8g6YOainHMgVzvsVhLm8r79VLo1/uqfqOXN4BAAAARR1X9QAAFDGWPVj9Ve8Oq1FTr8SqSZdmVrPyMtV0VqtnDpKnm7M6j/hMF2o/q4XB53T11Pca3eMxlbct2EC0KM8lAAAAgOIr9zsTAABghYw9WOup8h1yzjJ+w/X2U47GzQUuJXqv5o7vLteKrurx2pey9XpZS3ac16lfv9SgtjVUyrhDgSiacwkAAACg+LMxm81m40YAAGCtwvSmewtNizBJctInIec0opmdschq/BG1VfOnTtP7n/+kS+Yq8v3Hq3p/yhC19ahoLC0E+TGXiQr/camCDl+RY/0Ade/skbEy15wSo71B67Tt5FVJpVTz0Y7q2NbdYuXu5fAt2vDLfsXEm1WyUh091bWzPO7Q7iDVdFbrVq/SyUt28uzYV50bVjKWSJJi9i/Xt5siZVe9iXr2aq7KdrfTaZNObP5RP+09ryRJlR5ppS5dH80yDgAAAKAw5H4XAAAArM7d9GAtTJdC12pSv0fl6tJaY+b/Jt/BH2t75GntWTrOSgLb/JnLI1+8qE+ifTTouUbaNdxHbV76XjckRe+YqR4B03SivJ/6DRmsAQEP6+exj6lxr68UZTYrLe6E5rzUTVN+uq4mTw/U4CFPy+XMbNWu4q85e26fo6Xks0F6of882Tbpo6frRet5L0dNXHfdWKZrwZM0LKi8eg95UjeW9ZZny+kKN5t1I/wb9W8+UD9ffUSBLwzW870a6fDHHeThO14Hb6QZvwYAAABAASK0BQCgCLmbHqyF4dzuxXqli6eqNA7UlCVX1HHyMoXFXNC6BSPV3KWssbxQ5fVcpl7ZqLn7Omty/0ZyqOolH/+K2j9/muZ89p5e39hAi9Z+pH5t68vJ3l6V63TVwP6+Or1ioL5eu0OT+k5XjdFLNPuVrqpdzUH29rUU8MJQdS7zmz76YIUuZ3suKlLzXt+gvnP/pc6eznKuW1d17Epo+fL1umFRF6Y5/y6pd99sLyf7RvJpWlmXd7+hBZ/M0avT/9DEoBUa0eMx1XSwV6VaT+q18S8oNnSG5q46ZfEtAAAAAArW37s7AQAABejuerAWJHPCYU1t766aTQdo3j5pyPQ1Onv1tBZP7K36d3i8v/Dk/VxGhwSpbLs2t74nRhci/pC0R0t3Vtd7b7TP9pI1+0rVJUlvdButKq9PV2DtBy3GZZv+n9MrjumioZvVtS3f6FC7V9TeOX118Pn9G7U9KVWOrtUs2i0kHNqqYy06qq6djSSTrv2eIEla9N/LGj5ziNxzCaoPnrxo3AQAAACgAOV8pQ4AAKxQmHYszwzTHvf1thgtbCUqeWvCwq26cO6oPh8boJq5BILWIa/n0qQdG39XC+/0nrLJUeHaffi6pABNfaefamTrEZuo02G7JUmB78/Wy49XNoxLqVeiFZmUqlrdXFXRYneTglceUtcn3W/9HKmgJT9L8lKfTs2yFurA5iB5+9/+t53SgfUxkrw0bsYYeefw/+dqdPoK20eqORiHAAAAABSg7FfrAADASiQqNjZWsbGxigrfos9Gjb310qx0+35drT3HLmTUxMbGW+xdkGxKN9RbS5dr6qCWVvoSq/yeywp6+qNlCnBLX/kad/yQ1scnq9HwQepwa5ulkzqw6ZKkVurZ9VHjoCQpYl+wwlLT5NLYU9Vtss6p5bESDgVpwbrfZe/VTe28by3PvcX/n+v12uPpL1dLijiubefiZO/1D3Vt+ZBFXboY7dy4T5KTfBp6GgcBAAAAFCBCWwAArNSZlSPl4OAgBwcH1X5qnFYdldo92Tbjczlkvvq3q5lR49l9vs4YHqNHuoKYS5sseemB3eslSU19PVUqc3OGpIhQ/XIwVvZeHeXrmVOomxmgBrSxXD0rw7H2b1ylsNQ0BQ7re6sNQqasdbdbKNTv4q86FiFwutQre/VrULSkQDVpnNM5AQAAACgoNmbzXd6RAAAA4A7CNKVJa03aU0ML9u/VCz7pK12zOrPyJbn1nK9Gw7/Xnk8DswW7yVEr1c2jr34pP0zbTnysJuVz/ju7OWG7xtTrrI/PtNGaiFUZq2+zM2nFK77q9clJvb4iWjOermIs0IW1o1Q9cFau5wQAAACg4OR8BwAAAIB7crufrZ1TB/k1sGxXkC7zJWjN/L1zDEdPBK/U+vhk+b3QIyOw/SMqVCcvpVnUXfx5hT4+c0N1B/RVM9f0wDb1Sni2usx+tgEZfXctmbQp6AdJTurVtW3GOV06ckw3DJUAAAAA8h+hLQAAQB66fHCP1scn65GO3nJ9IHsbgqz9bJt7OxsHJUUqeOUWSV7qG3C7NUKifv10in67ljWMzQxan+37lCrfOtTm+SO15Vxqljop4dBu/fC/G7L38lcd1+yXf0kRQfpqcaTsnAYooE16v1tzwnbNGPezLvNQFgAAAFDgsl+1AwAA3IO0OFOWF3nl7ceUUHSCw6OhmyRJj7fxUTnj4F/oZ5sctVc//XJJ9l7/0BO+6St1k6OCtPj33mrrkblyN9W0T5u+uyA7pz560v9BSVJa3Hat3d9NnQwvJLtwfK/CUtNy7WcbdXCbghNT5PdCZzW6FTRf/HmFrvfqJNcc6gEAAADkL0JbAADwt6VEr1OvqlUyXuSV1x/HWuO156bxkX9rFKaQNWckecm3oatxUJJ05fghbU9KVc0WnqqVQyBa4iF7OT1QUvauVZW+5jVSiyZ8r15v98xYTStJJUqVkn1FO1X391aNcjaSTPp19lx5jHlW1S2+16QD20MkSc28PbNsz1S6dAVJUn2PapKk5LMr9eqsqnr1GQ9DJQAAAICCwIvIAABAnjgfulknruZPsFquRmP5elQ0brY6aXHBeqFGF/1Qd5K2bRununbZQ9mQGX5qMS5SE74/rKmBjsZhSYk6uuR1dex/Qj2n+erqlgPyGf2VXmmXvfbYypHq0DtUXSZ10QPhW+TQ4yNNetoYtJ7UjFYtNCG8u4IOzFF75+yre6VIffNioN4411Qv+9lp62+V9NbCt+XvyN/3AQAAgMJAaAsAAJCH4mNjlWRbQRUeyh7YSpI5JUGmOLPs7csYhyykxZl0PcUsm9IVVKF0zt+lrHV3OGZ6zQN/esz42FglSipjb5/jC9IAAAAAFAxCWwAAAAAAAACwIjzzBgAAAAAAAABWhNAWAAAAAAAAAKwIoS0AAAAAAAAAWBFCWwAAAAAAAACwIoS2AAAAAAAAAGBFCG0BAAAAAAAAwIoQ2gIAAAAAAACAFSG0BQAAAAAAAAArQmgLAAAAAAAAAFaE0BYAAAAAAAAArAihLQAAAAAAAABYEUJbAAAAAAAAALAihLYAAAAAAAAAYEUIbQEAAAAAAADAihDaAgAAAAAAAIAVIbQFAAAAAAAAACtCaAsAAAAAAAAAVoTQFgAAAAAAAACsCKEtAAAAAAAAAFgRQlsAAAAAAAAAsCKEtgAAAAAAAABgRQhtAQAAAAAAAMCKENoCAAAAAAAAgBUhtAUAAAAAAAAAK0JoCwAAAAAAAABWhNAWAAAAAAAAAKwIoS0AAPjbUk3BGlzLRX5939G6364YhwEAAAAAd4HQFgAA/G0lK3ioc19f/f7dO+riU1kNOr2q/+6MMpYBAAAAAP4CQlsAAJAHaurpaat0JuaYVn04UCmhn+jZZjXk3magvth0XonGcgAAAABArghtAQBAnilZqY66j/lCx05f0PpP/ynnE0s0uJ2LKrp300er9ul6itm4CwAAAADAwMZsNnP3BAAA8oU5xaS9QfM1dfxkBYXHq+wjHTT6zbc08rkWqmxnYywHAAAAABDaAgCAgmFS+I+LNGHcB1px6LzsnOrq+dHTNWFIF9V04MEfAAAAAMiKuyQAAFAAKqhOx1e0PPSUInct0kuPSQvGBerhim7qP+U7HbmUZtwBAAAAAO5bhLYAAFiBuLOh2rzrqGLiivsDMKXk0qS/ZgcdU8zBNXq7z0P6elIfNajiph7DZink3E3jDvni/plvAAAAAEURoS0AAIUoLe6wPuzbSi9++rP2bJilzg5uGrPohBKNhRYi9c2wJvLu9L6OxRfd0NHRK0BTloUp7vwWzRzqqe3zX1WLmm7y6ztdm05eNZbnift5vgEAAAAUHfS0BQCgkJgTDuvtgGnym/e1AtxKSorRf57x1ZClVbUoNET9G9kad5EkXQuepIpPTJHUSt+Gb1Tv2jnXFTUp0Xu14OP3NO2DNTqXZpZXz8l6980Resq7krH0njDfAAAAAIoKVtoCAFAoErVj9tuyGT7rVoAoSQm6aUqWtEc7D18w1Gc6sHu9JMnOqbW8PG7vW/TZOvlq2PurdSbmmFZ9OFAJIVPVxaey3NsM1JfbLhvL7xLzDQAAAKDoILQFAKAQpF7ZqHnfNVW/gMpZth3W7m3pbQEesLXJUp1VmELWnJEk1enWWM42udUVXSUr1VH3MV9o6+pZalfKVhGbv9LQXh9oz817f1kZ8w0AAACgKCG0BQCgEBxft0S2w3qoTpYQMDrkF/33RqKkDmruXc2i/rbkqHDtPnxdktSipY/KGQtykRK9Ua896aaBC08Yh6xMos5u/lwD2rnKqekIBSdW13PvLNbO36bJr+y9X7Yw3wAAAACKknu/+wEAAPcoRgc231Snlm5ZtkVqxcLlkqS6A55Xp1z6pl4+uEfr45MltVIbX2fjcIa0OJOiwncreMMyvT88UG7O7TVz4xklpVhrK3uTwn+crV5e7qrVZqiWHimtIdPX6OzV01o88Tk9Wu3vXLIw3wAAAACKlr9zBwQAAO5JFT33xfcWL7RKitimtT/FSJK6dm2b64rOo6GbpFv9VT3dc++vuvvbKfp8zXadvPaQ2o6YrNf71DCWWAVzSoy2LpuurnWrqW6nkVr/R31NWLhVUWeO6vOxAarpkBeXKsw3AAAAgKIlL+6EAADA33RyyyoFJ6ZIelFd2mT2XbWU2V+1Yb+mql0i9/6q/oNn6p2xY/TSM13k51ldZZR7bWEwJ8Row5zhavVwDbXqO16bUtpr5sq9unh8g6YOainHMvl7vvfbfAMAAAAoWghtAQAodJEKXrlTktRgaCd5V8z513PW/qp+3vVUylhQBKSazmr1zEHydHNW5xGf6ULtZ7Uw+Jyunvpeo3s8pvK5vhAsL90/8w0AAACgaMr5LgUAABSYpIhtWr4x/VH9bp2a5/qo/l/tr2qNUqL3au747nKt6Koer30pW6+XtWTHeZ369UsNalujQAPR+2G+AQAAABRthLYAABSyqIPbtD0pVVKA/LwrGoczZO2v6uWRe39Va/JH1FZ99FInOVdron9O36mqvacp+MQVhW34WM/4VzeWF4jiPN8AAAAAigdCWwAACtnp8B2SJDsnb9V2ye1Xc6SOhERJt/qr1rLJbCMQ/N7jWrAnOUtt4bsUulaT+j0qV5fWGjP/N/kO/ljbI09rz9JxauuRe1BaEIrjfAMAAAAoXnK7UwEAAAUiUfE30gNAl5a1VCmXF1glR+3VT79elrL1Vw1TyJpH5dXAOlaCntu9WK908VSVxoGasuSKOk5eprCYC1q3YKSau5Q1lheC4jXfAAAAAIonQlsAAApVKZUpZ2fcmM2l/dtu9Vd1UgOPahnbkyJCddCntTzLFu6vdHPCYU1t766aTQdo3j5pyPQ1Onv1tBZP7K36joV7bpaKx3zfq7Q4k0xxZuNmAAAAAFamaN5xAABQjLi6PypJSkuREpU9UEs+u1KvjF0pRxsbSU1Us2rmr++TIevk/oR/ri/TKkglKnlrwsKtunDuqD4fG6CaDtZ5mVFc5vtupV7ZqCENnOXoPkrbrqcZhwEAAABYEeu8mwIA4D5Sq/NwvdWisv73/TKFnEy1GEuJ3qg3Xlip/ut/0Ajf9F6w5pT0sbS47Zr7eR0929nRYp/CYFO6od5aulxTB7VUZbucWw5Yi+Iw3/eixINOqv/EMxo/o5/8ynMJCAAAAFizkpMnT55s3AgAAAqOzQPOatnOW9cOL9LkOVuU8JCtzL8f0nf/fksTl9vqtS9mqnWNavJ53FmRGz/Rt4fsVLXcSc0dt0B1psxUgFtmx9Wc/aEDKxfohzCTGnYZoacfq2wsuK/cr/NtY+sk/4AAtfGqLlvjIAAAAACrYmM2m7M/FwgAAArFzcvhOng4SgkqLZcG3vJwLGMxbk5JUETYLkVeK6+GTb3lWOavrGqN0X+e8dWQpZF6Zt5xLRlax1hw32K+AQAAAFgjQlsAAIo9QsSCdXfzbU6J0f7tYYorXVU+j3mqvG16MPxHVKh2n7giSXJ0b6qGLmUz9rnTmNHt779utlejFt45tq+4l3MAAAAAkH9oaAYAAFBowvSvzoO0I7WUDs/uqMo1RmnXtf9pyes9NHLhIaXaPyyXshF6p3klNR+1RtdTzmaM2VWtK5eyRzW+jr0C392qRONXS0o+G6SBgeN1KK2KLq79h5xdRmnPTeNLyO7uHG4Y9gYAAACQ9whtAQBAnkiLMyk2NjZfPqaE4vlg0IW1/9G+Vm9raLvmqtfAXsnRs9W93vM63mK6/jPxOT3p/Yg8mgSqY4sq2jFrkjq2HJgx1tLTWR5Neqt7t2paO2GJ9lw3hrExWvTGArWYOluD2jZQVfsHlBy9RYeOW7587e7OYbV2xVjuDwAAACDvEdoCAFDMpZrO6vfY9HWYYYcP6npK3gegKdHr1KtqFTk4OOTLx7HW+BxWiFqnvz7fJu3YeFjtn6yvUorRhVNxkqS2o2ZoQqBHlroEmVPNkn6XW8/3s43dNCVLkswpWTZLSji0Qv8t2VfdvB+SOWG71i2KlL1XazVwLZml6m7PAQAAAEBBoKctAADF0OnvBuqRPl8ZN2cz9cfrmtChnHHzPTkfulknruZPsFquRmP5elQ0brYa9zrf5oQE2ZQuLXPCdg137qClNYdo/S8fyd8x8+/qmWMj9Ou2aWpcLnMs1RSsIQ930S/+H2vX+qGqbpO1X22iEhIeUOnSNrqwdpSqB85SwL926bu3mqhUlqq/cg63j/ND3UnavnOc6lgcBwAAAEBeI7QFAAAoZAmHPpOvz8tyGrVeqz/soKwxevyej/Rw09fUaPSGbGO3w9juH+7WqjF+WUayitTsQH+NXNtQy44EqU89W2OB9CfncC14kio+MSXH0BcAAABA3qM9AgAAQCGL2BessNQ0eXh7WoSlknQ6LESXzFXk39LHMGbSpqAfJHVQn04+kqRLRw7qUrzl3+OTIrZp7U8xatTvebXztJU5IUYHw65a1OiO52DSum+/keR3q42CdDk8+3EAAAAA5B1CWwAAgEJl0rGDhyV1UBtfZ8NYjHZu3CepsRp6OliMJEUE6avFkarRsZv8PEtKCtO8YTN04JJli4q9a75UcGJ99erXTpVtpIs/v6fXvtqrGxZVuZ9DctRGLf3mnGp0HKjOvg9KCtPcIdmPAwAAACDvENoCAAAUInPCYW36Jkr2Xk1VxyXrS8Ikc8IJHfjxsuy9WsvLw3Is9Uq0ghNT5P2Ej1xtbHR0yYc6/tQota6ZtS5Gp8NOS2qsJt4VlRa3T599ekpDBrWzWE17p3NIiTqr9fHJmcf59hMdbPeS4TgAAAAA8hKhLQAAQCFKjjqrEzeT1Kyjv9zKWL7gK/HoIQWZ4tWso7ecDS//Kt3oSX3Q3UM7l8/Vm6P7aOK+tpryT19Dv9kq6vrSCLV0/lnzp03U4Gc/ksuEr7L1tb3TOZTx66mvhzTWzuVz9dbY/pq4q7lmjG5JX1sAAAAgH/EiMgAAgEIWHxurEg/Zq1QO7wiLj41VCXv7XEPS+NhYJaqU7O3LGIcymFMSZIpLUJlcjqE/OQf9xeMAAAAAyBuEtgAAAAAAAABgRWiPAAAAAAAAAABWhNAWAAAAAAAAAKwIoS0AAAAAAAAAWBFCWwAAAAAAAACwIoS2AAAAAAAAAGBFCG0BAAAAAAAAwIoQ2gIAAAAAAACAFSG0BQAAAAAAAAArQmgLAAAAAAAAAFbk//IafbRYA+jXAAAAAElFTkSuQmCC;" vertex="1" parent="1">
          <mxGeometry x="-11.65" y="365.78000000000003" width="513.3" height="198.44" as="geometry" />
        </mxCell>
        <mxCell id="2dmJKJk6RMaou3IX4uly-4" value="" style="shape=image;verticalLabelPosition=bottom;labelBackgroundColor=default;verticalAlign=top;aspect=fixed;imageAspect=0;image=data:image/png,iVBORw0KGgoAAAANSUhEUgAAA20AAAITCAYAAACUrfTPAAAAAXNSR0IArs4c6QAAAARnQU1BAACxjwv8YQUAAAAJcEhZcwAAFiUAABYlAUlSJPAAAP+lSURBVHhe7N11WFTZGwfw74AIuCpgERaYqAgmdgGKid26dvxs11rXzrXXbtduXAsbVFQMUBREBItQVEKZUZQhz++P6TvBDOWg7+d55nngnjMzd26e957iMcYYCCGEEEIIIYToJQPuAkIIIYQQQggh+oOCNkIIIYQQQgjRYxS0EUIIIYQQQogeo6CNEEIIIYQQQvQYBW2EEEIIIYQQoscoaCOEEEIIIYQQPUZBGyGEEEIIIYToMQraCCGEEEIIIUSPUdBGCCGEEEIIIXqMgjZCCCGEEEII0WMUtBFCCCGEEEKIHqOgjRBCCCGEEEL0GI8xxrgL9UHGp3D4XLuOp2+/i5cYo0L9NnBvWRPFC/Gk+TKTnuLoSQE8hjVHMelSQrSRAj4/GQDAMzGDmYnsuMoPTCjAsyf38PhhKOKSJaehMcrVagKXNvVQ2lR5fb4EnYTnpyYY7lKOm/RTy0wS4Es6A2AMc3NTbjIhKuX/cSO7ppgWNYdxIW46IYQQkj16V9OWIXiKtYPrw7p0K8w9+wIlKzuhboO6qFbOEHcPj4ODcWPMPvwUKQCAFFxc9jvmnnuFL/oZexI9kx7rjUE1ioLH44HHM4GFhQUsLCww8/hLbtY8Ex90DgsG1YdlEQvUbjIUa049Rbz0+E3BkwuL0aKyDTymHsCrxEzp+5jwKVZNGIcd119Ll/284nByXD3xfuLBsJg5LCwsUHfYccTQua4kPdYbk9q7wa2dq4rXcJx9kc59i86EwXvQXemzJa+puPk+g/uWH+LuxtYoY2CgcNxYWCzE08y8OW6EgVthb1NI6Zqy6W4aNyshhBCSfUyPCJ5sYW5lC7NSjcawiy+SuMmMMcbSPt5iS/s5MMdB+9jLh5tZ/UIGzLbbXvYuM5OblRAlmcmxLOCGD/O+uJeNbGbOADAAbPS+cG7WXJfOD2ebRzoxAMzIshWbuOEKi/r8nZuNMcZYZlosu7n3D1a/kDvb+SCeMcaY34YODABznnOTm/0nJGTRD28wn+sX2ZZpHVhpHo8BoHNdjczkWBb4+DV7F3afXf1vPetc3VR6bANg9aZdYkLum3QiZOf/tFf4zCKVu7JNp66xB6Ex7OXjeyz6i37sl/iwm8znug87+ndP6XEDzGTBGXmzfukJYcznuo/Sdl/tm8rNSgghhGSb3gRtqZGerGd5E2Zk2YedfZ3OTebgs/Nz20pvjj+iIJfxlc/4yfn7nQXJ98REJkzjLtUvn73n51vQ9iXsIBto/xsDwKp3Xsj83md1jIt8CTvIepavy+bsWMs6mhr9gKBNyBITVQeW+ecpW+Rc8oed67khMy05X7fje6+ZzMatA3MrW1h8jE9iD75lcLNpLT3Biw2qP5QN7VFGes7M8xJws+mZKLaho3WeB23yYs5OpqCNEEJIntCT5pECnF27CKfeCjFs5RJ4VDLkZuAwQ+cl67C4RWluQr65sbFFvjapK1jicHick943Dypq74iOpkbcxbmO778OnVyG43DYNzgO2gfvE/PR1DqrY1ykWPVB2O05CJfHz8DF5PzfnmkxXhhok3dNy7RTBjaVf+MuLFCEgVvztWmniYkJChf1wIgpzcRLNuLw+RhOLu2FXTgMw1H90czYRLqseLH86COWExVQq1kp7sI8ZWFVgbuIEEIIyRV6EbSlxXhj7+4wAB7o1KIyN1kNB0xY8D+U5ikP1pD34hARIuAuJFJv8cY7kbvwl5QWdQoje83B7fdpMLKchE0bBqOcigFGNDF3/gP7d/ThLs4X6TFRuCgaV4HkwIfIp9xFeSrxUzQAEzTqNhyu4tEwPHd7ZTNojIbPqSIY0KUqN4EQQggh+UQvgraksGBxLYI97Gy1XyUL196Y0LAEd3E+eItnVz9xFxKxtKhIBCUJuYt/QdHYP/sPnHorBGCJeXvmomUJ7Y9veTUHTMNfP+BYj3gZzF1EsiHieQB3Ub4oXLkd+vWwAQC89z4Ov5e6DxYiDPbCpWq90cqmYNd2EkIIIQVZ9kqQuUz0VBgAwhD5TjZaXtYc4NqzEndhnhMGP4C3eFhnoiw+6PYPacqnbyJOLcdfx94CAMq1/xMD22W/qRbPpAEGTHDnLs5jAgT63uYuJDoLgd/Fj9yF+aQ0OvbrLv7bF3tOPuKkZ83P6yCauTWFMTeBEEIIIflGL4I2mXPwvveeu1CjSrXacBflsRR4n9yNkAxdgstfSTQ895zkLvwFheDgKk/pUP4d+3VEJSPdmkVyVW3WSdrULT+kvvbCvgOSByokuxJ9z2FzwGfu4nxj3a4XptqJZrG8Ovc/nfonMuEdXLzUHr1cinKTCCGEEJKP9CJos7FvCAdD0aoc+HsznnzVPiCyKF8RVtyFeUgYvAcLVwRxFxOxDxe2YOn5D9zFv5xEn5NY4C9pQqtLX031ClduAQ/X/Bp8R4BzG1bCJyXn83v92kKwed56uXn48h/PpDl6TnAW/7cKZ68lcXKo9+GqJz4N6gf7HD5wIIQQQkjO6EXQZuLYEr3rWwAA+EGr0HP4Rrz+ql0hx8RxHO6dHoqyWgxIkpkUhYc3r+P80SM4e/06/J+/hy5l0q/hhzCy70w8Stc+qORK5vPB5/MREx6Br9xEOSxdCL44b9RHzYN6ZCYJwOfzkfjxIwRC2XZjQgE+RYbhxYdE8WTkmqQgIfwBrt84gyNHL+D6jUBEJ+rWBPSjzzL0Hf1PrhRQvyeE4+6N6zh/9F8cv+gD38evddpX8pL5fMSEP0BwxGcIknK+bllLgZ/3Cel/5k5NUN0uN061CqjlrE2/tpzuSwEuLBqEcZtDuAk6Y+lCvHpyEz6XjuHYaR/cvB+KuHzZB7lLcjxeO70X+/7zxs37odJzLSnqGnwfKwdCmUkvsGXUIMy/Hc9Nynf13XpIH4wdPHgBCVrtAgGue0WiY5ucP3CQEG3HM9i16RAu37gO/+eftbg2acaEAvD5kQi8H4pYPj/Hnyc7fy7h8N7DuHzjOoIjvnMzEUIIIfkqN0qSucABg6Z1kf73xnMqalRtg0kbT+bKzTI99jaW9a+HxqPWI+RzJn6zskIRwQtsmdAMJka2GLrqKhLS1JViBPDdtwhjutZB5Rq/43DYN2nKzqHVwePxOK9ZnOZHcTg4vJI0vYiFBSwsLFDOfjsilZopheCvKubg8XgwMDKFhThvn83Kg0EIA/9BGQMD8Hg8GBYzh4WFBUpYj4Hv+0wAAtzdMhhtBi/Evwf/xTS3cijXeCyuR6gahECAx8fnoLVjNyw/+wKpKA4rKwNE+61B81K/oUqbKTj9VNOgK9E4vXYWfm9WDdZuc3H7vawv24xWhZW2j133fRpHsPsafh7z+zmgdONZuPvhO36zskUpXjx8VnaFiVEjzD78VGOwK5EheIGjy4bB3qYQGvafjZ1n7+Ca5wpMdK+OOr1X4u4HVdsit7zE3ZOy2karOraw0eKhgjYaDf0Xm4fU5i4Wy9m+TH19DStnjUajapbovNBLLvheBUdD0bEm/xqz/wXnE2RYehwurh0Eh7pDsT8wATyTMihj/hWB+6bBobhhru6DyAvz4NbOVfpydaktPTd4PB4azfXlvkXpPZJXw96Kx2fco93o7eSAkSt98cnEEo5tuqObSxX8xvfH3M5tMWHVPAxt4YEjwbJm3XEPDmD2+K6oWa0mJuyW1cpHnhmGcnLrJXmtuZX3/T9NHDtjVCdRm4QXh08jUIttn/raC55p/eFSNedNcqNu7sSYTjXgPHg9Hn4ohMoONjASxsFnwwCUN8jqGqya5DONbRtj6rKTuHH7EtbPGYI6VdtgwRHtrhOKUhB0ZhW62FvAbe5lxCcXhrWtNdI+BmBOh1Io3XisxvNHV2EX5qFr02pw6DBVzbWZEEIIkcOduO3HiWK7htZgkolJFV8VmcvQqWzb4fMs6M0nJuS+VYOUsIPMrWxjtsIrWsX7ZJN0l2q0gD3+onry2e+JiSxR/Hp/eYl0vUZuD5Iul39xv+dbfBjzu36RbZnWgZXm8cTvVz3Z69snN5j3xaNsetfK0u9RNZlyZloye/n4Brv630q5CXQ92NnXScx72QD2l+cLJmSMvT4+VMPn8Nn5P9syx0HbWEic8m8XTexswgBLNvGQ+smn5bfPo92/S79vhVec0rbRNMHws2MTWXkDHqve+W/2SGl9ZPuq3ZybSttY3gfvpayFjREzsuzDjgYmcJNZXMgJNrJZU7b68BbphNW5Obl26jtP6eeq3u55Ief7UjQBtGQ/hbGNvctJj1XfT5+V9iX/q/LxK/KCbexejXWcdYbFfVfO88F7KatfyIABzmyT3xdusgqxbFf/CgxqJtfOTOazzx/C2OW9f7IWNrLtXqrRGHbQJ4R9VHHMpSeEsaN/95Sej0Uqd2WrD59nQW++SfM8OzaaleZ5sP1ByseQiOyaJX/8ZCbz5bbTNTalpGhSddtu29jLz9zzIZHxk5W3UU69Pj5UaVvJT/w8YHuYQn5V/Da4cSbQlu0HaD15dBQ7Ob0TK82ryKYdCld53kqOTXOnMezSm6wnnc/4Gs42j3RiAFQeY5lpsezCil6s3qB9bO8Ce+kxrOp6K5GZFsV2j3RigCUbuMaXCdIU86Yn3GJ/NC/BACe22lf9Mfv9wVqttk8635sNMzOR5rUfcpSp/1RCCCGEMT0K2uRvnJJgTd3LmU3ccIXFp6q/CYtEsQ0eNqx+tynsoM9bbiJjjLHM5AD2V8MSDACr1Gsvi8/iI+VvyroX9B9KC3BZFSJSXh1izQsbMmhR6JcFZh5s89ZZrJNcUBOyv790fZtxPufzzWWsNM+ZjV95gr38rFzQZwqf7aRVAVs+SNRUaOESFZB5zMiyDzv7WnXBLeNrAPujoQUDwMYeiuImM6bl5zDxZ81pXioH+1I9+WMEAOu04j43S67L/X0pX0DXfKxyhezvz4pW78rm7Liq5hwVMu9lLtJj9lyU+v0kojlok6f5IQWX6HPNnSazGzGK65CZfJtNtSvGGsy6rLCcKz3Biw0oZqzh+HnIZpcuptW65yZVQZtkXQGwotUXsDCN6/KULW4xhd0XyB9LugZtsqC2y0JflQGbRKLfMuZgaKDTedtloa/GQEdyLcj6GJatp+OgfWr3kWQdNR2zFLQRQgjJK3rSPFKEV6gCRux6gLBLG9DLsRw3WY4/Nk12h035fjj3Rn2zkgzBSzzx/YxHZ9ZjsKsbdgcqN0PimTTAgLGtAQBvPFfgeIByntxTHrXaleQuVIlnYoLi4j4oWbG2lTSXO4cJ455j9PDm0uG5a/2+DTf3/oO1G09i37QWcu8CngfdQDzzx5ZZfdBl6gmVzYnsPEbgfxZFAARh01Zt+8LoJi3GC/NnHEA8Y+g3bw48KhlyswAADIo2wPCxotFCDy35F+GcZpbC4K34fdBuxDOGocuWqP0ciD9r3IyB3MV5oqyVqL9mXtKXfQkI8PzhQySFn8WyMe0waJ0/NwMAY7ToOxzNCxsCOIfNBx9yM2RbpT7TsMhZdI6Fet5QOkYUCcEyTDFu3jS0tlE8VlJCA3AoMgkGhUwUlnMZlnRD//F23MV6ybCkG/pPrgkASAo/Bu8A9Z1EE33P4aF7PzQqrt01SJXQw/Mxat9zAEMwYVQzjVMGmDcdicl9yiEt9gSmzjqopgm1AP/9NRzL7iTA3Gkm/prUHKIxMVWr2XeiVvN4Rpxajr/2hwFwx4zZA9X2jzZvOgij3C1z5Zg1NHPFjD2jUd3aEOVrDcHK+b01/hZCCCEk+3fkPGOM6u0n4WTQW3yLD8PtS0fxz8xRaN24Cjcj0mJPoGvlHmoDNwNjY5iXMBL/x4dQzXzPlewbiP8KR/DzCE5qwVKpV3fUVxj0wgythk7BHxN7oYqF4u42M5eNRJj6TYgUFeUknkkF1G0rKgS/OPwYH1QWpnIiBVe2zxdPQN0K7dqICpXqVG7gCgdDAySFL8L52/KFzmjsnLdMPEjMaAzurXy8cFlYVeAuyhOf82Gicf3YlwBgAhMz2fDw39WcdIUr26NBMVFA9OLhczWF9OxwQM/x7QAASeGLcPKq8gAhEqmvb8PzZT8M9lB+QMTSGeIZQ6jnRTz4omngIWNUcmjEXainjOHWe6R4QJJw/HvCR82gHSnwu3wVXTrU4yZoLeOTN9bOEU394Ti+O1pxgmJlZdBpYD8AwBvPYdirYr8l+m6RDo7TYdRANOZcz5SVgU1lzROCM+EdbJpxBPGMwcatPZrV0LSeFdDAvRaQjakTVKnRcwPC3qcjOmSfxgdMhBBCCPQzaJMpUqo6mrfvhykrd+LGvZfITOYj6NJ2/O5iK5frHCZPU/1klmfSHH+e3IKxfYZj7alrGNJUEsBxFJI9A34eWbCHqy/rYKf2STFXzQErcGrpWPQduwEHNw5GKZVvMwHPUJKg6+TnWWPCAFzcEg4AMLJsDSd7zYWXQpYVUc1ENDDCg6fPpcuFwV7YdUE0gbH9kDaok4MagpwqZFkRHU1lx1r0B82jf+YGfdiXIsboMH0/tozvg/8tOo5/JynW7sozNRDto5h7kfisfPpmm32ngRhQTHROaxopMeDsXliP6a9yOPtCZUX7MCl8Fdq3HIcj92LUBDiiwveqnlW5i/WS/Ei9gWuP4Vac8gOvjE/e8Azuhw51sz8ASZTPYfwbJRpEqlHdGhpr2SRKOThLzxvl/SbAhcN7xIPjOMGlSQ35xGzj+13DPxGieunKzevCLotrp3VZyUiaNxEUprztCCGEkLzy40q22cAzMYNj+zHY7xOGR7tHorT4Bht5ZhiOKtS6yJSpPxjbju/BHz1qKzU/kQyVz0+UjVBZw9ZaIU9Bo8v68wpVQI8523Bs2yQ0teYGSyniKQcSkSyd4sAetuVy95ARBvtjm3j7l21iixKay0woZGmF6kVERUD5YCjw5mnphOeVa9gp7ev8ZFTRFtWKFJb+/+XdB5XNFXOTPuxLCUOz2hi3+Ti2zu+jVLsrm8oiEcmZonXRZr/rQr4Z4IvDC1U2eWbCOzi1uTwGdFFdI2tUtjP+N1lUq8IP2oGBTcvBhGeL1r3HYcGqXTh/75l0yH+eiRnMiubiD8hTsppIYD+8bshGvZQIu3AYpX/vpPXDH2UCBN7xk/5Xrap2zUcLWVqiookoaHtx+DIex8uCogzBQ1w/IVnXOqiYS8du4IPT0r+1uXZala8m/ssfH9U9DSCEEELyQO7c+fKdMeqN2IzTK9ylS05evauQQ5VvMf44uPlPDHVvjgqGVqjbZSgWrN2F/ecCuFkLrCrl5GshtcfSBQi+vA+zx/dBa8dy+K1KKwyYuhh7dh3CrdcCbvZc8yHyqfTvmHsrMcTdTWkYdsXXTPjXaQjXti6obW0qfqcA719FST8nP/qQaVYFzQbYSP/7/OojElTUBGcH/+46jNqhPAWEvB+1L1VhwjjcOrYNU0e4o1E1E1Ss0wFjZ6/Cnl3n8TRJXd1VTik2AzxwTvna8OGqJ+716Kuh2Z4xOi05i0PTO0ofDgFR8PXchsWzRsOjqQPMTQ3gPnE/XiXmRY1l3pGvifTc7cVppRANn1NF0K6N7PjV3VsEXozjLswSz8QU5oUk++M+ouRqgtOiwhGQlCr+zxJWpXLj1hWHiBDZ+XBp9RgV1xvFV5e5F+Da1gWubbujdIEJ1AkhhPwMcuPOl2MRp8bCY62qAQs0MUaTcdMxzEzULybuWYTKJpIAEP/sJCZ1roGi5RphzvZIOE/ejoeCDwi6cRoblszA5CGtuG8psHgqmnppIppPazhqVCgJpw4L8aqIG9acDcbnV/dxce86TJsxEe7V8ycIKttkFvZf8Yb3VR+tXrvHO4vfmQJ+Ql4FANlhhqZuHaX/xfndwNOI3CnYv48IRvBb1c0t9WlfZgheYO+fPVDxNyu4TdmIb9XH46DvZ0SH3MCxbcsxbcbvcC4uCbpzn/y8ZP7L/oP/d/ntHw3PPfcxqI+rxmZ7vEIVMHD1BUS8vY+9S8agVe2y3Cy4unkoatbor7ZfrT4yLNkcHfqJfst773248Vy27sJgL1yq1hsty6gLZrWRAkj7AbqjgpVu1ySRcPDlurUxoVBak55XOszYoXSNUf/6D0PqZb/5KCGEEKIrvQjaWEYKYhOTuYuzZFC0OXr8T1SzFHnmuYp+MSm4u7EvatXui00XEtFv6WUEPj6KcR0dUCaPnpIyoQCCJKUV0UtpUdcwunV1dJq+F58qjMR/wY9wcvVoNLArobEwmxOZSQJpszIAMP2tjEJ69hjDvFRerXH2WLfrhal2kkaa5+AToNwMLTs+vHqIOlWVm3H9iH2ZzOer7Of1JWgr2teqjeErT6NIxwW4+TgEO2d6oJp1EW7WPFQBvUb0Fv+9EYfPx0hThMFeOJw6FN0aalfo/q2sM4bO3Y6bwe+Q8ZWPl48v48CmWehcXRR0psWeUNuvNmsp4PN1v/bljBk6DRwhrkH0x8HTj6Qpfl7n0Lm3Sy4eM1cQ/TE728US4q6rgHg0XVHNaW7Sv+sGIYQQok5u3wWz7WNQdkaQM4ZdVVHfFSNL5af2Eacmo9uUk4hnDO3m7MfOOe4opWNNlK4izk1BuxW3uIv1DhM+xaJBA7Dbjw/AA1uPbEH32tpNR5ATNza2wMzjL6X/W5SvKC2MfY/nQ9IASjdmsKlSUfpffozWmBWeSXOMmNtJ+r9yM7TsCIHfRVM0rK3YR+jH7MtHWFJtGK5wapjSYrwwvMs0eMekwtxpJvYdmKeij13+kA+cZds/Bd4nd6PlUM19tlJCD2HiOn+loNSgqBmq1HHH4AkrcD7sA7wWdkZpHg+RZ1bg0mPV/Wo1SYvxwkCbhTkeiVBX5o1aYpCtaJTPq3OPwP97JpjwDi5eagLXHAxAIlIeNTqXkv7H0rT7bRkCPj6mSvoftkf1KrLbk1HF6mhYVNJPlA9+rjwY07/rBiGEEKKO3gRt0V438OxD9pu/VG5vD1sD+ULYI+yadUw82tgQTBvnpvPgFHe3dMd+f+VBDDSxLifpqK7fIs6tw7I7CQCAjkv/Qm8dh5xOj/XG9D/Oqh2ZTx3riorDiMuPZhfn9xzvvmr/gUK5Gru6jTtI+x69eB6hVNj+EWoO+AtzmosKr++9x2HHxZwNR5Loew57eT3RglOo/jH7sjTs2igX7m/tXySevgEYOXuCFsOyKxIG7ka/Dbo2lVaNZ9IcPSeImtC+996AMwHpyPjkjWMHWqJXB+WmjvIyk+Kwb6cPIjUG2mbotGAPlvcrDyAcAU91ny7EqKwtqhVRHzzmFfltA2zE1dvf8OGqJz4N6qdyNE3dlEGz9rIm56GRkQqp6sj3W6vUqzVqlpYdO4ZmtdG0o6RW/olCf7ecqNe6u/ShkS7XDZYu1DovIYQQkht0K1HlqRPYd/oZd2EWBHj+RDSQRcs29RSCMmHwA5yPFBWSbbs1Ri1r9T9V+FX14AzJgteI1/Hh64d3L2CsZmYBXSSFBeNism4Bo/YUR3dr3biuQqoiIb4LlNeDpQsQEclHCjQVapV9iArkTFgsP5rdTvje+yaXpt6zAwPQbqWsRtPUuR0migOkN96Psyhs5w+eSW3M3bII9QuJjr1Nc5bhydfsFjZDsHneHgyYMRDVFWqIftS+jEfEjXTwFOK2EPidlQQuHnBuqH4wCyZMBj9duR8YS/+CiPjcay7YsOswuBoXAhCOnQcuIsDrEBJH99dq0uik8DMIkOvvpVoZuHRz4S7UWlpMJF6aap7AO6/Ud+shDVgOHvwXx869R4+2qkfT1FVF14EYXlHUHPbujUCtHgi8DwsQ91uzxFClmlDRPG6SJp0BT3Nnahb5vo/BW64jSKHvozrR2NTTEbvuKp9LhBBCSF7JuuSSj45OmIeTOnToT4vxxt7dkTCyHIOebSXz54ilpyBW2uRIU6EoBYEP7nAXqiXft0JVc5rkpC+oVUXdENfa9qFIgd/N89yFuSgFyUmyplyaBi9JiwnAlRuiWhxtyPdR+/KVW/hOQfJXQ9SyU+yTVbPPbGmN1J7tp7RoRhiCU1ui8XuXpnLLHDBxxRTpxNuHtajVehOS96OGmjiOg9flxahfyAD8oFXoOfyAFr+PKwU+y6fDs+J8jOvBnQg6r/al/LGq3ByNCZPB/81JadoA4SfZumg60gXB/rj9Rfn8yW2FK3fG0N9Fk6gHb5mF4Sv4GNK7PjebGv7Ye8RPyxoVS1S1U3XeG8PETtSsT1XzXyYUIq2xHaw1NNXMrsx0zdtXPmB5cXgKdqX3QFM73Wpp1TEs6YZpy0R9Cl8c3o7Lz7NqOhoNr8NXAQCOg1ZieEdZ80oJ607jxbWagOfuU4jI4jzKTHqBwHufuYs5KmDIguniBysbsefkK24GJcJgL+yPGw43LftEqhN2YR7aVTfFb1WG4nKE9vc9Qgghvya9CtqAc+hTuQcOhWpT2xKHY/Pm42JyCYxe+QfacYbuNq7ZUNpnI/LMPbxOVH2DT4vywkavahjTwxIA8OSl5AluHCJC0hQ6wwOAcTVHtK3wGwAg+F4o5wlyHO55f0OzuupqGMxQr3kz8d9hiIhU/VQ39bUntj2yFtcQZN3fT76mULv+I2VQr3Vj6X/3HocqpMqk4NbunbAbOkT8v2yd02OiEGbIYAzFwmZJe0fpej94Ipv8WiQEd082hpOD4r7imdTG/N3/wK1sYUSeGYbFB2R93pSJApiHHZejbz3FKk3zptOwfnFbQItaLb7/OgwZc0L6f9RH1SMy5gYr1znwurwYLWyM8MZzGBp3XIlnWg8TL4DXvC4Yf681jmwcrKIfVl7tSzPUaNBA/LcvgjkTCQuD/RHQqS6qKTRJroqm/SuJ/z6HgKfqCszR8Fx/Dq1G9wA4gwh9iHyqoqZaCJYhypBVIKJMftCNcLBGQ+BSVfvC9vVlk7HplqYHAALc9b4Fc6ex6NxE1edWRb12oqAxzu8eXnKagL975I2SreuqmQw9u6Jx/cx1RHtdwl2No5ZWgGtPSTNGSwzs30mn9cjqWlNz4GIcHFUHgC8WLDik8RoWenwZlp7/gFKNFmCfyuMcogDr73XoWd4E772nYoXG60Q0/p04GtsiJUNQxuJjguptYVZvKnbu7oPSPB52Dp2hcSTQzKSHWDr+CIauHKm6GWm6LMTXtH0yBD5YNXANrr0Q4vvr/Zi66GSez+VICCGkgGN64PXxoQwAazfnDPtvRRdWmmfJ+i29zOK+Z3KzMsYYy0yLYoemuDLAkvVc6su+cDOIfbg5n9UvZMAAsEq9trG3qYqflxp5no1y7ch2PohnIfv7MwAM8GDHw5NY7MPNzL3JQvb4S4bCexhj7Nmx0aw0j8cAJ7baV/btiX7LWJtB+9i7TNXrzRhjmcnBbE7zUuLfe5MJOemiderPzr6+wWaXLiZeJyc2Y8dVFv7+M+N/FX12ZloyS0xMZC8fn2B/NC8hzgdWrv1C5h0awxITE1liYqLS58u8YBu7V5N+/irvOE46n/lt6MM6TzjGoj7fYlPtROvSbs5lxv/6kR2cUJdNPBTOeQ9jjAmZ9zJ36bY8+zpdmvLs0BDWZaGv2nUSPNnNOlc3ZQBY34WXWTxnf6Xzw9meaR1Z46H7lPaljJD5bejDSvN4rFz7v1nIZ+X9F3F5CXNpM5ad2LtAut0Ad/bPhafsY2Ii4yer++ycSft4i83tVkX8fc7sz0P+TJCm/rui7+9nE1ztWLsJ+9hLFb9DJm/2ZcbXAOmxWqnXXrnjOort6t+KbfJTPvPSE26x8c0spPv/hNz+Z9JztyMbuOYBS3h1kLkaF2IA2Kjd4exbfBBb0rmF9HO/JyayxMQIdnPvH9LzWHQu3GJRnxNZYuJ3hc9W7ylb5FySAZZsyWXldVbl+4O1DAArUtmOlTfwYPuDErhZGGN89mj3SGZl1Ypt9I3nJkqlRnqynuVNxNtcds5nfA1gfzTvr3COZJ+QJSZGMP9LR9m8vrWkx7WRpTtbevg8C3rzSXrtkJee4MUGFDNmRpaT2H2B8jGW8ZUvvpZw94O215oodnJ6J1aax2OVev2j4jgWstAzM1j9QgascutZ7EZM1tsiNfIqG9nMnAFObPYx5eM2nR/ONo9swAauOcFW9yorXd9WY7ezgDef1Bw3Qua3eRArb8BjgDvb4P2Wm4HFhZxgE1wd2TTOuSK5Fr8LuyJ3fituH2GawltYOt+bDTMTHRMAmP2Qo2rvY4QQQghjjOlN0GZkOYZdEd+wI29sZL0cyzHAktXrPJYt3nOS+Vz3YT7XT7Ots0Yz56rGzMiyFVvo+UJNQUEm7eMttm58V1begMeMLN3ZrJU72eEjW9mf4zxYq14r2J3ob+KcfOa1sLM4GAOr3Hoyu/RGfQEi7NIqcYBhyXpOWclWzOzDHLUsdGR8DWf/zurOyhvwWOXWQ9niPSfZOaV1eigXtMleznNuMiZXqNT8UgyalPHZk9MrxdsazGXobLbt8GG2Y/VM1rtJBzb/sCyo+BJ2kA20/038uRXZsPUPNBQy+OzevgmshY0RA5zZ2Lmr2KzR7qzx0G0qCm2K0vnh7MjSoay6tSEDKrLuY2ezNavWsCnDW7KaDu0V1kmTuJCzbP7Aeqw0T/QZe0+dYjtWz2SDmzZlgxcdZy8/Z6jdhqP3KRcEc1PkjR1sdEd78fdZsob9prC1Gw+yS9d92NX//mUr509k7WqXY+Vr9WVbfd5meYyL5M2+TOcHs81j2rPSPB4r1Wgom79yLvvdpTabsjtI7Xsy02LZxc1TWNtqJtLz498jh9n6+ROZe5NuCr/pg/dS8XEC6TktEst29a+gtG/kX7bd5ANJzUL29GDmTgvYc7XBvqLvD9YyI8s+7OzrdPYl7CSb2MmeOfUS7Scv6T6qzDqOXC93DVEvNfKqNJiq3nkKW7NqBuvi2Iat8IrmZs2W1HeerKOpaDuqe0muHYqEzHthI9Z1xX1uAmOMMe9ltZU+p1qjNsy1rQvnNZZdjlJ/rYm+v59N7GQvPd7XrFrDVswcxVrVLsvK1+rL1p4K0Oq8lpA/xsrX6stmbzjIPMXX0OYdhrE9Pm81HEMzWXCG6u+SXTd4rEhldzZp7iq2ZtUMNripA6vXeQo7FagcvKu7jsi/Vvumct/GnnvNZS1sjFit9lM03msIIYQQxhjjMaahzUo++XBlKTYm9MHfAxVHXkyKCsKlG9cRGHAPAS8/AQBKVW6E9m17wLVtfZQvpqJ5ihosXQh+QhSeP49BqqkVatjbwdJceZoAJhRAICwMcxVpylKQ+DESz5/HoJCVPZyq2kDcMlArLF0IQZIA78JCEZdship1aqCCheR7BXh68zXMnCqhOA+iPkZarVP2JPP5iIl8gujETJSyrYPq5Uuo/C3JfD5STcxgZpL1tmfpQnx+F46giE+iz9RpzjDZthXtLxuYm5vr8H4RJhTgfVQYwt9/Q1Ere1S3s5aue8ancNyJLgQnO9Hw+LxCZjDLo/n7VPmeEI5Hd+7i3uPHuHfvGb4CKFzWCe1aNEXTJi5wqqHL9pLJi32ZmSTAm1ePEZ1YnHOcapbMj8XrsFDEJRujnH0NVLS2UPGbRHOVmRY1V7meueHZvz2xOm059o2pzk1SKTMpCi8TS6N6ednccrJtUBjl7GvA0sJcq20nT7I9EmCJmg418my+SH0l24aZAMx1OpbUSeZH4dmT1/jCuJ+XgrePHiPZpjrKmIq2s6mW1xDudaOatUWeXn8JIYSQrOhF0EYIIXmFCR9ibsvlaHTsJDx0nA6BEEIIIUQf6NlAJIQQkrs+XD2E/2r2ybWREQkhhBBC8hsFbYSQAi4FQWe2Y90mT7xSGpUzGp577mPEcN1GRiSEEEII0SfUPJIQUqAl+69DxcbTEc8YHMacxt3t3VBMnJboswDNt9vh6okhaoaRJ4QQQgjRf1TTRggp0HiFZMFYhfLW0oAtM+kh1i70wdTZAylgI4QQQkiBRkEbIaRAM6nXE/N6VUOTkfuw4w9nAEB6rDdmdh8B4dh/MZIzCTshhBBCSEFDzSMJIQVeZtILHN+wDuv3X4NhSUuY2rfHH5PGo1Nd0XQOhBBCCCEFGQVthBBCCCGEEKLHqHkkIYQQQgghhOgxCtoIIYQQQgghRI9R0EYIIYQQQggheoyCNkIIIYQQQgjRYxS0EUIIIYQQQogeo6CNEEIIIYQQQvQYBW2EEEIIIYQQoscoaCOEEEIIIYQQPUZBGyGEEEIIIYToMQraCCGEEEIIIUSPUdBGCCGEEEIIIXqMgjZCCCGEEEII0WMUtBFCCCGEEEKIHqOgjRBCCCGEEEL0GAVthBBCCCGEEKLHKGgjhBBCCCGEED1GQRshhBBCCCGE6DEK2gghhBBCCCFEj1HQRgghhBBCCCF6jII2QgghhBBCCNFjFLQRQn4gAV4+CMVX7mJC9FYK3j66j+jETG4CIYQQkmcoaCOE/CDRODS6NaZdTuAmEKLHjGGU5IO+LuNwOSKDm0gIIYTkCR5jjHEX5q0U8PnJAADTouYwLsRNJ6qlICH8Ce4FBuLFu+/Spb+VrY5mLVxQu3wRhdwAwIRPcWj3R3QY3xaleNzUn09mkgBf0hkAY5ibm3KTiV6JxqHRXXG0xELsX+KBUka/wAFKfiqhx8egw9887Di9Be3tDLnJhBBCSK7iRXjNZSM33OUuz5EitSbh33VdpYGCMHAr6nSehPAPik8lV/umYnpLI4VlRFHGp2Cc2P4PFm05iPAPGShfqzU6dOiIamVElaQZSVHwOX0ar0v2xOqN89C9dknxO1Pgt6obms9yRHDGCtQ2+DkLxXc3tka3KbcQr/DsYWaWv5kJBRAIC+d5cJdf31OwpMBneVf0O9cat2/Pgr1SwBaC1R3/wJX07NViGJpVR9MWTdG0hQta1rWBMTcD0WvJfD4MCsQDPdFx3OuEE27c/ht1ilHDFUIIIXmHl/TuCXvw4hOAL3hyfAdW7LwiLQAbWbbCrOXT0cZOuRYHAJgwDqEhoQh9eBMXPO/gbabofUWrL8fD53+iOk9UGMv4FA7f4Bhk8J9i4+zZ8AoX1bRR0KaJAIH756Lb8C14m1kGHUfOxl9/DUYDuxIqC6FvHxzA4mmT8b3LFWyf5Qyj4K1oXn8iHqVPzzKAKcgSwn0R/D4DcQ+2YtJf/4mPXc1BW8TZKWjVYyPeZjJ4LL2PE3MaqdymOZVf31PQfLgwC05dgrAuxAuDaqoqmQsQcj8GJa3SEPr8Mc6sXYzNPhHiNEv0/nMVhrcrh8Kcd4l8QfiV09hw4DDCP2TAyNIdi7auxoQetVGMm5XoFSZ8iqUe3TH/2msYWfbBef8jcK+g3zVYTPgU89q64FTlTfDf14+OMUIIIXmHKYhiO/uUZwAYANZg1mXFZA3SE4LYnsku4vfOZP4pmdwsjDHGYs5Oln7+at9UbjJhjGV8DWebRzoxAMzI0p1t8H7LzaJSxtdwtmloDeY6bTtb2q+sdF8EZ6jeFz+XKLaho7UWv1k+X1Z5ZTLTklli4nfuYg2y9z0/u/SEa2x4xSKs64r73CS1koO2MAdDA/F2HM1uCTK4WZRkpsWyC2sGsvIGPAaAVe/8N3v2Jev3kR/ns/d8ufMFbPS+cG4WvfTZez4rzeOxGZ6x3CRCCCEk13Dac1RApZrFpf8ZFDJRSNXEsKQjhq/fi11DawAIw4d3qkfWsrCqwF1E5GQmPcT8Hh0wYXcQjCz74OStU5jkWo6bTSWDotUwbtMBNH4wF3OPxXCTf3IVUKtZKe5CFcxgU7mo9L9SjSxQWHWFnAJh4FbUHXYcMVp3Ac3e9/zcUnBpzQwcFA7GuMENuIlqGZa0RIXCkhoXc5iYZL0heYXKoOO0Q3gWegA9y5sg3Gs2mrWYjfs04p/eMi1tCQdDyS3JEmXMLTg59JOF63gs71ceq3vNw+0vdHwRQgjJG8qN8I2UF2mvAn7/czqaF76A6I9089JdNP6d+DuWXXsDwBLz9mxG12q/cTNpZFC0AebvWw9X/e8Q8oOYofuCw9g6azT6jt2As6dnSJvxavIh8il3URay9z0/M2HwHixcE4y2E4ehnU12m72pfyCkSrHqg3D09iH0LG8CftAqdGizCuFaB94kP5k4jsAhz3UY22c41p66hpldS3Oz6Kky6DlmDErzdmHbwRBuIiGEEJIrchKhqVS4uht6u5VBXKKo3xrRXujh+Ri17zkAoPG0HZjSKXuFlsKVe2H2/JbcxUTMsGRD/G/FDhzbNglNrbULHiKeB3AXZSk73/PzSoH3yd14lN4WQ3rX5ybmKaOKPbH4774AAH7QbExZfAsp3ExEDxjDqdtkbDu+B38UsD6IFq08MKFhCRydsAf+37V/qEAIIYRoK9eDNkkztdiEj9wEokFajBfmzz4u/s8d44d3ykGhxRgt+g6n2rZcEwK/i3Q850TGJ28c3RCKcu27oVnV/A9gaw6cjkXOopFVLy9cgJOh6dwshOSAA9wG1gWwEYfP/2pN0wkhhOSHPAjaALsq9fHk5QfuYqKB//H1OPVWCACo1Ksf2tTIWcG2cOUW8HAvw11MsiHR9xw2B3zmLiY6CLtwGEe+pqBF56Yo+0OaiTqg55hW4r998c+/3lTbRnJVvdbd4WBoAM/dXjr0fSWEEEK0k4OgTQDfff/isYqO/da2tfHl3Qd85SYQlZjwDg4vvSf93y1XCrYV4Nq1MXch0VkINs9bz5kHjugmDvcu+wFwgkuTGtzEfFO5gat0oIvAtXvh+z5788ARooqJYyO4mZvivfdlPIpQvi8SQgghOZGDoC0FL69exttE5cKsqfMfeJ7Lc9ZkJkXh4c1LOLh5N85evw7fx6+R8pO0cOL7XcO2xO/i/5zQsLYdJ0f2VLLXfoS+nG5fJhSAz+eDz49E5DvJb5GlfYoMQnDEZ/D5OevrKPqeSATeD0Usn5/t2pJkPh98Ph+fItU/XMhMeoEtowZh/u14bpLWtPkeVb4nhOPujTPYtekQLt+4Dv/nn3X6rZlJov2R+DEcUQmKBcjMJAFiwp/gxYfEHO8PbWQInuLuxTgAjVC9Ss5qkHPCuJojWhSXjIh7AqeuvebkyEsp4vODj4hXHzj7MgV8fiQeP3kDPp+v03knwdKFePXkJnwuHcOx0z64eT8UcUnK12bNslrHWIQ+EZ93GtaRCQWICX8gPt91O0dZulC8DrGITdD+2GRCAULu34DPpWPYe/QCrt+4i5fx2r1fdO27LvfeQLz9Ktp2GZ+Ccf6ets0dy6OeRxkA53Dn8SduIiGEEJIjOQja3uKNdxp3Ya6Lf3YOCwbVR7Ums3D2zTeUrVUJxXhfEHp8DqoaW8Fj6gG8Uqrti8PuARXB4/HUvLri3JsMJPuvU5Eme625Jft9wsDdcGvnqvRqVK0bzr3J2RP70EeX5P6rg4rlcrBb5Bg7DsDde6Nhq2aSaWR7+4qkx15Az6LG4PF4MDA1h4WFBSws7PC3zztx+m0sH+SOnlNXYt9Jb1zeNxsetcxQ2Ko9Vl54yf04jaJu7sSYTjVgbNsYU5edxI3bl7B+zhDUqdoGC4481Sogijg1Vrpvi1hYwMLCAqXs1iNSPCm8RNyDA5g9vitqVquJCbuDpMsjzwxDOQMDjccJdPgeVSS/03nwejz8UAiVHWxgJIyDz4YBKG9gi6GrriIhTfXnCAP/QRnx+hkWE+2PEtb2OBkqOj7jn53EpG5tMWLRThw754PT68fCseRvKN14GI4GJHA/LtekPvPHXoEQNm41UK6Y+mMxr/FMKsC+iZn0//sBz6UBhfL53QwVDGX72q77PqUmb8rvkVwTZuFpJgMQh4PDK4k/w0R8fljAZcYVJDAGlh6Hi2uHo63HVPyz8xSuX9uLyT3rwsTICn1mn8U7NftZnugzBsGh7lDsD0wAz6QMyph/ReC+aXAobog6vVfi7gdN1ydd1vEQLl07ipk968LESPlYzBC8wN4/e6DDsEU4du4OrnmuwODGNjDh2WLoqlsaztEQ/FXFXHQdMTIVr4MV5l94y82oJDPpBY4uG4CKv1mg36ITeJZYFBWtDBDz7ArWjGyCmm2m4PRT1QFUWpQXJnWugy5Tj+P1dzNUbdwe3Ts0QBnTtzgwuj76zF6NsV1bYemFV9y3qlEGletUBgDcCHjMTVQSdmEeujatBocOU3E9QtM+IoQQQsCdXJsx72W1pZObOs+5yU2WSvRbxhwMu7Kzr9O5SRp9f7BW+vmaJ9cWMr/Ng1h5A0vWc+llJkhTnpg4PeEW+6N5CQa4s12PviqkfU9MZC8fn2Vzu1WRfh/gzGbuucrC339mwjTRhMmfP4Qx36MLWQsbI3EeS9Zv6XH2IDSG8ZNl35nxNZLdOr2eda5uKs3XZcp2dis0hgnTFL5aR7FsV/8KcuuYX5Mw52z7ighZfNh95n1xLxvZzFz6G0bvC2eJD9ayzr1XsEdxihMap7w6xFyNC0nzZUV+ovGOs86wuO+K65mZFssurOjF6g3ax/YusNe4DTOT+ezpvevs7N6prH4hyWTNynkzk/ksMTFR/LrGppT8jQFgtt22sZefJctlL/njRPJ+bb5HURQ7Ob0TK82ryKYdCmdCbjJj7EvYQdazvAkzdxrDLr1RPu8y05LZy8c32NX/VjK3soUVzrNQz0msx4Rj7C1n+0kmBgac2GrfLwppuSVkTw8GgDmOP6Pyd2Ul9Z0n62gqOT89dL7myCiea0WrL2dhmaLtIZo8PYI9UDjHRZPbrz0VwKI+K0+snvE1kl3e+4d0HxtZtmITN5xgD0I/SX/nt/gw5nf9Itsy2UX6mbbd9rLoL/5sbueebIdfPOdTo9gGDxsGgFXqtZe9E6+fai/Yxu7VVJ4XjDH2wXupeN2c2SY/9fs2q3Xc4P2W844o6XaUrGNq5Hk2pOP/2H/BCQo5M74GsD8aWjAArN2cm2r3/9fIJ8zn+mmF63VW14fUSE820P43BjizFV7RKj/7y6tzbGSz+mzumWiF5YkP1rL6hZzYIs5yGSHzXubOkMV9kOu910wGgJVp9g97o2HfpfO92TAzE+lvtR9ylKnfQ4QQQghjOgdt3xMjme/RheJCoe4FKO2CNtkN03HQPo0Fl9RISYFOdcEk4+tt9j/bogwAK1p9gbSQxhWyv794vTT/ps83l7HSPB7rstA3l26yD9ns0sWk28Tc6W+165h7cm/7Snz3Wy79DYPmLmF9XBaywM+KAZuIkJ3/UxJcTWIPvqnKI5LxNYDNaV6KAchyez87NlocfGgTIPHZyYlVtcwr2z+23bIqRHNp+z1RbNfQGtLfqarwKSF6WGLAjCz7aDxOnx0aIt0fUxYtYe0H7WNvU1V9fxTb0NGaAWA2blt1/H3akO3vTivucxO1kntBG2PeC2tJt4u6fZL4YC1zMBQFYtrsc+9lDRjgwfYHKQYsih7KBf9/svlD2rGNvtyATeSz93zpOi65rP6oD9nfnxWt3pXN2XGVxavct0LmvUwSiHmwc1FZbbfsreNCz2tsTtv+aveLJGgHWrHj4ZqfcCUHbZFue01BW2qkJ+tZXhT0jNqtLp+Q+W0ex1rVLsu51ogCY9tu27LYt0/ZIueSKu+D6sjub6PZLYH6axsFbYQQQnSlMWjL+qV7AUqboE1SMAWc2OYHqvPIyAom5k4z2eMvyjfKO2tdxd9Zne16pPrz0hO82IBixgwAm3RM3dNXUaGibp1ZKr8nexSDNm0KiTmV29uXKRWsLdlirzhuFin5gGKTn7rv57OTE0XHornTTHZPZQAoT1TAEn2u6sK4PNlxnlXenARt2n2PbHsMYVdisjqfZLVFmmpi5M8zwJ0dfKa+sCwLZLQp2OtKtr6aCuGa5GrQpnB9U/d7+ezgqEriPH2y3CfeC2uxrlkGpIq1fI2nnVFbSJc9KAFrvFBdwCD/QADMXc33p7w6xJoXNmQAWLulqvPI6LCOCvsEbPDmIG4WKfljceyhKG6yAvnPVX+8yGr6zJ0WsOcqA1bFWn3IXWvSPnqxHr8V1up8DtnTQ6egTbb+WR+noZ6TWHVrQ1a+1pAs8xJCCCEaO081mHUGiYmJCq+Xjy9j75L+KK+hn1TOhGDTn+sRkpEJG7eh6Ngwq7nGjNGsc084GBqAH7QKq48o95Wq79ZDPGpcOE5eCuQmAwAMfjODWSHRIAmahmwOvHka1r26o04xjZsu277H85HKXZircn/7cpk7jUXvdqW4i6VMjGTHjlDNgAaJvlswbnMIAKDDqIFobJHV9i4Dm8q/cRfqvYxP3lg75yQAwHF8d7SyyWqgjjLoNLAfAOCN5zDsvZrEzaDEfshQtK+hYT8bybYtU7M/su8t3ngnAgDMippzE38we1hZqTquzNBp4AiU5vEAnMD+8+r7NDHhHVzY3xDjBms/6A/ghEF9OqofqEluV2Wq7TZsAhOzotL/vgtF04VwFa5sjwbFRIOvvHj4XO11TZnmdTQqawunopJBXYZgUPdanBwyhcpWREdTIwDAk1cR3GSdJfrswV/HRP3dOozqAXu564k8w1JWqGhVGABgZDkG1WxF+5qlCyHMZIg8cxp3sxjlUZfBnBSdw4t3mj+7Rs8NCHufjuiQffColNV5Twgh5FenqsQiZVDIHObmiq8qddwxdO4RXD7wOzd7rkj2v4pNd0SDItjUrwE7LYa+lwy1DADn/jmKcE7BxMSxM0a5WwIA7h68pJQOzgiO772Pw++lqo7hIfA+zNC/e31uQg6Uhl0bWWE2zu8DdB70TQd5sX25rOrYo6yagpR2BLhweI94mP0fO0x8XovyOYx/o0THXaO6NWDMzaBCKQdnaSH44MELSNC8O1C5hh1K5WR35JIypS24i/JZCpK/KkZBJmpiWYtWHpjQsASQxTH/4aon7vXoq0WwLa+ONIDIPmN0mL4fW8b3wf8WHce/k1pwM0iZGoi+K+ZeJD6r/hkqNIKjvXa/ycatDqpaa/d71Aeh2hLgwvFD4muDJZrWVX9tMDRzxY4HN3Fg0y7cCFiHduJ9ZFTWFk42RQCcQ5/KnbD+Ygi+pKveMCbOU3FlujN3sVqKwSwhhBCSe7S706pQo+dI/C/L2g/dPb5/STonVr0a2g59Xxp2jYoDAJLCj+H2Y251QQW49m0tTl+E87e56aKCwKx9hzDMzASAL/49/YiTBxAG34JX8c5olsOJrxVVQKWaonUXicVHzhDtuSlvtq+i4uWs1T6h10aG4CGun3gv/i/3RtPUPwIE3vGT/letqnb7o5ClJSqaiIK2F4cv43G8qgcMMmWtfnSwpC8E+CgOkAHAtlsNlFAbzDqg5/h2gPiasfWEaERURdHw3HMfg/q4ahVsy1jCqlTOj2lDs9oYt/k4ts7vgyqca7Fs6PxEJGeKridlm9hq+L1c5jAvql3mwkXNIarPynuK14ZGWV4bClk2xOAJI9GsfBG5pfUx8K8O4r+vYGqn2jAzsoZTm2H4c9VmHL/4SDrkP6+QCczFD6wIIYSQH0nzHU8D0fDZuRm8AEAcXj/JztxJJihiJirEAuF4ESFqjiWvarNOcDUWPVY/es5HYe6gjE93cPlKF3Tv7oqmHcsAAPz2KtfIPfL+DzV7ddCqdkoXNRt0kvvvOWKzqjrREhM+xPx+OxAh/R15t31zU1pUOAKSJI1Ec6eAq5/eIvBiHHdhlngmpjAXN+UF7iMqi2ZYRELWVBMAajWuoXESe/tOAzGgmCgcO3fMR6lpoTDYC4dTh6Jblk2M8x4TxuHWsW2YOsIdjaqZoGKdDhg7exX27DqPp0m6zJSm3xSvDfawzSJoU6fW8O3w2zxIrpl/LIJv7sPKWRPRr1MDVChuAPsui7KYLoEQQgjJP9m74wEATGBT0wbiOCjXpAhlN8nyVtYKadoSJPG5i1C4cgt4uIsCssC1lxD0XVbQjfLxROTg7mhU3Aod+3UHxE/XTyr0F3qEC1uLo0fbKnLLckeZxi2lhUPAH7cD3nByZE96bBQenXuj0Nwyr7ZvbmJCIUIyfoVAJAX4Ivmd7qhgpT6AUC8c/Ky7tREAaVGRCEqS9P1yQoc29Tg5FBmWdEP/yTUBAJFn9nGaTKfA++RutBzaSWPgl9ckc6NV/M0KblM24lv18Tjo+xnRITdwbNtyTJvxO5yL/zw1Rbl3bTBD0/EHERH3HKc3TYFHk6rcDAj3WohmNk2x+a76GeYIIYSQ/JKDoK0Meq3eCPcKuV3bJvP24wfuIq0YFFLVp6ACOg8UNXcCNsLzkmQy4Wh4HfZDt3ZNAQDW7XrhfxaipjSnr/lJa+QSfa/gYos+aGqX+79XvnAIADevBWbZT0kb6TEvEOquvglY7m7f3MMzMREPHFMQpIDPT+YuzIYriP6YnZ1uqbZfFlH09oEXLiaLOlWVatQPrnWz2nDGcOs9Unws+mLPSVmT6YxP3jh2oCV6dSir8I789CVoK9rXqo3hK0+jSMcFuPk4BDtneqCatXxTwJ9Lbl8bDEtWR7cJ/+Ds3RfITObjXdh9nNi7AL+72Ipz+GP28KUIStb+3JQ0RyWEEEJyU+7d/XJFGdSoIxowBABSNXedkhOH96+/if92Qv0aqmuQKrr2ktZonT19HQkMSH19G/+9HYDOTUQFOJ5JQ3QcXx0AELj2NPy/ZAJIgZ+3J9q2b5ZHAzoYo93QadLmmy8Ob8f1l1r/eLUC7/twmoDl7fbNLUYVq6NhUUkvGT74eTkySw6lxXhhoM1CPM3MzjqWR43OslE2WZp2n5Eh4ONjqmREh/aoXkXPTmMFpWHVUDTK4cuInI8cmH3R8Dp8Vfy3JUbPGKh21EF5Jo6dMaqTFQDg6twj8BfX0IddOIzE0f3RqPiP2fZpMV4Y3mUavGNSYe40E/sOzENT69x/oKRvFK8NYYiI1D1AyhD4YPb440oPxngmZihbvRF6D12I/T5heLRvAsob8JAUvgqHL8YrZlYjLSYSL76nAvDIsr8dIYQQogu9u6vUa91PPNQ2EPJSu0JehiAWkeGioMLI0h3ODqqfoBuWbI4O/URPxl8cPoq7ERkIOLsXv/XsIFeAk3+6vhPXbichQ3AH/21yhkcePlUvXLkXFi12E//ni2UbLyj0u9MVE97Bqc3f0a2tYhOwvNy+ucXQrLa0byHwRK/7bBmVtUW1IlkX/lUrg2btW0n/C42MVEhVR75fT6VerVGztN6dxnJMYGEpqpnV/iFB7uPfPYRdFz4CABwHrcT/PMpxs6hRAb1G9Bb/vRGHz8cACMGpLQIM6Z2bo8jq5tb+RTj1VtTUc+TsCVpMiaFIGLgb/Tb4cxfrPUOzBnDpYyP+7xwePpc8TMqaZDqLzCQ+gvdeymIAH2PUG7IGe5e0AQD4Pn7OzaASEwrxJSMTgAXMZTMyEEIIITmm250+H5g6t8PE5qLah7Az95QGA1ElNTwIXl9EIU6/eQPhWFhdIdoMrl17if8+h2OXjsLnOJSG8DdxbIne9UUj7p29dAMvbp7Do0Ed4JynT9WN0WzmaixuURoAELxlATbdyn5fins7l+NWu8noVlcygIhI3m7f3CKai0wUXPoj4Gn2mnHmh7SYSLw0zX5z0YquAzG8oqg5290b2jWLfR8WIO7XY4mhP7hPVdbKoJK96HgLjfgx+zEz6SHWzPoHIRmZMLLsgyWLBqGcFrVsEtbtemGqnWg81GObTuHhzTP4r+ZguFTN24cX6oXA76zkgYsHnBtKghhlTJgMfrpycMLSvyAiPjea9eY3+Tn0gAs37mr1cOvNiWFotcxXbskR3A7IKuAzRlM3+UGispYRG407qRkwd7JHBb1+mEIIIaSg0cO7igMmrpgCB0MDJIUvwuGLWQUuKfA5L5q3p1SjBfjjdwduBgVWrl2kfdaOThiMXSV6oY3SEP4O6DlGVAMSvOVfzDvshd5dXHQc1js7HPDX6VP4o3kJAEGY0WoQzr1RLnBlhe+/DlNWFsf8mb1UNOfM2+2bW6w7jcfyfuUBAJ67T8mNgKlaZtILBN77zF2cC4xhYidqjqVq4nMmFCKtsR2ssxk4GZZ0w7RlopqcF4e34/LzrKqjZM38HAetxPCO6icx1xeVaolqK+KeRSiNwJjXMgRPsXzwACy7kwAjyz44cHWrzhMZ80yao+cE0VxdcX7b8fv/tqFXv04qzq38I/wkO040XZcEwf64/UX1xNsFlUWrkVg7VDQ/W+DavfB9n9U1MgSH1oagbwdRv2WJg7v/0/p4rFNVuybhH969AABY1bGFTRbXhLAL89Cuuil+qzIUlyOy+g2EEEJ+dZygTXHyWSGfr9VTTJ2kyz5RXR8e86bTsGF5Z5Tm8bBpzjI8+aq+eRzffwsWrgiCkWUf7DkyD3WKaY5D5fusAYBrtzYqayqqtuqB5oUNAZzDuVud0bbJb9wsecKwZAusOnMG09zsAJxD18qdsMtfMmhK1j76LEO77lcx6vRmtYXTvNi+GZ9iEZ2qe8Hj9Vt1tS8VMOTvdehZ3gTvvadixYGX3AxyovHvxNHYFikZRlGLue7SZOlCjXFSVdRrVwEAEOd3Dy8/KH7uu0feKNm6rvoCvBbfU3PgYhwcVQeALxYsOKSxIBl6fBmWnv+AUo0WYN/GwSqPXQDgx8dyF2nhHKI/ZrHdsqGkvSOaFzZE5JnneJ+dyZUVtpsVLNRubEVRNzehW6NGmHfmJSq3noyzt/9FP8eS3Gxaadh1mLjPaTg+GI9CLxdd277J9wvVXkJ4hIra16po2r+S+O9zCHiq7mFFNDzXn0Or0T0AAJFnnksn1/4Q+RTGipXwOq2juho8VWRNBrUgt6/VN6ctg4Eb92NO81IATuB/kw9qPGeeHViDSy3m4ndnxR8ceWYYFmu8rgCBdy4CGIKebStzk1SKeB4AAGjRop7GuSozBD5YNXANrr0Q4vvr/Zi66CSyenxGCCHkF5eZzGeJiYksMTGC3dz7B6tfyIABEL+c2Iwdt1jU50RxnkTGT85kuspMS2aJiYnsXdgVNrdbFennl2u/kHmHxrDExEQmTOO+S8j8Ng9i5Q14zNxpMrsRk87NwGLvb2ZuZQuzIpWHsKNBCdxktT7fXMZK83gMcGfHw5W+WCyKbehozQCwZnNuchPzXGZaLLuwopd4PcHaTdjHQuIyuNmk0j76sy3TOjDbRmPYf8HabIvc2L5C8X69ydYMsZc7bjzYDr+XouPlq+h4kRwDLx+fYH80LyHNa9V6Frvz5pOaY4Cx1MirbGQzcwY4sdnHwrnJLJ0fzjaPbMAGrjnBVvcqK/3cVmO3s4A3n1hi4ndp3oyvfJaYGMEenF7J3MoWluYduuYKC3//WbquXKmRnqxneRPRfphzkwnFyzO+BrA/mvdnZ18rbrvsfU8UOzm9EyvN47FKvf5hLz9z97WQhZ6ZweoXMmCVW89Sub/UbWNzp8nsgvg8k5y/ovP+Iwu+sUP62wCwxkO3safvP4v2B/cLsu0pW+RckgHO7OAzFTtZhe/i643ysQU2dI2vwjVJ9vrInt67zk7s/ZP1cizHADAjy1Zs4oYrLO67qm2uCz47OKoSA8CGbA/jJqr1PTGRff4Qxi5uHi49lxV/g+z4/J6YyBIinrB/57jJ/d5WbOXlFwrnEmOMpSfcYuObWYjzeLATnGMwMy2KHZrSkQ1c84AlvDrIXI0LMQBs1O5w9i0+iC3p3IJt8vvCWDbW8fOHMPbfip5yeZ3YgmPB7GOifF7RtSEh4gHbMtlF7vcoXxvkryPyec2dJrNTga/UHovpCbfYNDc7BoC1GnuMveXsY8k1tN6gbQrnU+o7T9bR1IgZWdoyWysntuhMtML7JCIuL2H1C9myaYeUrzuqSY5zJ7brUSo3UUE635sNM5Odd/ZDjjLR3iCEEEJUw+vjQ+VuqKJXkcqNmGtbF5WvvzxV3+A0+f5grdJ3cF+rfVXf5BJeXWHLBtZjpXk8Vqv9WDZ/5Rq2cv5E5tGkKitS2Z1Ny1aBTHRztR9ylMVreKto2zixzQ9Ur1t+SPt4i60b35WVNxAVkMrX6stmrdzEjl3wZj7XT7Mdq+ex0R5OzMrKno1aqfu2yMn2lRR+uPtS/uUsDnhzcgxkpsWyi5unsLbVTFj5Wn3Z7A0HmeeRrezPcR6seYdhbI/PW8ZYLNvVv4LSZwIzWXCGaP29l9VWkS57SdZVldTIq2xe31oMAKveeQpbs2oG6+LYhq3wUj4fcvI90ff3s4md7BlgyRr2m8LWrFrDVswcxVrVLsvK1+rL1p4KYII01ftDm208ep+oAKrqvFd8eSgFozlxZ62rwvdr9pDNLl1MxTpp87Jkjq1d2OjpG9gJn5BsPWRS57P3fAYMYVdUBMyqqTsm5V+S4zPr38w9buTPC8CS9Zyykv175DBbP38ic2/SjW31eSsNdj54L2UtbETnqpFlK7bQ84U4JXfX0bbbXvYuM1Ona0PWeTUdi3z25PRKcZBekbkMncrWrFrD/hznwWo6tGfzD/srnS+i72vENvrGs/QEf7ZsYD1Wo/VQNn/lTnb64hG2cdUMNrhpVebUayHzClT1sEo1ye8wd/qbhWVmfdw995rLWtgYsVrtp7BLb9T9PkIIIUSEx5iGdiV6hAkFeB8VhvD33wCYoJx9DVS0ttDYn0OT9NhwvC9cFRU0jromwJuw7yhrb53t78ktTCjAsyc3cffOIzwOuIeXiZkAKqKBWxM0a9EULevWhJmJds3GVMnt7ZtXkvlRePbkNb4wc1SpUwMVLCQTB6fg7aPHSLapjjKmou1gam6e6+ufzI/F67BQJMASNR1qoEzR7G9zTTKTBHjz6jGiEzMBcH9rwSMM3oqG9SYitd9h+B3sp745qR5L9FmAjpea4Oaa9rl+XOWU5LiMSzbWcO6K5hQ0LWoO8ewiPxXZNjBDlTqVYFlM3e8U4E1YBirZl5Aukb/+lbKtg4qlLWCm47n95sQwVO67D51W3IfXrEbcZEIIISRHCkzQRggpyKKxsWsTTD7XHFdijqCdjer+lvorDrsHtAJ/bDCmt1TqDEZ+eQIcGl0Pg3dVxfFwL/SppjJaJIQQQrJNUzUTIYTkkgoYPGkkSvNOYv/5V9xEvScM9sTW533RuQkVxomy1Nde2HcgGo2n/Q8dKGAjhBCSByhoI4TkCwvXEZjbxRrn/jmq1fyA+S327gGsXb0bdz9wR0VMgffJ3Wg4ZQDsdZjfjfwqUnD7+L/wSXHF+OGdNI4aSQghhGQXNY8khOQbQeA/cG00Hc0ORWJDX9E8fPogLeYUulXtj4vJaTB3+hv3H89CdfF0CqmvD6NL76dY6btc7ZQX5NclOXYMZ3nj5IKWKvoSEkIIITlHJRBCSL4xqzcOKxe1xcZ+S3H7i5Zzd+UDXiETmBiIgjSrOrYoCUmNWjQOLF2NBnPGU8BGVEjBlc1L4e/4FxZNak4BGyGEkDxDNW2EkHwWjd3D2uOI5T+4tMJdTwq6KfCa1xKj7nTAxf/mo66FATIEL7B9+kDcsF2LvXNaUrM3oiTRZwGqt72M5Q/vYGQ9GqCGEEJI3qGgjRCS7zKTHmJ+hw6IH+mHHUOqcZN/EAFubFmEFTvO4f1vZWBRqg6GTv0LA13K6UlgSfRJWtQp9G+xBg23ncCsTvrT1JcQQsjPiYI2QsgPkRZ1DeMGzkaZqUexrGdVbjIheitDEIAFnQdDOPYc1gzUl4cOhBBCfmbUSYMQ8kMYVWyL7Rf2ouSlY/D/rj/92wjRLAWX1/+Lsou8KWAjhBCSb6imjRBCCCGEEEL0GNW0EUIIIYQQQogeo6CNEEIIIYQQQvQYBW2EEEIIIYQQoscoaCOEEEIIIYQQPUZBGyGEEEIIIYToMQraCCGEEEIIIUSPUdBGCCGEEEIIIXqMgjZCCCGEEEII0WMUtBFCCCGEEEKIHqOgjRBCCCGEEEL0GAVthBBCCCGEEKLHKGgjhBBCCCGEED1GQRshhBBCCCGE6DEK2gghhBBCCCFEj1HQRgghhBBCCCF6jII2QgghhBBCCNFjFLQRQgghhBBCiB6joI0QQgghhBBC9BiPMca4CwkhhBBC8lPYhY24EJrGXazEsGQjjBjeHMW4CeQHisbptZ54k5l1kdK6+RAMaFKKu5gQkgUK2gghhBDyw/ksd4TbnKfcxUps3LbC/+pYlOXxuEk/jXdBz2HmVCNfAtP4Z0/Aq+aEUkY52Z6P8FeZNvg7/is3QcmA7WE4PKY6dzEhJAsUtBFCCCHkh5MEbeXaj8UUlyrcZCmeiSN+n9AWpXISY+itaHhO/R/OlFuAPdOcYcxNzgN8/3XovTQNGw7PQM1i2e01k1VNGx/3j22AZ+BXCtoIySYK2gghhBDyw0mCtnrTLuHumvb5ErDol2gcGt0VJ8puwMkFLXX6/cl8PlIA8EzMYGaiezQbenwMOv1jjdPX5qNOtgM3TeKwe0BDjDoaTUEbIdmUF2cmIYQQQgjRWgp8lo/G6uQp2Da/RZYBmzB4D7q51kYZAwPweDwUsbCAhYUFZh5/yc2qlZp9N2K3x30MGXcQMfQsnxC9REEbIYQQQsgPFHFqMgZtMsOSRYO06qtXuJIbZs7dgKMXjmB618ripU5oWNuOk1NbxnD9aydGfPkL/1t8GyncZELID0dBGyGEEELID5LxyRtLpx2E+8LF8KhkyE1WyaBoRTRt4wLXDv3Q3UUSqLmjUZ1CnJy6qIDRS+bg/dJJ2HQr6wFFCCH5i4I2QgghhJAfIgWX1szAf+YzMPX3atxELcQh9P4LAIDDmCawNci6lk4TE8eB+PN/mVg5cy2eJ1MzSUL0CQVthBBCCCE/gDB4DxauCUa3iQPgZKp7wMWELxB4OQEA4Fg3N6YIMEPnkWNh9XAJNv73lptICPmBKGgjhBBCCMl3Anjt3o5H6YMxoIukX5puhMH+8OQnA3BCm4aVuMnZYuLYGaM6WWHPtC3w/57JTSaE/CAUtBFCCCGE5LPU117YvvM56k3rh5ZltOvLxvUmxA/xjAFoBUf77H2GsgroPLAd0mJXwfOSqBaPEPLjUdBGCCGEEJLPXvpdgE9KOjq2qJ/lEP+qxeGe90MAgMOYNqhRJPeKdOXqu6F5YUOcP38dNCQJIfoh985wQgghhBCihWj4HL8JwAPOdUtwE7WS+/3ZZApXdkLbOuYI238Djz9TE0lC9AEFbYQQQgj56TChACH3byA44rPezTuWFhOAKzcSYOPWHvXKZ68oJuvPZommddX3Z0vmR+Hhzbt4GZ/MTdLAAc06WgHYiVsB37iJhJAfIHtXCkIIIYQQPRV2YR4695iKk7cCsXuqM2q1+RP34jXXGPH9t8DdsRZmnsr7UROTwoJxMTkNVk52KKXFZNqqyPqz9UVDB+X+bF/DPTGpcwsMnL0DvgH3sOfPbui17JbWAax1lQYAAO+HodwkQsgPQEEbIYQQQn4aEafGYs7Dtjh28V8smjkNK/8ah9c3V2LSovMa+mdF48CiZbj6NBQ+955pHdhk1/NndwEA9lXtctyfrdrAJqhkqlicCz0+Cd1WfMKkg774b9tydKyWiMA7t3Bq7lpcjc5QyKuOXVVHAMDbJ8+RQFO2EfLDUdBGCCGEkJ9CWowX/txqi+XzW0j7eAm/CgAAD7cEIjJTdfQhaa4IAM0b1spmIKUtAd6/igIAVLLKXn+2DMFT3L0YBwBo0KIuSkkr61IQuGcClrzqhTN7x6CKhQFSXx/GxL4rce2FEIAAyULV24CrkGVFdDQ1whvPCHxg2r2HEJJ3KGgjhBBCyE/B//h6VBw3HNXlmhyGBvkBAIwseSispiViwhN/XExOA+CE2lWtuMm5TID3r5MAAJalzbmJWkkND4LXlxQAlmhSW9afLfT4JCx71wf75rSUBq2Z3wSITRc1DXUcNAzNqio3pVTFwNwcloUNATxB5DvNTUsJIXmPgjZCCCGEFHhMeAen9jRArw6l5JaGwOf4EwBAg6FNYKum/1ho0HUAgJFlNzSqU4ibrIYAgfsnooLhLASk6lITFY+PAUkAWqGMrIpMJ4/vX5L2Z3OuIwrCwi7MxIrwgdi3oKVCTaGJ4zhcenQRFy4+hM+/v6Osmm3AZWhmDqvCRjrVzhFC8g4FbYQQQggp8FJCA/CwSxs4yc1Xluh7DpsDPgNwwvA+LmqaPYbA72wEAKD2oMaoZqAuqEkBnx+Jhzev4+S+2ejt5ID6QzfjbaYQLF23oCY5MxOAGUxN1H2XJnEIvf8CAFCpV11UMk1F4P6JWPSkM7bMl9WwySvn5I6OHeqjlFF2vs8XcdSpjZAfjoI2QgghhBR4JvWm4tYKd7nALAV+3p6IZwzmTv3Qoq7qGrS0mHA8ePoFAOBct6aawA5Ij72NjX+fhG/AGxSu0Atr1o3lZtFKWkwkXnxP5S7Wmnx/NvvKX7BjgDsOpo9SaBJJCPn5UNBGCCGEkJ8OEwbg4pZwAECLwS4K/dzkyfqztUKbhjbcZKlClm6Yv3IGps0Yia4u9VGmmCk3S76Q9WcDLq6cjOUBKfgedhNnLj5CfDLViOWm+Ge+uH7jeo5fDyO+cz+aEJ1R0EYIIYSQnw7f7xq2JX4H4ASPNnW5yVKy/mytUaOKdoN05IRBUckAH9kj6882CfcF3xHtvQOuFcOwZVQTlClih98Xn8O7NArecirj0wVMaeIOVxdX/G/2Jpy9/giPHz6Wvh5678fktm3h6uKKcevOK6Q9fvgYAZf3YdzAdnB1ccUfBwK4H0+IzihoI4QQQshPJgV+3icAQGPTSO37s+Ue2QAfAEvnpmZF1p+t2sAmqFzMFCVtndBnwlbcCPbBH82/4uCCrug0/Hguzq1mCZ66zfcTi/W7hpNFuuJoYALC75/GhiUzMG3GNOlryvB2MDfkAbDEyBmrFNKmzZiGWSsP4NnzK/ifbVHUsLXmfjwhOqOgjRBCCCE/mZe4e/IDAKB29yZqm0bK92fL+/nZJIyB4gYAziH6o25D6aufnw0wLNkCcxdOAAAEH1qBM4/TZInZwITJ4KdnAGiECla/WnExDheP+WPZ4c3oV7ckNxEA8O6RN+6kZgBoDyd71dvH0Kw5OvYrh6p2dtwkQnSm+igjhBBCCCmg0mLCEfRe1I+orr1sHjOupLBgaX+2ZnVltSFpMafQZ9hxfFXInVvKoJKzGQCA/1XITdQo9Zk/9gqEACzRtK7y7zIpJvpcIAhCzkcn+i7HpMPRigs1SP8UiyhhGgBbWGZzaoKCKvX1NZzm/44BLvLTR8hLQejj+wCASr1ao2ZpdcVpIYTfnFCxnLp0QrRHRxEhhBBCfipMKMSXDFEtVtXy6ifLDnxwEVDRny3hiT+MGtfJo9EYy8DOQRRcvf0oqg3U1uOHov53QF80dFDuF/fxrajpJOChVDsW6HcLjjW0b6aX8SkW0akZsHGzR1nTXytoe+l3AbVG9NAwp12ItCa3RoMaGvKlgJ9QCla/WNBL8gYFbYQQ8pNLjw3Gy3jdmmGR3JCCV0/e5FFtDdGEZ2KC4oZZFXFk/dns3OxhLS14p+DR/cdo01C5Jiu3VKreFADw5KUuQVs0nvmJRsOsNrAJKpkq/z6WIRpVEqgDO1tZOhPewcVLbTT07VOW+DYKIRmZsHKyQym1QcnPKBrXvazRs626WjYg9XUYbr9NAmCJ1k3qcZPlvEVUYlWUK5b97fcu6Hm+XUPinz1BAg1io7eUz3hCCCE/jbALM9Fh1CWkmXBTSN4zRmr4SgyYeBYxjApC+cmorC2cbIoAAIQqB/tIgc/yOdgWzQcAlKhqLe0fxoQBuHHTVacAR1fWVR3hYGiAuGcRWh8bGYKXuHclHlDRn03C9LcyAAAbNyuUkEv/cNUTEd3aqO3bp0rE60Agi7nrCiImFEIS2qpWAROOrEWj4uqLyNr0ZxOpj8XnJ8NOh+0uEw3PqZ3wp/dXFOYm5RGjb9fRv+cqhH7N/Yd86bHBOLnvH6xdvRbr//VCdGLuf8fPTtORRgghpAB7fmoyui4pgtWHZ6BmMe0v98l8Pvh8PgRJ2hUmiXo1+27EFOtt6Pj7Aa0L5yQ31MegZX1RmsfDqXM+nEK6AIF7JmBr2jRc3z4eAJApN2ZH6JEt+D62v04Bjq5MHBuhi20xRJ55jBgt51aT9WdzUlsLWKZxWwyvWATxT2ORJF6WmfQQWzcbYNaoBpzcmkhGqdQ8d11Bw4RxODpjKC49+8ZNUqB5tExt+7OJaP4sdaJxaHRXHDCfhT3TnHUKmqXXb6F2x5U8c+c/sGHgG3RquxhPci1wE8BrfmdUqDMYR649gX/AXdw7vQgOdq2x94nKJypEDc1HGiGEkAKJ778OQybFYvWReaiTRcCW8ckbk9q3QAVDA/B4PBSxsICFhQXarbjFzfrLy/opPZcxXP/aiYmFVuJ/i2/r+F6SEzX7bsSZTQMR889Q9Bi1Cscv+uDkvtno07Q/zppOwpEFLVGj62J4LeyM6D0LMO9fLxxbMxCTbnfD3AHluR+XyxzQtH8lAMfh/ySDm6jSxw9RQBZTGBiWdMPaE0vQ2HAnFi4/iWunt2NY1wWwXbFYY80Rl2SUShu3vmhWVbnvXMEkwKmZQ3DkZhlcHboETzN1D2pEtO3Pll0p8Fk+GquTp2Db/BZZBmzC4D3o5lobZQwUr98zj7/kZtVKzb4bsdvjPoaMO5jjB02ZSYGY1LAqPFYHw75eMQTeT0DV2lYIv5yMOqX8McK5AXa9ocBNa4wQQshPJfXdedazfFk28VA4N0kNPgu+cZ35XD/N1o5ozQAwAGzumThuxl9aauR5NrKZORt7KIqblKWMr7fZ/2zL6bBPfj3ey2ozAKzetEtMyE3Mgcy0ZPby8Q3mc92H3Qx8xYRp3ByMfYsPY37XfdiD0E/cJLW+P1grPlcmsQffMrjJWfr+YC0rzeOxTivuc5PU4LMX9++yqM9Zf1dmMp89vXed+Vx/xOK+Z3KTs/TZez4DwIbuzq3jNZbt6l+BAWADtodxE/PJQza1dmfWZNSfrNfYM+wLN1lLKa8OseaFDRlgyVb7pnKTc+yN5xhmZdWHnX2dzk1SKeNrJPO77sO8Lx5l07tWFh+TTmzXo5ysWxTb4GHDuiz0zcG5eJ9NqF2CAWbMsUFZVqrRLHY3LoMxJmTn59ZlhsUtGQBWrMYSFpap+zH6K9L+sQshhJACQICzK//Cg1pzMWtAVW6iGmao3boNXNp0Q//uzuJlHmhYuwQn36/pe0Iwji4bgMqVPLDbT9QHSlcGRZtj3uYBODZ4Bs690a5mheQOXiETVKnTGi5tXNCqbmUYq6ikKlKqOpq2cYFzjfw75k2d22FCwxLwO3oD4VrVaJihaqMmqGCRddGNZ2IGh8Zt4NKmHkrrPPKjZGLyIRjQpTI3scASBj+Ab7kvsLOIR+E69tkeGVT7/my6y/jkjaXTDsJ94WJ4VNKuhtOgaEU0beMC1w790N1FMh+cOxrVUXGga60CRi+Zg/dLJ2HTrewMgyLA+vZ9sPnpZ5SwLYTgh2WxcONcNCltAMAYzVp3QcaXWADA1+frcPq6pDEv0SR3jzZCCCE/VKLPOozbbIBZ8wZmq9lOaJBoSHFzpyaobvdr3iLiHhzA2tUzMdTdDY2qmcDcoS/OB33B22w3pxKx7jQYE5vfw7wFJ5GQs48iPwUHjJwzCPyg9TinR4XWjE/eOLolAk1m9UfLMtoFDgXBm6f3YJbBUP7bXZVz3GlHt/5suknBpTUz8J/5DEz9vRo3UQuSfoiAw5gmsDXQ/fovz8RxIP78XyZWzlyL51r2u5QIWNAZ065Eg2dkjs+Rn+CxdCNGOheVpsvmEwSARJy9dpeajmshN482QgghP1QINi/aBmP3sejeRHaD1F40nvnFAAAqudWBbTaCvrwQcXYmus0+m2/DXotUQIfJs7Hp7Ht8/fgce6a7cDNkgwNGTB+A4EMrcOxe/v4aop9sPEZicYtMbN9+Sm8C+bCzh3Dkqztmj3PLsj9VwSFA6INoFHpaE18euKuc4047edefTRi8BwvXBKPbxAFw0rl2FGDCFwi8nAAAcKxbI9s1iTJm6DxyLKweLsHG/95yE9VKCfkbfZb6IROAQRofRpaT8NfEhgrHkmFJSzQ2ku2DsEuPEalVbfOvjYI2Qgj5SXy4cBCb7iSg/0hNk8KqlxYTgCs3RDf9ji3q602B7c2zy3j6KhEp+XRPL9Pod0ybMQF9O7rCuUaJXN0O1u16YardG6xccjjHnfzJj/UhUjQwCBCE52HfOanacsDEFVNQ5PR6vQjkMz55Y93ic+i+Zg66VMhuYKOPXuHuWVMkdbZAbI3GKue404b287PpSgCv3dvxKH1wtpukCoP94clP1ji6qK5MHDtjVCcr7Jm2Bf7ftRlNMhpLhq9BpLhVQgaAAYvGKQ2Ck/lNgMRM2efxgz9AoGNt3q8oe0ctIYQQPRONkzsPIZ5NRK8O6ieF1SQpLBgXk9MAtELtGhbcZJILeCbN0Wlkdby7vB2XHtOoaQXLI/xVpjh4PB54PB4q990oXu6LofWLSZeXbbtNp4DcvOk0rJ9XQg8C+RTc3Lwc56zm4e8/GnITCzRh8AP41kqGnUU8TJrVUTnHnTbyqj9b6msvbN/5HPWm9ct2k9Q3IX6IZwxAKzjaZ+8zlFVA54HtkBa7Cp6XRA/0NIk5NgdrAz7LLRmCgd2ryP0vwoRChGfIH+uRiNWXqmY9lntHHCGEkB8m9fVtnLsSB4cxbVCjSPYu7YEPLgIAzJ3aw+mnGeZb/9Rr1BFAEM5cE01eTAqK+lge9wWMMY2vmGv/07Gm2xhtpq3CkKR5mLgugJuYb/h31+KPHWWw58iMPJ2j7kfInf5sAgTe8QPyoD/bS78L8ElJz0ELhzjc834IADm6B6hSrr4bmhc2xPnz17Nooh6CNUvOQSi3RF2/SOHXT9xFRAu5t1cJIYT8MC99/4NPSjqat6iXzb4M+tmf7WdUvEFLDDMz0WHUQPKzMyjaAAsObYfBhsnYfFdz0TgvpEWdwsh+5zHKc5fWoxYWBCxdiMSPj3D6VDC+3zBHiE9DVCkvN5O6Tl4h8GIckOv92aLhc/wmAA84183e6KW5359NpnBlJ7StY46w/Tfw+LP6JpKJvv9iV+gXuSWW6N62qcog9H3UE+4iogUK2gghPwWWLkDI/RsIjvisdhQq0Q08HHdv3MWLD4lq8xU8kqesrdCmoQ03USvy/dmaN6yl8kYLAJlJseLtnN0+PMTQrCqauJcGP+gygl7S8P9ExKhiTxy9PQcPxnXN18AtM+khFg36B867zmFC09ws7v8oKYi6uR9Th7eEXbXGGDpxETzPx+OV00eEfw/Hmv71UKlWP6w5cgcJado+NElB5IUzOB8p2i81bCVD6+ec5Npr49Ye9cpnr1gu689mqbEmMZkfhYc37+JlfDI3SQMHNOtoBWAnbgV84yaKCfDfupNQTO2LVk1+U1giIkDo3TDOMltYZrfN6i8ke0cHIYTokbQoLwxpNQyHbj3C7qnOqNVmCq5HyArDGYIX2PtnDzRr8T+sPHAe9x7ew5YpzVGiSnssPvtS4bMKItlTVifYlsveZV2+P1uzutbcZGR8CsDyQa3hOmolrtwOxKXNA9Bk2PEf3AenoKqASjWLA/CF32PRSHSEAIBRxc7Y57sBaSeOIiJfzq0U+O4/hQY7r2Cme2luYoETe3cD2lYsDscBf+LA+QgUMYiF380AhFmnwTwpDilGUXgSzkPx795YMr4lHOoPx0W5e4W8DxemooyBgbivognsOi9FSIaopmlNP0tpH0Yebyiuxan+DG1Irr1WTnYolc3aO1l/tr4qR8b8Gu6JSZ1bYODsHfANuIc9f3ZDr2W3tH5waV2lAQDA+2EoNwkAkPr6DLZefK+wTH0zzbd47K3YP87I0gJm2Rgx81ejamsSQkgBEoIVo46i18GTWDFzOtasXQTru5vRt/9qhDOGr+GHMPL3bTAfuAt37+3FipnTMW3GNGw4fgl/13qKBd0GYYu//syRlB0pL4Jx+4sQNm72KJvNG5+kP5uRZWul/myxd9fCY/B/aLrKBzeOrsNgFzM89H6E+/sm4/Q9GkwjO+xqiAZ68A97w00ivzhDs9qYun407LJZgNeNMdqM/xvdaqiqESlIBDg6qj4qNpuCuymVYZkej/KtJ2DXjdfwXemM1lVqwKOlDeafiMabO6vQsGwGild0RGbofnRt6IGzH5SDLutO/yAuM1Opz6Lyax/aqui3pa3nz+4CAOyr2qlt4aCZrD9btYFNlEbGDD0+Cd1WfMKkg774b9tydKyWiMA7t3Bq7lpcjVb+3arYVXUEALx98lzl1BQv/U4hMF2x6WTD+lWRweeDz3nFPw2E7wfFOjk7N3uURH4c7wUbBW2EkALtw4WDeOQ6SdoPg2diguKGBkh4cAzXTh/F5HkxmHFoLbrXLsl5ZwU0cK0JwB/b//XOooO1fkt8G4WQjEyUqGyN4tkq6IXA72wEAKD2oMYK/dk++izDmF2lsOPscrS2MQQT3sGK3n/AM/gdgFjwv8p3Oyfasi4nmjw3LiRCZSFIV+mxwbh+43qevm7ef12gzxPyc2Lpz/BHgyoYsPsJilWywvfYYui97TmenJyFZuWTEOibgNTYOhBccYajvSGKVe6CHZfPo4vgNb7alEH6p4sY0nb2D5onTID3r0RTR1Syyl5/tgzBU9wV97Vr0KKu3MiYKQjcMwFLXvXCmb1jUMXCAKmvD2Ni35W49kIIQIBkoXa/uZBlRXQ0NcIbzwh8UNpOcfA7oTyo0t7RDrCwsFB6lXEcgrupisFi9bqVsj2i5y+FEUJIgcVnJyd2ZMfD06RLkoO2MAdDAwaAGVmOYTdjMxTeIe/18aHifAtYWGYmN7nACNnTgwFgjRfe5CZpJfWdJ+toasQAsLGHoqTLEx+sZe0H7WPv5LZNOt+bDTMzYQBYqUYL2OMv6rdvbvFeVptV6rWXxf/AXfT9wVoGQGkbZZfsOJ3PgjNy+sP47OQUR+n65d3Lie16lMr98lzjvaw2A8DqTbvEhNxEUsDFsl39KzAAbMD2MG5itmWm3WMjqhdnANhvFjwGOLONvvGy9OTbbFyt9sxp+B+sw9gz7Ivce0P292cAmKH4+O66PvfWS3tRbENHawaAbfLL3rn1/cFaVprHY4Clwmc8Ozaa9Vjoq3Auyd8fHTnXdk1k130Pdi4qXSmtXzFjFdcL7V+rfeV/O5/d3PsPW7NqTbZe/+y5rbCffyZU00YIKbAyBA9x+W4LheZ878MCxP0OLDFrxxK0KqP+Mhfx6hF3UYH08aOoX14lKytuklYSnvhL+7NJBjL5ErQVo7eVxK5/f1cYJc3QzBWrH13GhYt+eHRpPuoUU799iXqGJS1RobAhAL7WT7vVM0Ovf/yRmJiYpy/+18cYWc+I++WE/CDRWOHeE3vCv4BnCHxLZBi97yAmtpTNU5kSGoCrZePRoFQMLOrYK4yqWLVZJzQvbAhJnc+1jSd+wGiu8fgYkASgFcpks6rp8f1L0v5sznVE98KwCzOxInwg9i1oqdDk0sRxHC49uogLFx/Ch3Nt18TQzBxWhY1U1s6lvQ7G5STF3nH1pl2CUKkZKQNjTzGvFncO0NFwVuiHZ4JKteugboPKMI29g5WzZmD6zOlYceolSteqg7oN6iq8qpUrgvSEIOz6Zxamz5yOv/99iIR834/5g+62hJACK+11MN50aSI3p1AKQh/fBwDYuP2J4R6aJpmOxjM/UWdo/WtPH4dD/2uEmm3WazcYQZqoL0HxoqbcFK2EBl0HxP3ZalQxxEefZRiy+Tes2/k7yhkpb5eSlVuhY4emqGBBt5Ccy61JZY1hbm6epy+zosrHAiE/yrM9U7D4umjwC5YBlGu/DfN/r6qQ5/WTm6iSVgTF+dFo01BxVMXCle3RoJiJ9P/vby79kNFckzMzAZjB1CQ751ccQu+/AABU6lUXlUxTEbh/IhY96Ywt81uqHPq/nJM7Onaoj1Iqru1Z80Uc53r1/tUj8DmXMHXzzaW+DsLZcIHCMocxHVC3hPy9xBjl67eGS5tuGLdmLkaWKgoAqNC8G/p2dIVLGxeFV5f+/8OslQfwPPoNdg2tgTi/CMQn58Y1Vf/wGNOmREAIIQXBI/xVxRV/vxagxcKbuLWgFTeDVIbAB6MqdsZegRADtofh8Jjq3Cw/TOrrw3CtOQQhNZbi/uNZWUx0G4fdAxpi1NFojD0UhW0DK3AzZCEEixu1xgL/T7AfsgITS92Hr+lY7F7irvKGn3MpCDqzF94v1Q0drezFzZU4EeOCSQMaorimTSHHsGQjjBjePNd+Q7L/OhRpNA0AsrmdFaXFnEK3qv1xMbkDzkX9hy4Vsj+Qwc/CZ7kj3OY8Rb1pl3B3TXuVhT51bt++zV1E8pC5uTlq167NXayB7DqVG9fbjE/e6F+zM07GSWp4LLHK+yVmuMqf8XE4OKQ79j2sD9tvBhgTug7OcqMZMuEdjLdxx7ZE2fQlm/xSMaFp/tUm5/Q6IH8f6zhrA5pGnUKC2yasGOGo0/mTtUf4q0wb/B3/VWkbSc5bmVY4Hu6NPtUKyS0TeXOiDyr3PamwbO6ZOCzpqm7kUtn3anNdyPh0Ab/brUHXh9dUfn+Bx20vSQghBVXKq0OseWFDBoAtuay5Vftn7/ni9vSWbPOD7PUlyCtvPMcwAKzBrMvcJBVkfUWy09dKvj8bAGZkac+6j53N9p66w17E5UV/tSi2q3/e978qX2sy8/2Ue+uf233aZNtduY/IryonfdomTZqkdAzQK+9ewcHB3F2Qhdzt0xayv5fC+pg7/a3UL1lTfzbGGEuN9GTtTQvJfU7+3wtyeh2Q9WcT/YYilRux0dM3sGMXHrK479r1V9POQza7dDEGpb53fHZyYlXO8TFTTT9dPjs+wFYhr5HlTPbgm6brtOx7tbsuCNn5P+2z3T9Q31FNGyHkp/HmxDBU7rsPgEeWTy3vbmyLZpO9AUzCg2//KDyB/bFS4DW7DrqsCMMMz1is6lmGm4FDAM9JDdF708ts1QB9uDALNp1XSZ+Odir+Gn43z2DTwkXwCi+OjiMXYdWqUaj1A5tC+ix3xOjHf+DBiaE/bIQxqmnLezmpaTt5UvHpPclb9vb2P7CmTfZZEqpaVggD/0Ht2YfRqk4VJFdapPSdiT5zUMJtudyS0fD9tA0tFZrq5S1ZTVm7bF0H5O9j9wUrUOXzC/h47cDmv3fj9nsbDF60Ectnd1HZzF036mralPeFbbe9uPPfEKX+chmfLqBL+e64lJwmXdZpxX14zWqkkE+RbjVtABB6eCj2mazS4t5ZAHGjOEIIKZhET9gAMBu3rVmMihXFdvYpzwCwagOP/tBRCZU9ZLMrmzHAg514rd2TV0kNxeh94dykLHkvayB+4qk4gmbG13C2aWgNBvEokaG5+tRWNz/j6JGyJ+x92JUY7fbzzy4nNW1E3+VmTZus9kXymnQsmpuJhezxYO3btGBTRzdRMeqpkJ2b7qDwGfZDjirVxuU9yW/xYGe1vN7LyLYp9z6WnnCL/dG8BAPAHAflxj1Osp7c2kjZOkheznNUj2Ic4zlQIR8whF2Nzeo361rTxth3v+Ws1+Yg7uKfQv49TiCEkDwVgrsnPwAAKjevqfSUT16G4CXuXYkHlOa1UZbxKRxXj23D2tVrsXb1Wuz77yES0hg3mxImjIP/mb1Yu3ot1v/rhehExYlH5cU/85XOhXXN8wJuv00CYIGvkTfFy+/i7Vf132lSSNSZPjhS9Pu1p35+NoOi1TB67hw0L2yIhAeLcOSqaNAWkjuYUIgvGZkA7GFtldNbcQru7pgAt3auefpy7z0VN97m/0ANhGSlannuyLlxSvOzycv45I1tW8Llllhi+OBOudYHVnvGQHEDAOcQ/VH9PUIV9fOzAYYlW2DuwgkAgOBDK3Dmsax2KzuYMBn89AwAjVAhi+uVgcougdHY8fcl0Z/i9ey+ZlyOJiVXx7TpbJwcL5oMXJ1vMUE4ue8f8X19M05ef6XVHJRMGIeAy8ewSVwe2H7EW+nenpkUhXP7/sHa1btx/eVn2XvTtS8TqKN5yxNCSAGR+jpMHOwA7RrX4yYrSH3mj70CIQBLNK2rOKKYTAoC909EvV7bEFemJQaNGoERo3qipoEfhjfojyvR6gqvAgTun4hKdn1x/nMV9B45Ar2bMWzw6AXP28fQq4Ip6k+/DNkAyQI8ux+Ixw8f4/HDx/A6eRp3UjNQrr0pEh89ES8PRHSC+gu8tW0tAEDq12S5z81aWlQ4Hjz9AgBo3rCWUrMTyUTlAJCQlKyQlvr6MPotuqWwjGgv41Ms7qRmwMbNCiU0PDTQjjFMsjXyHCEFkSTQUY8JX+D+o+L41NgIHzq0QQ1O8/e7axaJm+mJggbHQesxzCX/QzagDCo5mwEA+F+F3ESNsrqPmRQTfS4QBCHnoxN9l2PSYVmTxqykf4pFlDANgC0sFZ5yloFddcXt5mhrrfA/AHy+shKrH30WhR0MMLKchFmjGnCz5QMBLizqgtZTLqOIkwdGjBqB4YPbonj0HnRzWYTnakadZOlxuLh2ECrZ9cW59yXhPmg4RowaAdfK77G6dxfsDhSVPYBobBk+B5mNfkfPmlHoV70mll75ii9BezCgx994ZdkSI0aNQKvfrqKDy2IEqfk+tbhVb4QQUhBJJsrWpkO33wY3cd5JajtBv/eaySo4zWT3Piump0b6suldK7Ohu1U1ReSz83PbKk3wysSDpLgaizq9t1A7CbasiecMz1huolqSpnu23fZm0SxU0XuvmeLt0EphgnKJ5EfrpJ3cFSc/FW3vuWfiFJbllZ+xeaRk22vb5OdXQM0jf2a52TxSNvhFIfE5+QfnWpT8aB2r0q4+GzGzr9L3ffOdyax4PAYYMSOAGVn2YZezuGfkpew2b8/qPiYZ0EpV00vvZe4qmoyqJ5mUW1XXg5A9PaTXRgCssdL9LYpNdzJnAJiJsWgS8KwGCpPRvXmkJn4bOrBKvbaxt6mKv0Hw5AAb3NScrfJOUVjOxE1Np7nZsVKNZrEbnKbsoZ6TWHVrQ2mT0Jizk9l0cVNdSRN4c6fGrEXnFSxEXJb4fHOZ+L6q+r6rieZHFYQQUiDI5mczd2qCauU1Xdqi8cxP1Cym2sAmqGSqKm8Idi3eA6vOHdGYMwDHrcMTsObsa5Q2N1dYDqTAb1U/dFl6DYM371KY4BUACldugb5dRU8gWzeoq5AmI2ni6YGGdUtyE9UyqlgdPX4rjMgzz/GZcVPVC314ARDPzyY/QbkES2fiSVs9UN1WfjtEw+uwIVo2KSG3jOgi4nUgAMC+qp1SDSchRBMzuA0aCwdDA/AsRXN4/bfrgkIrA3XzswmD1qCpx1p8ZKawNs8ALPvA8+4RuOs4AEhuqlS9KQDgyUtdmrdnfR9jGZItUgd2ctdvJryDi5faoEVd7YfET3wbhZCMTFg52aEUp+tB5QaucBC3yFDl1fqxWB/Eh1FJSwhTGLosPIEZ7vlfq5kh8MHu+Tfg1tmFMzBLHE6snIuDdyvCwkLxt2UmPcSCbj2w1rs2th5ZhtY28sdJCA7O2o/wDxkoXcwEgADXvb6jXRsbQNyaIjo1A98+VsD0DdOlg3kJhaJ56hwHDUNTO92OO/VbmRBCCgxZf7ba3eUn21amTX+2zKRYRIZ/Q6jnUVx9r9gMsvWYk7hx7xnmcuaVEQbvweQ5V2FkOQnjBzsopInEI9TnMwAPNKjxGzcRkGviae7UBI522l+eC1lWhFOtYgDCEBGpvhmlohD4XfwIqOjPJsEzMRHfjBWbxAiDveBl0xmN86A/gr4SfpVNCPuF01RUdwK8fxUFwBJNais3ayK/lgxBFMLfyuYKy0uZSVEIeiXrZ1NQmTuPx/rFbZEWa4TqZU0QeWEiev8dLE5V7s/GhHHwmtcWpevMwNNMa9iVFKJInYm4fO8IPCr92OuYdVVHOBgaIO5ZBGK0HNBdm/uY6W+i0RO5TbA/XPVERLc2Gu+TXJKHTM51ayo9ZDJxbIne9S1gUEz0UDL+2QdI5t9OvvsXXGZcBjOvifKJcXActA/b5rdQ+oz8kB4TieBvqbh65iKeKfQnK4N+f5/EzcCLGFxPvkNeCi4uG4VldxLQcelf6K10nDhgyPZVWLvxJNaPbogMwUP4CZqhZmnRvft9WABCMjLhPHKcwjFm7b4SUZ8/w//gEJ1H9dS+VEAIIXpKvj9bqzo1uckKsuoHAAAGRSvA3qk4ksJ3wL1sIfxWpTH6/e8vHLgYgm9m1dC6cU0ULyR/sRXAc/NaPErPhPPIHmikor+FMPgBvPnJsHFrg9pqArJ3j7xxJzUDVdrX1emGCjigWVc7AOcQ/FK7wp98f7aOLeqrvImaOLZEn6YlAXwEny8pTETj0D83MXJq5x/QaT9/sHQh+Hy++BWJgMv7MP/vg9L0kwsmY91/d/DiQ6I0n0CoXWFL5BUCL8YB6AvnOtyCAPmVfAnais7dVyAmXdUZmPsMivIQsGwg5p19yU0qYIzh+tdOnJxSD+ExVVDf3ghei5qgVOUemLtjBzxvA1EVPuBJlWTsH9cC1pZV0HfpfVjWrgGzJEO0nHkJ96/+AxcdazrygoljI3SxLYbIM48Ro2UfJ9l9zEmhJlFemcZtMbxiEcQ/jYWkx1Vm0kNs3WygY3+yOITefwGgFdo0FNUiKXLAxOXjUTLJHD2a2OD1yaVYe8wLe+d1RXm3Ffhm64amRV6ixO97ceHf3zUOEpaXCpW1hVNZE0SemQqHEoao4NAGY2ZsxKl7MTCq6IxWdW0U7oPC4D1YuCYYgDuG9K4vlyJT3W00/pjYC1UsDGBo5oqthyVTHcha/7g0UW5ZY2purvKemxXVJQdCCClAJIM6GFmOgVsTzc0KHz+8Lv6rLxo6qLthV8X/dq7FQHtRjdj31w9wfPvfGNKpNio2+B8uRyjWvmUIHuL6ifeAmgs0ALx56o+QjExUbl4XdipvWrKLfJuGqj9Dk3rNuqM0j4er90VPRLOS8SkaAcJ0AEM0NHN0wJ8H/8VA+wtY+/duXLx0DDO6jUBUt2XoU037pjUFjTBwKywsLFC2QXv06jMCs9cdxHMDO7i2dYFrWxe0dEzDxe0LMG5IL3Tv0BAWFhb489Rb7seoJQx+gPORX1FvWgc46c38gCS/8f3XoUvvW/jf7s06BQ9MKBA/LMhOjW8FDN+0BGyNOyYdfsFNLGAqoNc/3oi8MRH1K5VGacsqKJFyE3tW7cV14XPw3voj8vUFHDsdDjNrMxS1bYJuI1fiQewb7JvZDqV0rOXIOw5o2r8SgOPwf6JugCtFHz9EAQDMnfqpbeZoWNINa08sQWPDnVi4/CSund6OYV0XwHbFYpUPFtWRjFJp49YXzVQ0owcAC9e/cGZTfTyJr4XB7XjYNXMKFu+8hyrNXFASaWiz+hGu79W9Zik3GZq5Ytmev9DCRlSb9vbZTexcMxm9mpZDlQ4rEPpVsZVK4M3TeJSeCRu39mio5ndz8aS7QtbVQV3LmmzhdnIjhJCCh89e3L/Onr5X7oytSNYZ3mHM6Szn5MlMS2YvH99gJ/auY5MH1JUOysGdE0c2SIW6QVBkHefneQm4iWKy+dm4nca1I3q/udPfCvOtafL2yQ0ttplsO/hc92Mv4rLOn9v0YSCS3CTquG/JVnlndQT+WvJzIJKMr8Fs74JJrFtbF+aaS6/R03ewQM7AReqkRnqynuUbs01+2hwDfOb5ZyfmXNVYOtiD6DWTBWdk76TQ7ftzQ24ORKLa98SP7Om962z9hDqspr0da+lszUatPs98rj9iUZ+/c7Prle8P1rLSPB7rtOI+N0kNPntx/y6L0uJ4y0zms6f3rjOf649YXDbm2/zsPZ8BUDP4lqL0hDDmd92HXTx7ip277M1uBr5iQt3G2uDI3YFImHR7XGIHNs1nozuKBv4CwNotld/2suNV/cBh6skGbvmHvdHyfqwN7UNtQgjRW2ao2qgNHKw1X9Lk57VxrFtDZfO+bzFB8H0sqjXjFTJBlTqt0XvoVKw/HIiYiJPoWd4ELw4/xge5vgeJH0VDJ6sbBIUJn+L6oRjRACO1RU/dMpOiEBwha8oo35+tOqf5ZPyz51rMIVMfncY1AD/oGG4/TucmqlTOqXWW2wxy28GlTVNUFbfXJ9kVDZ9T92DuNAUeLqJBFMiPUBwlbG3RvG1HdGhbH6bR9+Bz7br4lYSqjdqjQ9uOGl8Nq5bE10g/6ft2rrmAdxrmU5RgwqdYNGgsUkesxKimqq5CXGZoOWgG/t5xEcc3/Q/1C4nOQYcxTWBrkL2aC6OKPbFrbzss6zkS595oV7uj70zNLeHQuB7K8oqjnGFn1Mrsi5HjOsKlTT1UsDDlZtcrps7tMKFhCfgdvYFwrfq1maFqoyaowBkoSxWeiRkcGreBS5t6KG2q6/GSAj/vEwCGYECXytxEJYYlq6NpGxd08OiBLu6uaFW3MoxVVwTmq4TwBwgQz5km2h7tMXjCIuy48Bwf/dagfiEDvHj4XGWfwhoqpjDIiqQ/m10jdS1rsokbxRFCyM9K8jQTcFI53LHw2W5Wv5CB2nTJ07dKvRSH1s9qyH1VT93ee81UGOJZMjxzM/HQwRLpCdfYmB7bVH4uV3qCFxtQzJg1mXU5V55I6os7Kxv+NDVtkmNBm6fWv5r8rGnjkny37t/PZ492jxRfV1QPvc7lt6EDM7KcxO4Lss7Llc73ZsPMTBiyMUS8Mj47OVFUi63N9SVn8r6mTeQhm1q7M2sy6k/Wa+yZLFtT6JOYs5P1rgb+x99Tcl7T9v7yTPH5OZr5flJ1zom+Q/HeK2sdo815lvDqjdy6yd6ry9Q92sg6RCeEkJ/E4/uXxEPYt4KjvXIb9ZiQO3iUnolSjbqhgYo27JlJLxB4LxP9+rkqdKYuXN0Jw8xMkJmuanLUaBz6ZzNCMjJhU7+G+KlbCh7diUanFrInl2/C7wIAatewk3tvCm5u3g6HaQO16rxtWLITxi91wb2VW3FV7eTfBU/TP24hcO8QlSOkFSwp8D66C+8c5mHKgKrcRPLDROOZX4L0P3UD86hmhnoj1mDdSDsYWVrALIuajNTXhzF/5jWMWDtNp35FEqnhQfD6kgLACQ1ry18rssMMnUeOhcWZ2Vh14h03sUASBj+Ab7kvqF3mMwrXsVfZmkJf2XiMxOIWmdi+/ZR09MUfLezsIRz56o7Z49x0OCf0S+gj0X3fcVBTVOYM6Q9xKxf/LzUxtIdo6gURMzRzF/UT/5yk6r4uE3p8Evos9UeCtJZOMtCUB5rrMHWPNnS/YhBCSIEkGQELcBjTBjVUDABRrr4bOnVZAd9r81GnmGI6S4/G0XkLEdV3N/7sWV4hzdDMFSMXt0G01yXcjZB1Zs4QvMCWURMR79gLDoYGMChkAgBIi/LCqfR+aCM3DLBdFe7oVCkI3DMN563na9mESqTx8MX4o+FtbN17R2HeooKMV8gEZkWVb7YFjWg0so+YsGg8nLIo3JP8kxYTgCs3JEGbBxrWVjcwjzpmaOrWEuVb2KIkNO1XAc5tWIlb5n9gWPdy3EStvAnx0/jgSVcmjgMxZVgRHPh7D4K0HLlQn715eg/W4MGCH6J2VEX95YCJK6agyOn1OHYv6wbxeS3jkzfWLT6H7mvmoMsPmscuLSoMQeKg6WNQGGLSdD9G6zXrB5cpZ+CjYuTKDMFTrJr+N6pt2MkZ7h+w7jQey4fY4/Kmw7ivMEWASHpsALZO6Yg5Ia44vrOP9LMlA01pGik627hVb4QQ8jOSb1akqXlO7MNdrHeTpmzo9FVszao1bM2qNezPcR6sSeN+bO2pACZIU9eMiM/8Ng9itlbubNbK1WzFzMHMrcsU9l9wAmNMyHxWerDSPHc2deVcNqTjMBWDjUSxg6PqMHOnvmz+yrlstEcnNv9wcLaa9yT6LWMOhu7seHiOeoCTXBXFdvWvwOprMQDOr+pHNY+UDLQAQKeBfOS995rJnDlNm7mSg7aw+oUMdBhsgku3gZS09fnmMlaax8vjJrv50TySz06Ma85cak5k/2swRaumqvpHyLwXtmHl2mvXJD7viNajVKPsnQ85IztW1L9a6XR/Cz0zh7k36cAmzZXd16cMb8madxjL9vi8VXu9yUyLZRfWDGS2Vq3ZWPF7V86fyLq6uLDuY9cz79AE7lvYpyuzGADWNdvnuXoUtBFCfglZ9Wfj+p6YyBKlL+1HHstM5qt9T8ZXURo/Wf1NUPK9mvJkTci8l7n/oBsuUeXZoSGsVKMF7PGXgliQzB8/KmjzXtZAWhjMKvBS57P3fNZKYfQ5LiE7P7euzoVNeZnJt9n/LIrkQeCj+8izusv7oC0z+TYbV7sbcxnzB+tQwPqzycv4GsDmNC/Fuq95wE3KN4l+y5ijdV8VDxcLtmzf19OS5d6XmMX1SSjKk73TXKNcrrcjhBD99PHtC8QzpnFeG3mm5uYwl760H3mMZ2Km9j0GRUVpZibqm1BJvldTnqyJJp79u8YBzFh8+6dpJllQ8f3XYehMIfYcmafU7Jb8aNF45hcj/a9dw5oKqdpK/BStcZQ5JgzA9cOvYO7UHk4q+stqQxjsD09+ssYJlbPHAU17W+s08qw+Sn0TjphOY3GoeyFYNlA9OnBBYFC0ARYc2g6DDZOx+W7+N5NMizqFkf3OY5TnLnjINeH/GWT7vl7IRO59WU2MbSzKk3UxQ2d09yCE/BJsuy5GwA0f3L40E9W1GNSj4KuAkXsvo0/MdAxcdosCtx8kLeoURv7uj2nX9vx0BaCfQXrsU/j6fhL/p7k/GxM+xeUbsgBPXmJCPCqXVx+08f2u4Z+Ir6jdvUm2rz+53Z9Nxhj1m3sACMK5G4+5iQWGcc0ROPO3O6zdV2LviGrc5ALFqGJPHL09Bw/Gdc3XwC0z6SEWDfoHzrvOYYIOfalJ/qCgjRDyS+AVKoMGrV20mpfs51EBg3Zewx/mZ3AmtOA+QS+4onFoVwT+un0EfWuK5ucj+uVriD/++5YKiOdZ5M6RKI/v54mtgaqDtnqjvTC9peJABvICH1wEALRrXI+bpKU43PN+CACoNrAJKpmqXk+WLkRM+AP4Pn6NFB1O+VIOzuhoaoRHlx+pnKuK5D+jip2xz3cD0k4cRUS+7JMU+O4/hQY7r2Cme2luItEDqs96QgghPwkzNB2/Dn1r5kFbDZKFChi2dDrq0YTkeiv00SXp35prwVLgd/M8nB1qcBMAADyNp5ekCWYrVLPTvkmWPCZ8gcDLohEuG7Soq2L6CwGurx2BZi2GYdPZ23jovQMe9YbhcoR2U38YVbRFtSKF8d77Jp59UB4pj/wYhma1MXX96NydoFktY7QZ/ze61aAHTPqK7iSEEEII+QVF45GvbH6yVnXU92dLfe2J9aud0bKh7gXaDMFLPPFLBOAE23LZK3bJ+rNZomldxf5sGYIAzOsyEAH2C3H33lEsG+MOBPvgcch+LD9wRyGveuVRq11JACfwIpKCNkL0UfauHoQQQgghBRi3P5tzXeX+bJlJAry4uQk9O43C6w6NVU7Om5W0qHAEJKXC3Mk6y8m31Xl8XzRBMNAXDR1k/dkyPt3GnwO3o+GGs5jVqTyAFFxaMwTTDwUinjF8+5qsZX/WMrCrLurD9CziAzeREKIHKGgjhBBCyC9Hvj8bcA4eFQuBx+MpvAyLmaN6m0nwCk9G7eY1lSbn1UZyfCxCMjJRoqpVFpNvqxOH0PsvAACVetWV9mfLTHqIBf23ocXGnXKD3AghFCSJ/3bGsB7NshjpTsbUQjSQypNXEdwkQogeoKCNEEIIIb8c+f5szeZcRmJiosLr84cw3L50FNO7VgYAtGxYV+7d2kv8FA0AMK9ohWLZiNkyBE9x92IcAKCxWxOU4gGZSU/x96jtcN5+kDMqqRm6L7kG74sX4P/ikk4jAFpZlQMApGpdO0cIyU8UtBFCCCHkF6PYn61Nw3oK8zCZm5vDwqo6mrfvh2VrF6F54TFwlmuWqAthmmjkv8LFTLWu9ZKXGh4Ery8pACzRpHYlZHy6jVmD1qP2sh0qp5EwNKsI1w4d0bCqcnNPbfCjPuJrfgxWSAjRCQVthBBCCPmlaNOfTYJXyASWXZugpkX2ikwfogK5i3Qi68/WHunP5sFj8EX02PXzTXxMCNEse1cgQgghhJACijs/W7Xy6otDSa+Ckdqohoph9vODrD8bsB9TR+/DR0M+vM//B//nnzl5CSE/M/VXKUIIIYSQn5D287MBHxLS0bNNdifFBkyLWnIXaU2+P9uA7WHI+BqEfdNaI+3qQjSqWRJV2gzD0QDR/G2EkJ8bBW2EEEII+YVoPz8bANTsuwxD6mmcPVsjyQAfmWnclKzJ92drWrcSDIpaonbrvlh87BEe7R6JL777McC5E7b4S0aMzLlCxibcRYQQPUBBGyGEEEJ+Gbr0Z8sNPEPR8CMJ4RFI0HGAD3XzswHGqDdiHuZ2sALgj+3/euOrXGp2JCd9AQCUqGr9g5qCEkI0oaCNEEIIIb8MXfqz5Qar8tUAAEJ+MlKgS9QWjWd+4QCAagObSOdnkzFBETMjAMD3T3ykKHx0NDZ2XYynmdp/38ePLwEAlaysuEmEED3AvQIQQgghhPy0dOnPlhsKla2IjqZGeO8dic/ax1DIELzEvSvxAIAGLeqqqP2Kwxt/AQCgVHU7hfS0mADctXGCrYHSm9QQIPGjEABQw9aGm0gI0QMUtBFCCCHkF6Fbf7bcYFS2OpxsigAIQ0RkJjdZrdRn/tgrEEr7sylLAb6IPq9eDTuFlBc+p1DBrQm0n1r7LUIffAbQCtXsTLmJhBA9QEEbIYQQQn4JaTEBuHJDMtqiBxrWztv+bCLlUa9jGQDn8OKd9kHb44fXxX9x+7NJGMPErjAAoGwpC7nlIfhvtzk6tSglt0yzDEEsIsO/wciyNWpUUfVdhJAfjYI2QgghhPyUWLoQfD4ffD4fr56cw+IJf+JismQYxyjc8b6I4IjP0jyCJB3aL2rNDPWaN/t/e/cd1tTVxwH8i4jiBFy4FRyIorj33hP3tu7Z1lWt2rr1tY46qlWrdde9F25QUVEBRUFUUFHBCagERQnzvH8kBHJJIOwI38/z5HnIPSc3N+feG84vZwEA7j1+Lk3UIm48m824VrDOq6m6ZoO2g+sDAIJkMtXWRwf/hv/gyWhRTNNrNIudpbL6kIaorHOXSiLKSLrf0URERETfkZurm8PMzAxmZmZoPWQNbn0tizbtWisfheF+ZBm6ViyiytN+zimES3eSBkrXaYs2uXPitsMtHWeQ/IwXdxWzOXZq11hrN8fGkzZh95ia2LdmCf47exY75vTCzBudsWCsYvITXcXOUtmzXRMo5rokIn1jIITQ6euDiIiIKL04/lEDbWc/QO1p53BzZccsFjwEYuugehizvxUuBmxDu2JJd0GMCvCE89siaFEr6YlBQv084Pr8I/IXr4n61snt8umPdV0aYvrdH3Dj+VLU19iql1qxn98fgzZ5Y+84K2kGIkpCetyZRERERKRSDJ0H9ASwC5eux64Rl7ic5jV0CtgAIH85W7Ru1ToFARsQ4Xsdhx0C0X5qr3QK2IgoLfDuJCIiIkpnJe1GY2H9wti/9Rje6FEnJ7eTO3Ajoi2G9qwjTSIiPcKgjYiIiCjd2WDMvFEIv7AJx2+FShMzRUzoDez92wUdF/yG7pVzSpOJSI8waCMiIiLKACW6/IQ/BgRjzZqjOk5Ikr5ub/8DW8MGY9aEZllsDCFR1sOgjYiIiChDlMWwpatR5czv2HTxizQxQ0X6HcWSWfcxc/PiZC0PQESZg3cpERERUQYxKtcbf+7ohg3Df4VToO6Lbactf+z67RcYzjyAOd2LShOJSA8xaCMiIiLKQFX7r8OeiS8xadruTJiUJByOf4zF34aL8M88dosk+l5wnTYiIiLKdLHrtJna9sekQfVQ0ECaQ8GwcAOMGtlU64LT349wXF7RD7MfD8KR7f1QykDLB05jjw6Oww/2tXBo4zhUKJBW7+mP46uO4HmMtiqlDLcPrMUR9y9cp40ohRi0ERERUaaLDdqSUrLtRrheHJ9hQU56e3xyDq7mmYkJ7dM/DI30O4r/HSyK6TOap3HQexe/F2uFpUFJj9Nj0EaUMgzaiIiIKNN5n1mHM48ipZsTMDCugaE/t0ORrBGzZRFJtbTFMavTHyNbl5ZuJqIkMGgjIiIiIiLSY5yIhIiIiIiISI8xaCMiIiIiItJjDNqIiIiIiIj0GIM2IiIiIiIiPcagjYiIiIiISI8xaCMiIiIiItJjDNqIiIiIiIj0GIM2IiIiIiIiPcagjYiIiIiISI8xaCMiIiIiItJjDNqIiIiIiIj0GIM2IiIiIiIiPcagjYiIiIiISI8xaCMiIiIiItJjDNqIiIiIiIj0GIM2IiIiIiIiPcagjYiIiIiISI8xaCMiIiIiItJjDNqIiIiIiIj0mIEQQkg3EhHpMyEPwcP7t3DvziMEhsV+heVG6WqN0LpVbRTNYyB5BfDZ4zCOfGyEka1LS5OypDCZDOEADHKawCR/wvIgIiKi7weDNj338sxcjF57U7pZo7zVJmH76u4owvpZisSEhuALCrKCq8eCPE5h/Z8L8c++ewgSxVCjZSd06lQNRQ0U5+zDy2s4ftwVlfsvx+p5Q1DRTNGZQMgfYG671rjU4ghc/tdCsteswguL6nbD/Lsv1bbWn301yc+cUdd+Rr0PERFRVsPukXquaM0+WL15D/5aNAeTBtlCduUqHC9dVj4eIm+1fpj+2wps+28DfutvgwKsC6VAOJxX90DxgmYwLVACkw++kmagTBYd8gQbxtREsZrdsdShAAb8dR5+n17A48oOLJsxHdN+nYZpv07D0g0n8djfA9NsPTCgWGdscf0AALj170wsuaH4O+sqg54rt8Px8nHM6VFRmqhFRl37GfU+REREWZSg74rDgmoCgAAgSrZdI57HxEizUDLFhF0XE8zyqsq1fI8d4jXLVW989t4tBlfJJwAIq64LhPPbKGkWjT577xa9y9QSszevEp3zGAkAov7sq9JsWVL4sz2iaS7DJD9zSq/96C8yIQtLOl+slL4PERERKbCl7TtjYV1P9Xeu/KbIpZZKKWFgbIrilfKonhc2N0VBZXc7ylwy19Xo0nok9np/RY0hO+FwaB4alzCUZtOogNUQbD0yBOd/+hVnwyKlyVlargpV0Mwkr3RzAim99q+sa4YZB59KN2uV0vchIiIiBQZtRLDB1P92YOmPfTFh4UEcWGqHAtIslOEi/Y5idJ/ZuP42Ekbmk/D32h9QWsMEI4kxrf8Ldm3uJ91MKim59gPxwitEujEJKXkfIiIiisWgjQhAAatumLXhEDbO66eavIIykz92/fYLjr6SAzDH3G1z0LxQys5L1UHT8Hu9QtLNpJT8a/8VHl78KN2YpOS/DxEREcXif04i0jsvjv6B3w8oJqso3XEWBrcvIs2iMwPjuhj0cwfpZkohuacLHGRh0s1ERESUjhi0EZGe8cLuFUcQpFyNpPOAzrA0Sl63SKlKTbqgTe6c0s2UbOFwOLwVXtEx0gQiIiJKRwzaiEivBDsexnzX2O53dujSrIIkR/LlqtAMdm2KSjdTMsk9t2HBMg/pZiIiIkpnDNqygTCZDDKZDG98XuBLgrQAPLr/CAEyGULkmbfOekyoH+5cvYzT+/fh5OXLcH38FuFR0lyJiwkNgUwmQ/D792qfRchD8PGlN568C0a42ivUxZbTu9eJ54sTjg8+Lrh85QT27T+Dy1fc4R+c/G5jccftA78P6i0YMaEheONzH0/eBUOWii5poX4euHzlMg7v3IaTly/D6Z5vssv32wcf3LxyGaf3b8fBs44p2kfSwuHscEj1zNS2Eaws0uJrqiyq1dd9XJvis57Alr/34PyVy3B9/EnHa0IhI84plNfsx5cecH38NlX70uXa/+KzB6P7z8DdqJS3sunyPgkp7rNLx3dg0z57XL5yE0+DkvdZ0+s7UETJ8ez+VVy+cg57d+zF+SuX4fnimzI1BK4nnPEhebskIiLSKC1qQ6SHnFfUh4GBAQwMDJDXzAxmZmYoXWUTXsYIACG4d3A2OrUeiIX/7sa5S+fwx7gmMM2TA21GbMbDYGmlLBBbB5VT7U/TY+U16ZTqgTjya1e0bd9G7dGmdXWM2/VElSsq4DqWDKyNhmP+gtenGOQrXhx5Q55gw89NYGxUHsNXXMSHSO21Hrn7GhTLkQMGBgYwLGAKMzMzFCoxDk5vYwCE4OaGH9DqhwXYvns7prUtjdINx+Pyi2jV6zWVU+OJJ/FB2TVPM0X5tazRA3+cfIIIFETx4jng77wSTYvkQ8VWU3D8QeITNWg+7io4/EhxbEEPD2NSj3YYtfBfHDjliON/jUeNwvlQtOEI7HfTfZHogJtbMKyNBQo1GIDdZ58hV1kL5A3xw+0Dy9G8aoUkyxcAvvicxrwBNijacCZuvvuGfMXLo4hBEByXd4exUQP8tvdBgopwyj3FzcPvVM+K1yyPkmk0NXyD4duxflh16WY1flf/xbgu1qj/w1+48y4nKtiUhJE8EI5rB6FMjsSvx4w6pyIqEOc2TEV7qzywajoefx66hOv2/2DmsEaoqsO1F0u3az8ETjsXYlz3mqhgPRR7vb+qUv4dbpXge8DAYCYexKiXj27vk1Dc56yKsX854VPusqhcIi++vnfF/wZURb6KPfDP5dfSl6loet+UfweqE1H+2DerF2q2m4Czj0JRpHwDdOnZBdVL5sOjo2NQp9ssLJvcEw16nsI7LZ/T+8xcdG9cGTadpqp9JxEREWkkXbiN9JvvweFClwVqo7+8FG5XHMX+pb1FUQMD5WtmCI/wl2L3mO7i9yNPhFztFXJxelZNAUCY2s4Q9z5Hq6V+Cw4Wr71vix3zu8TbH0T7nzeJa4/eaFxoN9DrpJjTo6Iqr1XXmeLAmTvC/7Mib7j3btG2VEOxzN5fcixCCCETp+e0EwBEkQbzExxPrJjIMPH03hVx8dhy0bZULuV72YmTvqHCYckg1eeMX27xFxvWVE6JlasQMnF6VjtRY8g/wisw4TEpFnQ2FoC5mLjHR5qsovm4If50ihCPjkwSvX4+IF59Uz+GTw7zlMdoK/50+qyWlpBMOC63E0UNDLQea0ykTFz+q6+o3HGpeCR5r1gPD0wUZXIYCKuuS8XdBPuIO0ftZ1/VcA6TL+L1EdVC2NJzlb78xOHpXURRg3Ji2h4fjZ8l9tya2o4T554nXOA7/c9p/IXG62u8byLfXxNzelQVE/fsEVMKKxYk11aGul7734KDRbDy8fb8YtXnGr3JQ7U9/kN6TLq+T3wRLy+Kn9tYiLwVhokTPqHSZCGEXNzdOloUNTAQLcYf0LgvTe+bmu/AWNFf3MTspkVEm2knRFBEwvcVQohgl1WiTs4cApghPKMT5omSOYgRJsaqsqwybL9I+uwTEVF2xqDtO6Nr0BbHT/zbr4zyNWPF/xZ1ET/t1BxMhD/bI5rmMhQAxKBN3tJkJZnYPcZSuT8rseVuhDSDmthKeI0hO8UrtQqOn1hrV1LU6TFF7HZ8FW97nJgwN/F7vUICgLDss0MEJfFR48rGTqzfOFN0iRdIeO0aqCq3JhorsQ/EwvqFkyzXT1eXiKIG9cVPyw+Jp580V+rijsNW/O2cdFXs4Z5hqmObsnCx6JigrGL5ibWdSwgAomTbjVqPUQi5cFjSQUBZ+byl5TgjXl4Uk/o1E2VyGGg83w8PjBVFDQyEkXk/cdI3YZAilBXYX+qZCQBi/B4/aXKyfXNZpSoLAKLLstvSLOnAT2wZbi0AiG4LnBIEHfEFOy8RNoY5Ei0TkS7nNH4gUF+scwqSJscT93mQSNAWR7drX0jOz1gt3yPa6fY+ES+PKH/4qJ/E/SMXDgtaCQCixpCdWveX1t+Biu8SO3EokfMvhBA3VrVh0EZERGmGQdt3JvlBmxAOS6qrXlO64xrhq7HyKIQQd1S/zicWJIV5bBA2hjkEANH+f4lXqiNeHhGd83RPUMFVr7RoD/68tvVS5VnvojlPLPUKv53kPWXi6o41YtW6w1qCrQCxZWDZJMvVeW3bJCtaMWHXxQSzvAKAqDx4v9ZyjKV+3B3E7oeR0iwqDguqqT7fKT/NlcbYwAKAmH7AX5qscnpOXMVeer4jXp9WVpwhfljvEf9lCcSeo/xW84W3lnLTlTRoS35gkHxxAdYwceGN5jKNE3edWPbRfp2k9TmN+nBJjCynuKbazz6v8bqLL/49mnTQptu1L1IdtOnyPn6qPFWGJX3vxG+ZTex40u47MED8N8JCw/dLQooAUHPQJoQQj45MElYlDEWZasOS3BcRERHHtGUzA4b3TnT69Dw5FJdETBQQDiFNBgAY12iOvnXMAAAX5+yD6zft4z+eOB3Fpx/Ho4Olodr2HLlzw7SQkfKZDHK5WrKKZZW6yr984Pn4hSRVO8s+PVFHbQILE7QYPgW/TOyTqoV9TUzjZiCM+CpHuIYiMjAui1rtCgMAnuy9p3VMiyZVhg1HR+tEpqY3ijt2oXESEH/8t3yDckr2sbDrVEqaQaVECUvV39XrWqOI6rIIx4VN85QLW7dA+1ZVVfk0qVC3DWwMcyDUZyFOX9d4UCn2KVTLhZFGoj86YNXswwCAGj/1RIuS6tdpQsXQZfAAAMDzIyOw42KoNEMCqT+n4Tj31wxs9/sGoAV+GNQGBaRZJAwLm6NsrqQ+i/55d2aDan2+vn07x7smNTMq1RYjRpcHAPw7fEOi30WxUvsdGC6PBnAK9ld8pUlqclWogroFtL+Pde+18H4bBX+vnbCTfD8SERFJpbz2St8hW1hVKi7dmAI26P1Te+Xf67D39BtJeiwvHN3wFEP6tUFuSYqBcVPMOrwB4/uNxKqjlzCscWwAJ5Ez7pWPX8ZNUJGUUjYWKJVGE1jEV3XQMhz933j0H78Wu9f9oKVSaQwDw9gEb7x8nXRFMlYFawst+9SN3NMeW868BwBY9mkE6wLab/E6P+6F97kd2HzUDf9Nq6/aLuRuOLvBBwBgZN4StlUSr1DmNC+HysaKoMTlwWNpcrLkNC+HznnirgX/d8Fq6WnNz3GvMhgCGtSyTnCdalLEpr7qGHfvPpPk7ICpPafRHx2wf+0jAICpbUfUs078fHy/AnFm7wHl+nx2qG6dT5pBAxNUbdBY+Xdi30WxUvsdWAwWNsUAAFtGW2HAwlN4GqTt/q6DP57NQuUcqTj5REREStprdJQFlUMx07Q55VW6DMagAooq7pGt9nijoTUp2OkU9hYahR71NLcyFKvzA/45uA2/9KqeoOUgdsp0WXDs9NmAdfkSankSk5y8yWGQsyx6zf4HB/6ZhMYlpJXncMUxy4IRppoWvQrKl9a9zEsVV7RgppT71eOqhY9L2SQVLJjAquNwjO1VFwVzxmWUe7riH2W5l2pUHoUS3QeQ07w4rPIqroXUBllG5cqjct5cquefX79Lw5kppULgfsNZ9axyJQu1VG1ympujnLEiaHuy9zzuBSU+819qz2ng7WvY90UxQX5azqapb6JDHuDm2UDlsyqoUl63+6ZE8XKqvy+ec07iekn9d2Cz/lNUC7UfXNAdlYsZoqxNK4z79U9s2mcfb8p/II+pqU4/BBARESUldf+9KNsyLNwWAycrus29dViLE27Sfl0hcDy6E3bDu+jU4vX1jSt2r5+F4R2aoqxhcdTqNhzzV23BrlNu0qw6qVha0WUqPYmoEHie34nffuqHljVKI1/FFhg0dRG2bdmDa74h0uwZIARvn/mpnqU0cH338oHq7ze3lmNYh7YJlm5Qf8yAa816aNOuNaqXyKO2r+SriCaDSqqefXr2Psmp4XUlu7kaYzZ7xtvyCu6qIEF3BsZ5YJozNmC/Db9ktKSmxAtfd9XfBUuXSPADR1YR6esJ+8+6r94Wy7iAierv17df4G0aXS/a5KowGPuc/0FXq7hr/dXDq/h35QxMGNwNtpb5kKt4R6xz1L4cARERUXIxaKMUyo22fUfDxjAHAB9sP+Sotlhu9McbOHGyM/okMqYKsWtXdbVG/tINMHvTS9SfvAl3Qt7B48pxrF38KyYPayF9iU4MEhmzkloiKhBnV42EddnCsO20AM/ytsXKk5749Ow2zu5YjWm/TkQHq9S1rqRMOGQfkl/pTUypRjOx64IDHC466vTY+lNcN8uUMUHjtp1VzwKdr+DBi7QJit6+8ITnq/gtgeHA59h9d0DZ4im5ZnwgS3pYW6qEhQZIN2VJIkoou0YCZbtaJNnCq0mojwwR6RuzAQCK1RmNU17v4HFuE8b3a4Yyki6QkQEXMLltGdgtvJaMRcSJiIi0Y9BGKWZcoyvGdFGMD3FftQNOb+O6iXmf2YvgsQPRoKC2SywcN9f1R7Xq/fH3mWAM+N95uN/bjx8726BY/hTU1jJIpN8ljG1phS7Td+Bj2dE45nkXh/8ci7oWhfSgG1RumBZJ/VHkyacYs5NZSrTvg6kWse1Jp+Do9laSI2XePbuDmpW0tT5egP/7lNT2zaEczpdu8uQ3l27SW0IegpDQlJSjOn/7F/iUgt0Ymae2pVd3BjlNUKPjOPxz8Br8o8Pw6Z03rh3fjpljO6CosnfB6QVj8fe1xDtsEhER6UJbjZpIB2XRZ1Rf5d+HcOZ6bOXaC0c3hGBY3zrx8qp7cXQyekw5jCAh0H72Lvw7uwOKpGPrWFoQ8gdYOGQQtjrLANhh474N6FldMUukfjBByYpx43vuP9V94pb4zMqUU7agAt+CZIiQZkhnBsZNMWpOF9VzbWMmk8cLzmfzoF71+OPWysC6axHVMxGp23tEh8jwPiJS+awjrCqm79eoRYXaqr/lMplet9y8ODUF7Zddk27WiVE5K/TKFzeeUS7tca2FLCiuJbJCxyoon64Tf4Tg6NzJuOAvHceYG2bFrdCsxwgs23wevo//w+Aq+QD4YNv2M0mMsyMiIkpa+tY2KMuL3yoSW7kOdjqFg2X7okkl6UQdse5iy8zYWeKGYdqPbZM9Tufmhp7Y5Rpbcc4YL06txpIbHwAAnf/3O/omc5ruqAAHTP/lZJKzDaZG7ZY9VQHXy6v38ELHYCf+VPPxl3QIdH6M11902wcAyOW6501M1UG/Y3ZTRUD11uFHbD6bumpvsNMp7DDojWa14jeLFUOTjnHdbx+9fBkvTbtIPx+4hSpCWcs+LVG1aPp+jRapGTdb5fv76T9mKzVKlK4s3aSznOb10MkudmZHD51nXY0/5q95q9rJ/i5JnnAE+56Ao9tHaYKaAlZDsH7XItgY5oD3rnt4GaO/54yIiL4P6VvboCzPwLgpuoy2AlQTkrzFmb3b0LlPG60TkMg9XXD6paISXr5HQ1Qrof0ylH/RPKFHWIgvgtJ3CS8J9ZkGWzaspZaqTo5vIQkDShEVghcvZRrXfkor8busBjqfgNtTaYtAQkJ+B3Ma98JpVetB/CUd/oXTra/xcmv38L9BaL88Za0sUgbG1TFnw0LUyam4Nv6evQT3v+hWiU/IC+vnbsOgXwfDSnJNlmszGCPL5QUA3LzirlNA/dbbTTlDpzmG6zjRTmoo1iKrAgAIdL6Fp+9SWg7p793rJ8itZfWOpCnWwFN0LbyAGzp1iw3Eo9tPAABG5pMwuFtFaYZ0ceHKrSRbPE3rt0C3QrosW0BERJQ07bVlIh016TpCNSHJsvljsOtst8QnIIkKR4Dql2djSWJ84XB3uSHdmEnCERYa1xyV2EQnkW/ccOGKokUu45XFsPnTlcGOE7YdvivNkMC7i3twrGo/NCoT13JYtd9vqpaubZuO6tA90QtHN/hjaLfYNbNSz7jGj7A/vwh1cuaAzGMFeo/8T4fjkAqH4x/TcaTcPPzYq7Q0EYaF22LaEkUX3yd7N+H846T65PnDfu9FAECNIcsxsnNc98r0Y4Lu0+YrW9sOYefxh9IMCYR6e8JN1/6FyWBgbKxqydW08HlY6GdUq6jb0gmalOjyE/4YUAYAcGTr0SRbiiN8L+HAsbcAzDF+1U9oXihj/qV5btiOC8+T/kEEACz7WGucVMX7zFy0t8qDfBWH4/wL3fZFRETZV8b8h6M08+KZl+pv3cYbhSD4fcLKVVJentB9IoD4rTuvz59D2PCeiUxAAuSuWg9DyucHALw8cQu+wZrfKNLPHuvsK2NcL8VEDHFjtALxwisywQQQ8VvldB2fFEcOEa14TUyUpvIqhtotG6qe3bqnWOw4oXBc2/ovLIYPUz73xouXipaRqDd+8DYUyA31Glz8MTm6OwX/95pbXExqT8V/e0ajqIEBLs4Zh5WJTIQQHXIdq/73FLNn9FFb083AuDrmbV2DtqVy4eWJEVj039P4L5NQBEZ3Ov+B/rVT3MyiUfE2s2F/fhGalTTC8yMj0LDzcjwM1vy5EwqB/dxu+OlWS+xb94PWFrGqgxdh95iaAJwwf/6eRAPDRweX4H+n36FIg/nYmcg+0/qcGpXrjT93jEBRAwPs/3kuTiUSMET6HcWYEStUMzEmvdZdUtd+nNyVa6BdWUXrkeetR5KWyUDccviKJrXilmxQp8v7lMWwpRswuEo+vHWYimWJXnf++O9/S+AYHoVuCw5hyWBtXTPT4zvwFKbO3J3otSL3dMHpT1/RS0Ovg+gQR6wYvBKXnsjxzXcXpi48nMQ5IiKibE+QXosJk4ng4GARHPxeeJxbIdqWyiUAqB7DV14QPm8/KfN8U70u+otMBAe/ELf3LxR1cuZQ5W8z7YAqv1yZ91twsPj0zlucXT9SFDUwUOa1ElO2uor3kv1q8+bkZOXrbMV6lwhpcgLvrs5THZdln3/Eq4gYtfSIl6fFmDadxb8uQcJr10Dlvu3EQZ9QEXBnvejQaIG49zlaxESGieDgYPH03iHxS9NCqs9ZuuMC4fDojbJc4j6rVOxnP7/jl3jlZCvm7nIVfp+ChSws/nE9Eet6VlblWeEQGC9NCCFkwnltP9H15wPC79M1MdWigAAg2s8+L2Rf3ovdP9cSE/f4CCGE1uM2tZ0sziiPO/a9FdfAe+F5ZbPoXcZYlbfh8H/EA8m5jCMXd3f+LMrkMBBAB7HZOUiaQQR6HRKjmzQWy+z9pUkqIfe3iq5WeQQA0X/BeREkOU9RMh+xbVpn0XD4zgTnMC1Fvr8m5vSoqPzs9cWsPa4iJFL7+/nf3iV+bmMh2v+8Uzz9FC1N1sBPHJ7eRRQ1MBCWfdZoeI1cPDrxq6iTM4eo0HKmuPImSpKeEedUiMf2imMwtR0nzj1PeAyBXrvFENtOYt3BjaJzHiPVtfrr5muK6/lLXJkl79qP8/DAWOX3hK340+mzanuw8xLRashO8TpG/XUpeZ+IlxfFz20sBAAxar2HiHsXhZiwl2LPlDYCMBc95pxIcF2KdPsODBBbBpYVgLmwrFhCtJmm+b0j318SvzQtJOpquS+iZA5ihEncea8ybH+Cz0hERBQfgzY953twuOofe+zDyLyKaNOudYJHl/EHRJCyfuCwpHqC16k/7MRJ36h4lRBpetyjfI8dCSpiUjFh18VUiwLCsk/SeWNFvr8mVv/UXZTJYSCMzDuImcv/FXv3bRSzfrQTLfosEzf8vypzyoT9gq6qylSFlpNVFdZvLqsSHG/CR+xnlUr6s4/dqQiy4sjE/ePLRZ8apQUA0Xr4b+KfvXvF5j9niL6NOol5e+OCic/eu8XgKvmU+yonRvzloqqY6XLcse+t6RpQf2j7fOplXKZaRzFpzgqxcsWv4ofGNqLegPhlrF2UzEfs+99wYVXCUADlRM/xv4mVK1aKKSObi6o2HdU+c3p7eWWzGNu5ivJzm4t6A6aIVet2i3OXHcXFY9vF8nkTRfvqpUWZav3FRsdXGgOfxPjf3iUmdqmi2vfKFSvFshljRIvqpUSZav3FqqNuWj9rxp9TxTH+s/eI+O/veWKsXVPRY/RfwvltlIh4fSRe0Bb3qD/7qnIvKbn243ifW6EM5s1F7ynLxbIZ/UQNjcFsyt8nJjJAXN3xm2hX2VgYmVcRw6evUF537YVVieKi3oAFwt79g/RlKunzHajI222BkwiJlAnHlSNFlYotxfg5K8SOo/biv79XiSkjmwvLit0TvVaEEOKx/RzRrKSRqNZxisYAnIiIKD4DIRLp30GUDKF+HvhUsDrKmmnvGqmJiJJD9sEPjx+/QUSe4rCuYgFz04TrLQl5CELkuWCqIS0zhMlkePPyPvyDY1CkfE1YlSmE3BrW7AqTyRBhbAITY81d6TKCiJLj02sfeLz4iPzFq6ByCbMUlGM4gt+/jHeeSsLU1DRT1qf79sEHd2/cxK1793Dr1kN8AZCrlC3aN2uMxo1aw9Y6devmxYSG4Pmze/APjgFgioo1rVHWLLnllb7in1ND03KoWckSJso1DoU8EPfuf0CpKiWV5ZA7Bec7KXHXQ87iVWBbqaTG6z8thMn88PC+Lz4LJPisGe2jrzeMylmhYM7Y948rh0jTcrC1KJkOZU1ERNkdgzYiIiIiIiI9lrwmESIiIiIiIspQDNqIiIiIiIj0GIM2IiIiIiIiPcagjYiIiIiISI8xaCMiIiIiItJjDNqIiIiIiIj0GIM2IiIiIiIiPcagjYiIiIiISI8xaCMiIiIiItJjDNqIiIiIiIj0GIM2IiIiIiIiPcagjYiIiIiISI8xaCMiIiIiItJjDNqIiIiIiIj0GIM2IiIiIiIiPcagjYiIiIiISI8xaCMiIiIiItJjDNqIiIiIiIj0GIM2IiIiIiIiPcagjYiIiIiISI8xaCMiIiIiItJjDNqIiIiIiIj0GIM2IiIiIiIiPcagjYiIiIiISI8xaCMiIiIiItJjDNqIiIiIiIj0GIM2IiIiIiIiPcagjYiIiIiISI8xaCMiIiLSA689HuOLdCOlu5hQP3g8+yTdTN+1EPh6vUW4dHO6CMez+8/T/d5l0EZERESUqfxxZGoXzHL4glzSJEp3OfIbwG3JYMw9+VSaRN+hmNAH+F/Pvtjp+xW5pYnpIjcifJZj0MSTeCOENDHNGAiRjnsnIiIiokT4Y8/Y7jhUai0Oz2+erEpmmEyGcAAGxiYwMTaQJlMyxITewbxO/fB5/HmsG1xZmkzfiZjQO5jX6wd8HnYyWedRRMkREioHAOQxNU3WfagQDsc/uuOXxwNx9r+hKGWQ9vcjW9qIiIjSWUxoCGTKCjZRnHA4/jEWf4ZNwT/zmiVZUZR7bkOPNtVRLEcOGBgYIK+ZGczMzDDjIFuIpIRcnqz7LUf+upi/50+8/W0Y1t9M745ulD78sX3iUHg22Yw/dQjYbm4eipY1SsPAwAA5jPLAzMwMZmbDcOF5tDSrDnKjze//YmLO5Ziw6Hqyrj1dMWgjIiJKB9Ehfji+agIaVK6A5r16oU+/3uhQoyLqdJuA7ZdfS7NTNvTi6GQM+dsEixcO0emX+VyWbTFjzlrsP7MP07tXUG61Rb3qFpKc2Vuknz3Gti2BKXv9pUmJMirXG1t2tMeS3qNxKkUVd8o84XBeMQ6/Pe6HRb80TfIHEACo0fFnzFv7H07tW4C2pRQdk01tG8HKIqXhUVmM/PtflN45GL/ufSJNTLWUHhURERFp8dljIzpWq4xNLxtir8tT3LjoCIeLjrjq+QzHplXE/qEVUG/EJvh+0e8RCtEffXB81UhUKVkCc08GSZMpFaI/OuB/03ajw4JFsLM0lCZrlCN/OTRu1RptOg1Az9axgVoHNKiZU5Ize/r2wRP7lwxCBUs7bHWWSZN1YtbmF/zd9zGmztydruOT0trXN674Z1ZPlDVsgK3ukdLkLE/uuQ2TZ9/H5IXTULOAbuFN/nL10bpVa3Qb2BvNShUAAFTu2ghWOvyAok2O/E0xd/0gHPjh1zQP/HX7VERERKSTEPc1aF13IgJb/Yvt64aiopn6v9pyLafh8LGlEHt+Qq8f/9PLimFUgBv+mdUTFsWs0Wv6DuS0HYBWNQpJs1GKhePcyl9xzPRXTB2adDeuhALx6Lbil3ybcY1QPkfKK5nfs0CX/7DqzxkY3qEtGlQ2hqlNf5z2+IxXMam5p0zQdfR4mJ34DSsO6X+L+Effi/hjSB1YlGmIH5ffQvF+g9C4km4/AmQd/vh37hIE91iK8e0VwVdyRL7xgcuDzwCA9vWqSpOTrUSXHzCx6S3MnX8YH1JzKUowaCMiIkojQv4Af07+A3ejmuHX3wZr7fJmWv8nLF/YEp57hmPiajdpcqb5+uYaVo/vhJIlGigrgPNh7/4BXufWoLVFdqsIph+55zYsWOmJHhMHwTaP5mskMUL+BO7nPwAAatSyRvKrqenjxckZ6PHbyXSf+lxdWXSa/Bv+PvkWX94/xrbpraUZks24xmBMGZEX/y3dBo+wNKx1p6Egj1OYN8AGRSp2wOy9H9F03Brc8H8O1/2TUVXHlqas4t2ZDfjf6WiMH98bRZJ/OyHU2xNnwyIBtEB1azNpcgrYYNT0QfDcswwHbqXd3ZC9zioREVE6enFqNZbc+ICSbfujlXViQU5uNOnaGzaGOWD/53Y4BcZIM2So2Apg/tItMG3zPdQbFVsBnI8utQpLs1OqhMB+6ybcjfoBg7rFjktLHrmnK47IwgDYolU9S2lypnn+8DwePAtGeAbFOcUaDMW0X39G/85tUN+6kE7jmHRjgi6DR8HIcxH+2qdPk7yEw+/qvxjWxgLFanbH4oOh+GHhQXgFPsexfyajSZm80hdkA17YunwHImtMgV3r/NJEnbi7nAUAmNp2hG0atVKWaN8HUy2eY/nivWnWm4JBGxERUZrwwp5VpwEAZZtW1drKFit35RpoVtAYkQGbceBS5nTDeuXyHyZ1tVZVAPtM34w7b9/izJbsWgFMfxG+9tj072PUnjYAzYulrIL43MsZQUIAaIEaVVK2D0qcWYsOGG1ZECf+PgafNKp0p1wIfM6vQ1/biijfahz2PzTGmOUn4ffpOf6b1w/Vimbf6nyw0yn8feMDOk/omcKxaP546PwGAGDZtibKp2gfCRkYN0WX0VZ4fX4Tzt2LkianSPY9y0RERGkowtcDl+4rJj+oWTHp2fwMjE1RvFIeAMDFE5fTdOxD4kLgc34zhrWxQNmGw7DpDjBm+Uk8CXyOw3+ORZ0SrBqkp6fOZ+AYHoXOzeqksGUoELcc7gAAbMa1gnVenq/0YYPGfUtA5nEA19Oo0p1cIioQ1w4sR7cqJVCl02Sc/VoNc7Zdw5sXj/DvDDuUlYyXzX7C4exwBEGiRopbnCPfuOHCFUVX45Tfk5rVbtAZgAdOXHKXJqVIdj/bREREaeLN/eu4EaGYLaxIfkUwlrhiKFkhHwDg+ZF7eB6Wvl0kRVQIXE+sUFYAx2P/w3KYuPaCqgJYKRv/Wp9x/OF48CoAO9SvlbKJXfR1PFvWkxt1mtoB8MCpK/ekielKyANxbsNPaFGuNFoMnIXLUe2x6qgb3nmfw+KRzVA0BeMgsyIhd8PZDT4wMu+R4hlU0348W5yCdZtjhIkxnPdfSZPWWn5DExERpYHnPjdVf5sXNVVLS5oHXr5On6BNyAPhtPN3dKhWHA16zsTlqOaYs+0a3r66gnWT2md4BVBEhcDr9hV4vvikdQFaESVH8Hsf3LxyE0/eBWvN972J/VW/ZNuOqF0mZVWwuPFs5mhcS3vrQpjMD3eu3sTToDBpEumoiE19dM5jhLvn76bZuKTExC6xYW1ZEp1/3oiXZr2w4cwTvH92Ar/0qouCOTP2XgWAmFDFdfTk3TdpUqaLvReqD2mIyimcQTV2PJuRectExrOF4+NLD1y9/Qghct2vA0OTSmjUoShkHufh8TT10/+n7BuDiIiI4gnE22eh0o1JKAYLGxPl307wf697ZUAXisW9FRXAliOWwtuou7ICeB6LRzZDEaOUVXJSI9LPHsNajMCea3exdWp9VGs1BZdfxFVmokOeYMesXmjSbAKW/3cat+7cwoYpTVGoYkcsOqlPE0KkTOyv+sVtLVAkhWNn4saz9Uc9m4SVzC8+RzCpazMM/m0znNxuYdusHuiz5FqWCXwzklG58qicNxfeOlzFw3fp86MKNC6xMRF7b76Gv9cB/Ni5Uia1pobj5oYf0HrEX3ByO4f/9SmFeiN24XUSs2k+PjoZ1ap3whbX5H4fJl/svVClkkUKuzXGjWerPqShhvFs4bh3cDY6Nu6JRdsu4u71/ZjUpR3W39R1RsiysKxaEIATnO+9kyYmnyAiIqJUChBbBpYVAAQA8bdzhDSDRg5LqqteM36PnzQ5RaI+eIh9/xsoyuQwEABEhZbDxTbHV0IuzZjhHohF7QaJk75RQgghwp/tEU1zGYoiDZYK75gY8dl7txhuN0Uc8/wgeZ2fWGtXUgD1xXqXL5K074vz2rYCgBi0yVuapKO466zy4P0iKEY99eGBiaL18E3i6adoIYQQj07MFu0qGwvATpzyU5R7enJYUl1Y9tmR4Lgy0jeXVWl4T8WVt673dHKEvnYSq8Z1FEUNFPeqbZ8Fwt5dev1nBrm4sby7+Gmnj2qL78HhAoDo9dd9tZzxxYRdFxPM8qbyGteVTByeWEkAEIvPf5Ym6iTi9RHROY+RACAmHfBXS4uJ9BNbR7cSU7Z6iM/K53tn9hRlchgk6xqPLbeGC65Kk5KNLW1ERESp9grPHYKlGzNU9Ec3rB7fCSWK1sSgOftRqJdijbVnV3ZgZOvSKfwlOu28O7Mbd9tMgp2lonXIwNgYBQ1z4IPLAVw6vh+T577Br3tWoWd16RIDZVG3TVUArti03SGD1wBLSyF4+8wPAGBZPGXj2aJDHuDm2UAAQN1mteKtSRUO920/Y/GzPjixYxwqmuVAhO9eTOy/HJeeyAGEICwZ3booVjFYWCnauR6+SIOWEqUvPqc1LLHxFfcP68cSGyHuG7H0xQgsHRa38HtYqGLx6fs37mmdNEnXrrtp4xUeuXwCYIviRY2liTr5cN9VNZ6tSa0Squ0xoU+wccJEfPvhENaMqoECAB7tm4XBy4/jVYyAXBaGcGgpBIkSpRVlGOj1Qmu56YpBGxERURZwe9tPmLb5PIKEwKBlTri2f55eVAAVQuB8wQuDetZRbYn+GAD/iGgAHvjlx2sYtv5XrYsCFy9eGgDgc+I+3mbA2KL0EYK3voouY8kf86gQ4eMB+8/hAMzRqHpcpfjRwUlY8rofds5urupKF/M1BAFRii59NYaMQBOt43UoMXnMFJX5+89eSJNSKBAnlk/G4oMPAVhh+oFrOKZXS2yE4PSmo+gxpnO8bpkhuHf7PgAgZ27tAdK92+eUXXe7o3rF9L3ehFyG90/DAJSDeRHN3xtJeeRxGVCOZ7NWHa8/tk+cDDFiDyY2L6LKGyILUv5ljt7D2yS5pEssg/wmsDHMgedHXuBdKr+7UvYpiYiISK80/uUSXI4vR1erPNg3qwVKVOmEuduv40Nk6ioKaSE65A7O32ymNtD/rbcbvKJjAJhj5ubFaFFMe5XkxbO70k3foSC8dwsF0ALF4prIkiWuUtwf9WsqytL7zAws8xmMnfObq7WmGtf4EefunsWZs3fguH2ozpVMUhf7g0HEl7A0GhdYDEM23sbZ9T+iWcnnWDnACpVsBmDj2ad60Yoc4WuP/a+HoFOtuNkYoz/ewLkDirFfjVvVjtfCG18gHt1+AgCw7NMIVXVcjkBEBeLYgm6w6rQpWZO9RH0MgJ88EkB5mGs+oCR4wfmkIhCPm8jEH0emzkDYiN34ubH6SMJGP+6F67mzuOjujnWD41ogk2JY2BxlcxkCkKW6tVu3EiUiIiK9ZpDTBPV7zMBp73fwPrcWnfM9xP9GNUfJMq0wad1p+Aen30QKSYn09cTzbo3iLX4bjkf3bgMASradhZF2cb9oJ+SPh86KKe4t2lZBYaSkgpZeArFnQgNUbfUXXuhQ4QyLiQFggjzGKfkM8SvFtWCZJwLuuyZi4f2u2DAvroUtvtK2HdC5U51MmXQmq5H5vceXpE+xTgyMi6HTTxvg5PcaV3f8hiqRJ/FTl8ooXrEHVu67kak/tLy5fx3FerdWC/K9z+zFvi/hAIZhULcKavljxe+627BtIy2BXfyZYc/hv5VT0KFaOfReaI/QqGR+ZtXSeaYpup8i3/jA5YGiy2f9WlVhFPoEG8ZPwrue69Va2GIZ5CyGeh07oV2tktIkHb1EQCr7RzJoIyIiSrXcQEF9+ZdqAquOk3DY4xX8b+/C+LoB+HuyHcoVssTQRYfwMCjjgzfj2lNxeX6LeFu8cPOwYoxQhaa1YJFIK1B0yFPcd1aMF1Qfx5X5InwvYfP2u3gXLEeENFEi8s1LPPmWVC7t4leKq1T4jM2DOmB31Bi1LpFpKxweJzZh1Z+rdH4ccn6PT0/P428Nadoef22/oRctTJnBIGcxtBj+By76vFf+0HIXvw5upvyh5SKCkpipMT1Y9N6EHaPityT5w/GoEwCgyrCOaFhMc7dHbV13pcI9D2PBhlO47fUR5k3GYNHv/aRZdBIV4Kccj5YycePZ6qN4yGH0bL8URSbt1Riw6Q3pzCRERESUXPoze6QmgfdPirn9qynfq5zoM32zuOP/VZotw8TOHKnLzG+fHOYpj9tcrHfRrVwzyvMj4wQAUXfmeWlSAnEz1aVsJsdvLqtUswwCEHkrNBBjp68VB87cEYHfdJzKLln8xJaBNVTvl16PMtUmC6ePitku00Lazh4ZN/tfcmYMTDm5eHllsxjaurwAIIzMq4gxy0+KJ4FpVz7JFf9enXMiUJqsEjszKjBJuHzV/Xhjy7dk243idYzuBRx3nucJz2jdXxfLYUldteuwcoPh4re1u8VF9zdpOtNuau/7+PTlZ0EiIqLvWG6YFknu/Izqa7tVs4ibvSytFbW1w6IDXgh97YRV46zhtGo86pa1RP2By3H56Sdp9nT3+q4DbkREA7CDrXXiEzA8fhi7aLnmdckyTzge3lG0QLSqV0uamECO/KYwz5Xy448bzzYJt0O+wd9hM9qU88aGMY1QLK8Fhi46hddp2q2uLEbv84AQQueHw5LqsOyzA0ExCdO0Pfy9/kLzQqyOKuRGuZZjscvxBQLvn8SslobYMrM7KhezRN9f/8XddFwrTpunTseU9+pYtGumbWIjadfd9D+fBsbGsDFM6fvEjWerPe0cwsJkOLOpJ4o82ovBdUqjUMUe+Ous/q0LmdJPS0RERComKFE6bkbAgCCZWqo24fLYhaVTPjlFcuQr1Ry/bDqHt+9csHFmI7w/9BvaVC6Mmn0X4ugtxUQD6S/+eLaOqF0msaqIPx46+wAAKg9ulCGVQd3FdvG0Qz0dZuk0NDFF8VxGAAChGo+jq7hKceXBjVChQB4ULm+Lfj9vxBVPR/zS9At2z++OLiMPpnpacdIssVkT00PsDy0fnl3AksGFFT+0lCyJLmPWZuAPLf5wPHoLAGAzrhNqaQmudR3PlpbiJviQS5OSFH88W9N61WBsbIKKNe3wy6Zz8Ly0GNZ+pzG1SzNMPvhK+tJUMEbuuLldUkRz6RMREVGyWFZrpfr7Q2iYWppmgXjr+1X5d4N4U06nv5zm9TBh2XG8+PQCx1aOgNx5Mfo0Lo2KrUZg++XXaTRLnjbxx7NVTXRWw+iQp7h1QTHVdlLj2aI/+uDigX9UY6V2Hruj04QOX9944PDONVj15yr8l8QMfkEPnXD5ymVcvnIZl46cwfVXoQDM8OXlVeX2m3ildbaK2HGPp+D/PnktJtrXZwMMCzfDnAU/AwA89yzDiXspH+dDCcWuT1aoUolEr7/0UrhCe/y+567qh5YH26eqfmg5c++jNHuaigp4ACcnxXs0bVZb69jJ+OPZ0n99NgWDnMYwzmEAwBsvXyfvftK2PhsAFG8zHQumVwYQgP+W7oWPDhMMJUbI5fgcHQOgCkoUT13YlbpXExEREQCgSM366JxH0ZLy5v17abIG4Qj2VfxKbDOuEcrnyPgaoaFJOfScth2Pn7/F2fVTYPn2AEa1KaOcgtwLn5M7o5sOIny9lcEO0L5hbWmymoiHrtgRIk+iMhgO910TUbvPPwgs1hxDxozCqDG9UTWHM0bWHYgL/rGtmeqiQ55gw5iasB2yA5FWdhg1ZghsIw6gW99duHZgLIrlyIH/XYgfwoXg4W133LtzD/fu3IP94eO4ERGN0h3zIPjufeV2d/h/0FaBLAbL+iYAANmX5LUOJFUOxgUU+wU8IJfsOtjpD0za66++kXT2/r2im5xl8eLSpAyl+qEl8D72/W845M6L0bV2Edh0mop9t96kyw8tkX4+OPY1AoA5bCpp77793MtZtRRF/C7MYa6r0XG5i1retJLTvDis8uZO0cLxj+6cAZTrs8VfhkQhN/IUUHyPyzzCEKG263DYzx2O01q+UzSJ/hiAGxHRKNm2OAql8iueQRsREVEaMCrVDD17KCo2L56+TbTFBsrg5Y6y8t6pXWOtv2JnBMUU5Gtw4eF7uBxfDtuoU/ipS/V0WestOePZ7t1RLH4rrQzG9+7MPPRckxebj63GkNbVYG5qClPT8qhVqxasLO7gwCVf6UsQ/fE6ZnRthAUPeuDwsdUY1KgCTE3NYdtjLjZ0Oo8WA7cgSBSDaYH4XeJM0HLUVEz7dRqm/foz2lkqzt3A0QuV2xTbm1hoPk6gGCxsFMHVq/eKlkZdJVUO718puk4Cdigr+TXf3fkaalhrr3BTYkIQ/F5xnq3Lp3Sq97RlWLgGBs7eofyh5UcU8tyAwY1Lp8tab/IvIcq/GiS4ruIE4pbDHUDDeLZ7t8+hac2q8fKmpTKwbGsGwAn+75Pz/eQF57OKH9WqD2mI8gla+uPGGpfvYSEJtLxw+6o1KifapVudLCgAAFDc1gJFErxX8uj+rkRERJSIYug9bhyKGhjAa/MVPP6mrcVF4cNDN9yIiIap7XwM7lxUmpwp1Nd624Q+5XxUa72tv5kW1cG48Wymto2SqPzoMp7NC1sWbUPxrp3RULKY77W9P2PlSV8UNY0bawgAQv4A83v0wuob9bBm+xzUkryucps+yhbT7rDVECApJG88WyxLq8YAgPtPkxO0JV0OIjq2naUmLMrHpQv5DZw91wrN4i2UTMnxCo9cPgFogcoWeaSJmSr+Wm9O+5cpf2ipjOIVh+P8C91bghIT14KrXfRHN1yxVwQmZWpax+tC6o87jpXRvF6++NnTUDFY1zQHADx9oZhURBeRfurj2TRNHxU71rh4TQu17tvBThfg1bVlvPUmk/bC1x0AUKWShcb3So6Edz4RERGliFmL0Vg13BrAOuw4/lqaHI8/jmw7DMAcPy/8CbZ5dK8EZAwTWHUch12OL+B/excmtCiC3DnT4hjjxrNV7xl/se2EdBnPFhMagJc+X/HoyH5cfKteUW057jCu3HqIOd3VA+Jb/87Ekhsf0HDaFPStmjCYiXrzBGfDImHZpxEsC2h403hdPE1tG6GGhe5VqRKVasDGMAcCH77AGx3HyuhSDnnyFQOABF2w3l08ghc9WiVazllNXOsQ8FmnsaXaRYcori8j85YZOuY0OQxyFkPzATOVP7SsRd8KeWGQRoeas1Q5VZdvzZPn+GPH9Nm4nE+RaF0+rkU3wvc6LhdqrnXykrQQO444OT+CfPDSPp5NIW4mYPUusSE4s9cBXdsl3qVbXQjePvNLcu06XaVfSRIREWU7xTB43S7MbloE26b9ilPPNf3iHY67/87B5FNv0W3BoQRBhb4p02Ao1h48gjH180uTki3+eLYWSXSbSmocFwDkyF8WVWwLItRnMzqUyol8FRtiwITf8d9ZL3w1qYyWDauiYLxgM/rjGWyYcxmAOXrbtdH4y3dsV8QGLWtrnSQltotnxY61khUQGddogG7lC+DliXt4o+PCyXHlYItW9TSXQ7GG7TCyXF4EPQhA7CISMaF3sHF9DswcU1eSO+sQUXLIZDLl4yXczu/EvKW7VemH50/G6mM38ORdsCpfSDLGP8VOsFF9SENUzoQxp8ljAquOk7DzwkZ0KJs2UZtRqa74ZU5rAKdw7NIztTQRFYijc3+CZ9tDOPJrSwBATFTsgMpwXNy6C23HdE7Xbt+x44hfuzzS+UeQ2PFsprYdNYxnAwATNOnQE0UNDPDmQ9wswDLXbThsMhM/1FYEsbp5BvezgQD6o35NTe+VPAzaiIiI0lCO/HWx0P4y/mj1CH0ad8FfZ71UFcVvHzyxfXovdBp/DVO2euDw/OYaA4esKnZQvpH5OLRtlHi3wqTGcSlUwoR/V2FwFUUXrG++Lji4aSmGdamOcnUnJOgmFnj7GvZ9CQfQHQ00VqJiuyKao3Eta2miUlwXT13WZ1Nng8YDLQEchOt9TQF9Qu/f+QEATG0HaO3maFi4LVYdWoyGhv9iwR+Hcen4JozoPh/lly1Cg4JZt6ond98IMzMzlKrbEX36jcJvq3fjcQ4LtGnXGm3atUbzGpE4u2k+fhzWBz071YOZmRlmHdV9GvfYtfF6tmuSre7TOLnR5vd/cXh6F5yd0AGDfv0XJy+fw38rp6BT83H40G4H1g2ujEZjN2L9aFvsWTwD64+dwcbpA7A3/xyMaZyeIRtgVKoeOrQrircO5+H+KvHu6AqBeOv3DQDQZKD2FugSXRbhwLJu8Fk/H6uPOeDQ+h/R93+RWDqvXbKuA7mnC06//ILa0zrBNm8a3IfS1baJiIgobQR5XxAbZ44Vbdq1Fm3atRbt+0wQi7adFk8Co6VZswmZeHL7snjwNqnPHyC2DCwrAAibccfFZ2myRExkmHh674o4tGO1mDyolihqYCAAiMqD94ugmLh8DkuqCwDCss8Ote2xomQOYoSJsQDGimsh2o7xjvitgokA7MRJ3yhpYpK+uawSRQ0MRJdlt6VJWsjEk9s3hd8nbccTJyZMJh7cuiwcL98Vgd80fMB05rCkutay/f74ibWdSwgj8xnC5WvSZZ/VxV1bjsLl0Uchl2YQQnx5eV84XnYUnv5fpUla+R4cLgCIkm03itcxyb9wYl//65EAaZJGUbKX4uatZ0l+pwghxNcgb+F82VFcdX+j8fMmxWtbLwGYixUOurxb0hi0ERERkV6JC54gBm3yliYLIYQIfX1fXHV/I90shBAi4uUR0buMsQBmCM/o2IqgTOweYykAaA2YPjnMSxDUfXl5X/h/jqtMhj/bI5rmMhSmtkuFt6SSGej1SIfK4AOxsH5hja//3mWloC32PGu7VihtpDZoi/pgLwYVyC2qDNuvw72XkRRBf1re52nQVkdERESUduIW69U8jiv80Ta0KF8bLWt3xlb3hItJG5Vrho5Ni8Gyj3W8iTlMUKK8ohtlqeJm8bOrPH54E1COZ1NM+BGC86uW4l5QXNerN/ev40ZENKp1VZ9IJfqjA+bOc8LnJMfW2GD07CGQefyFU5djR6BlDcY54y+R8H1zO7kDNyLaYmjPOtIk0iOGhbvgxwVN4b1rJ8490ThbSqaQe9pjy4UA9JjYS2s3zORi0EZERJQlhMeblCGtH6mbhS+5YscSAS1Qo0rCsWdvvG7gblQMijTogboaJhOICX0C91sxGDCgjdpkIlVtOwEAIjTU7SL9jmL1yhsAgFpVqgDK5QGuB3RCnXgzRD73UQR21a0tVNuAcFxdvwk20wZrnbwkvpJ2o7GoWQw2bTqKD0nFeN+Rxr9cg/uOYRpnuPyexITewN6/XdBxwW/oXlnzOMLUUJ9AJa0fGXuv6oOGw2ZhZLnr2LHfOV0WGU++cDjs34LXNnMxZVAlaWLKSZveiIiI6PtzY3k9ASDdHsO3+kjfMp0kPZ4t/Nke0aXbMvHwc8KxRjGRfmLPlDai88zzGl77QCxqVlSU7/GPWlesQK/dYljnBWL5vGYCgPjTKUIIIcTDPWPFIvvAeK+P6841fo+fcotc3N36k5i82SNZ416CnZcIG0Nb8bdzwqOkzOW8tpMwMh8nrgYkvL5SL0D8N8Iiwf2Vdo+0G0OV/mTCcWV35XGPFRcDkj9GNNbDPcMEYCdO+aV8H2klzGODqJOzuJhzQv27I7UMhEiyHZ+IiIj0XHSIH1zcfRE76XbaMkWNprVQxCj9m1CiQxwxplxX7AiRY9Amb+wdZyXNAgAIvLsVP0/cgXxNesCmmKIl7MPLa3Byz4s+v07DaLs6atP9x4oOeYA14wdha2hbjGleGq/uX8CbkkOw9PchsDRyx7xe/bHLsD0m1o/BTf/GWP/vUJRW+9z+2DO2Oya6WmHSoEp473wPxfsvxfRB1ZM5vXk4HBd2wvDb/XD77DidWugo/UX6HUUP64movd8Di9NpOY6oAE9ce/RBujlN5MhTDnUaVkjmtZhxIt8cRY9KA5VrpWlXe9o53FzZMRmzNfpj66Bm2FZyM64m63VpTXEcmwquxZVNPdL0PDBoIyIiIr0R5roa5RpOR5CogS133TA6iXWRwmSyeF2icsPUNI9aujaxrzPIaQKT/OoBU2xaHlNTrZU/1euNTWBinLKAKyb0DuZ16oRHPc7g2LT60mTKcIoK9ymr3dluOY6sINLvKAY2mwzrv++lW8CdlEd7h6PF3+Vx6dI81CyQtqPQGLQRERGR3nhxdDws+2yGqe1S3L43M80G8esrRUVzJVoeuIif03ldK0pMOBz/6I5fHg/E2f+GsuXzOyVzXY32PV0x5/pe2FkmHO+antL7vRm0ERERkd4QUYG4e8MLxlYtYVMibX+p1leRfvYY2X01Gmw8ycAtkzw6OA4/2NfCoY3jUKEAA7bvmcx1NXqMfoBZJ7eio0XaB0+aRPodxcAOh9H32Db0r6qYpTatMWgjIiIiymTRIQ+wbv4t9FgzBhZs5clQkX5H8b+DRTF9RvM0HYNEmSfSzx5zD+bCwhntM6Cbqz92zDkE28m/oHbR9PuhiUEbERERERGRHku/cJCIiIiIiIhSjUEbERERERGRHmPQRkREREREpMcYtBEREREREekxBm1ERERERER6jEEbERERERGRHmPQRkREREREpMcYtBEREREREekxBm1ERERERER6jEEbERERERGRHmPQRkREREREpMcYtBEREREREekxBm1ERERERER6jEEbERERERGRHmPQRkREREREpMcYtBEREREREekxBm1ERERERER6jEEbERERERGRHjMQQgjpRiIiIqK0EP3RB06ebyRbzVGvVTUUkGwlyiqEPBB3b3vhs1ot2xTVG9ZC0TwG8TcS6YRBGxEREaWbMNfVyNtgmmTrPHhGL0D1HKy8UtYU+eYoelQaiLNhkfG22uGU3zF0K2sYbxuRbtg9koiIiNKZHfZ7fEBwcLDyMYsBG2VpRqW6Yu/bQNU1//b8YmkWomRhSxsREZGOIv2uYdMhN0RIE9JEbtTqMQKtK+WTJnzXFC1tTkm2MMSEPsCeTRcRlE61khJNh2FQoyLSzSTB85A+dL0PiLRh0EZERKSTcNj/VhPdlnkrn5dDk3YVULCULdpULRUvnwye5/fgv8svlc/NUW/AQPSvXTpeHuDDSxfcdr+Hq7efqbYtPv8ZczpkrZFeulZWH27vDZtRx5TPzFGjZTUUL2KFhvUqoGC8Rjn/O9ux7tAj1fNqHcejd6uKanmiPvjgotstPLj6EEHKas6gTd7YO84qLhNpxPOQPnS9D4i0EkRERJSkmLDrYoJZXmFk3kGsOfNAhETGSLOoeG3rJQAIAKLKsP3iszRDPJHvL4lfmhYSQAtx0CdSmvzd++aySgB24pRflDQpHj+xtnMJAdQXM7ZdE4HftJftJ4d5qrI1tV0qvGO0542S+Yi/h1sLAGLx+cTOAinwPKQX3e4DIu04po2IiEgHMudL+Ce4LfbePIMpnW1QMKe2MVmBcL9xT/WsZbvGic6SmNO8LX6aaAfACsWLZM9/yxG+13HYoRhWONhj+chmic6u9+juOdXf1Xs2gpWB9ryGJpUxasJoFDWwRfGixtJkkuB5INJf2fO/AxERUbKEwPHkfgzbtAJ9LRPv2iTkT3DrRIDymS3qWJeQ5EioRPnqMLW1gLmZ9opvVnbnzE5ETVyGSW2KSpMk/HHX6bXqWYuaVdVSNclZqhzqGTdE5fKJnzfieSDSZwzaiIiIkhAdcgfnTvXCjz9UkiYlEP7IDUdkYQAAI/MeaFAzpzSLRqUbVkHJRFor0k44ZDJZEg/F8WcMLzjszYWpY9sitzRJIirgAZycPiqf2aF+rUKSHJoZWpfPtgGx7ngeiPQZgzYiIqIkBN64iIAJPVE/b9L/Nn3v31BNumDVoybK6zC1vfxLCAqXKZFoN8rU+OjrhJ3/G4+WNUrDwMAYZmZmSTyG4+LbaOlu0oXc8xocqg5Fp8pJB7dfvFxx7Kti7k5T20aoXCbp8yHkckRWLY/CSPo8ZGc8D0T6Lem7jIiIKFsLgfMFLwztWUeaoIH6eLamzWrrFIi9e+8H24olpZtTLSrgOpYMrI4iFVtixNzNeJe3HWYu/xcnHB3heFn746r7GrQvmTHd2NyvHkf7AZ11KqfkjKOKFR3gj7AqFiiSdNZsjeeBSL8xaCMiIkpEdMgdXPLthiaVkg5iUjKeDQDe+T1EZYvi0s2p8vjkDDQs3RJzDnzBsOUn8SQwGj63d2DZjDHo3ro1WrfS/mhRK+0DSM284HikLto302VtuuSPowKAd6+fpEtAnLXwPBDpOwZtREREiTA0aYoVB8ehlA6tCSkdz9ZqkgNG1zeSbk6hcLhvG4MWPVdC1nQizj33xc4ZdqhUVB//5dtg+ql5OnU7Tek4Kgu7v7CidxnpZlLD80Ck75K+O4mIiLK13DDJn3TAhhSOZwOAHPlNkpz8QVcvjk5GxzHbUKjLHzh1ajU6WiTdQpiZ8pjmkW7SKCXjqADAwNgEuXWLnbM1ngci/abbnUZERERJSNl4trQU+cYev07dBVmxidi1dwaqFsg6/+ZTMo6K0h7PA1HmyDrf5kRERJkopePZ0k44ru1ag6OvTDBz8xw0KJiV/sWnbBwVpTWeB6LMkpW+0YmIiDJNSsezpZXokBvYu+ImTG2nYIhdEWnydy2l46gobfE8EGUeBm1ERERpIKXj2dLK5zvXsCNEjs4Tema5LmspHUeVufxx5NeuKFGiPy74Z8yad+nt+zwPRFkD7zYiIqJUy/zxbI8f3gQANKpuKU367n2P46jk7kfx46qzeP/eB68+xEiTv0vf43kgyioMhFD+LEhEREQpIuQ38FPJDvgn+BsAW2y564bRtdNqCn/dOP5RA21n58DwWYNhUyh1v8kaGNdA/5/b6rTMQVLCXFcjbwMnnPI7hm5lUzKTpT/WdWmIyWffAQDmnAjE4u5FpZn0kD/ObTiCj9b90Ld16TSbHTTzfK/nQT+k/j6g7I5BGxERUSrJ3degbN1pCBICRubzcfftfFTP4O6RiqDtgXRziuStMAnnXNegeSqDP6RBZTUq4Az6V+il7JZnl+L9UOrwPKROau8DotR/GxMREWVzmT2eLY4tttyNgBAiVY+vz9amScCWFjiOSj/wPBBlLt5xREREqRKIWw53VM8yYzwbAFhaNQbggQdP30uTvmvuLmdVf3McVebheSDKXOweSURElAr6MJ4NACJ896JzteF4M2A3XHcOyJTAUZPUdQtL/TiqmFA/2B85hqdBBVCrRy+0rhQ3TX1UgCeOn3OEf1AMDIzNUb9jZzSNly6iQuB14zyuur1GBICi1TqgR/tqKJhTe8DyyuUQTlx7hejCNTDkh7YoYqQpbzh8zu+H/YOPKFrNDj07V1KdLxEVCDf7M7j+9BOA3ChbpyM6tq6Yyefz+zsP8X1944Gzly7DPygmQXknRsgDcf3EUbi9+oZ8pWzRuVNrlDVTtHd89L2Io8cf4IswSfB5NEndfUDEljYiIqJUkXu6Zur6bLFyVWgGuw7F4L1rJ849iZImf5ci37jhwpUPymcpWRfMHxtGzkZMg6HoXdUPA6yqYu7JIAAhuLxiCAYsu4XiDfpj1JhRaF3SAxOsi2LcricAgC8+ezCy9y9w+VYN/caMwvC+NeCxtAUqNF2Ix2Gafu8Ox+UVffGnSwl0H90OkSeGwbbzWrzQ8Nv4w+1j8XdAbYz8oQZu/1QbrcafwBcA7x2XoKvdUjwpWB9DxoxC//YmODi8Omr23Yk3GvaTUb6v8xAnOuQJNoypCdshOxBpZYdRY4bANuIAuvXdhWsHxqJYjhz434Uv0pcBAAJuroLd0DUIKtde8bqwg6hbuCdOPY/G46OTMfav92g8eCSG962Msz9aYcJef+kuiNKWICIiohTz2tZLABAAhM244+KzNEMGCnZZJWwMc4gaQ3aK1zEx0uRM8c1llQDsxCm/KGlSkj45zFOVrantUuGdzM/01n6G+O2AvxBCiIjXR0TnPEaiWJP5Yu3iAWKtQ6Ak9wOxsH5hAcwQ56/9KboP3ylefVN/v4d7hgkAYvweP7XtQnmsfZfdVj6Ti9OzqgjASmy5G6GWL+qDvRg14oAIihFCiACxZWBZAdQXSzcsEYNmnRBBEerv6by2rQAg/nRS3482MWEyIQtLXjkl5Xs6D7GiPlwTvzQtJIo0mC/cP0WrpXltG6D8PObib+eE5Sq7u1p0HLJTvFI7F3fElML5hJF5cVFbdX/JxOGJ1QUAUXnwfuU51Sw19wGREEKwpY2IiCjF9GM8WyzT+j/hr7kt4LlnJib/cR3h0gzfmdSNowqB48lgtGpVEgAQ/TEA/hHRCHTehCdlFmJSG2n3voIoUT4vgBUY8mso5q/+AaXzqL+fsbKro/vjF2rbAX/s2RyKaRPqKZ974ebhdwCsYF5EvaoV4HwJhbq0QhEDAAjEW9+vAFyx/1YpLF9kp6U7JfD0hfQ9E3LfNQzl8pnBNE9DzD35VJqcYt/PeVAQ8geY36MXVt+ohzXb56CWsktjrMpt+qBzHiMA3WFrI+2q6IV1s17ht7U/oLTkXOTJkQORAeYYOXGQZDmMcujXt4nynBKlDwZtREREKRT90Q1X7AOUz2xRx7qEJEdGy41W09ZicY+CODqnH0atcoXmzl/fAy84n4yrlLeoWVUtNSnRIXfgHNIEVYsqqjpvvd3gFR0Dyz7L8NvQStLsEHJ/3Lv0EUB9LN04O0FFHwDev38NALC1UD/Pck97XKhshwYFFa8JdrqArc8/o8qwgWhUJn5QEIKbDu/RtFZhAEDkGx+4PPgMwA6LFw5JECQA4fj0TvGe5kWKS9LUCfkNbJ16BK9iBABXLB+3Fa7f0mJR7+/nPMS69e9MLLnxAQ2nTUHfqgm7K0e9eYKzYZGw7NMIlgXUy1zufgl3WvRPMHtq5JuX8AiVA+iA+qou0Cbos84Nsi8vsLh7GbX8RGkt4Z1ARERECYTJZJApH8HvfXDj/AHMGjUZ+77Etmd5wOH0cTjd81Xlk8lkCM/g4WU58lfH77uPYnGPgtg7vQGa9V0O51ffpNn0Svyylcle4s7VE1g9eiLmu35U5bl+/hgu3HqIgHh5Q+TaxzQZmrTBxr3DlC0i4Xh07zYAYPDwXhoXDQ9/4onrn+Uo2XYg2tRKWNEH/HHnwkMA5qhhbaGWYlzjR5xe0EL5LASOR3ciSAh07SRtfTFB79UHYGepCORCvT1xNiwSVYYNRCvlNnWxLXZ2qGudT5qYgLFp3D4iA1bA9X60WnpSvvfzAADRH89gw5zLAMzR266NxkXN7925DABo0LJ2gmMwrj0VJ2Y2UNsGtXNVC1VyxX9NbpjkT/g5iNKctL8kERERqYt8by965culGtej+8NczLWXjtnJKDLhvH6IKJPDQAAQtn2miB1Hbwift5+EPFKaN/0kPZbngfitgomGskv60euv+9KdaXFH+R524qSv5uOIHZvYRTUuTV3sWCwj8xnCI1z74KWoD/ZiUIHcwsh8krgdoj6WSsphSV0BQIzd6SNNEkIIEeaxQdgY5hAl264Rz3UYR/bO4U/RrrKxyFuhu1ixaGyiY74Syhrn4a39DOVxjRXXNJa/n/i3Xxmt49m0iT1XY7ZqPldJSfo+IEocW9qIiIiSkNO8C46GhidYhDrpx3ss6iIds5NRTND4p914EXgf+/43HHLnvzGid1NYlSwEYyMDGBhof+QqPh7XPqVF1zpd2OCPZzINZZf04+hkW+nONJJ7uuD0yy8wtW0EKwtNVZ9AuN+4BwCobWMtTQQAvHK2x9mwSNQZ0gpWai0t6rzP7MW+L+GoP7qXqrukZrHdDm1Rr3rCFiMAuOtwDF7RMWjRozUsNLRKSRVvMx0XfcLw9dkJDKltKk1OQtY4D488zgEALPs0gnWBhO8RHfIUty4EaRnPpo0/Hjq/AWCL+rU0nyui9JbwaiYiIqIsw7BwDQycvQPeb7/iw4v7cLx8HJv/XImVK7Q/VvwxBLUkY3q+Z7HjqKp11TyJhpA/wa0TAQDsUK+6pm6I/rDfe1HS5S4cr+4+lowZ9MLRDRcB2GKgXWPltnA8u/88waQwsePZjMw7oL6Npm6AXnA8eB9AB/RoFzuOLBy+Xm8T7EuTYFkAqmkZ85VZ0v88hODdy68AAOu61honBvl85xp2hMjVgrpQPw+8+iKkWVWiAh7AyekjgAawqpgw0At6KL0OiNJe1vlGJiIiokTkRuHytmjdqgfGTp+Gab9qf0wZ2TRTZ8FMWyFwv+EMAGhcS3PrTdw4qlawKZOwahThex2nLgTC1HY8ujZSBFhC7oY/5zvhc7z10+Se13D4bjBKdxyPHvUU+SLf2OP3tW6IUOVS+HDfFWfDIlGhYy1YaGgxCnY6hfVun2DZZwCaVFIEChG+RzBjs5s0qwYheORSEDWqJAwwMk9GnAcTlCivCPZKFTeTvFrh8cObgHI8myKoC8H5VUtxL0jRshwd4oczx8/APziupfmLlyuOfY3Q2Hon5DewYuZFfMjEdfQoe0h4RxARERFlGc/gfjYQgJ1q1kYp3zuO8IqOQa22jTR2Q3x91wGO4VFoMrATqihneHxxahty/9BFbSIL96vH4RUdgzY9Wqm2P7lwCjUGdE4QBD/yUEyG0byV5mUiHrmcQJAQaNu1sWpfbidPolHf1hon14gv+uMNnA9tometpRlzHqradgIARGiYACjS7yhWr7wBAKhVpQoAxfIA1wM6oY5FDgBPscquPrr26or+664rXxUOZ4dTAIAiVhYJWu8e7duCXCN6aTxeorSkT3czERERUZpKehxVCB7ffwAkMo4qT75iQLzWm0i/o5hn3xCTe5VWy2diqhi/aGNtqcq35kZrjGifXy2fLuPZDIxNAACVLBTpMtfVWPq0N4Y30xTiqfM+eQhWgxMGipkpo85DiS4/YFGzorhqfxlv4rV+BT3cgzE/eqH+CMVaegbKoO/x0d0oMrSzMuj7DNnjMBiZt8DgdrUBADLXDdidcxBmNy0C2ct3+BCvQe3xyRlY/noUZvXmdP+U/gyEYHsuERERpY8w19XI28AJp/yOoVvZjO+u9+niLBTusBzdl93WOJU74IXfKzbFytABuOS5ES2KJQwohNwP2yd2x4LXjTCxfgyc3Epizq65aKRceyxWTOgdzOvVHxdM7NC36jfceFoVSzdMRDXJWmMxoY4YXborTleZj+vXZ6pajdTzKPblZN4PXUu+wbVPbbB53dAEC01LRfodxYi5UfhrV/8ErUKZKSPPQ3TIA6wZPwhbQ9tiTPPSeHX/At6UHIKlvw+BpZE75vXqj12G7TGxfgxu+jfG+n+HqtbIe3x0Mgas/4wenWyQ96MH3CK64K8V/WD+1gG/jBqHR2UGoHNVQzy5cRsGbeZixY/NUDBn0gWd2fcBff8YtBEREVG6yfzKajhksjDkyW+K3Jrm+wAQExqCLyiY5HpbYTIZwgHkMTVNpIui4v2QRL4wmQwROU2SeM/YfeWGqWkeaWICikBvNZpt3Y0OmVLWicno8xCXz0BDOSe2DyEPUa49l7DcVfs0NoGJceLHGV/m3wf0vWPQRkREROmGldWM89njKp6VbI7akpYnyny8Dyi1GLQRERFRulFUVlegRstqKGoUu7UbNlyYrHHad6KsICrAAb8MW4ZHMYpqdvQXf1y9XZVBG6UYf4ohIiKidGOQsyDatIsfsBFlP4YFyqJNO0sU0NI1lCgpbGkjIiIiIiLSY2xpIyIiIiIi0mMM2oiIiIiIiPQYgzYiIiIiIiI9xqCNiIiIiIhIjzFoIyIiIiIi0mMM2oiIiIiIiPQYgzYiIiIiIiI9xqCNiIiIiIhIjzFoIyIiIiIi0mMM2oiIiIiIiPQYgzYiIiIiIiI9xqCNiIiIiIhIjzFoIyIiIiIi0mMM2oiIiIiIiPQYgzYiIiIiIiI9xqCNiIiIiIhIjzFoIyIiIiIi0mMM2oiIiIiIiPQYgzYiIiIiIiI9xqCNiIiIiIhIjzFoIyIiIiIi0mMM2oiIiIiIiPSYgRBCSDcSERGRdj4O/2LT/qN48CpKmpQihiZWaDVkKmZ1ryRNyvI+exzG0n8Pw+3pR2lSCpVDowEjMGNkMxSQJhERfacYtBERESVT4N3DOHjZHxEAgp5dwvYtFxGk/Hdq1XUKxjQvLX2JRAA8z5/HuSteqtc1XHAVt+a3kGbM8kL9LmHfYU98EUDUB1dsWHkYr2IUZVKkwXD82MsGBQ2kr4pPhmd3nHDmyA3V6yz77IDLoeEokujriIi+HwzaiIiIUiHyzVH0qDQQZ8MiAbTAQR8H9KucU5pNo6gAB8zs0x+rb3zCoE3e2DvOSppFZ3c3dkXz1VGYMOkXzBzTDkXzfI8Ry138XqwVlgZ9AQAsPv8Zczro1l4WHfIE/0zpgYk7H6P2tHO4ubIjckszERF9pzimjYiIKBVCvT2VARtgatsRtpUMpVm0ymneFks2LIaNYQ4UMc0rTU6WSk16onO+h1g1uQNKWVTF2BWn4B8cI82m1yJ8vXE95Jvy2Vg0r5dPkkM7Q5PKmLDyTwwqkBsFzMwYsBFRlsKgjYiIKBXcXc6q/q7ctRGsDJLXwmVcowG6FcqHSmWKS5OSpaDtKBz2eAb/27swvi6wZWZ3lCtkiaGLDuFh0PcRvL2+64AbEdEAgPI9GqGCWfLK0rBwPbTqag7r8iWkSURE3zUGbURERCnmj4fOb1TP2terqpaqm9wwtmiHssXT4l9ybpRpMBTr7B8j8P5JzO2fH7vn94dNsZLoMmYtnF/FtmLpo3A8undb9ax606oolcwAGMgN0yK5UaEMgzYiylrS4j8EERFRthT5xg0XrnxQPrNDveqFJDl0URCmRYxhbCzdnjpFbe2w6IAXQl87YdW4WnDbNhVNy1qi/sDluPz0kzS7HvDCzcPvVM+a16ullqobYxjny4c8aVyWRESZjUEbERFRCqmPZ2sEK4uU/FsNwnu3yiiRJi1tCeUr1Ry/bDqHt+9csHFmI7w/9BvaVC4Mm05Tse9WXCthZovw9cb1V6HKZ2NR30b3sYFxQvDer1IatVoSEekPfqsRERGl0KO751R/JzWeze/qeTwOSzhhc0yoDJ+alUch7S9NEznN62HCsuN4EfgYx1aOQJTH3xjcuDQqthqB7ZdfI1z6ggz25v51ncezffa4AOdXirzqQvDpTQWUL83qDRFlLfxWIyIiShF/3HV6rXqW+Hg2f5z88zSCNARtOfK3wT8Hh6Vg/FbKGBa2Qs9p2/H4+VucXf8jSj7Zi1FtyqCSzQCsPnYHn6MSHmP6C8fDO06qZ4mPZwvHtQNL8Vjj5CqV8KvjUlTPoe21RETfJwZtREREKRAV8ABOTh+Vz+xQv5b28WwRvtdxPrK61tYjA92WdUtTBsbF0OmnDXDyC4LL8eWwjTqFab3roUSVTpi7/To+RGZk8PY03ng2c7RvpH08m5C74fLBmqhRRXP3ycwoSyKi9MagjYiIKAW+eLni2NcIQDmerXIZbf9Sw3Fx60rk7FA7kdajzGOQ0wT1e8zAae938D63Fp3zPcT/RjVHyTKtMGndRY2tg2ktwtcj3ni27loDMgB4tG8DLrVvCeu82sqbiCjr4TceERFRCsQfz1a9p6bxbOEIfu+J7dN7YeRyjxTOhpiRTGDVcVK8td4C8PfkDiiW1wJDFx2C75f0C97ij2ez7NMIVc0SVk/CZH44u2oIOo05iMaNqqKANAMRURZmIIRIv29hIiKiLMkf67o0xOSzcVPUJ24snD7+g+aFEgYj+krI/bB9al+M3uQGABi+1Qc7RlWWZksD4bD/rSa6LfOWJmhhiy133TC6tpE0gYgoy/p+/nsQERHpCel4tgMPPyA4OFjt8fTeFRz8ewLq5MyR5GyI+iT6oyf2LxmEcvksMHqTGyq0HI4tZ55gXboEbEgwnm35+cAEZfna+zZO7VuAtqVyAeiABjX1b+BapN8lTGxrCdsfDuADfw4nojTGoI2IiCiZpOPZaloXgqmpqdqjYs2W6PfzGiyYXjmJ2RD1Q1SAG/6Z1RMWxWpi0Jz9KNh+MvbefI1nV3ZgdOdK6dYdUTqerWG9wgnKspRVA3QbOB9/LeoKm3GNUF4PZ4d0PTgb6x1fwP/BS3wEozYiSlsM2oiIiJIp6fFssXIjj3G+RGdDzGwffS9i9fhOKFmiAX5cfgvF+y2Fw6MP8Dq3BoMalZJmT3O6jGeLZZC7AJo2q51uAWRq1O+/EutWbIH96UmJXA9ERCmj/ZuRiIiINFBfn61FzcTXZ3vo2iDR2RAzS5DHKcwbYIMiFTtg2uZ7qDdqDW74P4fr/ploY11Ymj2dqK/PVq1hVRTRGu+E47nXS9SxLiFN0AtG5Zpj4q+j0aRMXmkSEVGqMWgjIiJKBul4tsTWZxNRQQiz6YBaejQBySuX/zCpqzWK1eyOxQdD8cPCg/AKfIszWyZnQsCh+/psQAACI3ujWS39G89GRJTe9Oe/CBER0XdAOp5N+/psgEHOOpi53E4PuvOFwOf8OvS1LYOyDYdh0x1gzPKT8Pv0HP/N64dqRbV/hvQkHc+WeItkWYxcOZFdD4koW+KU/0RERMngvKI+ms5UTIPfbMFVXJvfQppFb4ioELjZb8biWQtg7xOGvBU64JffZ2PyD01RxCjzg58XR8fDss9mAIBlnx1wOTQ8ke6Ruon+6Il9+x0QJIqhRZ9BqFMiLiD96OuEs+fuIjBMwLBwObTt1As28dKFPBBu58/g+tNPAHKjfNOe6NqoFHKrcqgTUYG4fuQo3F59g3md/hjSurQ0CwAgJtQP9keO4WlQAdTq0QutK8W1zkYFeOL4OUf4B8XAwNgc9Tt2RtN46UREYEsbERFRciRnPFvmEfJAnNswFR2qFUeDnjNxOao9Vh11wzvvc1g8spleBGzJG8+mm5jQG5jS/zgq9B6BhrnsUbdkI2x1j0RM6BNsn9IT044GwrbLcIwaMwQ1gg+hesnaWHntCwDgveMSdB+5Ca/Mm2PUmFHo394E+/tXRH0tU/jHhN7BvL6/4XnZdhja3gQ7O1tg0AZPaTYA/tgwcjZiGgxF76p+GGBVFXNPBgEIwZmFfTBg2S0Ub9Afo8YMQaO8TuhlVQTjdj2R7oSIsjtBREREOol8by965cslAAjATpzyi5JmyVRRspfi2MoRwqqEoQAgKrQcLrY5vhJyaUa98ED8VsFEWZbm4m/nCGmGZHNe20+sd1Hs55vLKgFA2Iz7S6waNVqc8AlVyxslcxAjTIxF+R7/iIuHfxb9F5wXIZExankcFlQTADQcm1ycntVFbLmr2B4Tdl1MMMsr8lv9Ibxj1Pfx5uRkMf2AvxBCiIjXR0TnPEaiWJP5Yu3iAWKZvWJ7nAdiYf3CApghPKPV90NE2Rtb2oiIiHSUnPFsGe3FySmwKGSBXtN3IKftRNUaayNbl9bavS8zJW88my68cPlSbbStp5ioRBYUoNi6eR+Mhi5F98r51HIbmpjCJKchXp6YgOkn62Ll7+1RMKekqc9IcX4fPH2htjnC9wj2RU3ED7WNAAByT1cckYWhWPUSKIz4+wjBZftvaN+qJAAg+mMA/COiEei8CU/KLMTMLmXi5Y3PGy9exkg3ElE2pj//bYiIiPScu8tZ1d+Vuya2PltmyAWboUvh+ORjhq2xlhqv7zqo1mcr36MRKpilrizlntdw27ah6pw88rgMAGg/ewXGNi8iyQ1E+Hrjzhc5jMzH4c/lQ1A6QZfREAS/lwMAKpYur5Zy58xe1O7WWhkMh8Px9B4ECYFefdqodfGMDrkD55AmqKqc6OWttxu8omNg2WcZfhtaKS6jkpDL8P5pGIDiMEttX1EiylIYtBEREWkRJpNBJpMh+L0PLuychpnz3VVpb+9exelbDxGgzCOTyRCu9uqMZdF9Bc7umKk2yYU+iQkNUZbTS7ieWIFxv+xTpcle3IbjOXf4B8cryyi1lyfJuMaPOL0gdlIYfzx0fgOgBX4Y1ERjS+NHb0/ciIiGdZ9OaFEyYSufkD/A5T1vANihSiX19EY/nsX05opWtuiQGzj292MAw9CumaJFLZahSRts3DsMpQwMAITj0b3bAIDeAzort6mLbbGz7NMIlgUSphNR9sWgjYiISIOogDMYUtocZmZmKFSiAxbvuw/TVi3Rpl1rtGnXGlbR17BqXAcUNzODmZkZzMx64PCjZEYa2YYX5tQspyynhhiz9gJE1aaqsqxT7Cl2LB6AcoViy7IKVlz4LN1JkgyUS7hFvnHDhSsfYGTeADUqJgzIgHDcvXEKANChVSONQV1cANUTtSXdYGPfBwACnE5jR4gcDacN0Bj8xeX1Uq5JZ4emtTQvXu5+4yyChECDlrU1BnVElH1xyn8iIiLKUt6dmYmSXVegyrD9cN05QMM6eV74vWJTLPWtid0PHTCkasIFux3/qIe2s+9g2CZv7BxnJU1W8se67o0w+VQ0/nR6pWp900TuuRH1ak/Ea5sluH1vpoautV5Y1KAl5rvaaD0mIsq+2NJGREREWUrseLbmrWprCNjiJkExMm8JWw0ToAj5DZzZ6gPADr3aVVRuDcHDO2/VusDKPe2x5cx7mNqOR9dGiiArJtQPni++xculEDuerZqWsZByz2s4fDcYpTsOQCtrxTHFhPrB51XCfRFR9sOgjYiIiLIQLziffAHAFvWqW0gTAbXxbLVQOUfCAErmcg17XoaiyrCBaGyhCKAifO2x4OADtXx3HY7BKzoG3ScMRBXlRCYvzy7AHvfYWTFjhcD9hjMAoHEta0kaAITD4fBWeEXHoPOA1qqukY+P/Ya9nuxyS0QM2oiIiLKIcNUkHmn/CJO+md6KfOMDlwefYWTeAfVtNHUxTHo8m7vzAQQJgW7dWitngwzH9YMn0LJv7IyRAOAFx4P3AXRA51YVlNv8ceZIIfRuJ52t8hnczwYmMp7tKW7ufw7ADl2axe7LC8cPl0ev5vkleYkoO2LQRkRElAU4r2imnMQjPR55MWLbE+lb6qUP911xNiwSFTrWgkWuhK1owFO4Xw4C0AI1rDXPtJknvzkAoFhRMwCAzHUD/g0bjaH1449ZKwjT4rkB2MJaOdnJo70r4dd9HBoUVK9eyT1dcPrlF5jaNoKVheaql3HhnACqwKJ8DsUyAn/MRtjwCahZQHN+IspeOBEJERFRFhAd4gcXd18oVhZLa6ao0bQWiiRYy0z/3N3YFXV/uoPfj7hhSe+Ei1dHBZxB/wq9cM1mIW7c0jQhCBD98TpmDhgGl+L90bXkc1wM7IxdG4eidB71vDLX1bDruRWlB41A2c/XIas2B39Oqp9gHN2ni7NQuMNydF92GydmNpCkKij2tRsVhg6Cif8l5Oy8HksGV9bYEkhE2Q+DNiIiIsoyRJQcIaFy5DE11RrwhMlkiDA2gYlxwoAtTriyW2humJrmkSaqCHkIQuQiiXyKfeXJb4rcmnpsKsXuyyCnCUzyJ3ZsRJTdMGgjIiIiIiLSY+woTUREREREpMcYtBEREREREekxBm1ERERERER6jEEbERERERGRHmPQRkREREREpMcYtBEREREREekxBm1ERERERER6jEEbERERERGRHmPQRkREREREpMcYtBEREREREekxBm1ERERERER6jEEbERERERGRHmPQRkREREREpMcYtBEREREREekxBm1ERERERER6jEEbERERERGRHmPQRkREREREpMcYtBEREREREekxBm1ERERERER6jEEbERERERGRHmPQRkREREREpMcYtBEREREREekxBm1ERERERER6jEEbERERERGRHmPQRkREREREpMcYtBEREREREekxBm1ERERZwN2NXZGvYkdMX3cRQWFCmkxERN8xBm1ERERZQKUmPdE530OsmtwBpSyqYuyKU/APjpFmIyKi7xCDNiIioiygoO0oHPZ4Bv/buzC+LrBlZneUK2SJoYsO4WEQgzciou+ZgRCCfSiIiIiymCCPU/h76e9YfPAhAHN0Hv0bfp83Bk3K5JVmJSIiPcegjYiIKAv7+uYaNi9eimX/XkCQKIZ6A6Zi2aIxaF2pkDQrERHpKQZtRERE2UBUgBu2rPkDS/88iVcxAtU6TsHv86ZjUKNS0qxERKRnOKaNiIgoG8hpXg8Tlh3Hi8DHOLZyBKI8/sbgxqVRsdUIbL/8GuHSFxARkd5g0EZERNmekIfA6/YVeL74lOWDF8PCVug5bTseP3+Ls+t/RMknezGqTRlUshmA1cfu4HNU+nfAyU7lTUSUFhi0ERFRtuZ9Zi669pqKw9fcsXVqfVRrNQu3kphtUea6AR1qVMOMo6+kSd8NA+Ni6PTTBjj5BcHl+HLYRp3CtN71UKJKJ8zdfh0fItMneMuu5U1ElBoc00ZERNnWi6PjMd1rEHbOb44CAMJcVyNvg2mo+9MJXF7fHQWkLwAA+GNdl4aYfPYdak87h5srOyK3NMt3KQQ+53dhzsw/ccTzNYzMW2D8779j7ph2KJrHQJo5RVjeREQpw5Y2IiLKliLf2GPWxvL4Y14zVbAg/xICALizwR0vYzT/phn5xg0XrnwAADStVy0LBRAmsOo4Kd5abwH4e3IHFMtrgaGLDsH3i+by0BXLm4go5Ri0ERFRtuR68C+U+3EkrAziWpEeeTgDAIzMDZBLS+PSh/uuOBsWCcAW1SsVlyZnAblRpsFQrD1yHlvH1wPgh93z++N/h55KMyYLy5uIKOUYtBERUbYj5DdwdFtd9OlUJN5WLzgevA8AqDu8EcrHCy7ie+RxGQBgZN4DDWrmlCZrEQL3XRNR1nAm3CI0tyjpi+iPnti/ZBDK5bPA6E1uqNByOLaceYJ1oypLs+qM5U1ElDoM2oiIKNsJf+SGO91awTZv3L/BYKdTWO/2CYAtRvZrraUbnhecT74AAFQf0hCVc2gONIBwyGQvcefqZRze+Rv62tqgzvD1eANV08UAAAnISURBVBUjh8iA2RlTIirADf/M6gmLYjUxaM5+FGw/GXtvvsazKzswunMlLePNdMPyJiJKHQZtRESU7RjXnopryzrECxTC4exwBEFCwNR2AJrV0tyiE/nGBy4PPgMA6teqqiXQAKICrmPd0sNwcnuOXGX7YOXq8dIseuOj70WsHt8JJUs0wI/Lb6F4v6VwePQBXufWpNnC2yxvIqLUYdBGRETZnpC74ewGHwBAsx9aq427ii9ufFULtKpXUpqsktO8LeYt/xXTfh2N7q3roFiBPNIsmS7I4xTmDbBBkYodMG3zPdQbtQY3/J/Ddf9MtLEuLM2eprJjeRMRpQaDNiIiyvZkzpfwT/A3ALawa1VLmqwSN76qJawrGkqTvwuvXP7DpK7WKFazOxYfDMUPCw/CK/AtzmyZjCZl8kqzp4vsVN5ERGmBQRsREWVz4XB2OAQAiXbV0318lT4Kgc/5dehrWwZlGw7DpjvAmOUn4ffpOf6b1w/VimZkdSA7lDcRUdrKyG9pIiIiPfQUNw+/AwBU79lIa1e9+OOrvpf1wkRUCFxPrEC3KiVQpdNknP1aDXO2XcPbV4/w7ww7lDXLjGpA1i1vIqL0khnf1kRERHoj8o0PPN5+AwDUqmIpTVYJ9fZUja9qUquEanvkm6PoN+IgvqjlzlxCHohzG6aiQ7XiaNBzJi5Htceqo254530Oi0c2QxEjzYFSRsiK5U1ElN4YtBERUbYm5HJ8jo4BAFQqo33xZneXs4CG8VUf7rvCqGHNVE2Jn1aiQ/xwfNVIWFuWROef/8LzkgOwzfEVPj07gV961UXBnJkXrMXKSuVNRJRRGLQREVG2ZmBsjIKGSf07jBtfZdG2CkqouvSF4+7te2hVT3uLUUZ5cXIKLApZoNf0HchpO1G1xtrI1qX1qmthVinvlAmHTCZDuHQzEVESkvrWJCIiytKMSpWHbUnFrInyKGkqAITD8Y/Z+MdfBgAoVKkEiihjCCF3w5WrbRKZTCMj5YLN0KVwfPIxTddYS2tZp7yT7+a6njAzM8OIDZ7SJCKiRDFoIyKibK4Ohizpj6IGBjh6ylHSChIC920/Y2PkNFze9BMAICYyLvXRvg34Nn6g1sk0MpJF9xU4u2MmWlcqJE3SM1mjvFOipFVdjJ6wHD91riZNIiJKlIEQQkg3EhERZS/huLlhNAZMuoTqI3/B0J51kCPQAYf/9YD1z8vx+6DqyI0QnFk4BKM3fcHoJdNR7dN+bHloh/+290OpJIKIMNfVyNtgGoBJcPm6BvXzZvffTFneRETJwaCNiIhISUTJ4et1G/7BMTA0LYeG1Ssgt6Qn3rcPPrj/4A1yFq+J+ta6tWoxiNCM5U1EpBsGbUREROmMQUTGSl55h+CpiztefTNB9Ya1UDSPohUv+qMPXDzfQA4gvyRgTCxNk4++LvDw/4oCpWuinpbuq7F5ilZsiOplFGP+RFQIHt5xR2CYQI48xVG7rrVezABKRBkvsW8xIiIioiwsBEcmDcL2Z0aQOU1DsbydcPDRR9zcMBp9Zp3HR2NzlC8RioNjK6Fiq7/wQoSo0oJNy8Gq5Ff8N7QCbH/YhQ8afwIPx+UVfTFpqx9MjJ7hF5tiGLHtiTQT3p2ZieF/+SDXV2cMsiiAEds8EXh3Kwb1moqbb3OhlEVJvLWfjCKlW+E/T42ztxBRFsegjYiIKEtQTCefPo8w6ZtlCXLPvdgY/AOmDWqKmlXLA7iAKW3qYqN8LA5smYxujarBsoodOncqBd+rUzG4cU9VWpdaFVDKqht69iwDzz0bcfZBwmBK5roB61/0wYo/+qJGmcIoaJgDd9weSRYG98LW5a/w86+D0aBWVZTNZYi9szugzYIPmLt3K8b2agKr8lXQ064TIgOcsO/cXbVXE1H2wKCNiIgonb176af8ywOPvb9JUtOG84pmMDMzS6dHXo0tRPpK1/J2v2qP6l2boIgB8O7lQwCAVY9lWP5LPfW17SIVi4EXqDtZkhaOsC+RAMIRESVtaguBw54zaDOiC0oZGOCJ01GcDYtE3XpV1RYGl3tew5VydqhTxhDRAf5wk0chX/Hu+HPdr6haIF41LUoxz+b3udgBEaUWx7QRERGlubv4vVgrLA1Sb1ORKtl2I1wvjk9yNkRdRIf4wcXdF3JpQpowRY2mtVDEKPXHmT5SVt4iSo6InMbIDX+s69IQk8/WwIGH9uhfNX5oFJtWDyd9j8HO0jBemhcWNWiJNeFDcO7KajQ0U/8tPCZUjhz5jVX5/ufXBqdd96FD2fj7AORyAWNjAzzc3hs2o45h2CYP7BxXQy3PzXXt0GTyA8w58QCLuxdVSyOirI9BGxEREWVr0SGOGFOuKy41WoPbZ8epBdGRb46iR6WB8GyxLkGa3HMj6tWeiNyjj+LKph5qLWjxBTv9AatWc1B98lmcWNNRS74QHJlUD33/tsRBH3v0q5wwcJx+t5nGoI+Isj52jyQiIqJs7fOda9gRIodNQ2sUkbR6hnp74mxYJOq1rZ2gRfSuwzF4RVdHj55NUABAqJ8rngYpulLGCYezwxEEiXroNbApCgD44OOCV1/UfzMX8ge4vOcNTG0bwqqMpCXO0x5bLgTAul1P1CljCCEPhIf3J7U8RJS1MWgjIiKibO3xw5sAbNG0aVX1sWwA3F3OArBFnZoWatuF/AaOrneFqW1LtKldGEAITiyZhYsv1MfQRX90wP61j1C64wh0rpcPgBc2Dl2EW++i1fKFP/HE9c9y1GnbCJbKZQdiOdvvgFd0dfQd0kYx/u7iH5h39CkUo9yIKDtg0EZERETZmD/uXHgIoBxqJFhDzR8Pnd8AqIn61dXToj4GwOe9HKUbtoRN0RyQ3dyAY4bj0KNePrV8kX5PcCk0ArYta8HCwACPDv6Nu80noZNa90fA944jvKJjUKmWtaT7ZCBeeAUCaIDm9QojJvQONq4PxKiBdRMEmESUdTFoIyIiomxLyP3hfSsEVl07oXYZ9WpR9McHcLn+CVZdG6JqUfU0o1LNMGJcc/ic2ITF88bih78MMWdR3wRdKI1r98bq0bZwOb4Js2cMxbzbTbB6XntJYBaOF08fwci8A1rVK6mWAhRDnymT0azkaaxbPBejBq9GmTnrJBOiEFFWx4lIiIiIKFsLk8kQYWwCE+OEs2OGyWTIkd8UubXMtR8mkyEcuWFqmkeapCapfEIeghB5riTSBfIkcixElHUxaCMiIiIiItJj7B5JRERERESkxxi0ERERERER6TEGbURERERERHqMQRsREREREZEeY9BGRERERESkxxi0ERERERER6TEGbURERERERHqMQRsREREREZEe+z+A9faHiL7/3QAAAABJRU5ErkJggg==;" vertex="1" parent="1">
          <mxGeometry x="880" y="371.56" width="308.65" height="186.88" as="geometry" />
        </mxCell>
        <mxCell id="2dmJKJk6RMaou3IX4uly-7" value="" style="curved=1;endArrow=classic;html=1;rounded=0;exitX=1;exitY=0;exitDx=0;exitDy=0;entryX=0;entryY=0;entryDx=0;entryDy=0;" edge="1" parent="1" source="2dmJKJk6RMaou3IX4uly-3" target="2dmJKJk6RMaou3IX4uly-5">
          <mxGeometry width="50" height="50" relative="1" as="geometry">
            <mxPoint x="690" y="520" as="sourcePoint" />
            <mxPoint x="740" y="470" as="targetPoint" />
            <Array as="points">
              <mxPoint x="590" y="270" />
              <mxPoint x="800" y="300" />
            </Array>
          </mxGeometry>
        </mxCell>
        <mxCell id="2dmJKJk6RMaou3IX4uly-8" value="" style="curved=1;endArrow=classic;html=1;rounded=0;exitX=0;exitY=1;exitDx=0;exitDy=0;entryX=1;entryY=1;entryDx=0;entryDy=0;" edge="1" parent="1" source="2dmJKJk6RMaou3IX4uly-5" target="2dmJKJk6RMaou3IX4uly-3">
          <mxGeometry width="50" height="50" relative="1" as="geometry">
            <mxPoint x="480" y="731" as="sourcePoint" />
            <mxPoint x="862" y="731" as="targetPoint" />
            <Array as="points">
              <mxPoint x="770" y="650" />
              <mxPoint x="600" y="660" />
            </Array>
          </mxGeometry>
        </mxCell>
        <mxCell id="2dmJKJk6RMaou3IX4uly-12" value="&lt;font style=&quot;font-size: 24px;&quot;&gt;Catalyst gets Saturated&lt;/font&gt;" style="text;html=1;align=center;verticalAlign=middle;whiteSpace=wrap;rounded=0;" vertex="1" parent="1">
          <mxGeometry x="590" y="250" width="170" height="60" as="geometry" />
        </mxCell>
        <mxCell id="2dmJKJk6RMaou3IX4uly-13" value="&lt;font style=&quot;font-size: 24px;&quot;&gt;Catalyst gets De-saturated&lt;/font&gt;" style="text;html=1;align=center;verticalAlign=middle;whiteSpace=wrap;rounded=0;" vertex="1" parent="1">
          <mxGeometry x="585" y="620" width="180" height="60" as="geometry" />
        </mxCell>
      </root>
    </mxGraphModel>
  </diagram>
</mxfile>
